<?xml version="1.0" encoding="UTF-8" standalone="no"?>
<svg
   xmlns:dc="http://purl.org/dc/elements/1.1/"
   xmlns:cc="http://creativecommons.org/ns#"
   xmlns:rdf="http://www.w3.org/1999/02/22-rdf-syntax-ns#"
   xmlns:svg="http://www.w3.org/2000/svg"
   xmlns="http://www.w3.org/2000/svg"
   xmlns:sodipodi="http://sodipodi.sourceforge.net/DTD/sodipodi-0.dtd"
   xmlns:inkscape="http://www.inkscape.org/namespaces/inkscape"
   width="400"
   height="400"
   viewBox="0 0 400 400"
   version="1.1"
   id="main-svg"
   inkscape:export-filename="D:\temp\temp.png"
   inkscape:version="1.0.2-2 (e86c870879, 2021-01-15)"
   sodipodi:docname="BlueButtonSuits.svg">
  <defs
     id="defs1046" />
  <sodipodi:namedview
     pagecolor="#ffffff"
     bordercolor="#666666"
     borderopacity="1"
     objecttolerance="10"
     gridtolerance="10"
     guidetolerance="10"
     inkscape:pageopacity="0"
     inkscape:pageshadow="2"
     inkscape:window-width="640"
     inkscape:window-height="480"
     id="namedview1044"
     showgrid="true"
     inkscape:zoom="11.313709"
     inkscape:cx="41.356663"
     inkscape:cy="350.79292"
     inkscape:current-layer="main-svg"
     inkscape:snap-global="true"
     inkscape:snap-text-baseline="true"
     inkscape:snap-center="true"
     inkscape:document-rotation="0">
    <inkscape:grid
       type="xygrid"
       id="grid1048"
       spacingx="50"
       spacingy="50" />
  </sodipodi:namedview>
  <metadata
     id="metadata7">
    <rdf:RDF>
      <cc:Work
         rdf:about="">
        <dc:format>image/svg+xml</dc:format>
        <dc:type
           rdf:resource="http://purl.org/dc/dcmitype/StillImage" />
        <dc:title></dc:title>
      </cc:Work>
    </rdf:RDF>
  </metadata>
  <path
     d="m 57.875002,73.953125 q 0.65625,5.15625 3.1875,10.03125 2.625,4.875 2.625,5.53125 0,2.90625 -13.6875,2.90625 -13.5,0 -13.6875,-3 0,-0.75 2.53125,-5.90625 2.625,-5.15625 3.28125,-9.5625 -4.96875,2.625 -10.5,2.625 -14.625,0 -14.625,-15 0,-5.625 4.6875,-14.34375 4.78125,-8.8125 10.5,-16.125 5.8125,-7.40625 11.34375,-14.4375 5.53125,-7.125 6.46875,-9.09375 l 8.25,11.4375 q 24.749996,30.75 24.749996,42.46875 0,15.09375 -14.624996,15.09375 -5.53125,0 -10.5,-2.625 z"
     style="font-style:normal;font-variant:normal;font-weight:normal;font-stretch:normal;font-size:96px;line-height:100%;font-family:'cwTeX Q Fangsong';-inkscape-font-specification:'cwTeX Q Fangsong';font-variant-ligatures:normal;font-variant-position:normal;font-variant-caps:normal;font-variant-numeric:normal;font-variant-alternates:normal;font-variant-east-asian:normal;font-feature-settings:normal;font-variation-settings:normal;text-indent:0;text-align:center;text-decoration:none;text-decoration-line:none;text-decoration-style:solid;text-decoration-color:#000000;letter-spacing:0px;word-spacing:0px;text-transform:none;writing-mode:lr-tb;direction:ltr;text-orientation:mixed;dominant-baseline:auto;baseline-shift:baseline;text-anchor:middle;white-space:normal;shape-padding:0;shape-margin:0;inline-size:0;fill:#000000;fill-opacity:1;stroke:none;stroke-width:5;stroke-linecap:butt;stroke-linejoin:miter;stroke-miterlimit:4;stroke-dasharray:none;stroke-dashoffset:0;stroke-opacity:1;paint-order:stroke fill markers"
     id="path1091" />
  <path
     d="m 132.375,12.6875 q 5.4375,0 10.21875,2.25 4.875,2.25 7.40625,5.53125 l 0.375,-0.375 q 7.96875,-7.40625 17.25,-7.40625 19.5,0 19.5,21.09375 0,26.15625 -37.125,53.53125 0,0 -3.1875,-2.0625 -3.1875,-2.15625 -6.28125,-4.40625 -3,-2.25 -7.6875,-6.84375 -4.59375,-4.59375 -8.53125,-9.84375 -11.4375,-15.375 -11.4375,-30.375 0,-21.09375 19.5,-21.09375 z"
     style="font-style:normal;font-variant:normal;font-weight:normal;font-stretch:normal;font-size:96px;line-height:100%;font-family:'cwTeX Q Fangsong';-inkscape-font-specification:'cwTeX Q Fangsong';font-variant-ligatures:normal;font-variant-position:normal;font-variant-caps:normal;font-variant-numeric:normal;font-variant-alternates:normal;font-variant-east-asian:normal;font-feature-settings:normal;font-variation-settings:normal;text-indent:0;text-align:center;text-decoration:none;text-decoration-line:none;text-decoration-style:solid;text-decoration-color:#000000;letter-spacing:0px;word-spacing:0px;text-transform:none;writing-mode:lr-tb;direction:ltr;text-orientation:mixed;dominant-baseline:auto;baseline-shift:baseline;text-anchor:middle;white-space:normal;shape-padding:0;shape-margin:0;inline-size:0;fill:#000000;fill-opacity:1;stroke:none;stroke-width:5;stroke-linecap:butt;stroke-linejoin:miter;stroke-miterlimit:4;stroke-dasharray:none;stroke-dashoffset:0;stroke-opacity:1;paint-order:stroke fill markers"
     id="path1093" />
  <path
     d="m 271.00002,39.96875 q 5.71875,0 9.84375,1.6875 4.125,1.6875 6.1875,4.59375 2.15625,2.8125 3.09375,5.8125 0.9375,3 0.9375,6.375 0,8.90625 -5.71875,15 -5.625,6.09375 -13.78125,6.09375 -4.6875,0 -8.90625,-2.15625 -4.21875,-2.15625 -6.28125,-5.8125 0.1875,6.84375 5.8125,16.875 l 0.5625,1.125 q -0.5625,2.71875 -12.75,2.8125 -12.75,0 -12.9375,-2.8125 l 0.5625,-1.125 q 0.1875,-0.375 1.03125,-2.15625 0.9375,-1.78125 1.125,-2.15625 0.1875,-0.375 0.84375,-1.78125 0.65625,-1.40625 0.75,-1.78125 0.1875,-0.46875 0.65625,-1.59375 0.46875,-1.21875 0.5625,-1.78125 0.0937,-0.65625 0.375,-1.6875 0.28125,-1.03125 0.375,-1.96875 0.0937,-0.9375 0.0937,-1.96875 -2.25,3.75 -6.375,5.90625 -4.125,2.0625 -8.8125,2.0625 -8.625,0 -13.96875,-6.28125 -5.34375,-6.28125 -5.34375,-14.8125 0,-5.53125 1.875,-9.375 1.96875,-3.9375 5.15625,-5.71875 3.28125,-1.875 6.375,-2.625 3.09375,-0.75 6.65625,-0.75 1.3125,0 6.75,1.125 -5.625,-8.53125 -5.625,-15.28125 0,-18.1875 19.875,-18.1875 19.6875,0 19.6875,18.28125 0,2.34375 -0.75,4.96875 -0.75,2.53125 -1.5,4.125 -0.75,1.5 -1.96875,3.5625 -1.21875,2.0625 -1.40625,2.53125 3.375,-1.125 6.9375,-1.125 z"
     style="font-style:normal;font-variant:normal;font-weight:normal;font-stretch:normal;font-size:96px;line-height:100%;font-family:'cwTeX Q Fangsong';-inkscape-font-specification:'cwTeX Q Fangsong';font-variant-ligatures:normal;font-variant-position:normal;font-variant-caps:normal;font-variant-numeric:normal;font-variant-alternates:normal;font-variant-east-asian:normal;font-feature-settings:normal;font-variation-settings:normal;text-indent:0;text-align:center;text-decoration:none;text-decoration-line:none;text-decoration-style:solid;text-decoration-color:#000000;letter-spacing:0px;word-spacing:0px;text-transform:none;writing-mode:lr-tb;direction:ltr;text-orientation:mixed;dominant-baseline:auto;baseline-shift:baseline;text-anchor:middle;white-space:normal;shape-padding:0;shape-margin:0;inline-size:0;fill:#000000;fill-opacity:1;stroke:none;stroke-width:5;stroke-linecap:butt;stroke-linejoin:miter;stroke-miterlimit:4;stroke-dasharray:none;stroke-dashoffset:0;stroke-opacity:1;paint-order:stroke fill markers"
     id="path1095" />
  <path
     d="M 385.25,50.09375 350,93.875 314.75,50.09375 350,6.125 Z"
     style="font-style:normal;font-variant:normal;font-weight:normal;font-stretch:normal;font-size:96px;line-height:100%;font-family:'cwTeX Q Fangsong';-inkscape-font-specification:'cwTeX Q Fangsong';font-variant-ligatures:normal;font-variant-position:normal;font-variant-caps:normal;font-variant-numeric:normal;font-variant-alternates:normal;font-variant-east-asian:normal;font-feature-settings:normal;font-variation-settings:normal;text-indent:0;text-align:center;text-decoration:none;text-decoration-line:none;text-decoration-style:solid;text-decoration-color:#000000;letter-spacing:0px;word-spacing:0px;text-transform:none;writing-mode:lr-tb;direction:ltr;text-orientation:mixed;dominant-baseline:auto;baseline-shift:baseline;text-anchor:middle;white-space:normal;shape-padding:0;shape-margin:0;inline-size:0;fill:#000000;fill-opacity:1;stroke:none;stroke-width:5;stroke-linecap:butt;stroke-linejoin:miter;stroke-miterlimit:4;stroke-dasharray:none;stroke-dashoffset:0;stroke-opacity:1;paint-order:stroke fill markers"
     id="path1097" />
  <path
     id="path1204"
     style="font-style:normal;font-variant:normal;font-weight:normal;font-stretch:normal;font-size:96px;line-height:100%;font-family:'cwTeX Q Fangsong';-inkscape-font-specification:'cwTeX Q Fangsong';font-variant-ligatures:normal;font-variant-position:normal;font-variant-caps:normal;font-variant-numeric:normal;font-variant-alternates:normal;font-variant-east-asian:normal;font-feature-settings:normal;font-variation-settings:normal;text-indent:0;text-align:center;text-decoration:none;text-decoration-line:none;text-decoration-style:solid;text-decoration-color:#000000;letter-spacing:0px;word-spacing:0px;text-transform:none;writing-mode:lr-tb;direction:ltr;text-orientation:mixed;dominant-baseline:auto;baseline-shift:baseline;text-anchor:middle;white-space:normal;shape-padding:0;shape-margin:0;inline-size:0;opacity:1;vector-effect:none;fill:#000000;fill-opacity:1;stroke:none;stroke-width:1;stroke-linecap:butt;stroke-linejoin:miter;stroke-miterlimit:4;stroke-dasharray:none;stroke-dashoffset:0;stroke-opacity:1;paint-order:stroke fill markers;stop-color:#000000;stop-opacity:1"
     d="m 57.875,118.35938 c 0.5,0.8125 2.0625,2.875 4.6875,6.1875 2.6875,3.3125 5.59375,7.1875 8.71875,11.625 3.125,4.4375 5.71875,8.71874 7.78125,12.84374 2.625,5.0625 3.9375,9.21876 3.9375,12.46876 0,10.0625 -4.875,15.09374 -14.625,15.09374 -3.6875,0 -7.1875,-0.875 -10.5,-2.625 0.4375,3.4375 1.5,6.78126 3.1875,10.03126 1.75,3.25 2.625,5.09374 2.625,5.53124 0,1.9375 -4.5625,2.90626 -13.6875,2.90626 -9,0 -13.5625,-1 -13.6875,-3 0,-0.5 0.84375,-2.46876 2.53125,-5.90626 1.75,-3.4375 2.84375,-6.625 3.28125,-9.5625 -3.3125,1.75 -6.8125,2.625 -10.5,2.625 -9.75,0 -14.625,-5 -14.625,-15 0,-6.31957 4.585234,-15.84395 13.734375,-28.55859 l 10.828125,-14.00391 8.25,-11.4375 z m -17.695312,7.98828 38.246093,38.24609 c 0.167719,-0.98336 0.261719,-2.04337 0.261719,-3.20313 0,-6.6875 -5.875,-17.78124 -17.625,-33.28124 l -11.25,-14.53126 c -2.697466,3.74343 -5.965574,8.05634 -9.632812,12.76954 z M 20.75,161.39062 c 0,7.625 3.6875,11.4375 11.0625,11.4375 1.6875,0 3.9375,-0.5625 6.75,-1.6875 2.875,-1.1875 4.625,-1.78124 5.25,-1.78124 1.5,0 2.25,1.125 2.25,3.375 0,3.5 -1.3125,7.96874 -3.9375,13.40624 l -0.75,1.59376 c 0,0.625 2,0.9375 6,0.9375 7.25,0 11,-0.3125 11.25,-0.9375 -2.8125,-5.625 -4.375,-10.1875 -4.6875,-13.6875 v -1.40626 c 0.293484,-1.87829 0.921971,-2.94688 1.876953,-3.22656 L 28.542969,142.14258 C 23.363911,150.11371 20.75,156.5387 20.75,161.39062 Z"
     sodipodi:nodetypes="ccscssccsscccssccccccscccsscssccscccccs" />
  <path
     id="path1206"
     style="font-style:normal;font-variant:normal;font-weight:normal;font-stretch:normal;font-size:96px;line-height:100%;font-family:'cwTeX Q Fangsong';-inkscape-font-specification:'cwTeX Q Fangsong';font-variant-ligatures:normal;font-variant-position:normal;font-variant-caps:normal;font-variant-numeric:normal;font-variant-alternates:normal;font-variant-east-asian:normal;font-feature-settings:normal;font-variation-settings:normal;text-indent:0;text-align:center;text-decoration:none;text-decoration-line:none;text-decoration-style:solid;text-decoration-color:#000000;letter-spacing:0px;word-spacing:0px;text-transform:none;writing-mode:lr-tb;direction:ltr;text-orientation:mixed;dominant-baseline:auto;baseline-shift:baseline;text-anchor:middle;white-space:normal;shape-padding:0;shape-margin:0;inline-size:0;opacity:1;vector-effect:none;fill:#000000;fill-opacity:1;stroke:none;stroke-width:1;stroke-linecap:butt;stroke-linejoin:miter;stroke-miterlimit:4;stroke-dasharray:none;stroke-dashoffset:0;stroke-opacity:1;paint-order:stroke fill markers;stop-color:#000000;stop-opacity:1"
     d="m 142.59375,114.9375 c 3.25,1.5 5.71875,3.34375 7.40625,5.53125 l 0.375,-0.375 c 5.3125,-4.9375 11.0625,-7.40625 17.25,-7.40625 13,0 19.5,7.03125 19.5,21.09375 0,17.4375 -12.375,35.28125 -37.125,53.53125 l -3.1875,-2.0625 c -2.125,-1.4375 -4.21875,-2.90625 -6.28125,-4.40625 -2,-1.5 -4.5625,-3.78125 -7.6875,-6.84375 -3.0625,-3.0625 -5.90625,-6.34375 -8.53125,-9.84375 -7.625,-10.25 -11.4375,-20.375 -11.4375,-30.375 0,-14.0625 6.5,-21.09375 19.5,-21.09375 3.625,0 7.03125,0.75 10.21875,2.25 z m -12.34961,1.59375 43.27734,43.27734 c 0.15516,-0.20756 0.32637,-0.41331 0.47852,-0.62109 5.875,-7.9375 8.8125,-16.46875 8.8125,-25.59375 0,-11.4375 -5.1875,-17.15625 -15.5625,-17.15625 -5.125,0 -10.1875,2.4375 -15.1875,7.3125 l -2.03125,2.1875 c -1.60888,-1.78819 -4.12438,-3.89785 -5.375,-4.90625 -1.25062,-1.0084 -2.8125,-2.15625 -5.0625,-3.09375 -2.1875,-1 -4.59375,-1.5 -7.21875,-1.5 -0.73889,0 -1.44459,0.0357 -2.13086,0.0937 z m -13.43164,17.0625 c 0,9.25 2.84375,18.125 8.53125,26.625 5.75,8.5 13.96875,15.9375 24.65625,22.3125 3.74375,-2.80207 7.18692,-5.62643 10.33984,-8.4707 l -43.38867,-43.38867 c -0.0834,0.93329 -0.13867,1.89669 -0.13867,2.92187 z"
     sodipodi:nodetypes="cccsscccccssccccssccscscsccccs" />
  <path
     id="path1208"
     style="font-style:normal;font-variant:normal;font-weight:normal;font-stretch:normal;font-size:96px;line-height:100%;font-family:'cwTeX Q Fangsong';-inkscape-font-specification:'cwTeX Q Fangsong';font-variant-ligatures:normal;font-variant-position:normal;font-variant-caps:normal;font-variant-numeric:normal;font-variant-alternates:normal;font-variant-east-asian:normal;font-feature-settings:normal;font-variation-settings:normal;text-indent:0;text-align:center;text-decoration:none;text-decoration-line:none;text-decoration-style:solid;text-decoration-color:#000000;letter-spacing:0px;word-spacing:0px;text-transform:none;writing-mode:lr-tb;direction:ltr;text-orientation:mixed;dominant-baseline:auto;baseline-shift:baseline;text-anchor:middle;white-space:normal;shape-padding:0;shape-margin:0;inline-size:0;opacity:1;vector-effect:none;fill:#000000;fill-opacity:1;stroke:none;stroke-width:1;stroke-linecap:butt;stroke-linejoin:miter;stroke-miterlimit:4;stroke-dasharray:none;stroke-dashoffset:0;stroke-opacity:1;paint-order:stroke fill markers;stop-color:#000000;stop-opacity:1"
     d="m 269.6875,125.90625 c 0,1.5625 -0.25,3.21875 -0.75,4.96875 -0.5,1.6875 -1,3.0625 -1.5,4.125 -0.5,1 -1.15625,2.1875 -1.96875,3.5625 -0.8125,1.375 -1.28125,2.21875 -1.40625,2.53125 2.25,-0.75 4.5625,-1.125 6.9375,-1.125 3.8125,0 7.09375,0.5625 9.84375,1.6875 2.75,1.125 4.8125,2.65625 6.1875,4.59375 1.4375,1.875 2.46875,3.8125 3.09375,5.8125 0.625,2 0.9375,4.125 0.9375,6.375 0,5.9375 -1.90625,10.9375 -5.71875,15 -3.75,4.0625 -8.34375,6.09375 -13.78125,6.09375 -3.125,0 -6.09375,-0.71875 -8.90625,-2.15625 -2.8125,-1.4375 -4.90625,-3.375 -6.28125,-5.8125 0.125,4.5625 2.0625,10.1875 5.8125,16.875 l 0.5625,1.125 c -0.375,1.8125 -4.625,2.75 -12.75,2.8125 -8.5,0 -12.8125,-0.9375 -12.9375,-2.8125 l 0.5625,-1.125 c 0.125,-0.25 0.46875,-0.96875 1.03125,-2.15625 0.625,-1.1875 1,-1.90625 1.125,-2.15625 0.125,-0.25 0.40625,-0.84375 0.84375,-1.78125 0.4375,-0.9375 0.6875,-1.53125 0.75,-1.78125 0.125,-0.3125 0.34375,-0.84375 0.65625,-1.59375 0.3125,-0.8125 0.5,-1.40625 0.5625,-1.78125 0.0625,-0.4375 0.18747,-1 0.375,-1.6875 0.1875,-0.6875 0.3125,-1.34375 0.375,-1.96875 0.0625,-0.625 0.0937,-1.28125 0.0937,-1.96875 -1.5,2.5 -3.625,4.46875 -6.375,5.90625 -2.75,1.375 -5.6875,2.0625 -8.8125,2.0625 -5.75,0 -10.40625,-2.09375 -13.96875,-6.28125 -3.5625,-4.1875 -5.34375,-9.125 -5.34375,-14.8125 0,-3.6875 0.625,-6.8125 1.875,-9.375 1.3125,-2.625 3.03125,-4.53125 5.15625,-5.71875 2.1875,-1.25 4.3125,-2.125 6.375,-2.625 2.0625,-0.5 4.28125,-0.75 6.65625,-0.75 0.875,0 3.125,0.375 6.75,1.125 -3.75,-5.6875 -5.625,-10.78125 -5.625,-15.28125 0,-12.125 6.625,-18.1875 19.875,-18.1875 13.125,0 19.6875,6.09375 19.6875,18.28125 z m -35.47852,-5.64453 23.82032,23.82031 c 0.37446,-0.61835 0.94221,-1.42022 1.7207,-2.42578 1.5,-1.9375 3,-4.28125 4.5,-7.03125 1.5,-2.8125 2.25,-5.5625 2.25,-8.25 0,-9.9375 -5.5,-14.90625 -16.5,-14.90625 -8.56533,0 -13.82028,2.93934 -15.79102,8.79297 z m -21.52148,38.83203 c 0,4.875 1.5,8.875 4.5,12 3.0625,3.125 6.6875,4.6875 10.875,4.6875 4.875,0 9.375,-2.4375 13.5,-7.3125 1.5625,-1.9375 2.625,-2.96875 3.1875,-3.09375 1.25,0 1.875,1.125 1.875,3.375 0,6.8125 -1.5625,13.1875 -4.6875,19.125 2.5,0.5 5.1875,0.75 8.0625,0.75 1.5625,0 4.1875,-0.25 7.875,-0.75 -3.125,-5.9375 -4.6875,-12.21875 -4.6875,-18.84375 0,-0.86198 0.082,-1.56394 0.23828,-2.12109 l -23.03906,-23.03907 c -0.62688,-0.093 -1.22266,-0.15234 -1.76172,-0.15234 -10.625,0 -15.9375,5.125 -15.9375,15.375 z m 51.1875,-13.78125 -3.4082,1.20703 23.25586,23.25586 c 0.21326,-0.33324 0.4135,-0.67272 0.58984,-1.02539 1,-2.0625 1.71875,-3.875 2.15625,-5.4375 0.4375,-1.625 0.65625,-3.03125 0.65625,-4.21875 0,-10.25 -5.3125,-15.375 -15.9375,-15.375 -1.875,0 -4.3125,0.53125 -7.3125,1.59375 z"
     sodipodi:nodetypes="sccscsscsscsscccccscsscccssccsssccsscsssccscsscscsccscscsccsssccccsss" />
  <path
     id="path1210"
     style="font-style:normal;font-variant:normal;font-weight:normal;font-stretch:normal;font-size:96px;line-height:100%;font-family:'cwTeX Q Fangsong';-inkscape-font-specification:'cwTeX Q Fangsong';font-variant-ligatures:normal;font-variant-position:normal;font-variant-caps:normal;font-variant-numeric:normal;font-variant-alternates:normal;font-variant-east-asian:normal;font-feature-settings:normal;font-variation-settings:normal;text-indent:0;text-align:center;text-decoration:none;text-decoration-line:none;text-decoration-style:solid;text-decoration-color:#000000;letter-spacing:0px;word-spacing:0px;text-transform:none;writing-mode:lr-tb;direction:ltr;text-orientation:mixed;dominant-baseline:auto;baseline-shift:baseline;text-anchor:middle;white-space:normal;shape-padding:0;shape-margin:0;inline-size:0;opacity:1;vector-effect:none;fill:#000000;fill-opacity:1;stroke:none;stroke-width:1;stroke-linecap:butt;stroke-linejoin:miter;stroke-miterlimit:4;stroke-dasharray:none;stroke-dashoffset:0;stroke-opacity:1;paint-order:stroke fill markers;stop-color:#000000;stop-opacity:1"
     d="M 385.25,150.09375 350,193.875 314.75,150.09375 350,106.125 Z M 339.18945,125.47266 373.0918,159.375 380.55469,150.0918 350,111.99023 Z M 319.44531,150.0918 350,188.10352 360.86719,174.58398 326.98047,140.69727 Z"
     sodipodi:nodetypes="ccccccccccccccc" />
  <path
     id="path1194"
     style="font-style:normal;font-variant:normal;font-weight:normal;font-stretch:normal;font-size:96px;line-height:100%;font-family:'cwTeX Q Fangsong';-inkscape-font-specification:'cwTeX Q Fangsong';font-variant-ligatures:normal;font-variant-position:normal;font-variant-caps:normal;font-variant-numeric:normal;font-variant-alternates:normal;font-variant-east-asian:normal;font-feature-settings:normal;font-variation-settings:normal;text-indent:0;text-align:center;text-decoration:none;text-decoration-line:none;text-decoration-style:solid;text-decoration-color:#000000;letter-spacing:0px;word-spacing:0px;text-transform:none;writing-mode:lr-tb;direction:ltr;text-orientation:mixed;dominant-baseline:auto;baseline-shift:baseline;text-anchor:middle;white-space:normal;shape-padding:0;shape-margin:0;inline-size:0;opacity:1;vector-effect:none;fill:#000000;fill-opacity:1;stroke:none;stroke-width:1;stroke-linecap:butt;stroke-linejoin:miter;stroke-miterlimit:4;stroke-dasharray:none;stroke-dashoffset:0;stroke-opacity:1;paint-order:stroke fill markers;stop-color:#000000;stop-opacity:1"
     d="m 57.875,218.35938 c 0.5,0.8125 2.0625,2.875 4.6875,6.1875 2.6875,3.3125 5.59375,7.1875 8.71875,11.625 3.125,4.4375 5.71875,8.71874 7.78125,12.84374 2.625,5.0625 3.9375,9.21876 3.9375,12.46876 0,10.0625 -4.875,15.09374 -14.625,15.09374 -3.6875,0 -7.1875,-0.875 -10.5,-2.625 0.4375,3.4375 1.5,6.78126 3.1875,10.03126 1.75,3.25 2.625,5.09374 2.625,5.53124 0,1.9375 -4.5625,2.90626 -13.6875,2.90626 -9,0 -13.5625,-1 -13.6875,-3 0,-0.5 0.84375,-2.46876 2.53125,-5.90626 1.75,-3.4375 2.84375,-6.625 3.28125,-9.5625 -3.3125,1.75 -6.8125,2.625 -10.5,2.625 -9.75,0 -14.625,-5 -14.625,-15 0,-6.31957 4.585234,-15.84395 13.734375,-28.55859 l 10.828125,-14.00391 8.25,-11.4375 z m -19.125,9.84374 c -4.3125,5.4375 -7.5625,9.84376 -9.75,13.21876 -5.5,8.3125 -8.25,14.96874 -8.25,19.96874 0,1.34646 0.121594,2.56709 0.351562,3.67579 L 59.751953,226.41602 49.8125,213.57812 c -3.0625,4.25 -6.75,9.125 -11.0625,14.625 z m 5.451172,41.19532 c 1.23633,0.1882 1.861328,1.29324 1.861328,3.33594 0,3.5 -1.3125,7.96874 -3.9375,13.40624 l -0.75,1.59376 c 0,0.625 2,0.9375 6,0.9375 7.25,0 11,-0.3125 11.25,-0.9375 -2.8125,-5.625 -4.375,-10.1875 -4.6875,-13.6875 v -1.40626 c 0.3125,-2 1,-3.09374 2.0625,-3.28124 0.1875,0 1.71875,0.59374 4.59375,1.78124 2.875,1.125 5.28125,1.6875 7.21875,1.6875 7.25,0 10.875,-3.8125 10.875,-11.4375 0,-4.38854 -2.54741,-10.68753 -7.607422,-18.87109 z"
     sodipodi:nodetypes="ccscssccsscccssccccccscccccsccscccccsscc" />
  <path
     id="path1190"
     style="font-style:normal;font-variant:normal;font-weight:normal;font-stretch:normal;font-size:96px;line-height:100%;font-family:'cwTeX Q Fangsong';-inkscape-font-specification:'cwTeX Q Fangsong';font-variant-ligatures:normal;font-variant-position:normal;font-variant-caps:normal;font-variant-numeric:normal;font-variant-alternates:normal;font-variant-east-asian:normal;font-feature-settings:normal;font-variation-settings:normal;text-indent:0;text-align:center;text-decoration:none;text-decoration-line:none;text-decoration-style:solid;text-decoration-color:#000000;letter-spacing:0px;word-spacing:0px;text-transform:none;writing-mode:lr-tb;direction:ltr;text-orientation:mixed;dominant-baseline:auto;baseline-shift:baseline;text-anchor:middle;white-space:normal;shape-padding:0;shape-margin:0;inline-size:0;opacity:1;vector-effect:none;fill:#000000;fill-opacity:1;stroke:none;stroke-width:1;stroke-linecap:butt;stroke-linejoin:miter;stroke-miterlimit:4;stroke-dasharray:none;stroke-dashoffset:0;stroke-opacity:1;paint-order:stroke fill markers;stop-color:#000000;stop-opacity:1"
     d="m 142.59375,214.9375 c 3.25,1.5 5.71875,3.34375 7.40625,5.53125 l 0.375,-0.375 c 5.3125,-4.9375 11.0625,-7.40625 17.25,-7.40625 13,0 19.5,7.03125 19.5,21.09375 0,17.4375 -12.375,35.28125 -37.125,53.53125 l -3.1875,-2.0625 c -2.125,-1.4375 -4.21875,-2.90625 -6.28125,-4.40625 -2,-1.5 -4.5625,-3.78125 -7.6875,-6.84375 -3.0625,-3.0625 -5.90625,-6.34375 -8.53125,-9.84375 -7.625,-10.25 -11.4375,-20.375 -11.4375,-30.375 0,-14.0625 6.5,-21.09375 19.5,-21.09375 3.625,0 7.03125,0.75 10.21875,2.25 z m -25.78125,18.65625 c 0,9.25 2.84375,18.125 8.53125,26.625 0.0973,0.14385 0.20206,0.28449 0.30078,0.42773 l 44.07617,-44.07617 c -0.79192,-0.0793 -1.60685,-0.13281 -2.4707,-0.13281 -5.125,0 -10.1875,2.4375 -15.1875,7.3125 l -2.03125,2.1875 c -1.60888,-1.78819 -4.12438,-3.89785 -5.375,-4.90625 -1.25062,-1.0084 -2.8125,-2.15625 -5.0625,-3.09375 -2.1875,-1 -4.59375,-1.5 -7.21875,-1.5 -10.375,0 -15.5625,5.71875 -15.5625,17.15625 z m 22.09375,41.22266 c 3.34339,2.72372 7.04003,5.29683 11.09375,7.71484 10.1875,-7.625 18.1875,-15.40625 24,-23.34375 5.875,-7.9375 8.8125,-16.46875 8.8125,-25.59375 0,-0.89806 -0.0435,-1.74863 -0.10742,-2.57617 z"
     sodipodi:nodetypes="cccsscccccsscscccsccscsscccscc" />
  <path
     id="path1186"
     style="font-style:normal;font-variant:normal;font-weight:normal;font-stretch:normal;font-size:96px;line-height:100%;font-family:'cwTeX Q Fangsong';-inkscape-font-specification:'cwTeX Q Fangsong';font-variant-ligatures:normal;font-variant-position:normal;font-variant-caps:normal;font-variant-numeric:normal;font-variant-alternates:normal;font-variant-east-asian:normal;font-feature-settings:normal;font-variation-settings:normal;text-indent:0;text-align:center;text-decoration:none;text-decoration-line:none;text-decoration-style:solid;text-decoration-color:#000000;letter-spacing:0px;word-spacing:0px;text-transform:none;writing-mode:lr-tb;direction:ltr;text-orientation:mixed;dominant-baseline:auto;baseline-shift:baseline;text-anchor:middle;white-space:normal;shape-padding:0;shape-margin:0;inline-size:0;opacity:1;vector-effect:none;fill:#000000;fill-opacity:1;stroke:none;stroke-width:1;stroke-linecap:butt;stroke-linejoin:miter;stroke-miterlimit:4;stroke-dasharray:none;stroke-dashoffset:0;stroke-opacity:1;paint-order:stroke fill markers;stop-color:#000000;stop-opacity:1"
     d="m 269.6875,225.90625 c 0,1.5625 -0.25,3.21875 -0.75,4.96875 -0.5,1.6875 -1,3.0625 -1.5,4.125 -0.5,1 -1.15625,2.1875 -1.96875,3.5625 -0.8125,1.375 -1.28125,2.21875 -1.40625,2.53125 2.25,-0.75 4.5625,-1.125 6.9375,-1.125 3.8125,0 7.09375,0.5625 9.84375,1.6875 2.75,1.125 4.8125,2.65625 6.1875,4.59375 1.4375,1.875 2.46875,3.8125 3.09375,5.8125 0.625,2 0.9375,4.125 0.9375,6.375 0,5.9375 -1.90625,10.9375 -5.71875,15 -3.75,4.0625 -8.34375,6.09375 -13.78125,6.09375 -3.125,0 -6.09375,-0.71875 -8.90625,-2.15625 -2.8125,-1.4375 -4.90625,-3.375 -6.28125,-5.8125 0.125,4.5625 2.0625,10.1875 5.8125,16.875 l 0.5625,1.125 c -0.375,1.8125 -4.625,2.75 -12.75,2.8125 -8.5,0 -12.8125,-0.9375 -12.9375,-2.8125 l 0.5625,-1.125 c 0.125,-0.25 0.46875,-0.96875 1.03125,-2.15625 0.625,-1.1875 1,-1.90625 1.125,-2.15625 0.125,-0.25 0.40625,-0.84375 0.84375,-1.78125 0.4375,-0.9375 0.6875,-1.53125 0.75,-1.78125 0.125,-0.3125 0.34375,-0.84375 0.65625,-1.59375 0.3125,-0.8125 0.5,-1.40625 0.5625,-1.78125 0.0625,-0.4375 0.18747,-1 0.375,-1.6875 0.1875,-0.6875 0.3125,-1.34375 0.375,-1.96875 0.0625,-0.625 0.0937,-1.28125 0.0937,-1.96875 -1.5,2.5 -3.625,4.46875 -6.375,5.90625 -2.75,1.375 -5.6875,2.0625 -8.8125,2.0625 -5.75,0 -10.40625,-2.09375 -13.96875,-6.28125 -3.5625,-4.1875 -5.34375,-9.125 -5.34375,-14.8125 0,-3.6875 0.625,-6.8125 1.875,-9.375 1.3125,-2.625 3.03125,-4.53125 5.15625,-5.71875 2.1875,-1.25 4.3125,-2.125 6.375,-2.625 2.0625,-0.5 4.28125,-0.75 6.65625,-0.75 0.875,0 3.125,0.375 6.75,1.125 -3.75,-5.6875 -5.625,-10.78125 -5.625,-15.28125 0,-12.125 6.625,-18.1875 19.875,-18.1875 13.125,0 19.6875,6.09375 19.6875,18.28125 z m -36.375,0.375 c 0,3.6875 2.125,8.5625 6.375,14.625 l 2.08008,3.38086 23.875,-23.875 c -1.92416,-5.95333 -7.12857,-8.94336 -15.64258,-8.94336 -11.125,0 -16.6875,4.9375 -16.6875,14.8125 z m -20.625,32.8125 c 0,4.27663 1.1561,7.87873 3.46484,10.80859 l 23.23828,-23.23828 c -0.75807,-0.25906 -1.84724,-0.64305 -3.54687,-1.25781 -2.9375,-1.125 -5.34375,-1.6875 -7.21875,-1.6875 -10.625,0 -15.9375,5.125 -15.9375,15.375 z m 56.97852,-15.27344 -23.2168,23.2168 c 0.11315,0.47328 0.17578,1.03593 0.17578,1.71289 0,6.8125 -1.5625,13.1875 -4.6875,19.125 2.5,0.5 5.1875,0.75 8.0625,0.75 1.5625,0 4.1875,-0.25 7.875,-0.75 -3.125,-5.9375 -4.6875,-12.21875 -4.6875,-18.84375 0,-2.4375 0.625,-3.65625 1.875,-3.65625 0.5625,0 1.3125,0.5625 2.25,1.6875 0.9375,1.0625 1.90625,2.25 2.90625,3.5625 1.0625,1.25 2.625,2.4375 4.6875,3.5625 2.0625,1.0625 4.34375,1.59375 6.84375,1.59375 3,0 5.59375,-0.65625 7.78125,-1.96875 2.1875,-1.375 3.78125,-3.0625 4.78125,-5.0625 1,-2.0625 1.71875,-3.875 2.15625,-5.4375 0.4375,-1.625 0.65625,-3.03125 0.65625,-4.21875 0,-10.25 -5.3125,-15.375 -15.9375,-15.375 -0.47142,0 -0.97895,0.0344 -1.52148,0.10156 z"
     sodipodi:nodetypes="sccscsscsscsscccccscsscccssccsssccsscsssscccssscccssccscscsscccscccssc" />
  <path
     id="path1182"
     style="font-style:normal;font-variant:normal;font-weight:normal;font-stretch:normal;font-size:96px;line-height:100%;font-family:'cwTeX Q Fangsong';-inkscape-font-specification:'cwTeX Q Fangsong';font-variant-ligatures:normal;font-variant-position:normal;font-variant-caps:normal;font-variant-numeric:normal;font-variant-alternates:normal;font-variant-east-asian:normal;font-feature-settings:normal;font-variation-settings:normal;text-indent:0;text-align:center;text-decoration:none;text-decoration-line:none;text-decoration-style:solid;text-decoration-color:#000000;letter-spacing:0px;word-spacing:0px;text-transform:none;writing-mode:lr-tb;direction:ltr;text-orientation:mixed;dominant-baseline:auto;baseline-shift:baseline;text-anchor:middle;white-space:normal;shape-padding:0;shape-margin:0;inline-size:0;opacity:1;vector-effect:none;fill:#000000;fill-opacity:1;stroke:none;stroke-width:1;stroke-linecap:butt;stroke-linejoin:miter;stroke-miterlimit:4;stroke-dasharray:none;stroke-dashoffset:0;stroke-opacity:1;paint-order:stroke fill markers;stop-color:#000000;stop-opacity:1"
     d="M 385.25,250.09375 350,293.875 314.75,250.09375 350,206.125 Z m -65.80469,-0.002 7.46289,9.2832 33.90235,-33.90234 L 350,211.99023 Z m 19.6875,24.49218 10.86719,13.51954 30.55469,-38.01172 -7.53516,-9.39453 z"
     sodipodi:nodetypes="ccccccccccccccc" />
  <path
     d="m 57.875,373.95312 c 0.4375,3.4375 1.5,6.78125 3.1875,10.03125 1.75,3.25 2.625,5.09375 2.625,5.53125 0,1.9375 -4.5625,2.90625 -13.6875,2.90625 -9,0 -13.5625,-1 -13.6875,-3 0,-0.5 0.84375,-2.46875 2.53125,-5.90625 1.75,-3.4375 2.84375,-6.625 3.28125,-9.5625 -3.3125,1.75 -6.8125,2.625 -10.5,2.625 -9.75,0 -14.625,-5 -14.625,-15 0,-7.3125 6.125,-18.90625 18.375,-34.78125 3.502286,-4.39949 6.1875,-7.78125 6.1875,-7.78125 l 8.25,-11.4375 8.0625,10.78125 c 0.5,0.8125 2.0625,2.875 4.6875,6.1875 2.6875,3.3125 5.59375,7.1875 8.71875,11.625 3.125,4.4375 5.71875,8.71875 7.78125,12.84375 2.625,5.0625 3.9375,9.21875 3.9375,12.46875 0,10.0625 -4.875,15.09375 -14.625,15.09375 -3.6875,0 -7.1875,-0.875 -10.5,-2.625 z M 56,369.35937 c 0.1875,0 1.71875,0.59375 4.59375,1.78125 2.875,1.125 5.28125,1.6875 7.21875,1.6875 7.25,0 10.875,-3.8125 10.875,-11.4375 0,-6.6875 -5.875,-17.78125 -17.625,-33.28125 l -11.25,-14.53125 c -3.0625,4.25 -6.75,9.125 -11.0625,14.625 -4.3125,5.4375 -7.5625,9.84375 -9.75,13.21875 -5.5,8.3125 -8.25,14.96875 -8.25,19.96875 0,7.625 3.6875,11.4375 11.0625,11.4375 1.6875,0 3.9375,-0.5625 6.75,-1.6875 2.875,-1.1875 4.625,-1.78125 5.25,-1.78125 1.5,0 2.25,1.125 2.25,3.375 0,3.5 -1.3125,7.96875 -3.9375,13.40625 l -0.75,1.59375 c 0,0.625 2,0.9375 6,0.9375 7.25,0 11,-0.3125 11.25,-0.9375 -2.8125,-5.625 -4.375,-10.1875 -4.6875,-13.6875 v -1.40625 c 0.3125,-2 1,-3.09375 2.0625,-3.28125 z"
     id="path1125"
     style="font-style:normal;font-variant:normal;font-weight:normal;font-stretch:normal;font-size:96px;line-height:100%;font-family:'cwTeX Q Fangsong';-inkscape-font-specification:'cwTeX Q Fangsong';font-variant-ligatures:normal;font-variant-position:normal;font-variant-caps:normal;font-variant-numeric:normal;font-variant-alternates:normal;font-variant-east-asian:normal;font-feature-settings:normal;text-indent:0;text-align:center;text-decoration:none;text-decoration-line:none;text-decoration-style:solid;text-decoration-color:#000000;letter-spacing:0px;word-spacing:0px;text-transform:none;writing-mode:lr-tb;direction:ltr;text-orientation:mixed;dominant-baseline:auto;baseline-shift:baseline;text-anchor:middle;white-space:normal;shape-padding:0;shape-margin:0;inline-size:0;fill:#000000;fill-opacity:1;stroke:none;stroke-width:5;stroke-linecap:butt;stroke-linejoin:miter;stroke-miterlimit:4;stroke-dasharray:none;stroke-dashoffset:0;stroke-opacity:1;paint-order:stroke fill markers"
     sodipodi:nodetypes="ccsscccssccccczcsscccssccccsscssccscccc" />
  <path
     d="m 132.375,312.6875 c 3.625,0 7.03125,0.75 10.21875,2.25 3.25,1.5 5.71875,3.34375 7.40625,5.53125 l 0.375,-0.375 c 5.3125,-4.9375 11.0625,-7.40625 17.25,-7.40625 13,0 19.5,7.03125 19.5,21.09375 0,17.4375 -12.375,35.28125 -37.125,53.53125 l -3.1875,-2.0625 c -2.125,-1.4375 -4.21875,-2.90625 -6.28125,-4.40625 -2,-1.5 -4.5625,-3.78125 -7.6875,-6.84375 -3.0625,-3.0625 -5.90625,-6.34375 -8.53125,-9.84375 -7.625,-10.25 -11.4375,-20.375 -11.4375,-30.375 0,-14.0625 6.5,-21.09375 19.5,-21.09375 z m 17.65625,13.25 c -1.60888,-1.78819 -4.12438,-3.8979 -5.375,-4.9063 -1.25062,-1.0084 -2.8125,-2.15625 -5.0625,-3.09375 -2.1875,-1 -4.59375,-1.5 -7.21875,-1.5 -10.375,0 -15.5625,5.71875 -15.5625,17.15625 0,9.25 2.84375,18.125 8.53125,26.625 5.75,8.5 13.96875,15.9375 24.65625,22.3125 c 10.1875,-7.625 18.1875,-15.40625 24,-23.34375 5.875,-7.9375 8.8125,-16.46875 8.8125,-25.59375 0,-11.4375 -5.1875,-17.15625 -15.5625,-17.15625 -5.125,0 -10.1875,2.4375 -15.1875,7.3125 z"
     id="path1127"
     style="font-style:normal;font-variant:normal;font-weight:normal;font-stretch:normal;font-size:96px;line-height:100%;font-family:'cwTeX Q Fangsong';-inkscape-font-specification:'cwTeX Q Fangsong';font-variant-ligatures:normal;font-variant-position:normal;font-variant-caps:normal;font-variant-numeric:normal;font-variant-alternates:normal;font-variant-east-asian:normal;font-feature-settings:normal;text-indent:0;text-align:center;text-decoration:none;text-decoration-line:none;text-decoration-style:solid;text-decoration-color:#000000;letter-spacing:0px;word-spacing:0px;text-transform:none;writing-mode:lr-tb;direction:ltr;text-orientation:mixed;dominant-baseline:auto;baseline-shift:baseline;text-anchor:middle;white-space:normal;shape-padding:0;shape-margin:0;inline-size:0;fill:#000000;fill-opacity:1;stroke:none;stroke-width:5;stroke-linecap:butt;stroke-linejoin:miter;stroke-miterlimit:4;stroke-dasharray:none;stroke-dashoffset:0;stroke-opacity:1;paint-order:stroke fill markers"
     sodipodi:nodetypes="scccsscccccssczcsscsscsscc" />
  <path
     d="m 271.00002,339.96875 q 5.71875,0 9.84375,1.6875 4.125,1.6875 6.1875,4.59375 2.15625,2.8125 3.09375,5.8125 0.9375,3 0.9375,6.375 0,8.90625 -5.71875,15 -5.625,6.09375 -13.78125,6.09375 -4.6875,0 -8.90625,-2.15625 -4.21875,-2.15625 -6.28125,-5.8125 0.1875,6.84375 5.8125,16.875 l 0.5625,1.125 q -0.5625,2.71875 -12.75,2.8125 -12.75,0 -12.9375,-2.8125 l 0.5625,-1.125 q 0.1875,-0.375 1.03125,-2.15625 0.9375,-1.78125 1.125,-2.15625 0.1875,-0.375 0.84375,-1.78125 0.65625,-1.40625 0.75,-1.78125 0.1875,-0.46875 0.65625,-1.59375 0.46875,-1.21875 0.5625,-1.78125 0.0937,-0.65625 0.375,-1.6875 0.28125,-1.03125 0.375,-1.96875 0.0937,-0.9375 0.0937,-1.96875 -2.25,3.75 -6.375,5.90625 -4.125,2.0625 -8.8125,2.0625 -8.625,0 -13.96875,-6.28125 -5.34375,-6.28125 -5.34375,-14.8125 0,-5.53125 1.875,-9.375 1.96875,-3.9375 5.15625,-5.71875 3.28125,-1.875 6.375,-2.625 3.09375,-0.75 6.65625,-0.75 1.3125,0 6.75,1.125 -5.625,-8.53125 -5.625,-15.28125 0,-18.1875 19.875,-18.1875 19.6875,0 19.6875,18.28125 0,2.34375 -0.75,4.96875 -0.75,2.53125 -1.5,4.125 -0.75,1.5 -1.96875,3.5625 -1.21875,2.0625 -1.40625,2.53125 3.375,-1.125 6.9375,-1.125 z m 0.75,35.8125 q 4.5,0 7.78125,-1.96875 3.28125,-2.0625 4.78125,-5.0625 1.5,-3.09375 2.15625,-5.4375 0.65625,-2.4375 0.65625,-4.21875 0,-15.375 -15.9375,-15.375 -2.8125,0 -7.3125,1.59375 l -4.5,1.59375 q -1.875,-0.1875 -1.875,-1.59375 0,-0.75 2.25,-3.65625 2.25,-2.90625 4.5,-7.03125 2.25,-4.21875 2.25,-8.25 0,-14.90625 -16.5,-14.90625 -16.6875,0 -16.6875,14.8125 0,5.53125 6.375,14.625 l 2.25,3.65625 0.375,0.84375 q 0,1.40625 -1.875,1.59375 -0.1875,0 -4.59375,-1.59375 -4.40625,-1.6875 -7.21875,-1.6875 -15.9375,0 -15.9375,15.375 0,7.3125 4.5,12 4.59375,4.6875 10.875,4.6875 7.3125,0 13.5,-7.3125 2.34375,-2.90625 3.1875,-3.09375 1.875,0 1.875,3.375 0,10.21875 -4.6875,19.125 3.75,0.75 8.0625,0.75 2.34375,0 7.875,-0.75 -4.6875,-8.90625 -4.6875,-18.84375 0,-3.65625 1.875,-3.65625 0.84375,0 2.25,1.6875 1.40625,1.59375 2.90625,3.5625 1.59375,1.875 4.6875,3.5625 3.09375,1.59375 6.84375,1.59375 z"
     id="path1129"
     style="font-style:normal;font-variant:normal;font-weight:normal;font-stretch:normal;font-size:96px;line-height:100%;font-family:'cwTeX Q Fangsong';-inkscape-font-specification:'cwTeX Q Fangsong';font-variant-ligatures:normal;font-variant-position:normal;font-variant-caps:normal;font-variant-numeric:normal;font-variant-alternates:normal;font-variant-east-asian:normal;font-feature-settings:normal;text-indent:0;text-align:center;text-decoration:none;text-decoration-line:none;text-decoration-style:solid;text-decoration-color:#000000;letter-spacing:0px;word-spacing:0px;text-transform:none;writing-mode:lr-tb;direction:ltr;text-orientation:mixed;dominant-baseline:auto;baseline-shift:baseline;text-anchor:middle;white-space:normal;shape-padding:0;shape-margin:0;inline-size:0;fill:#000000;fill-opacity:1;stroke:none;stroke-width:5;stroke-linecap:butt;stroke-linejoin:miter;stroke-miterlimit:4;stroke-dasharray:none;stroke-dashoffset:0;stroke-opacity:1;paint-order:stroke fill markers" />
  <path
     id="path1131"
     style="font-style:normal;font-variant:normal;font-weight:normal;font-stretch:normal;font-size:96px;line-height:100%;font-family:'cwTeX Q Fangsong';-inkscape-font-specification:'cwTeX Q Fangsong';font-variant-ligatures:normal;font-variant-position:normal;font-variant-caps:normal;font-variant-numeric:normal;font-variant-alternates:normal;font-variant-east-asian:normal;font-feature-settings:normal;text-indent:0;text-align:center;text-decoration:none;text-decoration-line:none;text-decoration-style:solid;text-decoration-color:#000000;letter-spacing:0px;word-spacing:0px;text-transform:none;writing-mode:lr-tb;direction:ltr;text-orientation:mixed;dominant-baseline:auto;baseline-shift:baseline;text-anchor:middle;white-space:normal;shape-padding:0;shape-margin:0;inline-size:0;fill:#000000;fill-opacity:1;stroke:none;stroke-width:5;stroke-linecap:butt;stroke-linejoin:miter;stroke-miterlimit:4;stroke-dasharray:none;stroke-dashoffset:0;stroke-opacity:1;paint-order:stroke fill markers"
     d="M 385.25,350.09375 350,393.875 314.75,350.09375 350,306.125 Z m -4.695,-0.001 L 350,311.98953 319.445,350.09234 350,388.10422 Z" />
</svg>
