o Button
v -0.7 0 0
v -0.5 0 0.5
v 0 0 0
v -0.5 0 -0.5
v 0 0 -0.7
v 0.5 0 -0.5
v 0.7 0 0
v 0.5 0 0.5
v 0 0 0.7
v 0 0 0.9
v 0.65 0 0.65
v -0.65 0 0.65
v 0 0 1
v 0.7 0 0.7
v -0.7 0 0.7
v -0.9 0 0
v -0.65 0 -0.65
v -1 0 0
v -0.7 0 -0.7
v 0 0 -0.9
v 0.65 0 -0.65
v 0 0 -1
v 0.7 0 -0.7
v 0.9 0 0
v 1 0 0
vt 0.12756006442 0.5337373145
vt 0.12756006442 0.19974737892
vt 0.46155 0.5337373145
vt 0.12756006442 0.86772725008
vt 0.46155 0.86772725008
vt 0.79553993558 0.86772725008
vt 0.79553993558 0.5337373145
vt 0.79553993558 0.19974737892
vt 0.46155 0.19974737892
vt 0.46155 0.10432168304
vt 0.89096563146 0.10432168304
vt 0.03213436854 0.10432168304
vt 0.46155 0.0327524111299999
vt 0.96253490337 0.0327524111299999
vt -0.03943490337 0.0327524111299999
vt 0.03213436854 0.5337373145
vt 0.03213436854 0.96315294596
vt -0.03943490337 0.5337373145
vt -0.03943490337 1.03472221787
vt 0.46155 0.96315294596
vt 0.89096563146 0.96315294596
vt 0.46155 1.03472221787
vt 0.96253490337 1.03472221787
vt 0.89096563146 0.5337373145
vt 0.96253490337 0.5337373145
vn 0 1 0
vn 0 0.894427190999916 0.447213595499958
vn 0 0.209529088730874 0.97780241407741
vn -0.447213595499958 0.894427190999916 0
vn -0.97780241407741 0.209529088730874 0
vn 0 0.894427190999916 -0.447213595499958
vn 0 0.209529088730874 -0.97780241407741
vn 0.447213595499958 0.894427190999916 0
vn 0.97780241407741 0.209529088730874 0
g Button
f 1/1/1 2/2/1 3/3/1
f 3/3/1 4/4/1 1/1/1
f 5/5/1 4/4/1 3/3/1
f 3/3/1 6/6/1 5/5/1
f 7/7/1 6/6/1 3/3/1
f 3/3/1 8/8/1 7/7/1
f 9/9/1 8/8/1 3/3/1
f 3/3/1 2/2/1 9/9/1
f 10/10/2 11/11/2 8/8/2 9/9/2
f 9/9/2 2/2/2 12/12/2 10/10/2
f 13/13/3 14/14/3 11/11/3 10/10/3
f 10/10/3 12/12/3 15/15/3 13/13/3
f 16/16/4 12/12/4 2/2/4 1/1/4
f 1/1/4 4/4/4 17/17/4 16/16/4
f 18/18/5 15/15/5 12/12/5 16/16/5
f 16/16/5 17/17/5 19/19/5 18/18/5
f 20/20/6 17/17/6 4/4/6 5/5/6
f 5/5/6 6/6/6 21/21/6 20/20/6
f 22/22/7 19/19/7 17/17/7 20/20/7
f 20/20/7 21/21/7 23/23/7 22/22/7
f 24/24/8 21/21/8 6/6/8 7/7/8
f 7/7/8 8/8/8 11/11/8 24/24/8
f 25/25/9 23/23/9 21/21/9 24/24/9
f 24/24/9 11/11/9 14/14/9 25/25/9
#h 
