<svg xmlns="http://www.w3.org/2000/svg" fill="none" viewBox="0 0 348 348"><path stroke="#000" stroke-width="2" d="M5.08 5.78h336.91v337.67H5.08z"/><circle cx="174" cy="174" r="83.45" fill="#ababab" stroke="#000" stroke-width="5"/><path stroke="#000" stroke-width="2" d="M282.73 40.55c0-8.37 6.97-15.16 15.56-15.16 4.13 0 8.09 1.6 11 4.44a14.97 14.97 0 014.56 10.72c0 8.38-6.96 15.17-15.56 15.17-8.59 0-15.56-6.8-15.56-15.17z"/><g fill="#000" stroke-width="1.4"><path d="M167.52 238.97c-2.95-1.48-4.05-2.8-3.53-4.37.53-1.64 1.85-1.74 4.96-.27 4 1.8 6.69 1.8 10.22-.2 3.21-1.8 5.1-1.59 5.1.63 0 1.68-1.15 2.8-4.47 4.32a14.5 14.5 0 01-12.28-.1zm-9.59-6.53c-.9-1.74-.15-3.06 2-3.64 21.08-5.42 27.4-6.95 28.77-6.8 1.42.16 1.63.37 1.8 1.85.15 1.37-.06 1.84-1.06 2.26-1.74.74-28.6 7.38-29.87 7.38-.58 0-1.32-.47-1.64-1.05zm-.1-10.28c-.48-1.1-.48-1.53.16-2.1.42-.43 7.37-2.38 15.43-4.43 15.7-3.9 17.18-4 17.18-1.42 0 .69-.32 1.48-.69 1.8-.9.73-27.81 7.48-29.87 7.48-1.21 0-1.74-.32-2.21-1.32zm.26-8.53c-.79-.27-.9-2.16-.2-3.22.2-.42 6.2-2.1 13.27-3.84a279.09 279.09 0 0013.96-3.58c.84-.37 1.21-1.17 1.47-3.12.53-4 3.11-8.59 7.75-13.65 7-7.69 10-15.49 9.17-23.87-.8-7.43-3.8-13.49-9.6-19.02-5.84-5.64-11.74-8.01-19.9-8.01-8.07 0-14.86 2.73-20.18 8.11-5.7 5.74-8.54 11.96-8.96 19.6-.48 9.12 1.95 15.7 8.59 22.97 4.37 4.84 7.58 10.7 8.69 15.86.9 4.21.58 5.9-1.21 6.58-1.95.69-2.74-.32-3.16-4.11-.48-3.95-3.9-10.49-7.95-15.12-6.75-7.8-9.17-13.49-9.65-22.66-.47-9.06 1.95-16.59 7.54-23.65 6.7-8.38 14.86-12.17 26.3-12.17 11.43 0 19.64 3.74 26.33 12.12 6.27 7.74 8.85 16.65 7.65 26.23-1.05 8.12-3.58 13.28-10.23 20.6-3.9 4.38-6.37 9.01-6.9 13.02-.2 1.47-.57 3-.78 3.37-.42.68-27.97 7.9-30.03 7.85a5.8 5.8 0 01-1.95-.32zm62.01-10.54c-1.21-.53-13.12-10.64-13.64-11.64a2.7 2.7 0 01-.16-1.69c.26-.84 1.63-2.1 2.32-2.1.31 0 10.8 8.53 14.32 11.64.69.63.53 3.16-.26 3.69-.84.52-1.42.52-2.59.1zm-94.94-.74c-.57-.31-.94-1.15-.94-2 0-1.2 1-2.31 6.16-6.68 6.74-5.75 7.38-6.11 8.75-5.37.89.47 1.2 2.85.47 3.85-.64.95-10.86 9.53-12.07 10.17-1.37.74-1.21.74-2.37.05z"/><path d="M168.37 202.35c-.74-.42-.95-1.2-.95-3.37 0-4.9-1.06-10.9-2.96-16.6-2.43-7.21-2.32-7.58 1.37-7.79a9.4 9.4 0 015.48 1.16l2.53 1.26 2.42-1.26c1.84-1 3.1-1.27 5.1-1.16 2.43.16 2.64.26 2.8 1.63.1.8-.42 3.27-1.16 5.53a60.96 60.96 0 00-3.22 15.5c-.42 5.26-1.06 6.2-3.27 5.2l-1.37-.63.31-6.16c.21-4.27.69-7.59 1.58-10.8 1.42-4.9 1.32-5-1.37-2.37-1.48 1.47-3.53 1.15-5.27-.75-.84-1-1.37-1.32-1.21-.79 1.58 5 2.95 13.44 2.95 18.12 0 3.16-1.63 4.58-3.8 3.27zm-53.11-40.98c-.74-1.43-.69-1.95.32-2.9.67-.68 2.26-.84 8.9-.84 7.47 0 8.16.1 8.69 1 .73 1.42.68 1.95-.32 2.9-.68.69-2.26.85-8.9.85-7.49 0-8.17-.1-8.7-1zm99.15.36a2.69 2.69 0 01-.63-1.73c0-2.16.84-2.38 9.75-2.38 5.9 0 8.69.22 9.11.64.95.95.74 2.95-.37 3.58-1.53.79-17.07.69-17.86-.1zm-76.7-28.4c-5.8-4.79-7.12-6.47-6.28-7.79.27-.47 1.16-.9 1.95-1 1.16-.16 2.43.74 6.7 4.43 5.9 5.11 6.58 6 5.74 7.58-1.06 1.95-2.85 1.27-8.12-3.2zm63.42 3.27c-.26-.57-.36-1.42-.2-1.84.15-.47 2.9-3.1 6.05-5.85 5.96-5.21 7.8-6.06 8.9-4 1.06 2.05 1.11 2-7 8.8-4.85 4.05-6.7 4.8-7.75 2.9zm-28.44-11.64c-.95-.95-1.06-1.79-1.06-8.22 0-3.9.26-7.58.52-8.16.63-1.11 2.64-1.32 3.58-.37.69.68.9 15.54.2 16.54-.78 1.16-2.2 1.26-3.26.21z"/></g></svg>