<?xml version="1.0" encoding="UTF-8" standalone="no"?>
<svg
   viewBox="0.0 0.0 348.0 348.0"
   fill="none"
   version="1.1"
   id="svg6"
   sodipodi:docname="The Blue Button.svg"
   inkscape:version="1.1 (c68e22c387, 2021-05-23)"
   xmlns:inkscape="http://www.inkscape.org/namespaces/inkscape"
   xmlns:sodipodi="http://sodipodi.sourceforge.net/DTD/sodipodi-0.dtd"
   xmlns="http://www.w3.org/2000/svg"
   xmlns:svg="http://www.w3.org/2000/svg">
  <defs
     id="defs10">
    <rect
       x="60"
       y="40"
       width="160"
       height="60"
       id="rect3486" />
    <rect
       x="60"
       y="40"
       width="160"
       height="50"
       id="rect20514" />
    <rect
       x="120"
       y="150"
       width="110"
       height="150"
       id="rect6390" />
    <rect
       x="65"
       y="90"
       width="165"
       height="20"
       id="rect6155" />
    <rect
       x="55"
       y="90"
       width="160"
       height="30"
       id="rect4631" />
  </defs>
  <sodipodi:namedview
     id="namedview8"
     pagecolor="#ffffff"
     bordercolor="#666666"
     borderopacity="1.0"
     inkscape:pageshadow="2"
     inkscape:pageopacity="0.0"
     inkscape:pagecheckerboard="0"
     showgrid="true"
     inkscape:zoom="3.3811082"
     inkscape:cx="161.92916"
     inkscape:cy="108.69217"
     inkscape:window-width="1920"
     inkscape:window-height="1017"
     inkscape:window-x="1272"
     inkscape:window-y="-8"
     inkscape:window-maximized="1"
     inkscape:current-layer="svg6">
    <inkscape:grid
       type="xygrid"
       id="grid940"
       spacingx="10"
       spacingy="10" />
  </sodipodi:namedview>
  <path
     d="M5.079 5.776h336.913v337.67H5.08z"
     stroke-width="2"
     stroke="#000"
     id="path2" />
  <path
     d="M282.734 40.554c0-8.376 6.966-15.165 15.56-15.165 4.126 0 8.084 1.597 11.001 4.441 2.918 2.844 4.558 6.702 4.558 10.724 0 8.376-6.966 15.165-15.56 15.165-8.593 0-15.559-6.79-15.559-15.165z"
     stroke-width="2"
     stroke="#000"
     id="path4" />
  <path
     style="fill:none;stroke:#000000;stroke-width:10;stroke-linecap:butt;stroke-linejoin:miter;stroke-opacity:1;stroke-miterlimit:4;stroke-dasharray:none"
     d="m 140,190 35,80 35,-80"
     id="path1477" />
  <rect
     style="fill:#000000;fill-opacity:1;stroke:#646464;stroke-width:10.2232;stroke-miterlimit:4;stroke-dasharray:none;stroke-opacity:1"
     id="rect1821"
     width="215"
     height="70"
     x="30"
     y="30" />
  <circle
     style="fill:#969696;stroke:#000000;stroke-width:5;stroke-miterlimit:4;stroke-dasharray:none;fill-opacity:1;stroke-opacity:1"
     id="path1144"
     cx="175"
     cy="225"
     r="105" />
  <path
     sodipodi:type="star"
     style="fill:#000000;fill-opacity:1;stroke:none;stroke-width:5;stroke-miterlimit:4;stroke-dasharray:none;stroke-opacity:1"
     id="path1040"
     inkscape:flatsided="false"
     sodipodi:sides="5"
     sodipodi:cx="170"
     sodipodi:cy="230"
     sodipodi:r1="90"
     sodipodi:r2="34.650002"
     sodipodi:arg1="-1.5707963"
     sodipodi:arg2="-0.9424778"
     inkscape:rounded="0"
     inkscape:randomized="0"
     d="m 170,140 20.36676,61.96756 65.22833,0.22091 -52.64098,38.51897 19.94656,62.10409 L 170,264.65 l -52.90067,38.16153 19.94656,-62.10409 -52.640976,-38.51897 65.228326,-0.22091 z"
     inkscape:transform-center-y="-7.63932"
     transform="matrix(0.90685148,0,0,0.88888889,20.835248,28.194875)" />
  <text
     xml:space="preserve"
     style="font-size:53.3333px;line-height:1.25;font-family:sans-serif"
     x="95.703148"
     y="83.36512"
     id="text57690"><tspan
       sodipodi:role="line"
       id="tspan57688"
       x="95.703148"
       y="83.36512"
       style="font-style:normal;font-variant:normal;font-weight:normal;font-stretch:normal;font-size:53.3333px;font-family:Bahnschrift;-inkscape-font-specification:Bahnschrift;fill:#dcdcdc;fill-opacity:1">4, 7</tspan></text>
</svg>
