<svg xmlns="http://www.w3.org/2000/svg" fill="none" viewBox="0 0 348 348"><path stroke="#000" stroke-width="2" d="M5.08 5.78h336.91v337.67H5.08z"/><path stroke="#000" stroke-width="2" d="M282.73 40.55c0-8.37 6.97-15.16 15.56-15.16 4.13 0 8.09 1.6 11 4.44a14.97 14.97 0 014.56 10.72c0 8.38-6.96 15.17-15.56 15.17-8.59 0-15.56-6.8-15.56-15.17z"/><path stroke="#000" stroke-width="10" d="M140 190l35 80 35-80"/><path fill="#000" stroke="#646464" stroke-width="10.22" d="M30 30h215v70H30z"/><circle cx="175" cy="225" r="105" fill="#969696" stroke="#000" stroke-width="5"/><path fill="#dcdcdc" d="M67.5 55h20v20h-20zm40 0h20v20h-20zm40 0h20v20h-20zm40 0h20v20h-20z"/></svg>