<?xml version="1.0" encoding="UTF-8" standalone="no"?>
<svg
   fill="none"
   viewBox="0 0 348 348"
   version="1.1"
   id="svg14"
   sodipodi:docname="The Cyan Button.svg"
   inkscape:version="1.1 (c68e22c387, 2021-05-23)"
   xmlns:inkscape="http://www.inkscape.org/namespaces/inkscape"
   xmlns:sodipodi="http://sodipodi.sourceforge.net/DTD/sodipodi-0.dtd"
   xmlns="http://www.w3.org/2000/svg"
   xmlns:svg="http://www.w3.org/2000/svg">
  <defs
     id="defs18" />
  <sodipodi:namedview
     id="namedview16"
     pagecolor="#ffffff"
     bordercolor="#666666"
     borderopacity="1.0"
     inkscape:pageshadow="2"
     inkscape:pageopacity="0.0"
     inkscape:pagecheckerboard="0"
     showgrid="true"
     inkscape:zoom="19.126437"
     inkscape:cx="259.82362"
     inkscape:cy="136.95703"
     inkscape:window-width="1920"
     inkscape:window-height="1017"
     inkscape:window-x="1272"
     inkscape:window-y="-8"
     inkscape:window-maximized="1"
     inkscape:current-layer="svg14">
    <inkscape:grid
       type="xygrid"
       id="grid835" />
  </sodipodi:namedview>
  <path
     stroke="#000"
     stroke-width="2"
     d="M5.08 5.78h336.91v337.67H5.08z"
     id="path2" />
  <path
     fill="#000"
     stroke="#646464"
     stroke-width="5"
     d="M27.5 28.5h215v100h-215z"
     id="path4" />
  <path
     stroke="#000"
     stroke-width="2"
     d="M282.73 40.55c0-8.37 6.97-15.16 15.56-15.16 4.13 0 8.09 1.6 11 4.44a14.97 14.97 0 014.56 10.72c0 8.38-6.96 15.17-15.56 15.17-8.59 0-15.56-6.8-15.56-15.17z"
     id="path8" />
  <rect
     style="fill:#dcdcdc;stroke:#000000;stroke-width:2.12132;stroke-miterlimit:4;stroke-dasharray:none;stroke-opacity:1"
     id="rect1194-3"
     width="45"
     height="90"
     x="128"
     y="140" />
  <rect
     style="fill:#dcdcdc;stroke:#000000;stroke-width:2.12132;stroke-miterlimit:4;stroke-dasharray:none;stroke-opacity:1"
     id="rect1194-3-2"
     width="45"
     height="90"
     x="173"
     y="140" />
  <rect
     style="fill:#dcdcdc;stroke:#000000;stroke-width:2.12132;stroke-miterlimit:4;stroke-dasharray:none;stroke-opacity:1"
     id="rect1194-3-9"
     width="45"
     height="90"
     x="233"
     y="240" />
  <rect
     style="fill:#dcdcdc;stroke:#000000;stroke-width:2.12132;stroke-miterlimit:4;stroke-dasharray:none;stroke-opacity:1"
     id="rect1194-3-2-7"
     width="45"
     height="90"
     x="278"
     y="240" />
  <rect
     style="fill:#dcdcdc;stroke:#000000;stroke-width:2.12132;stroke-miterlimit:4;stroke-dasharray:none;stroke-opacity:1"
     id="rect1194-3-26"
     width="45"
     height="90"
     x="23"
     y="240" />
  <rect
     style="fill:#dcdcdc;stroke:#000000;stroke-width:2.12132;stroke-miterlimit:4;stroke-dasharray:none;stroke-opacity:1"
     id="rect1194-3-2-79"
     width="45"
     height="90"
     x="68"
     y="240" />
  <rect
     style="fill:#dcdcdc;stroke:#000000;stroke-width:2.12132;stroke-miterlimit:4;stroke-dasharray:none;stroke-opacity:1"
     id="rect1194-3-26-1"
     width="45"
     height="90"
     x="128"
     y="240" />
  <rect
     style="fill:#dcdcdc;stroke:#000000;stroke-width:2.12132;stroke-miterlimit:4;stroke-dasharray:none;stroke-opacity:1"
     id="rect1194-3-2-79-8"
     width="45"
     height="90"
     x="173"
     y="240" />
  <rect
     style="fill:#dcdcdc;stroke:#000000;stroke-width:2.12132;stroke-miterlimit:4;stroke-dasharray:none;stroke-opacity:1"
     id="rect1194-3-26-0"
     width="45"
     height="90"
     x="23"
     y="140" />
  <rect
     style="fill:#dcdcdc;stroke:#000000;stroke-width:2.12132;stroke-miterlimit:4;stroke-dasharray:none;stroke-opacity:1"
     id="rect1194-3-2-79-1"
     width="45"
     height="90"
     x="68"
     y="140" />
  <rect
     style="fill:#dcdcdc;stroke:#000000;stroke-width:2.12132;stroke-miterlimit:4;stroke-dasharray:none;stroke-opacity:1"
     id="rect1194-3-26-7"
     width="45"
     height="90"
     x="233"
     y="140" />
  <rect
     style="fill:#dcdcdc;stroke:#000000;stroke-width:2.12132;stroke-miterlimit:4;stroke-dasharray:none;stroke-opacity:1"
     id="rect1194-3-2-79-83"
     width="45"
     height="90"
     x="278"
     y="140" />
  <circle
     cx="173"
     cy="185"
     fill="#ababab"
     stroke="#000000"
     stroke-width="2.03605"
     id="circle6"
     r="33.981976"
     style="fill:#ffffff;fill-opacity:1;stroke:#282828;stroke-width:4;stroke-miterlimit:4;stroke-dasharray:none;stroke-opacity:1" />
  <path
     d="M 94.881495,100.75024 116.00649,72.583585 q 1.83333,-2.416666 2.83333,-4.999998 1.04167,-2.624999 1.04167,-4.874998 v -0.08333 q 0,-3.624998 -2.125,-5.624997 -2.125,-1.999999 -6.04167,-1.999999 -3.70833,0 -6,2.208332 -2.29166,2.166666 -2.79166,6.166664 v 0.04167 h -8.791664 v -0.04167 q 0.749999,-5.208331 3.041665,-8.874996 2.333333,-3.708332 5.999999,-5.624998 3.66666,-1.958332 8.45833,-1.958332 5.41666,0 9.24999,1.874999 3.83334,1.833333 5.83334,5.374998 1.99999,3.541665 1.99999,8.541663 v 0.04167 q 0,3.208332 -1.33333,6.708331 -1.33333,3.499999 -3.70833,6.749997 l -17.54166,23.833327 h 22.91666 v 8.08333 H 94.881495 Z"
     style="font-family:Bahnschrift;-inkscape-font-specification:Bahnschrift;fill:#ffffff"
     id="path9299" />
  <path
     d="m 157.17314,108.75024 q -8.5,0 -12.91666,-4.54167 -4.375,-4.541663 -4.375,-12.66666 V 64.000255 q 0,-8.166663 4.41666,-12.666661 4.41667,-4.541665 12.875,-4.541665 8.49999,0 12.87499,4.499998 4.41667,4.499998 4.41667,12.708328 V 91.54191 q 0,8.166663 -4.41667,12.70833 -4.41666,4.5 -12.87499,4.5 z m 0,-8.08333 q 4.5,0 6.625,-2.333336 2.16666,-2.374999 2.16666,-6.791664 V 64.000255 q 0,-4.416665 -2.125,-6.749997 -2.125,-2.374999 -6.66666,-2.374999 -4.54167,0 -6.66667,2.374999 -2.12499,2.333332 -2.12499,6.749997 V 91.54191 q 0,4.416665 2.12499,6.791664 2.16667,2.333336 6.66667,2.333336 z"
     style="font-family:Bahnschrift;-inkscape-font-specification:Bahnschrift;fill:#ffffff"
     id="path9301" />
</svg>
