<svg xmlns="http://www.w3.org/2000/svg" fill="none" viewBox="0 0 348 348"><path stroke="#000" stroke-width="2" d="M5.08 5.78h336.91v337.67H5.08z"/><path stroke="#000" stroke-width="2" d="M282.73 40.55c0-8.37 6.97-15.16 15.56-15.16 4.13 0 8.09 1.6 11 4.44a14.97 14.97 0 014.56 10.72c0 8.38-6.96 15.17-15.56 15.17-8.59 0-15.56-6.8-15.56-15.17z"/><path stroke="#000" stroke-width="10" d="M140 190l35 80 35-80"/><path fill="#000" stroke="#646464" stroke-width="10.22" d="M30 30h215v70H30z"/><circle cx="175" cy="225" r="105" fill="#969696" stroke="#000" stroke-width="5"/><path fill="#000" d="M193.72 298.85h-21.94v-123.8l-22.25 12.75v-21.2l22.25-13.87h21.94z"/><path fill="#fff" d="M89.03 40.3h6.3l19.38 48.68h-7.96L92.18 49.71 77.61 88.96h-7.96zM78.6 71.8h27.66v6.5H78.57zm48.42 10.85h14.25q5.6 0 8.15-1.98Q152 78.69 152 75.1v-.1q0-2.47-.94-4.25-.93-1.77-2.91-2.71-1.98-.98-5.1-.98h-16.04v-6.14h16.05q4.07 0 6.14-1.76 2.1-1.78 2.1-5.26 0-3.66-2.32-5.46-2.31-1.81-6.94-1.81H127v-6.35h16.38q5.1 0 8.52 1.63 3.44 1.6 5.14 4.55 1.7 2.94 1.7 7.02 0 2.52-1.05 4.74-1.05 2.17-3.22 3.75-2.13 1.54-5.31 2.06 3.18.44 5.5 2.12 2.31 1.63 3.53 4.12 1.24 2.48 1.24 5.35v.1q0 3.94-1.89 6.98-1.87 3-5.37 4.64Q148.67 89 144 89h-17zm-4.37-42.36h7.35v48.69h-7.35zm63.96 49.19q-5.46 0-9.63-2.23-4.12-2.26-6.4-6.38-2.28-4.11-2.28-9.55V57.97q0-5.42 2.28-9.53 2.28-4.12 6.4-6.38 4.17-2.26 9.63-2.26 4.52 0 8.32 1.8 3.79 1.78 6.33 5.05 2.55 3.28 3.46 7.6h-7.55q-.69-2.26-2.32-4.05-1.6-1.8-3.76-2.77-2.16-.98-4.48-.98-3.22 0-5.64 1.44-2.43 1.44-3.76 4.06-1.35 2.57-1.35 6.02v13.37q0 3.41 1.35 6.02 1.33 2.6 3.76 4.04 2.4 1.4 5.64 1.4 2.34 0 4.48-.88 2.17-.91 3.76-2.7 1.63-1.76 2.32-4.21h7.55q-.9 4.32-3.46 7.61-2.6 3.27-6.37 5.1-3.8 1.76-8.28 1.76z"/><circle cx="36" cy="146" r="15.22" fill="#000" stroke="#646464" stroke-width="4.57"/><circle cx="36" cy="196" r="15.22" fill="#dcdcdc" stroke="#646464" stroke-width="4.57"/><circle cx="36" cy="246" r="15.22" fill="#000" stroke="#646464" stroke-width="4.57"/><circle cx="293.05" cy="-55.08" r="15.22" fill="#000" stroke="#646464" stroke-width="4.57"/></svg>