<svg xmlns="http://www.w3.org/2000/svg" fill="none" viewBox="0 0 348 348"><path stroke="#000" stroke-width="2" d="M5.08 5.78h336.91v337.67H5.08z"/><path stroke="#000" stroke-width="2" d="M282.73 40.55c0-8.37 6.97-15.16 15.56-15.16 4.13 0 8.09 1.6 11 4.44a14.97 14.97 0 014.56 10.72c0 8.38-6.96 15.17-15.56 15.17-8.59 0-15.56-6.8-15.56-15.17z"/><path stroke="#000" stroke-width="10" d="M140 190l35 80 35-80"/><path fill="#000" stroke="#646464" stroke-width="10.22" d="M30 30h215v70H30z"/><circle cx="175" cy="225" r="105" fill="#969696" stroke="#000" stroke-width="5"/><g fill="#fff" transform="matrix(4.95315 0 0 3.62772 -241.33 -111.96)"><path d="M62.06 46.93q-.74 0-1.13-.4-.38-.4-.38-1.1V43q0-.72.39-1.11.38-.4 1.12-.4.75 0 1.13.4.4.39.4 1.1v2.42q0 .72-.4 1.12-.38.4-1.13.4zm0-.7q.4 0 .59-.21.19-.21.19-.6v-2.41q0-.39-.2-.6-.18-.2-.58-.2-.4 0-.58.2-.19.21-.19.6v2.41q0 .39.19.6.19.2.58.2z"/><path d="M66.05 46.93q-.75 0-1.13-.4-.39-.4-.39-1.1V43q0-.72.39-1.11.39-.4 1.13-.4.74 0 1.13.4.38.39.38 1.1v2.42q0 .72-.38 1.12-.39.4-1.13.4zm0-.7q.4 0 .58-.21.19-.21.19-.6v-2.41q0-.39-.19-.6-.18-.2-.58-.2-.4 0-.59.2-.18.21-.18.6v2.41q0 .39.18.6.2.2.59.2z"/><path d="M69.94 46.88h-.74v-4.5l-.76.46v-.77l.76-.5h.74z"/><path d="M72.43 46.88h-.74v-4.5l-.76.46v-.77l.76-.5h.74z"/><path d="M75.15 46.93q-.74 0-1.13-.4-.38-.4-.38-1.1V43q0-.72.39-1.11.38-.4 1.12-.4.75 0 1.13.4.4.39.4 1.1v2.42q0 .72-.4 1.12-.38.4-1.13.4zm0-.7q.4 0 .59-.21.19-.21.19-.6v-2.41q0-.39-.2-.6-.18-.2-.58-.2-.4 0-.58.2-.19.21-.19.6v2.41q0 .39.19.6.19.2.58.2z"/><path d="M79.05 46.88h-.75v-4.5l-.75.46v-.77l.75-.5h.75z"/><path d="M81.54 46.88h-.75v-4.5l-.75.46v-.77l.75-.5h.75z"/><path d="M84.26 46.93q-.74 0-1.13-.4-.39-.4-.39-1.1V43q0-.72.4-1.11.38-.4 1.12-.4.75 0 1.13.4.39.39.39 1.1v2.42q0 .72-.39 1.12-.39.4-1.13.4zm0-.7q.4 0 .58-.21.2-.21.2-.6v-2.41q0-.39-.2-.6-.18-.2-.58-.2-.4 0-.58.2-.19.21-.19.6v2.41q0 .39.19.6.19.2.58.2z"/><path d="M88.16 46.88h-.75v-4.5l-.75.46v-.77l.75-.5h.75z"/><path d="M90.88 46.93q-.75 0-1.13-.4-.39-.4-.39-1.1V43q0-.72.39-1.11.39-.4 1.13-.4.75 0 1.13.4.39.39.39 1.1v2.42q0 .72-.4 1.12-.38.4-1.12.4zm0-.7q.4 0 .58-.21.2-.21.2-.6v-2.41q0-.39-.2-.6-.18-.2-.58-.2-.4 0-.59.2-.18.21-.18.6v2.41q0 .39.18.6.2.2.59.2z"/><path d="M62.06 56.54q-.74 0-1.13-.4-.38-.4-.38-1.1v-2.42q0-.72.39-1.11.38-.4 1.12-.4.75 0 1.13.4.4.39.4 1.1v2.42q0 .72-.4 1.12-.38.4-1.13.4zm0-.7q.4 0 .59-.21.19-.2.19-.6v-2.41q0-.39-.2-.6-.18-.2-.58-.2-.4 0-.58.2-.19.21-.19.6v2.41q0 .4.19.6.19.2.58.2z"/><path d="M65.96 56.49h-.75v-4.5l-.75.46v-.77l.75-.5h.75z"/><path d="M68.45 56.49h-.75v-4.5l-.75.46v-.77l.75-.5h.75z"/><path d="M70.94 56.49h-.75v-4.5l-.75.46v-.77l.75-.5h.75z"/><path d="M73.66 56.54q-.75 0-1.13-.4-.39-.4-.39-1.1v-2.42q0-.72.4-1.11.38-.4 1.12-.4.75 0 1.13.4.39.39.39 1.1v2.42q0 .72-.4 1.12-.38.4-1.12.4zm0-.7q.4 0 .58-.21.2-.2.2-.6v-2.41q0-.39-.2-.6-.18-.2-.58-.2-.4 0-.58.2-.2.21-.2.6v2.41q0 .4.2.6.19.2.58.2z"/><path d="M77.64 56.54q-.74 0-1.13-.4-.38-.4-.38-1.1v-2.42q0-.72.38-1.11.4-.4 1.13-.4.75 0 1.13.4.39.39.39 1.1v2.42q0 .72-.39 1.12-.38.4-1.13.4zm0-.7q.4 0 .58-.21.2-.2.2-.6v-2.41q0-.39-.2-.6-.18-.2-.58-.2-.4 0-.58.2-.19.21-.19.6v2.41q0 .4.19.6.19.2.58.2z"/><path d="M81.54 56.49h-.75v-4.5l-.75.46v-.77l.75-.5h.75z"/><path d="M84.26 56.54q-.74 0-1.13-.4-.39-.4-.39-1.1v-2.42q0-.72.4-1.11.38-.4 1.12-.4.75 0 1.13.4.39.39.39 1.1v2.42q0 .72-.39 1.12-.39.4-1.13.4zm0-.7q.4 0 .58-.21.2-.2.2-.6v-2.41q0-.39-.2-.6-.18-.2-.58-.2-.4 0-.58.2-.19.21-.19.6v2.41q0 .4.19.6.19.2.58.2z"/><path d="M88.16 56.49h-.75v-4.5l-.75.46v-.77l.75-.5h.75z"/><path d="M90.88 56.54q-.75 0-1.13-.4-.39-.4-.39-1.1v-2.42q0-.72.39-1.11.39-.4 1.13-.4.75 0 1.13.4.39.39.39 1.1v2.42q0 .72-.4 1.12-.38.4-1.12.4zm0-.7q.4 0 .58-.21.2-.2.2-.6v-2.41q0-.39-.2-.6-.18-.2-.58-.2-.4 0-.59.2-.18.21-.18.6v2.41q0 .4.18.6.2.2.59.2z"/></g><path stroke="#000" stroke-width="15" d="M120 290l55-130 55 130"/></svg>