<svg xmlns="http://www.w3.org/2000/svg" fill="none" viewBox="0 0 348 348"><path stroke="#000" stroke-width="2" d="M5.08 5.78h336.91v337.67H5.08z"/><path stroke="#000" stroke-width="2" d="M282.73 40.55c0-8.37 6.97-15.16 15.56-15.16 4.13 0 8.09 1.6 11 4.44a14.97 14.97 0 014.56 10.72c0 8.38-6.96 15.17-15.56 15.17-8.59 0-15.56-6.8-15.56-15.17z"/><path stroke="#000" stroke-width="10" d="M140 190l35 80 35-80"/><path fill="#000" stroke="#646464" stroke-width="10.22" d="M30 30h215v70H30z"/><circle cx="175" cy="225" r="105" fill="#969696" stroke="#000" stroke-width="5"/><path fill="#000" d="M175 152.64l18.47 55.08 59.15.2-47.74 34.24 18.1 55.2L175 263.44l-47.97 33.92 18.09-55.2-47.74-34.24 59.15-.2z"/><path fill="#dcdcdc" d="M155.31 45.5V56h5.31v-5.45h9.64l-9.8 32.82h5.66l9.8-33.13V45.5h-20.6zm-43.51.03L99.09 72.95v4.6h16.33v5.84h5.18v-5.83h2.84v-4.92h-2.84V61.1h-5.18v11.54h-10.55l12.4-27.11h-5.47zm17.5 32.26v14.22l5.57-5.78v-8.44h-5.57z"/></svg>