<svg xmlns="http://www.w3.org/2000/svg" fill="none" viewBox="0 0 348 348"><path fill="#999" d="M173.5 64.14a109.86 109.86 0 00-94.64 54.93l25.35 14.63a80.6 80.6 0 0169.26-40.3 80.6 80.6 0 01.53 0 80.6 80.6 0 0169.8 40.3l25.34-14.63A109.86 109.86 0 00174 64.14a109.86 109.86 0 00-.5 0z"/><path stroke="#000" stroke-width="2" d="M5.08 5.78h336.91v337.67H5.08z"/><path stroke="#000" stroke-width="2" d="M282.73 40.55c0-8.37 6.97-15.16 15.56-15.16 4.13 0 8.09 1.6 11 4.44a14.97 14.97 0 014.56 10.72c0 8.38-6.96 15.17-15.56 15.17-8.59 0-15.56-6.8-15.56-15.17z"/><circle cx="174" cy="174" r="69.12" fill="#ababab" stroke="#000" stroke-width="5"/><path fill="#4d4d4d" d="M79.1 229.36a109.86 109.86 0 0094.9 54.5V254.6a80.6 80.6 0 01-69.53-39.84 80.6 80.6 0 01-.27-.45 80.6 80.6 0 010-80.6l-25.34-14.63a109.86 109.86 0 000 109.86 109.86 109.86 0 00.25.43z"/><path fill="#bfbfbf" d="M269.4 228.5a109.86 109.86 0 00-.26-109.43L243.8 133.7a80.6 80.6 0 01.26 80.14 80.6 80.6 0 01-.26.46 80.6 80.6 0 01-69.8 40.3v29.26a109.86 109.86 0 0095.14-54.93 109.86 109.86 0 00.25-.43z"/><circle cx="-111.71" cy="78.75" r="21.75" fill="#e3e3e3" stroke="#000" transform="rotate(-72)"/><circle cx="-149.78" cy="77.88" r="10.88" fill="#1a1a1a" stroke="#000" transform="rotate(-72)"/><circle cx="-73.65" cy="77.88" r="10.88" fill="#1a1a1a" stroke="#000" transform="rotate(-72)"/><circle cx="-243.04" cy="-178.99" r="21.75" fill="#9e9e9e" stroke="#000" transform="rotate(-144)"/><circle cx="-281.11" cy="-179.87" r="10.88" fill="#1a1a1a" stroke="#000" transform="rotate(-144)"/><circle cx="-204.98" cy="-179.87" r="10.88" fill="#1a1a1a" stroke="#000" transform="rotate(-144)"/><circle cx="-38.49" cy="-383.54" r="21.75" fill="#474747" stroke="#000" transform="rotate(144)"/><circle cx="-76.56" cy="-384.42" r="10.88" fill="#1a1a1a" stroke="#000" transform="rotate(144)"/><circle cx="-.43" cy="-384.42" r="10.88" fill="#1a1a1a" stroke="#000" transform="rotate(144)"/><circle cx="219.25" cy="-252.21" r="21.75" fill="#707070" stroke="#000" transform="rotate(72)"/><circle cx="181.19" cy="-253.09" r="10.88" fill="#1a1a1a" stroke="#000" transform="rotate(72)"/><circle cx="257.32" cy="-253.09" r="10.88" fill="#1a1a1a" stroke="#000" transform="rotate(72)"/><circle cx="174" cy="33.5" r="21.75" fill="#c9c9c9" stroke="#000"/><circle cx="135.94" cy="32.63" r="10.88" fill="#1a1a1a" stroke="#000"/><circle cx="212.06" cy="32.63" r="10.88" fill="#1a1a1a" stroke="#000"/></svg>