o Annulus
v 0.5 0 0
v 0.49892946161930174 0 0.032701564615071531
v 0.69850124626702237 0 0.045782190461100138
v 0.7 0 0
v 0.49572243068690519 0 0.065263096110025787
v 0.69401140296166719 0 0.09136833455403609
v 0.49039264020161522 0 0.097545161008064124
v 0.68654969628226126 0 0.13656322541128976
v 0.48296291314453416 0 0.12940952255126037
v 0.67614807840234781 0 0.18117333157176452
v 0.47346506474755284 0 0.16071973265158079
v 0.662851090646574 0 0.22500762571221308
v 0.46193976625564337 0 0.19134171618254489
v 0.64671567275790065 0 0.26787840265556284
v 0.44843637076634413 0 0.22114434510950065
v 0.62781091907288178 0 0.3096020831533009
v 0.43301270189221935 0 0.24999999999999997
v 0.60621778264910708 0 0.34999999999999992
v 0.41573480615127262 0 0.27778511650980109
v 0.58202872861178168 0 0.38889916311372152
v 0.39667667014561758 0 0.30438071450436033
v 0.55534733820386462 0 0.42613300030610446
v 0.37591990373948869 0 0.32967290755003442
v 0.52628786523528415 0 0.46154207057004815
v 0.35355339059327379 0 0.35355339059327373
v 0.49497474683058329 0 0.49497474683058318
v 0.32967290755003448 0 0.37591990373948864
v 0.46154207057004826 0 0.526287865235284
v 0.30438071450436033 0 0.39667667014561758
v 0.42613300030610446 0 0.55534733820386462
v 0.27778511650980114 0 0.41573480615127262
v 0.38889916311372158 0 0.58202872861178168
v 0.25000000000000006 0 0.4330127018922193
v 0.35000000000000003 0 0.606217782649107
v 0.22114434510950062 0 0.44843637076634418
v 0.30960208315330084 0 0.62781091907288178
v 0.19134171618254492 0 0.46193976625564337
v 0.26787840265556284 0 0.64671567275790065
v 0.16071973265158074 0 0.47346506474755284
v 0.22500762571221303 0 0.662851090646574
v 0.12940952255126037 0 0.48296291314453416
v 0.18117333157176452 0 0.67614807840234781
v 0.097545161008064166 0 0.49039264020161522
v 0.13656322541128982 0 0.68654969628226126
v 0.065263096110025856 0 0.49572243068690519
v 0.091368334554036187 0 0.69401140296166719
v 0.032701564615071524 0 0.49892946161930174
v 0.045782190461100131 0 0.69850124626702237
v 3.0615158845559431E-17 0 0.5
v 4.28612223837832E-17 0 0.7
v -0.032701564615071461 0 0.49892946161930174
v -0.04578219046110004 0 0.69850124626702237
v -0.06526309611002569 0 0.49572243068690525
v -0.091368334554035965 0 0.6940114029616673
v -0.097545161008063985 0 0.49039264020161527
v -0.13656322541128957 0 0.68654969628226137
v -0.12940952255126043 0 0.48296291314453416
v -0.18117333157176457 0 0.67614807840234781
v -0.16071973265158079 0 0.47346506474755284
v -0.22500762571221308 0 0.662851090646574
v -0.19134171618254486 0 0.46193976625564337
v -0.26787840265556279 0 0.64671567275790065
v -0.22114434510950057 0 0.44843637076634418
v -0.30960208315330079 0 0.62781091907288178
v -0.24999999999999989 0 0.43301270189221935
v -0.34999999999999981 0 0.60621778264910708
v -0.27778511650980114 0 0.41573480615127256
v -0.38889916311372158 0 0.58202872861178157
v -0.30438071450436033 0 0.39667667014561758
v -0.42613300030610446 0 0.55534733820386462
v -0.32967290755003442 0 0.37591990373948869
v -0.46154207057004815 0 0.52628786523528415
v -0.35355339059327373 0 0.35355339059327379
v -0.49497474683058318 0 0.49497474683058329
v -0.3759199037394888 0 0.32967290755003431
v -0.52628786523528426 0 0.461542070570048
v -0.39667667014561764 0 0.30438071450436022
v -0.55534733820386462 0 0.42613300030610429
v -0.41573480615127267 0 0.27778511650980109
v -0.58202872861178168 0 0.38889916311372152
v -0.43301270189221935 0 0.24999999999999997
v -0.60621778264910708 0 0.34999999999999992
v -0.44843637076634413 0 0.22114434510950065
v -0.62781091907288178 0 0.3096020831533009
v -0.46193976625564337 0 0.19134171618254495
v -0.64671567275790065 0 0.2678784026555629
v -0.47346506474755279 0 0.16071973265158088
v -0.66285109064657388 0 0.22500762571221322
v -0.4829629131445341 0 0.12940952255126051
v -0.6761480784023477 0 0.18117333157176471
v -0.49039264020161522 0 0.097545161008064082
v -0.68654969628226126 0 0.13656322541128971
v -0.49572243068690519 0 0.065263096110025787
v -0.69401140296166719 0 0.09136833455403609
v -0.49892946161930174 0 0.032701564615071559
v -0.69850124626702237 0 0.045782190461100179
v -0.5 0 6.1230317691118863E-17
v -0.7 0 8.57224447675664E-17
v -0.49892946161930174 0 -0.032701564615071434
v -0.69850124626702237 0 -0.045782190461100006
v -0.49572243068690525 0 -0.065263096110025662
v -0.6940114029616673 0 -0.091368334554035924
v -0.49039264020161527 0 -0.097545161008063958
v -0.68654969628226137 0 -0.13656322541128954
v -0.48296291314453421 0 -0.12940952255126018
v -0.67614807840234781 0 -0.18117333157176424
v -0.4734650647475529 0 -0.16071973265158054
v -0.662851090646574 0 -0.22500762571221275
v -0.46193976625564348 0 -0.19134171618254461
v -0.64671567275790087 0 -0.26787840265556245
v -0.44843637076634413 0 -0.22114434510950073
v -0.62781091907288178 0 -0.309602083153301
v -0.4330127018922193 0 -0.25000000000000006
v -0.606217782649107 0 -0.35000000000000003
v -0.41573480615127262 0 -0.27778511650980114
v -0.58202872861178168 0 -0.38889916311372158
v -0.39667667014561758 0 -0.30438071450436033
v -0.55534733820386462 0 -0.42613300030610446
v -0.37591990373948875 0 -0.32967290755003442
v -0.52628786523528426 0 -0.46154207057004815
v -0.35355339059327384 0 -0.35355339059327373
v -0.49497474683058335 0 -0.49497474683058318
v -0.32967290755003453 0 -0.37591990373948864
v -0.46154207057004831 0 -0.526287865235284
v -0.30438071450436044 0 -0.39667667014561747
v -0.42613300030610457 0 -0.55534733820386439
v -0.27778511650980148 0 -0.4157348061512724
v -0.388899163113722 0 -0.58202872861178134
v -0.25000000000000022 0 -0.43301270189221919
v -0.35000000000000031 0 -0.60621778264910686
v -0.22114434510950068 0 -0.44843637076634413
v -0.30960208315330096 0 -0.62781091907288178
v -0.19134171618254475 0 -0.46193976625564342
v -0.26787840265556262 0 -0.64671567275790076
v -0.1607197326515809 0 -0.47346506474755279
v -0.22500762571221325 0 -0.66285109064657388
v -0.12940952255126031 0 -0.48296291314453416
v -0.18117333157176443 0 -0.67614807840234781
v -0.097545161008064332 0 -0.49039264020161516
v -0.13656322541129007 0 -0.68654969628226115
v -0.065263096110025814 0 -0.49572243068690519
v -0.091368334554036132 0 -0.69401140296166719
v -0.032701564615071808 0 -0.49892946161930174
v -0.045782190461100526 0 -0.69850124626702237
v -9.18454765366783E-17 0 -0.5
v -1.285836671513496E-16 0 -0.7
v 0.032701564615071184 0 -0.4989294616193018
v 0.045782190461099652 0 -0.69850124626702248
v 0.065263096110026064 0 -0.49572243068690519
v 0.091368334554036479 0 -0.69401140296166719
v 0.097545161008064152 0 -0.49039264020161522
v 0.13656322541128979 0 -0.68654969628226126
v 0.12940952255126056 0 -0.4829629131445341
v 0.18117333157176477 0 -0.6761480784023477
v 0.16071973265158074 0 -0.47346506474755284
v 0.22500762571221303 0 -0.662851090646574
v 0.191341716182545 0 -0.46193976625564331
v 0.267878402655563 0 -0.64671567275790065
v 0.22114434510950051 0 -0.44843637076634424
v 0.30960208315330068 0 -0.62781091907288189
v 0.25000000000000006 0 -0.4330127018922193
v 0.35000000000000003 0 -0.606217782649107
v 0.27778511650980092 0 -0.41573480615127273
v 0.38889916311372125 0 -0.58202872861178179
v 0.30438071450436027 0 -0.39667667014561758
v 0.42613300030610435 0 -0.55534733820386462
v 0.3296729075500342 0 -0.37591990373948891
v 0.46154207057004787 0 -0.52628786523528448
v 0.35355339059327368 0 -0.35355339059327384
v 0.49497474683058312 0 -0.49497474683058335
v 0.37591990373948875 0 -0.32967290755003437
v 0.52628786523528426 0 -0.46154207057004809
v 0.39667667014561747 0 -0.30438071450436044
v 0.55534733820386439 0 -0.42613300030610457
v 0.41573480615127262 0 -0.27778511650980109
v 0.58202872861178168 0 -0.38889916311372152
v 0.43301270189221919 0 -0.25000000000000022
v 0.60621778264910686 0 -0.35000000000000031
v 0.44843637076634413 0 -0.22114434510950071
v 0.62781091907288178 0 -0.30960208315330096
v 0.46193976625564342 0 -0.19134171618254478
v 0.64671567275790076 0 -0.26787840265556268
v 0.47346506474755279 0 -0.16071973265158093
v 0.66285109064657388 0 -0.22500762571221328
v 0.48296291314453416 0 -0.12940952255126034
v 0.67614807840234781 0 -0.18117333157176446
v 0.49039264020161516 0 -0.09754516100806436
v 0.68654969628226115 0 -0.1365632254112901
v 0.49572243068690519 0 -0.065263096110025842
v 0.69401140296166719 0 -0.091368334554036174
v 0.49892946161930174 0 -0.032701564615071836
v 0.69850124626702237 0 -0.045782190461100568
vn 0 1 0
vn 0 1 0
vn 0 1 0
vn 0 1 0
vn 0 1 0
vn 0 1 0
vn 0 1 0
vn 0 1 0
vn 0 1 0
vn 0 1 0
vn 0 1 0
vn 0 1 0
vn 0 1 0
vn 0 1 0
vn 0 1 0
vn 0 1 0
vn 0 1 0
vn 0 1 0
vn 0 1 0
vn 0 1 0
vn 0 1 0
vn 0 1 0
vn 0 1 0
vn 0 1 0
vn 0 1 0
vn 0 1 0
vn 0 1 0
vn 0 1 0
vn 0 1 0
vn 0 1 0
vn 0 1 0
vn 0 1 0
vn 0 1 0
vn 0 1 0
vn 0 1 0
vn 0 1 0
vn 0 1 0
vn 0 1 0
vn 0 1 0
vn 0 1 0
vn 0 1 0
vn 0 1 0
vn 0 1 0
vn 0 1 0
vn 0 1 0
vn 0 1 0
vn 0 1 0
vn 0 1 0
vn 0 1 0
vn 0 1 0
vn 0 1 0
vn 0 1 0
vn 0 1 0
vn 0 1 0
vn 0 1 0
vn 0 1 0
vn 0 1 0
vn 0 1 0
vn 0 1 0
vn 0 1 0
vn 0 1 0
vn 0 1 0
vn 0 1 0
vn 0 1 0
vn 0 1 0
vn 0 1 0
vn 0 1 0
vn 0 1 0
vn 0 1 0
vn 0 1 0
vn 0 1 0
vn 0 1 0
vn 0 1 0
vn 0 1 0
vn 0 1 0
vn 0 1 0
vn 0 1 0
vn 0 1 0
vn 0 1 0
vn 0 1 0
vn 0 1 0
vn 0 1 0
vn 0 1 0
vn 0 1 0
vn 0 1 0
vn 0 1 0
vn 0 1 0
vn 0 1 0
vn 0 1 0
vn 0 1 0
vn 0 1 0
vn 0 1 0
vn 0 1 0
vn 0 1 0
vn 0 1 0
vn 0 1 0
vn 0 1 0
vn 0 1 0
vn 0 1 0
vn 0 1 0
vn 0 1 0
vn 0 1 0
vn 0 1 0
vn 0 1 0
vn 0 1 0
vn 0 1 0
vn 0 1 0
vn 0 1 0
vn 0 1 0
vn 0 1 0
vn 0 1 0
vn 0 1 0
vn 0 1 0
vn 0 1 0
vn 0 1 0
vn 0 1 0
vn 0 1 0
vn 0 1 0
vn 0 1 0
vn 0 1 0
vn 0 1 0
vn 0 1 0
vn 0 1 0
vn 0 1 0
vn 0 1 0
vn 0 1 0
vn 0 1 0
vn 0 1 0
vn 0 1 0
vn 0 1 0
vn 0 1 0
vn 0 1 0
vn 0 1 0
vn 0 1 0
vn 0 1 0
vn 0 1 0
vn 0 1 0
vn 0 1 0
vn 0 1 0
vn 0 1 0
vn 0 1 0
vn 0 1 0
vn 0 1 0
vn 0 1 0
vn 0 1 0
vn 0 1 0
vn 0 1 0
vn 0 1 0
vn 0 1 0
vn 0 1 0
vn 0 1 0
vn 0 1 0
vn 0 1 0
vn 0 1 0
vn 0 1 0
vn 0 1 0
vn 0 1 0
vn 0 1 0
vn 0 1 0
vn 0 1 0
vn 0 1 0
vn 0 1 0
vn 0 1 0
vn 0 1 0
vn 0 1 0
vn 0 1 0
vn 0 1 0
vn 0 1 0
vn 0 1 0
vn 0 1 0
vn 0 1 0
vn 0 1 0
vn 0 1 0
vn 0 1 0
vn 0 1 0
vn 0 1 0
vn 0 1 0
vn 0 1 0
vn 0 1 0
vn 0 1 0
vn 0 1 0
vn 0 1 0
vn 0 1 0
vn 0 1 0
vn 0 1 0
vn 0 1 0
vn 0 1 0
vn 0 1 0
vn 0 1 0
vn 0 1 0
vn 0 1 0
vn 0 1 0
vn 0 1 0
vn 0 1 0
vn 0 1 0
vn 0 1 0
vn 0 1 0
vn 0 1 0
vn 0 1 0
vn 0 1 0
vn 0 1 0
vn 0 1 0
vn 0 1 0
vn 0 1 0
vn 0 1 0
vn 0 1 0
vn 0 1 0
vn 0 1 0
vn 0 1 0
vn 0 1 0
vn 0 1 0
vn 0 1 0
vn 0 1 0
vn 0 1 0
vn 0 1 0
vn 0 1 0
vn 0 1 0
vn 0 1 0
vn 0 1 0
vn 0 1 0
vn 0 1 0
vn 0 1 0
vn 0 1 0
vn 0 1 0
vn 0 1 0
vn 0 1 0
vn 0 1 0
vn 0 1 0
vn 0 1 0
vn 0 1 0
vn 0 1 0
vn 0 1 0
vn 0 1 0
vn 0 1 0
vn 0 1 0
vn 0 1 0
vn 0 1 0
vn 0 1 0
vn 0 1 0
vn 0 1 0
vn 0 1 0
vn 0 1 0
vn 0 1 0
vn 0 1 0
vn 0 1 0
vn 0 1 0
vn 0 1 0
vn 0 1 0
vn 0 1 0
vn 0 1 0
vn 0 1 0
vn 0 1 0
vn 0 1 0
vn 0 1 0
vn 0 1 0
vn 0 1 0
vn 0 1 0
vn 0 1 0
vn 0 1 0
vn 0 1 0
vn 0 1 0
vn 0 1 0
vn 0 1 0
vn 0 1 0
vn 0 1 0
vn 0 1 0
vn 0 1 0
vn 0 1 0
vn 0 1 0
vn 0 1 0
vn 0 1 0
vn 0 1 0
vn 0 1 0
vn 0 1 0
vn 0 1 0
vn 0 1 0
vn 0 1 0
vn 0 1 0
vn 0 1 0
vn 0 1 0
vn 0 1 0
vn 0 1 0
vn 0 1 0
vn 0 1 0
vn 0 1 0
vn 0 1 0
vn 0 1 0
vn 0 1 0
vn 0 1 0
vn 0 1 0
vn 0 1 0
vn 0 1 0
vn 0 1 0
vn 0 1 0
vn 0 1 0
vn 0 1 0
vn 0 1 0
vn 0 1 0
vn 0 1 0
vn 0 1 0
vn 0 1 0
vn 0 1 0
vn 0 1 0
vn 0 1 0
vn 0 1 0
vn 0 1 0
vn 0 1 0
vn 0 1 0
vn 0 1 0
vn 0 1 0
vn 0 1 0
vn 0 1 0
vn 0 1 0
vn 0 1 0
vn 0 1 0
vn 0 1 0
vn 0 1 0
vn 0 1 0
vn 0 1 0
vn 0 1 0
vn 0 1 0
vn 0 1 0
vn 0 1 0
vn 0 1 0
vn 0 1 0
vn 0 1 0
vn 0 1 0
vn 0 1 0
vn 0 1 0
vn 0 1 0
vn 0 1 0
vn 0 1 0
vn 0 1 0
vn 0 1 0
vn 0 1 0
vn 0 1 0
vn 0 1 0
vn 0 1 0
vn 0 1 0
vn 0 1 0
vn 0 1 0
vn 0 1 0
vn 0 1 0
vn 0 1 0
vn 0 1 0
vn 0 1 0
vn 0 1 0
vn 0 1 0
vn 0 1 0
vn 0 1 0
vn 0 1 0
vn 0 1 0
vn 0 1 0
vn 0 1 0
vn 0 1 0
vn 0 1 0
vn 0 1 0
vn 0 1 0
vn 0 1 0
vn 0 1 0
vn 0 1 0
vn 0 1 0
vn 0 1 0
vn 0 1 0
vn 0 1 0
vn 0 1 0
vn 0 1 0
vn 0 1 0
vn 0 1 0
vn 0 1 0
vn 0 1 0
vn 0 1 0
vn 0 1 0
vn 0 1 0
vn 0 1 0
vn 0 1 0
vn 0 1 0
vn 0 1 0
vn 0 1 0
vn 0 1 0
vn 0 1 0
vn 0 1 0
vn 0 1 0
vn 0 1 0

g Annulus
f 1//1 2//2 3//3 4//4
f 2//5 5//6 6//7 3//8
f 5//9 7//10 8//11 6//12
f 7//13 9//14 10//15 8//16
f 9//17 11//18 12//19 10//20
f 11//21 13//22 14//23 12//24
f 13//25 15//26 16//27 14//28
f 15//29 17//30 18//31 16//32
f 17//33 19//34 20//35 18//36
f 19//37 21//38 22//39 20//40
f 21//41 23//42 24//43 22//44
f 23//45 25//46 26//47 24//48
f 25//49 27//50 28//51 26//52
f 27//53 29//54 30//55 28//56
f 29//57 31//58 32//59 30//60
f 31//61 33//62 34//63 32//64
f 33//65 35//66 36//67 34//68
f 35//69 37//70 38//71 36//72
f 37//73 39//74 40//75 38//76
f 39//77 41//78 42//79 40//80
f 41//81 43//82 44//83 42//84
f 43//85 45//86 46//87 44//88
f 45//89 47//90 48//91 46//92
f 47//93 49//94 50//95 48//96
f 49//97 51//98 52//99 50//100
f 51//101 53//102 54//103 52//104
f 53//105 55//106 56//107 54//108
f 55//109 57//110 58//111 56//112
f 57//113 59//114 60//115 58//116
f 59//117 61//118 62//119 60//120
f 61//121 63//122 64//123 62//124
f 63//125 65//126 66//127 64//128
f 65//129 67//130 68//131 66//132
f 67//133 69//134 70//135 68//136
f 69//137 71//138 72//139 70//140
f 71//141 73//142 74//143 72//144
f 73//145 75//146 76//147 74//148
f 75//149 77//150 78//151 76//152
f 77//153 79//154 80//155 78//156
f 79//157 81//158 82//159 80//160
f 81//161 83//162 84//163 82//164
f 83//165 85//166 86//167 84//168
f 85//169 87//170 88//171 86//172
f 87//173 89//174 90//175 88//176
f 89//177 91//178 92//179 90//180
f 91//181 93//182 94//183 92//184
f 93//185 95//186 96//187 94//188
f 95//189 97//190 98//191 96//192
f 97//193 99//194 100//195 98//196
f 99//197 101//198 102//199 100//200
f 101//201 103//202 104//203 102//204
f 103//205 105//206 106//207 104//208
f 105//209 107//210 108//211 106//212
f 107//213 109//214 110//215 108//216
f 109//217 111//218 112//219 110//220
f 111//221 113//222 114//223 112//224
f 113//225 115//226 116//227 114//228
f 115//229 117//230 118//231 116//232
f 117//233 119//234 120//235 118//236
f 119//237 121//238 122//239 120//240
f 121//241 123//242 124//243 122//244
f 123//245 125//246 126//247 124//248
f 125//249 127//250 128//251 126//252
f 127//253 129//254 130//255 128//256
f 129//257 131//258 132//259 130//260
f 131//261 133//262 134//263 132//264
f 133//265 135//266 136//267 134//268
f 135//269 137//270 138//271 136//272
f 137//273 139//274 140//275 138//276
f 139//277 141//278 142//279 140//280
f 141//281 143//282 144//283 142//284
f 143//285 145//286 146//287 144//288
f 145//289 147//290 148//291 146//292
f 147//293 149//294 150//295 148//296
f 149//297 151//298 152//299 150//300
f 151//301 153//302 154//303 152//304
f 153//305 155//306 156//307 154//308
f 155//309 157//310 158//311 156//312
f 157//313 159//314 160//315 158//316
f 159//317 161//318 162//319 160//320
f 161//321 163//322 164//323 162//324
f 163//325 165//326 166//327 164//328
f 165//329 167//330 168//331 166//332
f 167//333 169//334 170//335 168//336
f 169//337 171//338 172//339 170//340
f 171//341 173//342 174//343 172//344
f 173//345 175//346 176//347 174//348
f 175//349 177//350 178//351 176//352
f 177//353 179//354 180//355 178//356
f 179//357 181//358 182//359 180//360
f 181//361 183//362 184//363 182//364
f 183//365 185//366 186//367 184//368
f 185//369 187//370 188//371 186//372
f 187//373 189//374 190//375 188//376
f 189//377 191//378 192//379 190//380
f 191//381 1//382 4//383 192//384