o Arrow
v -0.02040142 0.025 0.48908235
v -0.02040142 0.025 -0.33745031000000003
v -0.02040142 0 -0.33745031000000003
v -0.02040142 0 0.48908235
v -0.17644459 0.025 -0.23489185
v -0.17644459 0 -0.23489185
v -0.18306159000000002 0.025 -0.24261185000000002
v -0.18306159000000002 0 -0.24261185000000002
v 0 0.025 -0.48908238
v 0 0 -0.48908238
v 0.18306128 0.025 -0.24261133
v 0.18306128 0 -0.24261133
v 0.17644427999999998 0.025 -0.23489132999999998
v 0.17644427999999998 0 -0.23489132999999998
v 0.0192982 0.025 -0.33744998
v 0.0192982 0 -0.33744998
v 0.01929863 0.025 0.48908235
v 0.01929863 0 0.48908235
vn -0.82653266 0 0
vn -0.82653266 0 0
vn -0.82653266 0 0
vn -0.82653266 0 0
vn 0.038964866666666653 0 0.054403739999999992
vn 0.029407440000000007 0 0.049625040000000009
vn 0.029407440000000007 0 0.049625040000000009
vn 0.038964866666666653 0 0.054403739999999992
vn -0.0077200000000000046 0 0.0066170000000000118
vn -0.0077200000000000046 0 0.0066170000000000118
vn -0.0077200000000000046 0 0.0066170000000000118
vn -0.0077200000000000046 0 0.0066170000000000118
vn -0.074620999999999993 0 -0.067637320000000015
vn -0.089692686666666688 0 -0.05440374
vn -0.089692686666666688 0 -0.05440374
vn -0.074620999999999993 0 -0.067637320000000015
vn 0.089692686666666688 0 -0.05440374
vn 0.074621346666666671 0 -0.067637113333333332
vn 0.074621346666666671 0 -0.067637113333333332
vn 0.089692686666666688 0 -0.05440374
vn 0.0077200000000000046 0 0.0066170000000000118
vn 0.0077200000000000046 0 0.0066170000000000118
vn 0.0077200000000000046 0 0.0066170000000000118
vn 0.0077200000000000046 0 0.0066170000000000118
vn -0.031980713333333383 0 0.051463079999999994
vn -0.036391719999999961 0 0.053300973333333335
vn -0.036391719999999961 0 0.053300973333333335
vn -0.031980713333333383 0 0.051463079999999994
vn 0.82653233 0 -4.2999999999918104E-07
vn 0.82653233 0 -4.2999999999918104E-07
vn 0.82653233 0 -4.2999999999918104E-07
vn 0.82653233 0 -4.2999999999918104E-07
vn 0 0 0.03970005
vn 0 0 0.03970005
vn 0 0 0.03970005
vn 0 0 0.03970005
vn 0 1 0
vn 0 1 0
vn 0 1 0
vn 0 1 0
vn 0 1 0
vn 0 1 0
vn 0 1 0
vn 0 1 0
vn 0 1 0
vn 0 1 0
vn 0 1 0
vn 0 1 0
vn 0 1 0
vn 0 1 0
vn 0 1 0
vn 0 1 0
vn 0 1 0
vn 0 1 0
vn 0 1 0
vn 0 1 0
vn 0 1 0
vn 0 -1 0
vn 0 -1 0
vn 0 -1 0
vn 0 -1 0
vn 0 -1 0
vn 0 -1 0
vn 0 -1 0
vn 0 -1 0
vn 0 -1 0
vn 0 -1 0
vn 0 -1 0
vn 0 -1 0
vn 0 -1 0
vn 0 -1 0
vn 0 -1 0
vn 0 -1 0
vn 0 -1 0
vn 0 -1 0
vn 0 -1 0
vn 0 -1 0
vn 0 -1 0

g Arrow
f 1//1 2//2 3//3 4//4
f 2//5 5//6 6//7 3//8
f 5//9 7//10 8//11 6//12
f 7//13 9//14 10//15 8//16
f 9//17 11//18 12//19 10//20
f 11//21 13//22 14//23 12//24
f 13//25 15//26 16//27 14//28
f 15//29 17//30 18//31 16//32
f 17//33 1//34 4//35 18//36
f 1//37 17//38 15//39
f 15//40 13//41 11//42
f 15//43 11//44 9//45
f 1//46 15//47 9//48
f 9//49 7//50 5//51
f 9//52 5//53 2//54
f 9//55 2//56 1//57
f 16//58 18//59 4//60
f 12//61 14//62 16//63
f 10//64 12//65 16//66
f 10//67 16//68 4//69
f 6//70 8//71 10//72
f 3//73 6//74 10//75
f 4//76 3//77 10//78