o Node
v 0.075 0 0
v 0.0738605814759156 0.013023613325019775 0
v 0.0738605814759156 0.013023613325019775 0.05
v 0.075 0 0.05
v 0.070476946558943127 0.025651510749425153 0
v 0.070476946558943127 0.025651510749425153 0.05
v 0.0649519052838329 0.037499999999999992 0
v 0.0649519052838329 0.037499999999999992 0.05
v 0.057453333233923348 0.048209070726490444 0
v 0.057453333233923348 0.048209070726490444 0.05
v 0.048209070726490451 0.057453333233923348 0
v 0.048209070726490451 0.057453333233923348 0.05
v 0.037500000000000006 0.064951905283832892 0
v 0.037500000000000006 0.064951905283832892 0.05
v 0.02565151074942516 0.070476946558943127 0
v 0.02565151074942516 0.070476946558943127 0.05
v 0.01302361332501978 0.0738605814759156 0
v 0.01302361332501978 0.0738605814759156 0.05
v 4.5922738268339143E-18 0.075 0
v 4.5922738268339143E-18 0.075 0.05
v -0.013023613325019773 0.0738605814759156 0
v -0.013023613325019773 0.0738605814759156 0.05
v -0.025651510749425153 0.070476946558943127 0
v -0.025651510749425153 0.070476946558943127 0.05
v -0.037499999999999985 0.0649519052838329 0
v -0.037499999999999985 0.0649519052838329 0.05
v -0.048209070726490451 0.057453333233923348 0
v -0.048209070726490451 0.057453333233923348 0.05
v -0.057453333233923341 0.048209070726490458 0
v -0.057453333233923341 0.048209070726490458 0.05
v -0.0649519052838329 0.037499999999999992 0
v -0.0649519052838329 0.037499999999999992 0.05
v -0.070476946558943127 0.025651510749425167 0
v -0.070476946558943127 0.025651510749425167 0.05
v -0.0738605814759156 0.01302361332501977 0
v -0.0738605814759156 0.01302361332501977 0.05
v -0.075 9.1845476536678285E-18 0
v -0.075 9.1845476536678285E-18 0.05
v -0.0738605814759156 -0.013023613325019785 0
v -0.0738605814759156 -0.013023613325019785 0.05
v -0.070476946558943127 -0.025651510749425149 0
v -0.070476946558943127 -0.025651510749425149 0.05
v -0.064951905283832892 -0.037500000000000006 0
v -0.064951905283832892 -0.037500000000000006 0.05
v -0.057453333233923348 -0.048209070726490444 0
v -0.057453333233923348 -0.048209070726490444 0.05
v -0.048209070726490458 -0.057453333233923341 0
v -0.048209070726490458 -0.057453333233923341 0.05
v -0.037500000000000033 -0.064951905283832878 0
v -0.037500000000000033 -0.064951905283832878 0.05
v -0.0256515107494252 -0.070476946558943113 0
v -0.0256515107494252 -0.070476946558943113 0.05
v -0.013023613325019775 -0.0738605814759156 0
v -0.013023613325019775 -0.0738605814759156 0.05
v -1.3776821480501744E-17 -0.075 0
v -1.3776821480501744E-17 -0.075 0.05
v 0.013023613325019747 -0.073860581475915607 0
v 0.013023613325019747 -0.073860581475915607 0.05
v 0.025651510749425111 -0.07047694655894314 0
v 0.025651510749425111 -0.07047694655894314 0.05
v 0.037500000000000006 -0.064951905283832892 0
v 0.037500000000000006 -0.064951905283832892 0.05
v 0.048209070726490444 -0.057453333233923355 0
v 0.048209070726490444 -0.057453333233923355 0.05
v 0.057453333233923334 -0.048209070726490465 0
v 0.057453333233923334 -0.048209070726490465 0.05
v 0.064951905283832878 -0.037500000000000033 0
v 0.064951905283832878 -0.037500000000000033 0.05
v 0.070476946558943127 -0.025651510749425146 0
v 0.070476946558943127 -0.025651510749425146 0.05
v 0.0738605814759156 -0.013023613325019846 0
v 0.0738605814759156 -0.013023613325019846 0.05
vn 0.075 0 0
vn 0.0738605814759156 0.013023613325019775 0
vn 0.0738605814759156 0.013023613325019775 0
vn 0.075 0 0
vn 0.0738605814759156 0.013023613325019775 0
vn 0.070476946558943127 0.025651510749425153 0
vn 0.070476946558943127 0.025651510749425153 0
vn 0.0738605814759156 0.013023613325019775 0
vn 0.070476946558943127 0.025651510749425153 0
vn 0.0649519052838329 0.037499999999999992 0
vn 0.0649519052838329 0.037499999999999992 0
vn 0.070476946558943127 0.025651510749425153 0
vn 0.0649519052838329 0.037499999999999992 0
vn 0.057453333233923348 0.048209070726490444 0
vn 0.057453333233923348 0.048209070726490444 0
vn 0.0649519052838329 0.037499999999999992 0
vn 0.057453333233923348 0.048209070726490444 0
vn 0.048209070726490451 0.057453333233923348 0
vn 0.048209070726490451 0.057453333233923348 0
vn 0.057453333233923348 0.048209070726490444 0
vn 0.048209070726490451 0.057453333233923348 0
vn 0.037500000000000006 0.064951905283832892 0
vn 0.037500000000000006 0.064951905283832892 0
vn 0.048209070726490451 0.057453333233923348 0
vn 0.037500000000000006 0.064951905283832892 0
vn 0.02565151074942516 0.070476946558943127 0
vn 0.02565151074942516 0.070476946558943127 0
vn 0.037500000000000006 0.064951905283832892 0
vn 0.02565151074942516 0.070476946558943127 0
vn 0.01302361332501978 0.0738605814759156 0
vn 0.01302361332501978 0.0738605814759156 0
vn 0.02565151074942516 0.070476946558943127 0
vn 0.01302361332501978 0.0738605814759156 0
vn 4.5922738268339143E-18 0.075 0
vn 4.5922738268339143E-18 0.075 0
vn 0.01302361332501978 0.0738605814759156 0
vn 4.5922738268339143E-18 0.075 0
vn -0.013023613325019773 0.0738605814759156 0
vn -0.013023613325019773 0.0738605814759156 0
vn 4.5922738268339143E-18 0.075 0
vn -0.013023613325019773 0.0738605814759156 0
vn -0.025651510749425153 0.070476946558943127 0
vn -0.025651510749425153 0.070476946558943127 0
vn -0.013023613325019773 0.0738605814759156 0
vn -0.025651510749425153 0.070476946558943127 0
vn -0.037499999999999985 0.0649519052838329 0
vn -0.037499999999999985 0.0649519052838329 0
vn -0.025651510749425153 0.070476946558943127 0
vn -0.037499999999999985 0.0649519052838329 0
vn -0.048209070726490451 0.057453333233923348 0
vn -0.048209070726490451 0.057453333233923348 0
vn -0.037499999999999985 0.0649519052838329 0
vn -0.048209070726490451 0.057453333233923348 0
vn -0.057453333233923341 0.048209070726490458 0
vn -0.057453333233923341 0.048209070726490458 0
vn -0.048209070726490451 0.057453333233923348 0
vn -0.057453333233923341 0.048209070726490458 0
vn -0.0649519052838329 0.037499999999999992 0
vn -0.0649519052838329 0.037499999999999992 0
vn -0.057453333233923341 0.048209070726490458 0
vn -0.0649519052838329 0.037499999999999992 0
vn -0.070476946558943127 0.025651510749425167 0
vn -0.070476946558943127 0.025651510749425167 0
vn -0.0649519052838329 0.037499999999999992 0
vn -0.070476946558943127 0.025651510749425167 0
vn -0.0738605814759156 0.01302361332501977 0
vn -0.0738605814759156 0.01302361332501977 0
vn -0.070476946558943127 0.025651510749425167 0
vn -0.0738605814759156 0.01302361332501977 0
vn -0.075 9.1845476536678285E-18 0
vn -0.075 9.1845476536678285E-18 0
vn -0.0738605814759156 0.01302361332501977 0
vn -0.075 9.1845476536678285E-18 0
vn -0.0738605814759156 -0.013023613325019785 0
vn -0.0738605814759156 -0.013023613325019785 0
vn -0.075 9.1845476536678285E-18 0
vn -0.0738605814759156 -0.013023613325019785 0
vn -0.070476946558943127 -0.025651510749425149 0
vn -0.070476946558943127 -0.025651510749425149 0
vn -0.0738605814759156 -0.013023613325019785 0
vn -0.070476946558943127 -0.025651510749425149 0
vn -0.064951905283832892 -0.037500000000000006 0
vn -0.064951905283832892 -0.037500000000000006 0
vn -0.070476946558943127 -0.025651510749425149 0
vn -0.064951905283832892 -0.037500000000000006 0
vn -0.057453333233923348 -0.048209070726490444 0
vn -0.057453333233923348 -0.048209070726490444 0
vn -0.064951905283832892 -0.037500000000000006 0
vn -0.057453333233923348 -0.048209070726490444 0
vn -0.048209070726490458 -0.057453333233923341 0
vn -0.048209070726490458 -0.057453333233923341 0
vn -0.057453333233923348 -0.048209070726490444 0
vn -0.048209070726490458 -0.057453333233923341 0
vn -0.037500000000000033 -0.064951905283832878 0
vn -0.037500000000000033 -0.064951905283832878 0
vn -0.048209070726490458 -0.057453333233923341 0
vn -0.037500000000000033 -0.064951905283832878 0
vn -0.0256515107494252 -0.070476946558943113 0
vn -0.0256515107494252 -0.070476946558943113 0
vn -0.037500000000000033 -0.064951905283832878 0
vn -0.0256515107494252 -0.070476946558943113 0
vn -0.013023613325019775 -0.0738605814759156 0
vn -0.013023613325019775 -0.0738605814759156 0
vn -0.0256515107494252 -0.070476946558943113 0
vn -0.013023613325019775 -0.0738605814759156 0
vn -1.3776821480501744E-17 -0.075 0
vn -1.3776821480501744E-17 -0.075 0
vn -0.013023613325019775 -0.0738605814759156 0
vn -1.3776821480501744E-17 -0.075 0
vn 0.013023613325019747 -0.073860581475915607 0
vn 0.013023613325019747 -0.073860581475915607 0
vn -1.3776821480501744E-17 -0.075 0
vn 0.013023613325019747 -0.073860581475915607 0
vn 0.025651510749425111 -0.07047694655894314 0
vn 0.025651510749425111 -0.07047694655894314 0
vn 0.013023613325019747 -0.073860581475915607 0
vn 0.025651510749425111 -0.07047694655894314 0
vn 0.037500000000000006 -0.064951905283832892 0
vn 0.037500000000000006 -0.064951905283832892 0
vn 0.025651510749425111 -0.07047694655894314 0
vn 0.037500000000000006 -0.064951905283832892 0
vn 0.048209070726490444 -0.057453333233923355 0
vn 0.048209070726490444 -0.057453333233923355 0
vn 0.037500000000000006 -0.064951905283832892 0
vn 0.048209070726490444 -0.057453333233923355 0
vn 0.057453333233923334 -0.048209070726490465 0
vn 0.057453333233923334 -0.048209070726490465 0
vn 0.048209070726490444 -0.057453333233923355 0
vn 0.057453333233923334 -0.048209070726490465 0
vn 0.064951905283832878 -0.037500000000000033 0
vn 0.064951905283832878 -0.037500000000000033 0
vn 0.057453333233923334 -0.048209070726490465 0
vn 0.064951905283832878 -0.037500000000000033 0
vn 0.070476946558943127 -0.025651510749425146 0
vn 0.070476946558943127 -0.025651510749425146 0
vn 0.064951905283832878 -0.037500000000000033 0
vn 0.070476946558943127 -0.025651510749425146 0
vn 0.0738605814759156 -0.013023613325019846 0
vn 0.0738605814759156 -0.013023613325019846 0
vn 0.070476946558943127 -0.025651510749425146 0
vn 0.0738605814759156 -0.013023613325019846 0
vn 0.075 0 0
vn 0.075 0 0
vn 0.0738605814759156 -0.013023613325019846 0
vn 0 0 -1
vn 0 0 -1
vn 0 0 -1
vn 0 0 -1
vn 0 0 -1
vn 0 0 -1
vn 0 0 -1
vn 0 0 -1
vn 0 0 -1
vn 0 0 -1
vn 0 0 -1
vn 0 0 -1
vn 0 0 -1
vn 0 0 -1
vn 0 0 -1
vn 0 0 -1
vn 0 0 -1
vn 0 0 -1
vn 0 0 -1
vn 0 0 -1
vn 0 0 -1
vn 0 0 -1
vn 0 0 -1
vn 0 0 -1
vn 0 0 -1
vn 0 0 -1
vn 0 0 -1
vn 0 0 -1
vn 0 0 -1
vn 0 0 -1
vn 0 0 -1
vn 0 0 -1
vn 0 0 -1
vn 0 0 -1
vn 0 0 -1
vn 0 0 -1
vn 0 0 1
vn 0 0 1
vn 0 0 1
vn 0 0 1
vn 0 0 1
vn 0 0 1
vn 0 0 1
vn 0 0 1
vn 0 0 1
vn 0 0 1
vn 0 0 1
vn 0 0 1
vn 0 0 1
vn 0 0 1
vn 0 0 1
vn 0 0 1
vn 0 0 1
vn 0 0 1
vn 0 0 1
vn 0 0 1
vn 0 0 1
vn 0 0 1
vn 0 0 1
vn 0 0 1
vn 0 0 1
vn 0 0 1
vn 0 0 1
vn 0 0 1
vn 0 0 1
vn 0 0 1
vn 0 0 1
vn 0 0 1
vn 0 0 1
vn 0 0 1
vn 0 0 1
vn 0 0 1

g Node
f 1//1 2//2 3//3 4//4
f 2//5 5//6 6//7 3//8
f 5//9 7//10 8//11 6//12
f 7//13 9//14 10//15 8//16
f 9//17 11//18 12//19 10//20
f 11//21 13//22 14//23 12//24
f 13//25 15//26 16//27 14//28
f 15//29 17//30 18//31 16//32
f 17//33 19//34 20//35 18//36
f 19//37 21//38 22//39 20//40
f 21//41 23//42 24//43 22//44
f 23//45 25//46 26//47 24//48
f 25//49 27//50 28//51 26//52
f 27//53 29//54 30//55 28//56
f 29//57 31//58 32//59 30//60
f 31//61 33//62 34//63 32//64
f 33//65 35//66 36//67 34//68
f 35//69 37//70 38//71 36//72
f 37//73 39//74 40//75 38//76
f 39//77 41//78 42//79 40//80
f 41//81 43//82 44//83 42//84
f 43//85 45//86 46//87 44//88
f 45//89 47//90 48//91 46//92
f 47//93 49//94 50//95 48//96
f 49//97 51//98 52//99 50//100
f 51//101 53//102 54//103 52//104
f 53//105 55//106 56//107 54//108
f 55//109 57//110 58//111 56//112
f 57//113 59//114 60//115 58//116
f 59//117 61//118 62//119 60//120
f 61//121 63//122 64//123 62//124
f 63//125 65//126 66//127 64//128
f 65//129 67//130 68//131 66//132
f 67//133 69//134 70//135 68//136
f 69//137 71//138 72//139 70//140
f 71//141 1//142 4//143 72//144
f 71//145 69//146 67//147 65//148 63//149 61//150 59//151 57//152 55//153 53//154 51//155 49//156 47//157 45//158 43//159 41//160 39//161 37//162 35//163 33//164 31//165 29//166 27//167 25//168 23//169 21//170 19//171 17//172 15//173 13//174 11//175 9//176 7//177 5//178 2//179 1//180
f 4//181 3//182 6//183 8//184 10//185 12//186 14//187 16//188 18//189 20//190 22//191 24//192 26//193 28//194 30//195 32//196 34//197 36//198 38//199 40//200 42//201 44//202 46//203 48//204 50//205 52//206 54//207 56//208 58//209 60//210 62//211 64//212 66//213 68//214 70//215 72//216