o Segment
v 0.5 0 0
v 0.49872605730512676 0 0.03566959159961617
v 0.69821648022717742 0 0.049937428239462636
v 0.7 0 0
v 0.49491072094046634 0 0.071157419136642572
v 0.6928750093166528 0 0.0996203867912996
v 0.48857343298557976 0 0.10628264477648834
v 0.68400280617981157 0 0.14879570268708367
v 0.47974648680724868 0 0.14086627842071484
v 0.67164508153014812 0 0.19721278978900075
v 0.46847486249988085 0 0.17473208979954916
v 0.65586480749983311 0 0.24462492571936881
v 0.45481599767725917 0 0.20770750650094322
v 0.6367423967481628 0 0.29079050910132048
v 0.43883949478362783 0 0.23962449336002842
v 0.61437529269707891 0 0.33547429070403978
v 0.4206267664155906 0 0.27032040872779878
v 0.5888774729818268 0 0.37844857221891826
v 0.4002706204621802 0 0.29963883325567342
v 0.56037886864705222 0 0.41949436655794275
v 0.37787478717712919 0 0.32743036697264249
v 0.5290247020479808 0 0.45840251376169944
v 0.35355339059327379 0 0.35355339059327373
v 0.49497474683058329 0 0.49497474683058318
vn 0 1 0
vn 0 1 0
vn 0 1 0
vn 0 1 0
vn 0 1 0
vn 0 1 0
vn 0 1 0
vn 0 1 0
vn 0 1 0
vn 0 1 0
vn 0 1 0
vn 0 1 0
vn 0 1 0
vn 0 1 0
vn 0 1 0
vn 0 1 0
vn 0 1 0
vn 0 1 0
vn 0 1 0
vn 0 1 0
vn 0 1 0
vn 0 1 0
vn 0 1 0
vn 0 1 0
vn 0 1 0
vn 0 1 0
vn 0 1 0
vn 0 1 0
vn 0 1 0
vn 0 1 0
vn 0 1 0
vn 0 1 0
vn 0 1 0
vn 0 1 0
vn 0 1 0
vn 0 1 0
vn 0 1 0
vn 0 1 0
vn 0 1 0
vn 0 1 0
vn 0 1 0
vn 0 1 0
vn 0 1 0
vn 0 1 0

g Segment
f 1//1 2//2 3//3 4//4
f 2//5 5//6 6//7 3//8
f 5//9 7//10 8//11 6//12
f 7//13 9//14 10//15 8//16
f 9//17 11//18 12//19 10//20
f 11//21 13//22 14//23 12//24
f 13//25 15//26 16//27 14//28
f 15//29 17//30 18//31 16//32
f 17//33 19//34 20//35 18//36
f 19//37 21//38 22//39 20//40
f 21//41 23//42 24//43 22//44