o Annulus
v 0.5 0 0
v 0.49039264020161522 0 0.097545161008064124
v 0.711069328292342 0 0.14144048346169297
v 0.725 0 0
v 0.49039264020161522 0 0.097545161008064124
v 0.46193976625564337 0 0.19134171618254489
v 0.66981266107068282 0 0.27744548846469008
v 0.711069328292342 0 0.14144048346169297
v 0.46193976625564337 0 0.19134171618254489
v 0.41573480615127262 0 0.27778511650980109
v 0.60281546891934523 0 0.40278841893921158
v 0.66981266107068282 0 0.27744548846469008
v 0.41573480615127262 0 0.27778511650980109
v 0.35355339059327379 0 0.35355339059327373
v 0.51265241636024694 0 0.51265241636024694
v 0.60281546891934523 0 0.40278841893921158
v 0.35355339059327379 0 0.35355339059327373
v 0.27778511650980114 0 0.41573480615127262
v 0.40278841893921163 0 0.60281546891934523
v 0.51265241636024694 0 0.51265241636024694
v 0.27778511650980114 0 0.41573480615127262
v 0.19134171618254492 0 0.46193976625564337
v 0.27744548846469014 0 0.66981266107068282
v 0.40278841893921163 0 0.60281546891934523
v 0.19134171618254492 0 0.46193976625564337
v 0.097545161008064166 0 0.49039264020161522
v 0.14144048346169302 0 0.711069328292342
v 0.27744548846469014 0 0.66981266107068282
v 0.097545161008064166 0 0.49039264020161522
v 3.0615158845559431E-17 0 0.5
v 4.4391980326061172E-17 0 0.725
v 0.14144048346169302 0 0.711069328292342
v 3.0615158845559431E-17 0 0.5
v -0.097545161008063985 0 0.49039264020161527
v -0.14144048346169277 0 0.71106932829234215
v 4.4391980326061172E-17 0 0.725
v -0.097545161008063985 0 0.49039264020161527
v -0.19134171618254486 0 0.46193976625564337
v -0.27744548846469 0 0.66981266107068282
v -0.14144048346169277 0 0.71106932829234215
v -0.19134171618254486 0 0.46193976625564337
v -0.27778511650980114 0 0.41573480615127256
v -0.40278841893921163 0 0.60281546891934523
v -0.27744548846469 0 0.66981266107068282
v -0.27778511650980114 0 0.41573480615127256
v -0.35355339059327373 0 0.35355339059327379
v -0.51265241636024694 0 0.51265241636024694
v -0.40278841893921163 0 0.60281546891934523
v -0.35355339059327373 0 0.35355339059327379
v -0.41573480615127267 0 0.27778511650980109
v -0.60281546891934534 0 0.40278841893921158
v -0.51265241636024694 0 0.51265241636024694
v -0.41573480615127267 0 0.27778511650980109
v -0.46193976625564337 0 0.19134171618254495
v -0.66981266107068282 0 0.27744548846469014
v -0.60281546891934534 0 0.40278841893921158
v -0.46193976625564337 0 0.19134171618254495
v -0.49039264020161522 0 0.097545161008064082
v -0.711069328292342 0 0.14144048346169291
v -0.66981266107068282 0 0.27744548846469014
v -0.49039264020161522 0 0.097545161008064082
v -0.5 0 6.1230317691118863E-17
v -0.725 0 8.8783960652122344E-17
v -0.711069328292342 0 0.14144048346169291
v -0.5 0 6.1230317691118863E-17
v -0.49039264020161527 0 -0.097545161008063958
v -0.71106932829234215 0 -0.14144048346169275
v -0.725 0 8.8783960652122344E-17
v -0.49039264020161527 0 -0.097545161008063958
v -0.46193976625564348 0 -0.19134171618254461
v -0.669812661070683 0 -0.27744548846468969
v -0.71106932829234215 0 -0.14144048346169275
v -0.46193976625564348 0 -0.19134171618254461
v -0.41573480615127262 0 -0.27778511650980114
v -0.60281546891934523 0 -0.40278841893921163
v -0.669812661070683 0 -0.27744548846468969
v -0.41573480615127262 0 -0.27778511650980114
v -0.35355339059327384 0 -0.35355339059327373
v -0.512652416360247 0 -0.51265241636024694
v -0.60281546891934523 0 -0.40278841893921163
v -0.35355339059327384 0 -0.35355339059327373
v -0.27778511650980148 0 -0.4157348061512724
v -0.40278841893921213 0 -0.602815468919345
v -0.512652416360247 0 -0.51265241636024694
v -0.27778511650980148 0 -0.4157348061512724
v -0.19134171618254475 0 -0.46193976625564342
v -0.27744548846468986 0 -0.66981266107068294
v -0.40278841893921213 0 -0.602815468919345
v -0.19134171618254475 0 -0.46193976625564342
v -0.097545161008064332 0 -0.49039264020161516
v -0.14144048346169327 0 -0.71106932829234193
v -0.27744548846468986 0 -0.66981266107068294
v -0.097545161008064332 0 -0.49039264020161516
v -9.18454765366783E-17 0 -0.5
v -1.3317594097818352E-16 0 -0.725
v -0.14144048346169327 0 -0.71106932829234193
v -9.18454765366783E-17 0 -0.5
v 0.097545161008064152 0 -0.49039264020161522
v 0.14144048346169302 0 -0.711069328292342
v -1.3317594097818352E-16 0 -0.725
v 0.097545161008064152 0 -0.49039264020161522
v 0.191341716182545 0 -0.46193976625564331
v 0.27744548846469025 0 -0.66981266107068282
v 0.14144048346169302 0 -0.711069328292342
v 0.191341716182545 0 -0.46193976625564331
v 0.27778511650980092 0 -0.41573480615127273
v 0.4027884189392113 0 -0.60281546891934545
v 0.27744548846469025 0 -0.66981266107068282
v 0.27778511650980092 0 -0.41573480615127273
v 0.35355339059327368 0 -0.35355339059327384
v 0.51265241636024683 0 -0.512652416360247
v 0.4027884189392113 0 -0.60281546891934545
v 0.35355339059327368 0 -0.35355339059327384
v 0.41573480615127262 0 -0.27778511650980109
v 0.60281546891934523 0 -0.40278841893921158
v 0.51265241636024683 0 -0.512652416360247
v 0.41573480615127262 0 -0.27778511650980109
v 0.46193976625564342 0 -0.19134171618254478
v 0.66981266107068294 0 -0.27744548846468992
v 0.60281546891934523 0 -0.40278841893921158
v 0.46193976625564342 0 -0.19134171618254478
v 0.49039264020161516 0 -0.09754516100806436
v 0.71106932829234193 0 -0.14144048346169333
v 0.66981266107068294 0 -0.27744548846468992
v 0.49039264020161516 0 -0.09754516100806436
v 0.5 0 0
v 0.725 0 0
v 0.71106932829234193 0 -0.14144048346169333
vn 0 1 0
vn 0 1 0
vn 0 1 0
vn 0 1 0
vn 0 1 0
vn 0 1 0
vn 0 1 0
vn 0 1 0
vn 0 1 0
vn 0 1 0
vn 0 1 0
vn 0 1 0
vn 0 1 0
vn 0 1 0
vn 0 1 0
vn 0 1 0
vn 0 1 0
vn 0 1 0
vn 0 1 0
vn 0 1 0
vn 0 1 0
vn 0 1 0
vn 0 1 0
vn 0 1 0
vn 0 1 0
vn 0 1 0
vn 0 1 0
vn 0 1 0
vn 0 1 0
vn 0 1 0
vn 0 1 0
vn 0 1 0
vn 0 1 0
vn 0 1 0
vn 0 1 0
vn 0 1 0
vn 0 1 0
vn 0 1 0
vn 0 1 0
vn 0 1 0
vn 0 1 0
vn 0 1 0
vn 0 1 0
vn 0 1 0
vn 0 1 0
vn 0 1 0
vn 0 1 0
vn 0 1 0
vn 0 1 0
vn 0 1 0
vn 0 1 0
vn 0 1 0
vn 0 1 0
vn 0 1 0
vn 0 1 0
vn 0 1 0
vn 0 1 0
vn 0 1 0
vn 0 1 0
vn 0 1 0
vn 0 1 0
vn 0 1 0
vn 0 1 0
vn 0 1 0
vn 0 1 0
vn 0 1 0
vn 0 1 0
vn 0 1 0
vn 0 1 0
vn 0 1 0
vn 0 1 0
vn 0 1 0
vn 0 1 0
vn 0 1 0
vn 0 1 0
vn 0 1 0
vn 0 1 0
vn 0 1 0
vn 0 1 0
vn 0 1 0
vn 0 1 0
vn 0 1 0
vn 0 1 0
vn 0 1 0
vn 0 1 0
vn 0 1 0
vn 0 1 0
vn 0 1 0
vn 0 1 0
vn 0 1 0
vn 0 1 0
vn 0 1 0
vn 0 1 0
vn 0 1 0
vn 0 1 0
vn 0 1 0
vn 0 1 0
vn 0 1 0
vn 0 1 0
vn 0 1 0
vn 0 1 0
vn 0 1 0
vn 0 1 0
vn 0 1 0
vn 0 1 0
vn 0 1 0
vn 0 1 0
vn 0 1 0
vn 0 1 0
vn 0 1 0
vn 0 1 0
vn 0 1 0
vn 0 1 0
vn 0 1 0
vn 0 1 0
vn 0 1 0
vn 0 1 0
vn 0 1 0
vn 0 1 0
vn 0 1 0
vn 0 1 0
vn 0 1 0
vn 0 1 0
vn 0 1 0
vn 0 1 0
vn 0 1 0
vn 0 1 0
vn 0 1 0

g Annulus
f 1//1 2//2 3//3 4//4
f 5//5 6//6 7//7 8//8
f 9//9 10//10 11//11 12//12
f 13//13 14//14 15//15 16//16
f 17//17 18//18 19//19 20//20
f 21//21 22//22 23//23 24//24
f 25//25 26//26 27//27 28//28
f 29//29 30//30 31//31 32//32
f 33//33 34//34 35//35 36//36
f 37//37 38//38 39//39 40//40
f 41//41 42//42 43//43 44//44
f 45//45 46//46 47//47 48//48
f 49//49 50//50 51//51 52//52
f 53//53 54//54 55//55 56//56
f 57//57 58//58 59//59 60//60
f 61//61 62//62 63//63 64//64
f 65//65 66//66 67//67 68//68
f 69//69 70//70 71//71 72//72
f 73//73 74//74 75//75 76//76
f 77//77 78//78 79//79 80//80
f 81//81 82//82 83//83 84//84
f 85//85 86//86 87//87 88//88
f 89//89 90//90 91//91 92//92
f 93//93 94//94 95//95 96//96
f 97//97 98//98 99//99 100//100
f 101//101 102//102 103//103 104//104
f 105//105 106//106 107//107 108//108
f 109//109 110//110 111//111 112//112
f 113//113 114//114 115//115 116//116
f 117//117 118//118 119//119 120//120
f 121//121 122//122 123//123 124//124
f 125//125 126//126 127//127 128//128