o ColorBlob
v -0.2 0.3 -0.4
v -0.4 0.2 -0.7
v -0.468571428571429 0.2 -0.692040816326531
v -0.245714285714286 0.3 -0.394693877551021
v -0.531632653061224 0.2 -0.669387755102041
v -0.287755102040816 0.3 -0.379591836734694
v -0.58734693877551 0.2 -0.633877551020408
v -0.324897959183673 0.3 -0.355918367346939
v -0.633877551020408 0.2 -0.58734693877551
v -0.355918367346939 0.3 -0.324897959183673
v -0.669387755102041 0.2 -0.531632653061224
v -0.379591836734694 0.3 -0.287755102040816
v -0.692040816326531 0.2 -0.468571428571429
v -0.39469387755102 0.3 -0.245714285714286
v -0.7 0.2 -0.4
v -0.4 0.3 -0.2
v -0.7 0.2 0.4
v -0.4 0.3 0.2
v -0.692040816326531 0.2 0.468571428571429
v -0.394693877551021 0.3 0.245714285714286
v -0.669387755102041 0.2 0.531632653061224
v -0.379591836734694 0.3 0.287755102040816
v -0.633877551020408 0.2 0.58734693877551
v -0.355918367346939 0.3 0.324897959183673
v -0.58734693877551 0.2 0.633877551020408
v -0.324897959183673 0.3 0.355918367346939
v -0.531632653061224 0.2 0.669387755102041
v -0.287755102040816 0.3 0.379591836734694
v -0.468571428571429 0.2 0.692040816326531
v -0.245714285714286 0.3 0.39469387755102
v -0.4 0.2 0.7
v -0.2 0.3 0.4
v 0.4 0.2 0.7
v 0.2 0.3 0.4
v 0.468571428571429 0.2 0.692040816326531
v 0.245714285714286 0.3 0.394693877551021
v 0.531632653061224 0.2 0.669387755102041
v 0.287755102040816 0.3 0.379591836734694
v 0.58734693877551 0.2 0.633877551020408
v 0.324897959183673 0.3 0.355918367346939
v 0.633877551020408 0.2 0.58734693877551
v 0.355918367346939 0.3 0.324897959183673
v 0.669387755102041 0.2 0.531632653061224
v 0.379591836734694 0.3 0.287755102040816
v 0.692040816326531 0.2 0.468571428571429
v 0.39469387755102 0.3 0.245714285714286
v 0.7 0.2 0.4
v 0.4 0.3 0.2
v 0.7 0.2 -0.4
v 0.4 0.3 -0.2
v 0.692040816326531 0.2 -0.468571428571429
v 0.394693877551021 0.3 -0.245714285714286
v 0.669387755102041 0.2 -0.531632653061224
v 0.379591836734694 0.3 -0.287755102040816
v 0.633877551020408 0.2 -0.58734693877551
v 0.355918367346939 0.3 -0.324897959183673
v 0.58734693877551 0.2 -0.633877551020408
v 0.324897959183673 0.3 -0.355918367346939
v 0.531632653061224 0.2 -0.669387755102041
v 0.287755102040816 0.3 -0.379591836734694
v 0.468571428571429 0.2 -0.692040816326531
v 0.245714285714286 0.3 -0.39469387755102
v 0.4 0.2 -0.7
v 0.2 0.3 -0.4
v -0.6 0 -1
v -0.691428571428572 0 -0.989387755102041
v -0.775510204081633 0 -0.959183673469388
v -0.849795918367347 0 -0.911836734693877
v -0.911836734693878 0 -0.849795918367347
v -0.959183673469388 0 -0.775510204081633
v -0.989387755102041 0 -0.691428571428572
v -1 0 -0.6
v -1 0 0.6
v -0.989387755102041 0 0.691428571428572
v -0.959183673469388 0 0.775510204081633
v -0.911836734693877 0 0.849795918367347
v -0.849795918367347 0 0.911836734693878
v -0.775510204081633 0 0.959183673469388
v -0.691428571428572 0 0.989387755102041
v -0.6 0 1
v 0.6 0 1
v 0.691428571428572 0 0.989387755102041
v 0.775510204081633 0 0.959183673469388
v 0.849795918367347 0 0.911836734693877
v 0.911836734693878 0 0.849795918367347
v 0.959183673469388 0 0.775510204081633
v 0.989387755102041 0 0.691428571428572
v 1 0 0.6
v 1 0 -0.6
v 0.989387755102041 0 -0.691428571428572
v 0.959183673469388 0 -0.775510204081633
v 0.911836734693877 0 -0.849795918367347
v 0.849795918367347 0 -0.911836734693878
v 0.775510204081633 0 -0.959183673469388
v 0.691428571428572 0 -0.989387755102041
v 0.6 0 -1
vn 0 1 0
vn -0.00407808025291678 0.89550459707642 -0.445033578369599
vn -0.0914077963995585 0.914960950872372 -0.393053524518102
vn -0.166187677763819 0.92585517491606 -0.33937273143348
vn -0.229239341973498 0.930498991323802 -0.285693806787868
vn -0.285693806787867 0.930498991323803 -0.229239341973499
vn -0.339372731433481 0.92585517491606 -0.166187677763817
vn -0.393053524518102 0.914960950872372 -0.0914077963995588
vn -0.445033578369599 0.89550459707642 -0.0040780802529169
vn -0.445033578369599 0.89550459707642 0.00407808025291678
vn -0.393053524518102 0.914960950872372 0.0914077963995585
vn -0.33937273143348 0.92585517491606 0.166187677763819
vn -0.285693806787868 0.930498991323802 0.229239341973498
vn -0.229239341973499 0.930498991323803 0.285693806787867
vn -0.166187677763817 0.92585517491606 0.339372731433481
vn -0.0914077963995588 0.914960950872372 0.393053524518102
vn -0.0040780802529169 0.89550459707642 0.445033578369599
vn 0.00407808025291678 0.89550459707642 0.445033578369599
vn 0.0914077963995585 0.914960950872372 0.393053524518102
vn 0.166187677763819 0.92585517491606 0.33937273143348
vn 0.229239341973498 0.930498991323802 0.285693806787868
vn 0.285693806787867 0.930498991323803 0.229239341973499
vn 0.339372731433481 0.92585517491606 0.166187677763817
vn 0.393053524518102 0.914960950872372 0.0914077963995588
vn 0.445033578369599 0.89550459707642 0.0040780802529169
vn 0.445033578369599 0.89550459707642 -0.00407808025291678
vn 0.393053524518102 0.914960950872372 -0.0914077963995585
vn 0.33937273143348 0.92585517491606 -0.166187677763819
vn 0.285693806787868 0.930498991323802 -0.229239341973498
vn 0.229239341973499 0.930498991323803 -0.285693806787867
vn 0.166187677763817 0.92585517491606 -0.339372731433481
vn 0.0914077963995588 0.914960950872372 -0.393053524518102
vn 0.0040780802529169 0.89550459707642 -0.445033578369599
vn -0.0045409353447901 0.833436287128423 -0.552596901189089
vn -0.114822197658317 0.861998357542857 -0.49373544993076
vn -0.210217410973089 0.878363307793621 -0.429286081355568
vn -0.2908529005977 0.885444645866186 -0.362480853729971
vn -0.36248085372997 0.885444645866186 -0.290852900597701
vn -0.429286081355569 0.878363307793621 -0.210217410973088
vn -0.493735449930761 0.861998357542857 -0.114822197658317
vn -0.552596901189088 0.833436287128423 -0.00454093534479024
vn -0.552596901189089 0.833436287128423 0.0045409353447901
vn -0.49373544993076 0.861998357542857 0.114822197658317
vn -0.429286081355568 0.878363307793621 0.210217410973089
vn -0.362480853729971 0.885444645866186 0.2908529005977
vn -0.290852900597701 0.885444645866186 0.36248085372997
vn -0.210217410973088 0.878363307793621 0.429286081355569
vn -0.114822197658317 0.861998357542857 0.493735449930761
vn -0.00454093534479024 0.833436287128423 0.552596901189088
vn 0.0045409353447901 0.833436287128423 0.552596901189089
vn 0.114822197658317 0.861998357542857 0.49373544993076
vn 0.210217410973089 0.878363307793621 0.429286081355568
vn 0.2908529005977 0.885444645866186 0.362480853729971
vn 0.36248085372997 0.885444645866186 0.290852900597701
vn 0.429286081355569 0.878363307793621 0.210217410973088
vn 0.493735449930761 0.861998357542857 0.114822197658317
vn 0.552596901189088 0.833436287128423 0.00454093534479024
vn 0.552596901189089 0.833436287128423 -0.0045409353447901
vn 0.49373544993076 0.861998357542857 -0.114822197658317
vn 0.429286081355568 0.878363307793621 -0.210217410973089
vn 0.362480853729971 0.885444645866186 -0.2908529005977
vn 0.290852900597701 0.885444645866186 -0.36248085372997
vn 0.210217410973088 0.878363307793621 -0.429286081355569
vn 0.114822197658317 0.861998357542857 -0.493735449930761
vn 0.00454093534479024 0.833436287128423 -0.552596901189088
g ColorBlob
f 1//1 2//2 3//3 4//1
f 4//1 3//3 5//4 6//1
f 6//1 5//4 7//5 8//1
f 8//1 7//5 9//6 10//1
f 10//1 9//6 11//7 12//1
f 12//1 11//7 13//8 14//1
f 14//1 13//8 15//9 16//1
f 16//1 15//9 17//10 18//1
f 18//1 17//10 19//11 20//1
f 20//1 19//11 21//12 22//1
f 22//1 21//12 23//13 24//1
f 24//1 23//13 25//14 26//1
f 26//1 25//14 27//15 28//1
f 28//1 27//15 29//16 30//1
f 30//1 29//16 31//17 32//1
f 32//1 31//17 33//18 34//1
f 34//1 33//18 35//19 36//1
f 36//1 35//19 37//20 38//1
f 38//1 37//20 39//21 40//1
f 40//1 39//21 41//22 42//1
f 42//1 41//22 43//23 44//1
f 44//1 43//23 45//24 46//1
f 46//1 45//24 47//25 48//1
f 48//1 47//25 49//26 50//1
f 50//1 49//26 51//27 52//1
f 52//1 51//27 53//28 54//1
f 54//1 53//28 55//29 56//1
f 56//1 55//29 57//30 58//1
f 58//1 57//30 59//31 60//1
f 60//1 59//31 61//32 62//1
f 62//1 61//32 63//33 64//1
f 64//1 63//33 2//2 1//1
f 2//2 65//34 66//35 3//3
f 3//3 66//35 67//36 5//4
f 5//4 67//36 68//37 7//5
f 7//5 68//37 69//38 9//6
f 9//6 69//38 70//39 11//7
f 11//7 70//39 71//40 13//8
f 13//8 71//40 72//41 15//9
f 15//9 72//41 73//42 17//10
f 17//10 73//42 74//43 19//11
f 19//11 74//43 75//44 21//12
f 21//12 75//44 76//45 23//13
f 23//13 76//45 77//46 25//14
f 25//14 77//46 78//47 27//15
f 27//15 78//47 79//48 29//16
f 29//16 79//48 80//49 31//17
f 31//17 80//49 81//50 33//18
f 33//18 81//50 82//51 35//19
f 35//19 82//51 83//52 37//20
f 37//20 83//52 84//53 39//21
f 39//21 84//53 85//54 41//22
f 41//22 85//54 86//55 43//23
f 43//23 86//55 87//56 45//24
f 45//24 87//56 88//57 47//25
f 47//25 88//57 89//58 49//26
f 49//26 89//58 90//59 51//27
f 51//27 90//59 91//60 53//28
f 53//28 91//60 92//61 55//29
f 55//29 92//61 93//62 57//30
f 57//30 93//62 94//63 59//31
f 59//31 94//63 95//64 61//32
f 61//32 95//64 96//65 63//33
f 63//33 96//65 65//34 2//2
f 1//1 4//1 6//1 8//1 10//1 12//1 14//1 16//1 18//1 20//1 22//1 24//1 26//1 28//1 30//1 32//1 34//1 36//1 38//1 40//1 42//1 44//1 46//1 48//1 50//1 52//1 54//1 56//1 58//1 60//1 62//1 64//1
#h 
