o Suit15
v 0 5 -43.875
v 35.25 5 -0.09375
v 35.25 -5 -0.09375
v 0 -5 -43.875
v 35.25 5 -0.09375
v 0 5 43.875
v 0 -5 43.875
v 35.25 -5 -0.09375
v 0 5 43.875
v -35.25 5 -0.09375
v -35.25 -5 -0.09375
v 0 -5 43.875
v -35.25 5 -0.09375
v 0 5 -43.875
v 0 -5 -43.875
v -35.25 -5 -0.09375
v 0 5 38.01047
v 30.555000000000007 5 -0.092339999999978772
v 30.555000000000007 -5 -0.092339999999978772
v 0 -5 38.01047
v 30.555000000000007 5 -0.092339999999978772
v 0 5 -38.10422
v 0 -5 -38.10422
v 30.555000000000007 -5 -0.092339999999978772
v 0 5 -38.10422
v -30.555000000000007 5 -0.092750000000023647
v -30.555000000000007 -5 -0.092750000000023647
v 0 -5 -38.10422
v -30.555000000000007 5 -0.092750000000023647
v 0 5 38.01047
v 0 -5 38.01047
v -30.555000000000007 -5 -0.092750000000023647
v 0 5 43.875
v 0 5 38.01047
v -30.555000000000007 5 -0.092750000000023647
v -35.25 5 -0.09375
v 0 5 43.875
v -30.555000000000007 5 -0.092750000000023647
v 0 5 -43.875
v -35.25 5 -0.09375
v -30.555000000000007 5 -0.092750000000023647
v 0 5 -43.875
v -30.555000000000007 5 -0.092750000000023647
v 0 5 -38.10422
v 0 5 -43.875
v 0 5 -38.10422
v 30.555000000000007 5 -0.092339999999978772
v 30.555000000000007 5 -0.092339999999978772
v 0 5 38.01047
v 0 5 43.875
v 30.555000000000007 5 -0.092339999999978772
v 0 5 43.875
v 35.25 5 -0.09375
v 30.555000000000007 5 -0.092339999999978772
v 35.25 5 -0.09375
v 0 5 -43.875
v -30.555000000000007 -5 -0.092750000000023647
v 0 -5 38.01047
v 0 -5 43.875
v -30.555000000000007 -5 -0.092750000000023647
v 0 -5 43.875
v -35.25 -5 -0.09375
v -30.555000000000007 -5 -0.092750000000023647
v -35.25 -5 -0.09375
v 0 -5 -43.875
v 0 -5 -38.10422
v -30.555000000000007 -5 -0.092750000000023647
v 0 -5 -43.875
v 30.555000000000007 -5 -0.092339999999978772
v 0 -5 -38.10422
v 0 -5 -43.875
v 0 -5 43.875
v 0 -5 38.01047
v 30.555000000000007 -5 -0.092339999999978772
v 35.25 -5 -0.09375
v 0 -5 43.875
v 30.555000000000007 -5 -0.092339999999978772
v 0 -5 -43.875
v 35.25 -5 -0.09375
v 30.555000000000007 -5 -0.092339999999978772
vn 43.78125 0 -35.25
vn 43.78125 0 -35.25
vn 43.78125 0 -35.25
vn 43.78125 0 -35.25
vn 43.96875 0 35.25
vn 43.96875 0 35.25
vn 43.96875 0 35.25
vn 43.96875 0 35.25
vn -43.96875 0 35.25
vn -43.96875 0 35.25
vn -43.96875 0 35.25
vn -43.96875 0 35.25
vn -43.78125 0 -35.25
vn -43.78125 0 -35.25
vn -43.78125 0 -35.25
vn -43.78125 0 -35.25
vn -38.102809999999977 0 -30.555000000000007
vn -38.102809999999977 0 -30.555000000000007
vn -38.102809999999977 0 -30.555000000000007
vn -38.102809999999977 0 -30.555000000000007
vn -38.011880000000019 0 30.555000000000007
vn -38.011880000000019 0 30.555000000000007
vn -38.011880000000019 0 30.555000000000007
vn -38.011880000000019 0 30.555000000000007
vn 38.011469999999974 0 30.555000000000007
vn 38.011469999999974 0 30.555000000000007
vn 38.011469999999974 0 30.555000000000007
vn 38.011469999999974 0 30.555000000000007
vn 38.103220000000022 0 -30.555000000000007
vn 38.103220000000022 0 -30.555000000000007
vn 38.103220000000022 0 -30.555000000000007
vn 38.103220000000022 0 -30.555000000000007
vn 0 1 0
vn 0 1 0
vn 0 1 0
vn 0 1 0
vn 0 1 0
vn 0 1 0
vn 0 1 0
vn 0 1 0
vn 0 1 0
vn 0 1 0
vn 0 1 0
vn 0 1 0
vn 0 1 0
vn 0 1 0
vn 0 1 0
vn 0 1 0
vn 0 1 0
vn 0 1 0
vn 0 1 0
vn 0 1 0
vn 0 1 0
vn 0 1 0
vn 0 1 0
vn 0 1 0
vn 0 -1 0
vn 0 -1 0
vn 0 -1 0
vn 0 -1 0
vn 0 -1 0
vn 0 -1 0
vn 0 -1 0
vn 0 -1 0
vn 0 -1 0
vn 0 -1 0
vn 0 -1 0
vn 0 -1 0
vn 0 -1 0
vn 0 -1 0
vn 0 -1 0
vn 0 -1 0
vn 0 -1 0
vn 0 -1 0
vn 0 -1 0
vn 0 -1 0
vn 0 -1 0
vn 0 -1 0
vn 0 -1 0
vn 0 -1 0

g Suit15
f 1//1 2//2 3//3 4//4
f 5//5 6//6 7//7 8//8
f 9//9 10//10 11//11 12//12
f 13//13 14//14 15//15 16//16
f 17//17 18//18 19//19 20//20
f 21//21 22//22 23//23 24//24
f 25//25 26//26 27//27 28//28
f 29//29 30//30 31//31 32//32
f 33//33 34//34 35//35
f 36//36 37//37 38//38
f 39//39 40//40 41//41
f 42//42 43//43 44//44
f 45//45 46//46 47//47
f 48//48 49//49 50//50
f 51//51 52//52 53//53
f 54//54 55//55 56//56
f 57//57 58//58 59//59
f 60//60 61//61 62//62
f 63//63 64//64 65//65
f 66//66 67//67 68//68
f 69//69 70//70 71//71
f 72//72 73//73 74//74
f 75//75 76//76 77//77
f 78//78 79//79 80//80