o Suit1
v 12.3515625 5 36.75
v 7.40625 5 35.0625
v 7.40625 -5 35.0625
v 12.3515625 -5 36.75
v 7.40625 5 35.0625
v 3.1171875 5 32.5546875
v 3.1171875 -5 32.5546875
v 7.40625 -5 35.0625
v 3.1171875 5 32.5546875
v 0 5 29.53125
v 0 -5 29.53125
v 3.1171875 -5 32.5546875
v 0 5 29.53125
v -0.375 5 29.90625
v -0.375 -5 29.90625
v 0 -5 29.53125
v -0.375 5 29.90625
v -4.44140625 5 33.146484375
v -4.44140625 -5 33.146484375
v -0.375 -5 29.90625
v -4.44140625 5 33.146484375
v -8.671875 5 35.4609375
v -8.671875 -5 35.4609375
v -4.44140625 -5 33.146484375
v -8.671875 5 35.4609375
v -13.06640625 5 36.849609375
v -13.06640625 -5 36.849609375
v -8.671875 -5 35.4609375
v -13.06640625 5 36.849609375
v -17.625 5 37.3125
v -17.625 -5 37.3125
v -13.06640625 -5 36.849609375
v -17.625 5 37.3125
v -22.1953125 5 36.98291015625
v -22.1953125 -5 36.98291015625
v -17.625 -5 37.3125
v -22.1953125 5 36.98291015625
v -26.15625 5 35.994140625
v -26.15625 -5 35.994140625
v -22.1953125 -5 36.98291015625
v -26.15625 5 35.994140625
v -29.5078125 5 34.34619140625
v -29.5078125 -5 34.34619140625
v -26.15625 -5 35.994140625
v -29.5078125 5 34.34619140625
v -32.25 5 32.0390625
v -32.25 -5 32.0390625
v -29.5078125 -5 34.34619140625
v -32.25 5 32.0390625
v -34.3828125 5 29.07275390625
v -34.3828125 -5 29.07275390625
v -32.25 -5 32.0390625
v -34.3828125 5 29.07275390625
v -35.90625 5 25.447265625
v -35.90625 -5 25.447265625
v -34.3828125 -5 29.07275390625
v -35.90625 5 25.447265625
v -36.8203125 5 21.16259765625
v -36.8203125 -5 21.16259765625
v -35.90625 -5 25.447265625
v -36.8203125 5 21.16259765625
v -37.125 5 16.21875
v -37.125 -5 16.21875
v -36.8203125 -5 21.16259765625
v -37.125 5 16.21875
v -36.544921875 5 9.66064453125
v -36.544921875 -5 9.66064453125
v -37.125 -5 16.21875
v -36.544921875 5 9.66064453125
v -34.8046875 5 3.064453125
v -34.8046875 -5 3.064453125
v -36.544921875 -5 9.66064453125
v -34.8046875 5 3.064453125
v -31.904296875 5 -3.56982421875
v -31.904296875 -5 -3.56982421875
v -34.8046875 -5 3.064453125
v -31.904296875 5 -3.56982421875
v -27.84375 5 -10.2421875
v -27.84375 -5 -10.2421875
v -31.904296875 -5 -3.56982421875
v -27.84375 5 -10.2421875
v -22.623046875 5 -16.95263671875
v -22.623046875 -5 -16.95263671875
v -27.84375 -5 -10.2421875
v -22.623046875 5 -16.95263671875
v -16.2421875 5 -23.701171875
v -16.2421875 -5 -23.701171875
v -22.623046875 -5 -16.95263671875
v -16.2421875 5 -23.701171875
v -8.701171875 5 -30.48779296875
v -8.701171875 -5 -30.48779296875
v -16.2421875 -5 -23.701171875
v -8.701171875 5 -30.48779296875
v 0 5 -37.3125
v 0 -5 -37.3125
v -8.701171875 -5 -30.48779296875
v 0 5 -37.3125
v 3.1875 5 -35.25
v 3.1875 -5 -35.25
v 0 -5 -37.3125
v 3.1875 5 -35.25
v 9.46875 5 -30.84375
v 9.46875 -5 -30.84375
v 3.1875 -5 -35.25
v 9.46875 5 -30.84375
v 17.15625 5 -24
v 17.15625 -5 -24
v 9.46875 -5 -30.84375
v 17.15625 5 -24
v 21.5859375 5 -19.2421875
v 21.5859375 -5 -19.2421875
v 17.15625 -5 -24
v 21.5859375 5 -19.2421875
v 25.6875 5 -14.15625
v 25.6875 -5 -14.15625
v 21.5859375 -5 -19.2421875
v 25.6875 5 -14.15625
v 30.69140625 5 -6.4921875
v 30.69140625 -5 -6.4921875
v 25.6875 -5 -14.15625
v 30.69140625 5 -6.4921875
v 34.265625 5 1.125
v 34.265625 -5 1.125
v 30.69140625 -5 -6.4921875
v 34.265625 5 1.125
v 36.41015625 5 8.6953125
v 36.41015625 -5 8.6953125
v 34.265625 -5 1.125
v 36.41015625 5 8.6953125
v 37.125 5 16.21875
v 37.125 -5 16.21875
v 36.41015625 -5 8.6953125
v 37.125 5 16.21875
v 36.8203125 5 21.16259765625
v 36.8203125 -5 21.16259765625
v 37.125 -5 16.21875
v 36.8203125 5 21.16259765625
v 35.90625 5 25.447265625
v 35.90625 -5 25.447265625
v 36.8203125 -5 21.16259765625
v 35.90625 5 25.447265625
v 34.3828125 5 29.07275390625
v 34.3828125 -5 29.07275390625
v 35.90625 -5 25.447265625
v 34.3828125 5 29.07275390625
v 32.25 5 32.0390625
v 32.25 -5 32.0390625
v 34.3828125 -5 29.07275390625
v 32.25 5 32.0390625
v 29.5078125 5 34.34619140625
v 29.5078125 -5 34.34619140625
v 32.25 -5 32.0390625
v 29.5078125 5 34.34619140625
v 26.15625 5 35.994140625
v 26.15625 -5 35.994140625
v 29.5078125 -5 34.34619140625
v 26.15625 5 35.994140625
v 22.1953125 5 36.98291015625
v 22.1953125 -5 36.98291015625
v 26.15625 -5 35.994140625
v 22.1953125 5 36.98291015625
v 17.625 5 37.3125
v 17.625 -5 37.3125
v 22.1953125 -5 36.98291015625
v 17.625 5 37.3125
v 17.625 5 37.3125
v 17.625 -5 37.3125
v 17.625 -5 37.3125
v 17.625 5 37.3125
v 12.3515625 5 36.75
v 12.3515625 -5 36.75
v 17.625 -5 37.3125
v 12.3515625 5 36.75
v 17.625 5 37.3125
v 22.1953125 5 36.98291015625
v 12.3515625 5 36.75
v 22.1953125 5 36.98291015625
v 26.15625 5 35.994140625
v 12.3515625 5 36.75
v 26.15625 5 35.994140625
v 29.5078125 5 34.34619140625
v 12.3515625 5 36.75
v 29.5078125 5 34.34619140625
v 32.25 5 32.0390625
v 12.3515625 5 36.75
v 32.25 5 32.0390625
v 34.3828125 5 29.07275390625
v 12.3515625 5 36.75
v 34.3828125 5 29.07275390625
v 35.90625 5 25.447265625
v 12.3515625 5 36.75
v 35.90625 5 25.447265625
v 36.8203125 5 21.16259765625
v 12.3515625 5 36.75
v 36.8203125 5 21.16259765625
v 37.125 5 16.21875
v 12.3515625 5 36.75
v 37.125 5 16.21875
v 36.41015625 5 8.6953125
v 12.3515625 5 36.75
v 36.41015625 5 8.6953125
v 34.265625 5 1.125
v 12.3515625 5 36.75
v 34.265625 5 1.125
v 30.69140625 5 -6.4921875
v 12.3515625 5 36.75
v 30.69140625 5 -6.4921875
v 25.6875 5 -14.15625
v 12.3515625 5 36.75
v 25.6875 5 -14.15625
v 21.5859375 5 -19.2421875
v 12.3515625 5 36.75
v 21.5859375 5 -19.2421875
v 17.15625 5 -24
v 12.3515625 5 36.75
v 17.15625 5 -24
v 9.46875 5 -30.84375
v 12.3515625 5 36.75
v 9.46875 5 -30.84375
v 3.1875 5 -35.25
v 12.3515625 5 36.75
v 3.1875 5 -35.25
v 0 5 -37.3125
v 12.3515625 5 36.75
v 0 5 -37.3125
v -8.701171875 5 -30.48779296875
v 12.3515625 5 36.75
v -8.701171875 5 -30.48779296875
v -16.2421875 5 -23.701171875
v 12.3515625 5 36.75
v -16.2421875 5 -23.701171875
v -22.623046875 5 -16.95263671875
v 12.3515625 5 36.75
v -22.623046875 5 -16.95263671875
v -27.84375 5 -10.2421875
v 12.3515625 5 36.75
v -27.84375 5 -10.2421875
v -31.904296875 5 -3.56982421875
v 12.3515625 5 36.75
v -31.904296875 5 -3.56982421875
v -34.8046875 5 3.064453125
v -34.8046875 5 3.064453125
v -36.544921875 5 9.66064453125
v -37.125 5 16.21875
v -34.8046875 5 3.064453125
v -37.125 5 16.21875
v -36.8203125 5 21.16259765625
v -34.8046875 5 3.064453125
v -36.8203125 5 21.16259765625
v -35.90625 5 25.447265625
v -34.8046875 5 3.064453125
v -35.90625 5 25.447265625
v -34.3828125 5 29.07275390625
v -34.8046875 5 3.064453125
v -34.3828125 5 29.07275390625
v -32.25 5 32.0390625
v -34.8046875 5 3.064453125
v -32.25 5 32.0390625
v -29.5078125 5 34.34619140625
v -34.8046875 5 3.064453125
v -29.5078125 5 34.34619140625
v -26.15625 5 35.994140625
v -34.8046875 5 3.064453125
v -26.15625 5 35.994140625
v -22.1953125 5 36.98291015625
v -34.8046875 5 3.064453125
v -22.1953125 5 36.98291015625
v -17.625 5 37.3125
v -34.8046875 5 3.064453125
v -17.625 5 37.3125
v -13.06640625 5 36.849609375
v -34.8046875 5 3.064453125
v -13.06640625 5 36.849609375
v -8.671875 5 35.4609375
v -34.8046875 5 3.064453125
v -8.671875 5 35.4609375
v -4.44140625 5 33.146484375
v -34.8046875 5 3.064453125
v -4.44140625 5 33.146484375
v -0.375 5 29.90625
v -34.8046875 5 3.064453125
v -0.375 5 29.90625
v 0 5 29.53125
v 12.3515625 5 36.75
v -34.8046875 5 3.064453125
v 0 5 29.53125
v 12.3515625 5 36.75
v 0 5 29.53125
v 3.1171875 5 32.5546875
v 3.1171875 5 32.5546875
v 7.40625 5 35.0625
v 12.3515625 5 36.75
v 22.1953125 -5 36.98291015625
v 17.625 -5 37.3125
v 12.3515625 -5 36.75
v 26.15625 -5 35.994140625
v 22.1953125 -5 36.98291015625
v 12.3515625 -5 36.75
v 29.5078125 -5 34.34619140625
v 26.15625 -5 35.994140625
v 12.3515625 -5 36.75
v 32.25 -5 32.0390625
v 29.5078125 -5 34.34619140625
v 12.3515625 -5 36.75
v 34.3828125 -5 29.07275390625
v 32.25 -5 32.0390625
v 12.3515625 -5 36.75
v 35.90625 -5 25.447265625
v 34.3828125 -5 29.07275390625
v 12.3515625 -5 36.75
v 36.8203125 -5 21.16259765625
v 35.90625 -5 25.447265625
v 12.3515625 -5 36.75
v 37.125 -5 16.21875
v 36.8203125 -5 21.16259765625
v 12.3515625 -5 36.75
v 36.41015625 -5 8.6953125
v 37.125 -5 16.21875
v 12.3515625 -5 36.75
v 34.265625 -5 1.125
v 36.41015625 -5 8.6953125
v 12.3515625 -5 36.75
v 30.69140625 -5 -6.4921875
v 34.265625 -5 1.125
v 12.3515625 -5 36.75
v 25.6875 -5 -14.15625
v 30.69140625 -5 -6.4921875
v 12.3515625 -5 36.75
v 21.5859375 -5 -19.2421875
v 25.6875 -5 -14.15625
v 12.3515625 -5 36.75
v 17.15625 -5 -24
v 21.5859375 -5 -19.2421875
v 12.3515625 -5 36.75
v 9.46875 -5 -30.84375
v 17.15625 -5 -24
v 12.3515625 -5 36.75
v 3.1875 -5 -35.25
v 9.46875 -5 -30.84375
v 12.3515625 -5 36.75
v 0 -5 -37.3125
v 3.1875 -5 -35.25
v 12.3515625 -5 36.75
v -8.701171875 -5 -30.48779296875
v 0 -5 -37.3125
v 12.3515625 -5 36.75
v -16.2421875 -5 -23.701171875
v -8.701171875 -5 -30.48779296875
v 12.3515625 -5 36.75
v -22.623046875 -5 -16.95263671875
v -16.2421875 -5 -23.701171875
v 12.3515625 -5 36.75
v -27.84375 -5 -10.2421875
v -22.623046875 -5 -16.95263671875
v 12.3515625 -5 36.75
v -31.904296875 -5 -3.56982421875
v -27.84375 -5 -10.2421875
v 12.3515625 -5 36.75
v -34.8046875 -5 3.064453125
v -31.904296875 -5 -3.56982421875
v 12.3515625 -5 36.75
v -37.125 -5 16.21875
v -36.544921875 -5 9.66064453125
v -34.8046875 -5 3.064453125
v -36.8203125 -5 21.16259765625
v -37.125 -5 16.21875
v -34.8046875 -5 3.064453125
v -35.90625 -5 25.447265625
v -36.8203125 -5 21.16259765625
v -34.8046875 -5 3.064453125
v -34.3828125 -5 29.07275390625
v -35.90625 -5 25.447265625
v -34.8046875 -5 3.064453125
v -32.25 -5 32.0390625
v -34.3828125 -5 29.07275390625
v -34.8046875 -5 3.064453125
v -29.5078125 -5 34.34619140625
v -32.25 -5 32.0390625
v -34.8046875 -5 3.064453125
v -26.15625 -5 35.994140625
v -29.5078125 -5 34.34619140625
v -34.8046875 -5 3.064453125
v -22.1953125 -5 36.98291015625
v -26.15625 -5 35.994140625
v -34.8046875 -5 3.064453125
v -17.625 -5 37.3125
v -22.1953125 -5 36.98291015625
v -34.8046875 -5 3.064453125
v -13.06640625 -5 36.849609375
v -17.625 -5 37.3125
v -34.8046875 -5 3.064453125
v -8.671875 -5 35.4609375
v -13.06640625 -5 36.849609375
v -34.8046875 -5 3.064453125
v -4.44140625 -5 33.146484375
v -8.671875 -5 35.4609375
v -34.8046875 -5 3.064453125
v -0.375 -5 29.90625
v -4.44140625 -5 33.146484375
v -34.8046875 -5 3.064453125
v 0 -5 29.53125
v -0.375 -5 29.90625
v -34.8046875 -5 3.064453125
v 0 -5 29.53125
v -34.8046875 -5 3.064453125
v 12.3515625 -5 36.75
v 3.1171875 -5 32.5546875
v 0 -5 29.53125
v 12.3515625 -5 36.75
v 12.3515625 -5 36.75
v 7.40625 -5 35.0625
v 3.1171875 -5 32.5546875
vn -2.25 0 10.21875
vn -1.5 0 3.1875
vn -1.5 0 3.1875
vn -2.25 0 10.21875
vn -1.5 0 3.25
vn -5.53125 0 7.40625
vn -5.53125 0 7.40625
vn -1.5 0 3.25
vn -5.53125 0 7.40625
vn -2.1875 0 1.6875
vn -2.1875 0 1.6875
vn -5.53125 0 7.40625
vn 0.375 0 0.375
vn 0.375 0 0.375
vn 0.375 0 0.375
vn 0.375 0 0.375
vn 3.240234375 0 4.06640625
vn 5.5546875 0 8.296875
vn 5.5546875 0 8.296875
vn 3.240234375 0 4.06640625
vn 5.5546875 0 8.296875
vn 3.703125 0 8.625
vn 3.703125 0 8.625
vn 5.5546875 0 8.296875
vn 3.703125 0 8.625
vn 1.8515625 0 8.953125
vn 1.8515625 0 8.953125
vn 3.703125 0 8.625
vn 1.8515625 0 8.953125
vn 0 0 6.1875
vn 0 0 6.1875
vn 1.8515625 0 8.953125
vn 0 0 13
vn -1.318359375 0 8.53125
vn -1.318359375 0 8.53125
vn 0 0 13
vn -1.318359375 0 8.53125
vn -2.63671875 0 7.3125
vn -2.63671875 0 7.3125
vn -1.318359375 0 8.53125
vn -2.63671875 0 7.3125
vn -3.955078125 0 6.09375
vn -3.955078125 0 6.09375
vn -2.63671875 0 7.3125
vn -3.955078125 0 6.09375
vn -5.2734375 0 4.875
vn -5.2734375 0 4.875
vn -3.955078125 0 6.09375
vn -5.2734375 0 4.875
vn -6.591796875 0 3.65625
vn -6.591796875 0 3.65625
vn -5.2734375 0 4.875
vn -6.591796875 0 3.65625
vn -7.91015625 0 2.4375
vn -7.91015625 0 2.4375
vn -6.591796875 0 3.65625
vn -7.91015625 0 2.4375
vn -9.228515625 0 1.21875
vn -9.228515625 0 1.21875
vn -7.91015625 0 2.4375
vn -9.228515625 0 1.21875
vn -14.0625 0 0
vn -14.0625 0 0
vn -9.228515625 0 1.21875
vn -17.4375 0 0
vn -13.154296875 0 -2.3203125
vn -13.154296875 0 -2.3203125
vn -17.4375 0 0
vn -13.154296875 0 -2.3203125
vn -13.23046875 0 -4.640625
vn -13.23046875 0 -4.640625
vn -13.154296875 0 -2.3203125
vn -13.23046875 0 -4.640625
vn -13.306640625 0 -6.9609375
vn -13.306640625 0 -6.9609375
vn -13.23046875 0 -4.640625
vn -13.306640625 0 -6.9609375
vn -13.3828125 0 -9.28125
vn -13.3828125 0 -9.28125
vn -13.306640625 0 -6.9609375
vn -13.3828125 0 -9.28125
vn -13.458984375 0 -11.6015625
vn -13.458984375 0 -11.6015625
vn -13.3828125 0 -9.28125
vn -13.458984375 0 -11.6015625
vn -13.53515625 0 -13.921875
vn -13.53515625 0 -13.921875
vn -13.458984375 0 -11.6015625
vn -13.53515625 0 -13.921875
vn -13.611328125 0 -16.2421875
vn -13.611328125 0 -16.2421875
vn -13.53515625 0 -13.921875
vn -13.611328125 0 -16.2421875
vn -18.25 0 -24.75
vn -18.25 0 -24.75
vn -13.611328125 0 -16.2421875
vn 0 0 0
vn 1.375 0 -2.125
vn 1.375 0 -2.125
vn 0 0 0
vn 1.4375 0 -2.125
vn 1.5 0 -2.0625
vn 1.5 0 -2.0625
vn 1.4375 0 -2.125
vn 1.5 0 -2
vn 3.0625 0 -3.125
vn 3.0625 0 -3.125
vn 1.5 0 -2
vn 3.0625 0 -3.0625
vn 9.84375 0 -8.53125
vn 9.84375 0 -8.53125
vn 3.0625 0 -3.0625
vn 9.84375 0 -8.53125
vn 3.5 0 -2.625
vn 3.5 0 -2.625
vn 9.84375 0 -8.53125
vn 10.25 0 -7.625
vn 15.28125 0 -8.578125
vn 15.28125 0 -8.578125
vn 10.25 0 -7.625
vn 15.28125 0 -8.578125
vn 15.1875 0 -5.71875
vn 15.1875 0 -5.71875
vn 15.28125 0 -8.578125
vn 15.1875 0 -5.71875
vn 15.09375 0 -2.859375
vn 15.09375 0 -2.859375
vn 15.1875 0 -5.71875
vn 15.09375 0 -2.859375
vn 10 0 0
vn 10 0 0
vn 15.09375 0 -2.859375
vn 14.0625 0 0
vn 9.228515625 0 1.21875
vn 9.228515625 0 1.21875
vn 14.0625 0 0
vn 9.228515625 0 1.21875
vn 7.91015625 0 2.4375
vn 7.91015625 0 2.4375
vn 9.228515625 0 1.21875
vn 7.91015625 0 2.4375
vn 6.591796875 0 3.65625
vn 6.591796875 0 3.65625
vn 7.91015625 0 2.4375
vn 6.591796875 0 3.65625
vn 5.2734375 0 4.875
vn 5.2734375 0 4.875
vn 6.591796875 0 3.65625
vn 5.2734375 0 4.875
vn 3.955078125 0 6.09375
vn 3.955078125 0 6.09375
vn 5.2734375 0 4.875
vn 3.955078125 0 6.09375
vn 2.63671875 0 7.3125
vn 2.63671875 0 7.3125
vn 3.955078125 0 6.09375
vn 2.63671875 0 7.3125
vn 1.318359375 0 8.53125
vn 1.318359375 0 8.53125
vn 2.63671875 0 7.3125
vn 1.318359375 0 8.53125
vn 0 0 13
vn 0 0 13
vn 1.318359375 0 8.53125
vn 0 0 0
vn 0 0 0
vn 0 0 0
vn 0 0 0
vn -0.5625 0 5.2734375
vn -2.25 0 10.21875
vn -2.25 0 10.21875
vn -0.5625 0 5.2734375
vn 0 1 0
vn 0 1 0
vn 0 1 0
vn 0 1 0
vn 0 1 0
vn 0 1 0
vn 0 1 0
vn 0 1 0
vn 0 1 0
vn 0 1 0
vn 0 1 0
vn 0 1 0
vn 0 1 0
vn 0 1 0
vn 0 1 0
vn 0 1 0
vn 0 1 0
vn 0 1 0
vn 0 1 0
vn 0 1 0
vn 0 1 0
vn 0 1 0
vn 0 1 0
vn 0 1 0
vn 0 1 0
vn 0 1 0
vn 0 1 0
vn 0 1 0
vn 0 1 0
vn 0 1 0
vn 0 1 0
vn 0 1 0
vn 0 1 0
vn 0 1 0
vn 0 1 0
vn 0 1 0
vn 0 1 0
vn 0 1 0
vn 0 1 0
vn 0 1 0
vn 0 1 0
vn 0 1 0
vn 0 1 0
vn 0 1 0
vn 0 1 0
vn 0 1 0
vn 0 1 0
vn 0 1 0
vn 0 1 0
vn 0 1 0
vn 0 1 0
vn 0 1 0
vn 0 1 0
vn 0 1 0
vn 0 1 0
vn 0 1 0
vn 0 1 0
vn 0 1 0
vn 0 1 0
vn 0 1 0
vn 0 1 0
vn 0 1 0
vn 0 1 0
vn 0 1 0
vn 0 1 0
vn 0 1 0
vn 0 1 0
vn 0 1 0
vn 0 1 0
vn 0 1 0
vn 0 1 0
vn 0 1 0
vn 0 1 0
vn 0 1 0
vn 0 1 0
vn 0 1 0
vn 0 1 0
vn 0 1 0
vn 0 1 0
vn 0 1 0
vn 0 1 0
vn 0 1 0
vn 0 1 0
vn 0 1 0
vn 0 1 0
vn 0 1 0
vn 0 1 0
vn 0 1 0
vn 0 1 0
vn 0 1 0
vn 0 1 0
vn 0 1 0
vn 0 1 0
vn 0 1 0
vn 0 1 0
vn 0 1 0
vn 0 1 0
vn 0 1 0
vn 0 1 0
vn 0 1 0
vn 0 1 0
vn 0 1 0
vn 0 1 0
vn 0 1 0
vn 0 1 0
vn 0 1 0
vn 0 1 0
vn 0 1 0
vn 0 1 0
vn 0 1 0
vn 0 1 0
vn 0 1 0
vn 0 1 0
vn 0 1 0
vn 0 1 0
vn 0 1 0
vn 0 1 0
vn 0 1 0
vn 0 1 0
vn 0 1 0
vn 0 -1 0
vn 0 -1 0
vn 0 -1 0
vn 0 -1 0
vn 0 -1 0
vn 0 -1 0
vn 0 -1 0
vn 0 -1 0
vn 0 -1 0
vn 0 -1 0
vn 0 -1 0
vn 0 -1 0
vn 0 -1 0
vn 0 -1 0
vn 0 -1 0
vn 0 -1 0
vn 0 -1 0
vn 0 -1 0
vn 0 -1 0
vn 0 -1 0
vn 0 -1 0
vn 0 -1 0
vn 0 -1 0
vn 0 -1 0
vn 0 -1 0
vn 0 -1 0
vn 0 -1 0
vn 0 -1 0
vn 0 -1 0
vn 0 -1 0
vn 0 -1 0
vn 0 -1 0
vn 0 -1 0
vn 0 -1 0
vn 0 -1 0
vn 0 -1 0
vn 0 -1 0
vn 0 -1 0
vn 0 -1 0
vn 0 -1 0
vn 0 -1 0
vn 0 -1 0
vn 0 -1 0
vn 0 -1 0
vn 0 -1 0
vn 0 -1 0
vn 0 -1 0
vn 0 -1 0
vn 0 -1 0
vn 0 -1 0
vn 0 -1 0
vn 0 -1 0
vn 0 -1 0
vn 0 -1 0
vn 0 -1 0
vn 0 -1 0
vn 0 -1 0
vn 0 -1 0
vn 0 -1 0
vn 0 -1 0
vn 0 -1 0
vn 0 -1 0
vn 0 -1 0
vn 0 -1 0
vn 0 -1 0
vn 0 -1 0
vn 0 -1 0
vn 0 -1 0
vn 0 -1 0
vn 0 -1 0
vn 0 -1 0
vn 0 -1 0
vn 0 -1 0
vn 0 -1 0
vn 0 -1 0
vn 0 -1 0
vn 0 -1 0
vn 0 -1 0
vn 0 -1 0
vn 0 -1 0
vn 0 -1 0
vn 0 -1 0
vn 0 -1 0
vn 0 -1 0
vn 0 -1 0
vn 0 -1 0
vn 0 -1 0
vn 0 -1 0
vn 0 -1 0
vn 0 -1 0
vn 0 -1 0
vn 0 -1 0
vn 0 -1 0
vn 0 -1 0
vn 0 -1 0
vn 0 -1 0
vn 0 -1 0
vn 0 -1 0
vn 0 -1 0
vn 0 -1 0
vn 0 -1 0
vn 0 -1 0
vn 0 -1 0
vn 0 -1 0
vn 0 -1 0
vn 0 -1 0
vn 0 -1 0
vn 0 -1 0
vn 0 -1 0
vn 0 -1 0
vn 0 -1 0
vn 0 -1 0
vn 0 -1 0
vn 0 -1 0
vn 0 -1 0
vn 0 -1 0
vn 0 -1 0
vn 0 -1 0
vn 0 -1 0
vn 0 -1 0

g Suit1
f 1//1 2//2 3//3 4//4
f 5//5 6//6 7//7 8//8
f 9//9 10//10 11//11 12//12
f 13//13 14//14 15//15 16//16
f 17//17 18//18 19//19 20//20
f 21//21 22//22 23//23 24//24
f 25//25 26//26 27//27 28//28
f 29//29 30//30 31//31 32//32
f 33//33 34//34 35//35 36//36
f 37//37 38//38 39//39 40//40
f 41//41 42//42 43//43 44//44
f 45//45 46//46 47//47 48//48
f 49//49 50//50 51//51 52//52
f 53//53 54//54 55//55 56//56
f 57//57 58//58 59//59 60//60
f 61//61 62//62 63//63 64//64
f 65//65 66//66 67//67 68//68
f 69//69 70//70 71//71 72//72
f 73//73 74//74 75//75 76//76
f 77//77 78//78 79//79 80//80
f 81//81 82//82 83//83 84//84
f 85//85 86//86 87//87 88//88
f 89//89 90//90 91//91 92//92
f 93//93 94//94 95//95 96//96
f 97//97 98//98 99//99 100//100
f 101//101 102//102 103//103 104//104
f 105//105 106//106 107//107 108//108
f 109//109 110//110 111//111 112//112
f 113//113 114//114 115//115 116//116
f 117//117 118//118 119//119 120//120
f 121//121 122//122 123//123 124//124
f 125//125 126//126 127//127 128//128
f 129//129 130//130 131//131 132//132
f 133//133 134//134 135//135 136//136
f 137//137 138//138 139//139 140//140
f 141//141 142//142 143//143 144//144
f 145//145 146//146 147//147 148//148
f 149//149 150//150 151//151 152//152
f 153//153 154//154 155//155 156//156
f 157//157 158//158 159//159 160//160
f 161//161 162//162 163//163 164//164
f 165//165 166//166 167//167 168//168
f 169//169 170//170 171//171 172//172
f 173//173 174//174 175//175
f 176//176 177//177 178//178
f 179//179 180//180 181//181
f 182//182 183//183 184//184
f 185//185 186//186 187//187
f 188//188 189//189 190//190
f 191//191 192//192 193//193
f 194//194 195//195 196//196
f 197//197 198//198 199//199
f 200//200 201//201 202//202
f 203//203 204//204 205//205
f 206//206 207//207 208//208
f 209//209 210//210 211//211
f 212//212 213//213 214//214
f 215//215 216//216 217//217
f 218//218 219//219 220//220
f 221//221 222//222 223//223
f 224//224 225//225 226//226
f 227//227 228//228 229//229
f 230//230 231//231 232//232
f 233//233 234//234 235//235
f 236//236 237//237 238//238
f 239//239 240//240 241//241
f 242//242 243//243 244//244
f 245//245 246//246 247//247
f 248//248 249//249 250//250
f 251//251 252//252 253//253
f 254//254 255//255 256//256
f 257//257 258//258 259//259
f 260//260 261//261 262//262
f 263//263 264//264 265//265
f 266//266 267//267 268//268
f 269//269 270//270 271//271
f 272//272 273//273 274//274
f 275//275 276//276 277//277
f 278//278 279//279 280//280
f 281//281 282//282 283//283
f 284//284 285//285 286//286
f 287//287 288//288 289//289
f 290//290 291//291 292//292
f 293//293 294//294 295//295
f 296//296 297//297 298//298
f 299//299 300//300 301//301
f 302//302 303//303 304//304
f 305//305 306//306 307//307
f 308//308 309//309 310//310
f 311//311 312//312 313//313
f 314//314 315//315 316//316
f 317//317 318//318 319//319
f 320//320 321//321 322//322
f 323//323 324//324 325//325
f 326//326 327//327 328//328
f 329//329 330//330 331//331
f 332//332 333//333 334//334
f 335//335 336//336 337//337
f 338//338 339//339 340//340
f 341//341 342//342 343//343
f 344//344 345//345 346//346
f 347//347 348//348 349//349
f 350//350 351//351 352//352
f 353//353 354//354 355//355
f 356//356 357//357 358//358
f 359//359 360//360 361//361
f 362//362 363//363 364//364
f 365//365 366//366 367//367
f 368//368 369//369 370//370
f 371//371 372//372 373//373
f 374//374 375//375 376//376
f 377//377 378//378 379//379
f 380//380 381//381 382//382
f 383//383 384//384 385//385
f 386//386 387//387 388//388
f 389//389 390//390 391//391
f 392//392 393//393 394//394
f 395//395 396//396 397//397
f 398//398 399//399 400//400
f 401//401 402//402 403//403
f 404//404 405//405 406//406
f 407//407 408//408 409//409
f 410//410 411//411 412//412