o Suit0
v -9.0000020000000021 5 -29.0390625
v -11.062502000000002 5 -33.984375
v -11.062502000000002 -5 -33.984375
v -9.0000020000000021 -5 -29.0390625
v -13.687502000000002 5 -39.515625
v -13.687502000000002 -5 -39.515625
v -13.4736348125 5 -40.19677734375
v -13.4736348125 -5 -40.19677734375
v -12.832033250000002 5 -40.787109375
v -12.832033250000002 -5 -40.787109375
v -10.265627000000002 5 -41.6953125
v -10.265627000000002 -5 -41.6953125
v -5.9882832500000012 5 -42.240234375
v -5.9882832500000012 -5 -42.240234375
v -2.0000000020559128E-06 5 -42.421875
v -2.0000000020559128E-06 -5 -42.421875
v 5.9179667499999979 5 -42.234375
v 5.9179667499999979 -5 -42.234375
v 10.171872999999998 5 -41.671875
v 10.171872999999998 -5 -41.671875
v 12.761716749999998 5 -40.734375
v 12.761716749999998 -5 -40.734375
v 13.687497999999998 5 -39.421875
v 13.687497999999998 -5 -39.421875
v 11.156247999999998 5 -33.515625
v 11.156247999999998 -5 -33.515625
v 9.0234354999999979 5 -28.546875
v 9.0234354999999979 -5 -28.546875
v 7.8749979999999979 5 -23.953125
v 7.8749979999999979 -5 -23.953125
v 12.984372999999998 5 -25.921875
v 12.984372999999998 -5 -25.921875
v 18.374997999999998 5 -26.578125
v 18.374997999999998 -5 -26.578125
v 21.802732374999998 5 -26.34375
v 21.802732374999998 -5 -26.34375
v 24.773435499999998 5 -25.640625
v 24.773435499999998 -5 -25.640625
v 27.287107374999998 5 -24.46875
v 27.287107374999998 -5 -24.46875
v 29.343747999999998 5 -22.828125
v 29.343747999999998 -5 -22.828125
v 30.943357374999998 5 -20.71875
v 30.943357374999998 -5 -20.71875
v 32.0859355 5 -18.140625
v 32.0859355 -5 -18.140625
v 32.771482375 5 -15.09375
v 32.771482375 -5 -15.09375
v 32.999998 5 -11.578125
v 32.999998 -5 -11.578125
v 32.707029249999991 5 -8.572265625
v 32.707029249999991 -5 -8.572265625
v 31.828122999999998 5 -5.1796875
v 31.828122999999998 -5 -5.1796875
v 28.312497999999998 5 2.765625
v 28.312497999999998 -5 2.765625
v 23.296872999999998 5 11.203125
v 23.296872999999998 -5 11.203125
v 17.812497999999998 5 18.890625
v 17.812497999999998 -5 18.890625
v 6.4687479999999979 5 33.328125
v 6.4687479999999979 -5 33.328125
v -2.0000000020559128E-06 5 42.421875
v -2.0000000020559128E-06 -5 42.421875
v -8.2500020000000021 5 30.984375
v -8.2500020000000021 -5 30.984375
v -19.078125250000003 5 16.798828125
v -19.078125250000003 -5 16.798828125
v -26.812499000000003 5 4.9921875
v -26.812499000000003 -5 4.9921875
v -29.519529812500007 5 -0.01904296875
v -29.519529812500007 -5 -0.01904296875
v -31.453123250000004 5 -4.435546875
v -31.453123250000004 -5 -4.435546875
v -32.613279312500005 5 -8.25732421875
v -32.613279312500005 -5 -8.25732421875
v -32.999998000000005 5 -11.484375
v -32.999998000000005 -5 -11.484375
v -32.771482437500005 5 -15.02197265625
v -32.771482437500005 -5 -15.02197265625
v -32.085935750000004 5 -18.087890625
v -32.085935750000004 -5 -18.087890625
v -30.943357937500007 5 -20.68212890625
v -30.943357937500007 -5 -20.68212890625
v -29.343749000000003 5 -22.8046875
v -29.343749000000003 -5 -22.8046875
v -27.2871089375 5 -24.45556640625
v -27.2871089375 -5 -24.45556640625
v -24.773437750000006 5 -25.634765625
v -24.773437750000006 -5 -25.634765625
v -21.802735437500008 5 -26.34228515625
v -21.802735437500008 -5 -26.34228515625
v -18.375002000000009 5 -26.578125
v -18.375002000000009 -5 -26.578125
v -12.984377000000009 5 -25.921875
v -12.984377000000009 -5 -25.921875
v -7.8750020000000092 5 -23.953125
v -7.8750020000000092 -5 -23.953125
v -7.8750020000000021 5 -23.953125
v -7.8750020000000021 -5 -23.953125
vn -10.03125 0 3.1875
vn -3.25 0 1.6875
vn -3.25 0 1.6875
vn -10.03125 0 3.1875
vn -3.25 0 1.75
vn -0.4375 0 0
vn -0.4375 0 0
vn -3.25 0 1.75
vn -1.9375 0 0
vn -1.271484375 0 -0.85546875
vn -1.271484375 0 -0.85546875
vn -1.9375 0 0
vn -1.271484375 0 -0.85546875
vn -1.49853515625 0 -3.2080078124999982
vn -1.49853515625 0 -3.2080078124999982
vn -1.271484375 0 -0.85546875
vn -1.49853515625 0 -3.2080078124999982
vn -1.453125 0 -6.8437500000000009
vn -1.453125 0 -6.8437500000000009
vn -1.49853515625 0 -3.2080078124999982
vn -1.453125 0 -6.8437500000000009
vn -0.7265625 0 -10.265625
vn -0.7265625 0 -10.265625
vn -1.453125 0 -6.8437500000000009
vn -0.7265625 0 -10.265625
vn 0 0 -9.125
vn 0 0 -9.125
vn -0.7265625 0 -10.265625
vn 0 0 -9
vn 0.75 0 -10.171875
vn 0.75 0 -10.171875
vn 0 0 -9
vn 0.75 0 -10.171875
vn 1.5 0 -6.84375
vn 1.5 0 -6.84375
vn 0.75 0 -10.171875
vn 1.5 0 -6.84375
vn 2.25 0 -3.515625
vn 2.25 0 -3.515625
vn 1.5 0 -6.84375
vn 2.25 0 -3.515625
vn 2 0 -0.125
vn 2 0 -0.125
vn 2.25 0 -3.515625
vn 0.5 0 0
vn 3.4375 0 1.6875
vn 3.4375 0 1.6875
vn 0.5 0 0
vn 3.4375 0 1.75
vn 9.5625 0 3.28125
vn 9.5625 0 3.28125
vn 3.4375 0 1.75
vn 9.5625 0 3.28125
vn 2.9375 0 0.4375
vn 2.9375 0 0.4375
vn 9.5625 0 3.28125
vn -1.75 0 -3.3125
vn -2.625 0 -10.5
vn -2.625 0 -10.5
vn -1.75 0 -3.3125
vn -2.625 0 -10.5
vn 0 0 -3.6875
vn 0 0 -3.6875
vn -2.625 0 -10.5
vn 0 0 -9.75
vn 0.9375 0 -6.3984375
vn 0.9375 0 -6.3984375
vn 0 0 -9.75
vn 0.9375 0 -6.3984375
vn 1.875 0 -5.484375
vn 1.875 0 -5.484375
vn 0.9375 0 -6.3984375
vn 1.875 0 -5.484375
vn 2.8125 0 -4.5703125
vn 2.8125 0 -4.5703125
vn 1.875 0 -5.484375
vn 2.8125 0 -4.5703125
vn 3.75 0 -3.65625
vn 3.75 0 -3.65625
vn 2.8125 0 -4.5703125
vn 3.75 0 -3.65625
vn 4.6875 0 -2.7421875
vn 4.6875 0 -2.7421875
vn 3.75 0 -3.65625
vn 4.6875 0 -2.7421875
vn 5.625 0 -1.828125
vn 5.625 0 -1.828125
vn 4.6875 0 -2.7421875
vn 5.625 0 -1.828125
vn 6.5625 0 -0.9140625
vn 6.5625 0 -0.9140625
vn 5.625 0 -1.828125
vn 6.5625 0 -0.9140625
vn 10 0 0
vn 10 0 0
vn 6.5625 0 -0.9140625
vn 3.75 0 0
vn 6.3984375 0 1.171875
vn 6.3984375 0 1.171875
vn 3.75 0 0
vn 6.3984375 0 1.171875
vn 11.337890625 0 4.3945312499999929
vn 11.337890625 0 4.3945312499999929
vn 6.3984375 0 1.171875
vn 11.337890625 0 4.3945312499999929
vn 5.8125 0 3.125
vn 5.8125 0 3.125
vn 11.337890625 0 4.3945312499999929
vn 5.875 0 3.1875
vn 16.125 0 10.5
vn 16.125 0 10.5
vn 5.875 0 3.1875
vn 16.125 0 10.5
vn 4.875 0 3.8125
vn 4.875 0 3.8125
vn 16.125 0 10.5
vn 4.9375 0 3.875
vn 4.6875 0 3.6875
vn 4.6875 0 3.6875
vn 4.9375 0 3.875
vn 4.75 0 3.6875
vn 1.3125 0 0.625
vn 1.3125 0 0.625
vn 4.75 0 3.6875
vn -11.4375 0 8.25
vn -11.4375 0 8.25
vn -11.4375 0 8.25
vn -11.4375 0 8.25
vn -14.185546875 0 10.82812325
vn -25.9921875 0 18.562497
vn -25.9921875 0 18.562497
vn -14.185546875 0 10.82812325
vn -25.9921875 0 18.562497
vn -16.81787109375 0 10.441404562500004
vn -16.81787109375 0 10.441404562500004
vn -25.9921875 0 18.562497
vn -16.81787109375 0 10.441404562500004
vn -9.427734375 0 4.6406242500000019
vn -9.427734375 0 4.6406242500000019
vn -16.81787109375 0 10.441404562500004
vn -9.427734375 0 4.6406242500000019
vn -8.23828125 0 3.0937494999999977
vn -8.23828125 0 3.0937494999999977
vn -9.427734375 0 4.6406242500000019
vn -8.23828125 0 3.0937494999999977
vn -7.048828125 0 1.5468747500000006
vn -7.048828125 0 1.5468747500000006
vn -8.23828125 0 3.0937494999999977
vn -7.048828125 0 1.5468747500000006
vn -7.8125 0 0
vn -7.8125 0 0
vn -7.048828125 0 1.5468747500000006
vn -10.0625 0 0
vn -6.603515625 0 -0.91406225000000063
vn -6.603515625 0 -0.91406225000000063
vn -10.0625 0 0
vn -6.603515625 0 -0.91406225000000063
vn -5.66015625 0 -1.8281244999999977
vn -5.66015625 0 -1.8281244999999977
vn -6.603515625 0 -0.91406225000000063
vn -5.66015625 0 -1.8281244999999977
vn -4.716796875 0 -2.7421867500000019
vn -4.716796875 0 -2.7421867500000019
vn -5.66015625 0 -1.8281244999999977
vn -4.716796875 0 -2.7421867500000019
vn -3.7734375 0 -3.6562490000000061
vn -3.7734375 0 -3.6562490000000061
vn -4.716796875 0 -2.7421867500000019
vn -3.7734375 0 -3.6562490000000061
vn -2.830078125 0 -4.5703112499999961
vn -2.830078125 0 -4.5703112499999961
vn -3.7734375 0 -3.6562490000000061
vn -2.830078125 0 -4.5703112499999961
vn -1.88671875 0 -5.4843734999999931
vn -1.88671875 0 -5.4843734999999931
vn -2.830078125 0 -4.5703112499999961
vn -1.88671875 0 -5.4843734999999931
vn -0.943359375 0 -6.3984357499999973
vn -0.943359375 0 -6.3984357499999973
vn -1.88671875 0 -5.4843734999999931
vn -0.943359375 0 -6.3984357499999973
vn 0 0 -9.7499973333333259
vn 0 0 -9.7499973333333259
vn -0.943359375 0 -6.3984357499999973
vn 0 0 -3.6875
vn 2.625 0 -10.5
vn 2.625 0 -10.5
vn 0 0 -3.6875
vn 2.625 0 -10.5
vn 1.75 0 -3.3125
vn 1.75 0 -3.3125
vn 2.625 0 -10.5
vn 0 0 -7.1054273576010019E-15
vn 0 0 -7.1054273576010019E-15
vn 0 0 -7.1054273576010019E-15
vn 0 0 -7.1054273576010019E-15
vn -5.0859375 0 1.125
vn -10.03125 0 3.1875
vn -10.03125 0 3.1875
vn -5.0859375 0 1.125
vn 0 1 0
vn 0 1 0
vn 0 1 0
vn 0 1 0
vn 0 1 0
vn 0 1 0
vn 0 1 0
vn 0 1 0
vn 0 1 0
vn 0 1 0
vn 0 1 0
vn 0 1 0
vn 0 1 0
vn 0 1 0
vn 0 1 0
vn 0 1 0
vn 0 1 0
vn 0 1 0
vn 0 1 0
vn 0 1 0
vn 0 1 0
vn 0 1 0
vn 0 1 0
vn 0 1 0
vn 0 1 0
vn 0 1 0
vn 0 1 0
vn 0 1 0
vn 0 1 0
vn 0 1 0
vn 0 1 0
vn 0 1 0
vn 0 1 0
vn 0 1 0
vn 0 1 0
vn 0 1 0
vn 0 1 0
vn 0 1 0
vn 0 1 0
vn 0 1 0
vn 0 1 0
vn 0 1 0
vn 0 1 0
vn 0 1 0
vn 0 1 0
vn 0 1 0
vn 0 1 0
vn 0 1 0
vn 0 1 0
vn 0 1 0
vn 0 1 0
vn 0 1 0
vn 0 1 0
vn 0 1 0
vn 0 1 0
vn 0 1 0
vn 0 1 0
vn 0 1 0
vn 0 1 0
vn 0 1 0
vn 0 1 0
vn 0 1 0
vn 0 1 0
vn 0 1 0
vn 0 1 0
vn 0 1 0
vn 0 1 0
vn 0 1 0
vn 0 1 0
vn 0 1 0
vn 0 1 0
vn 0 1 0
vn 0 1 0
vn 0 1 0
vn 0 1 0
vn 0 1 0
vn 0 1 0
vn 0 1 0
vn 0 1 0
vn 0 1 0
vn 0 1 0
vn 0 1 0
vn 0 1 0
vn 0 1 0
vn 0 1 0
vn 0 1 0
vn 0 1 0
vn 0 1 0
vn 0 1 0
vn 0 1 0
vn 0 1 0
vn 0 1 0
vn 0 1 0
vn 0 1 0
vn 0 1 0
vn 0 1 0
vn 0 1 0
vn 0 1 0
vn 0 1 0
vn 0 1 0
vn 0 1 0
vn 0 1 0
vn 0 1 0
vn 0 1 0
vn 0 1 0
vn 0 1 0
vn 0 1 0
vn 0 1 0
vn 0 1 0
vn 0 1 0
vn 0 1 0
vn 0 1 0
vn 0 1 0
vn 0 1 0
vn 0 1 0
vn 0 1 0
vn 0 1 0
vn 0 1 0
vn 0 1 0
vn 0 1 0
vn 0 1 0
vn 0 1 0
vn 0 1 0
vn 0 1 0
vn 0 1 0
vn 0 1 0
vn 0 1 0
vn 0 1 0
vn 0 1 0
vn 0 1 0
vn 0 1 0
vn 0 1 0
vn 0 1 0
vn 0 1 0
vn 0 1 0
vn 0 1 0
vn 0 1 0
vn 0 1 0
vn 0 1 0
vn 0 1 0
vn 0 1 0
vn 0 1 0
vn 0 1 0
vn 0 1 0
vn 0 -1 0
vn 0 -1 0
vn 0 -1 0
vn 0 -1 0
vn 0 -1 0
vn 0 -1 0
vn 0 -1 0
vn 0 -1 0
vn 0 -1 0
vn 0 -1 0
vn 0 -1 0
vn 0 -1 0
vn 0 -1 0
vn 0 -1 0
vn 0 -1 0
vn 0 -1 0
vn 0 -1 0
vn 0 -1 0
vn 0 -1 0
vn 0 -1 0
vn 0 -1 0
vn 0 -1 0
vn 0 -1 0
vn 0 -1 0
vn 0 -1 0
vn 0 -1 0
vn 0 -1 0
vn 0 -1 0
vn 0 -1 0
vn 0 -1 0
vn 0 -1 0
vn 0 -1 0
vn 0 -1 0
vn 0 -1 0
vn 0 -1 0
vn 0 -1 0
vn 0 -1 0
vn 0 -1 0
vn 0 -1 0
vn 0 -1 0
vn 0 -1 0
vn 0 -1 0
vn 0 -1 0
vn 0 -1 0
vn 0 -1 0
vn 0 -1 0
vn 0 -1 0
vn 0 -1 0
vn 0 -1 0
vn 0 -1 0
vn 0 -1 0
vn 0 -1 0
vn 0 -1 0
vn 0 -1 0
vn 0 -1 0
vn 0 -1 0
vn 0 -1 0
vn 0 -1 0
vn 0 -1 0
vn 0 -1 0
vn 0 -1 0
vn 0 -1 0
vn 0 -1 0
vn 0 -1 0
vn 0 -1 0
vn 0 -1 0
vn 0 -1 0
vn 0 -1 0
vn 0 -1 0
vn 0 -1 0
vn 0 -1 0
vn 0 -1 0
vn 0 -1 0
vn 0 -1 0
vn 0 -1 0
vn 0 -1 0
vn 0 -1 0
vn 0 -1 0
vn 0 -1 0
vn 0 -1 0
vn 0 -1 0
vn 0 -1 0
vn 0 -1 0
vn 0 -1 0
vn 0 -1 0
vn 0 -1 0
vn 0 -1 0
vn 0 -1 0
vn 0 -1 0
vn 0 -1 0
vn 0 -1 0
vn 0 -1 0
vn 0 -1 0
vn 0 -1 0
vn 0 -1 0
vn 0 -1 0
vn 0 -1 0
vn 0 -1 0
vn 0 -1 0
vn 0 -1 0
vn 0 -1 0
vn 0 -1 0
vn 0 -1 0
vn 0 -1 0
vn 0 -1 0
vn 0 -1 0
vn 0 -1 0
vn 0 -1 0
vn 0 -1 0
vn 0 -1 0
vn 0 -1 0
vn 0 -1 0
vn 0 -1 0
vn 0 -1 0
vn 0 -1 0
vn 0 -1 0
vn 0 -1 0
vn 0 -1 0
vn 0 -1 0
vn 0 -1 0
vn 0 -1 0
vn 0 -1 0
vn 0 -1 0
vn 0 -1 0
vn 0 -1 0
vn 0 -1 0
vn 0 -1 0
vn 0 -1 0
vn 0 -1 0
vn 0 -1 0
vn 0 -1 0
vn 0 -1 0
vn 0 -1 0
vn 0 -1 0
vn 0 -1 0
vn 0 -1 0
vn 0 -1 0
vn 0 -1 0
vn 0 -1 0
vn 0 -1 0
vn 0 -1 0
vn 0 -1 0
vn 0 -1 0
vn 0 -1 0

g Suit0
f 1//1 2//2 3//3 4//4
f 2//5 5//6 6//7 3//8
f 5//9 7//10 8//11 6//12
f 7//13 9//14 10//15 8//16
f 9//17 11//18 12//19 10//20
f 11//21 13//22 14//23 12//24
f 13//25 15//26 16//27 14//28
f 15//29 17//30 18//31 16//32
f 17//33 19//34 20//35 18//36
f 19//37 21//38 22//39 20//40
f 21//41 23//42 24//43 22//44
f 23//45 25//46 26//47 24//48
f 25//49 27//50 28//51 26//52
f 27//53 29//54 30//55 28//56
f 29//57 31//58 32//59 30//60
f 31//61 33//62 34//63 32//64
f 33//65 35//66 36//67 34//68
f 35//69 37//70 38//71 36//72
f 37//73 39//74 40//75 38//76
f 39//77 41//78 42//79 40//80
f 41//81 43//82 44//83 42//84
f 43//85 45//86 46//87 44//88
f 45//89 47//90 48//91 46//92
f 47//93 49//94 50//95 48//96
f 49//97 51//98 52//99 50//100
f 51//101 53//102 54//103 52//104
f 53//105 55//106 56//107 54//108
f 55//109 57//110 58//111 56//112
f 57//113 59//114 60//115 58//116
f 59//117 61//118 62//119 60//120
f 61//121 63//122 64//123 62//124
f 63//125 65//126 66//127 64//128
f 65//129 67//130 68//131 66//132
f 67//133 69//134 70//135 68//136
f 69//137 71//138 72//139 70//140
f 71//141 73//142 74//143 72//144
f 73//145 75//146 76//147 74//148
f 75//149 77//150 78//151 76//152
f 77//153 79//154 80//155 78//156
f 79//157 81//158 82//159 80//160
f 81//161 83//162 84//163 82//164
f 83//165 85//166 86//167 84//168
f 85//169 87//170 88//171 86//172
f 87//173 89//174 90//175 88//176
f 89//177 91//178 92//179 90//180
f 91//181 93//182 94//183 92//184
f 93//185 95//186 96//187 94//188
f 95//189 97//190 98//191 96//192
f 97//193 99//194 100//195 98//196
f 99//197 1//198 4//199 100//200
f 97//201 95//202 93//203
f 97//204 93//205 91//206
f 97//207 91//208 89//209
f 97//210 89//211 87//212
f 97//213 87//214 85//215
f 99//216 97//217 85//218
f 99//219 85//220 83//221
f 99//222 83//223 81//224
f 99//225 81//226 79//227
f 99//228 79//229 77//230
f 99//231 77//232 75//233
f 99//234 75//235 73//236
f 99//237 73//238 71//239
f 99//240 71//241 69//242
f 99//243 69//244 67//245
f 99//246 67//247 65//248
f 99//249 65//250 63//251
f 99//252 63//253 61//254
f 1//255 99//256 61//257
f 1//258 61//259 59//260
f 1//261 59//262 57//263
f 1//264 57//265 55//266
f 1//267 55//268 53//269
f 1//270 53//271 51//272
f 1//273 51//274 49//275
f 1//276 49//277 47//278
f 47//279 45//280 43//281
f 47//282 43//283 41//284
f 47//285 41//286 39//287
f 47//288 39//289 37//290
f 47//291 37//292 35//293
f 47//294 35//295 33//296
f 47//297 33//298 31//299
f 47//300 31//301 29//302
f 1//303 47//304 29//305
f 1//306 29//307 27//308
f 1//309 27//310 25//311
f 1//312 25//313 23//314
f 1//315 23//316 21//317
f 1//318 21//319 19//320
f 1//321 19//322 17//323
f 1//324 17//325 15//326
f 1//327 15//328 13//329
f 1//330 13//331 11//332
f 1//333 11//334 9//335
f 1//336 9//337 7//338
f 7//339 5//340 2//341
f 7//342 2//343 1//344
f 94//345 96//346 98//347
f 92//348 94//349 98//350
f 90//351 92//352 98//353
f 88//354 90//355 98//356
f 86//357 88//358 98//359
f 86//360 98//361 100//362
f 84//363 86//364 100//365
f 82//366 84//367 100//368
f 80//369 82//370 100//371
f 78//372 80//373 100//374
f 76//375 78//376 100//377
f 74//378 76//379 100//380
f 72//381 74//382 100//383
f 70//384 72//385 100//386
f 68//387 70//388 100//389
f 66//390 68//391 100//392
f 64//393 66//394 100//395
f 62//396 64//397 100//398
f 62//399 100//400 4//401
f 60//402 62//403 4//404
f 58//405 60//406 4//407
f 56//408 58//409 4//410
f 54//411 56//412 4//413
f 52//414 54//415 4//416
f 50//417 52//418 4//419
f 48//420 50//421 4//422
f 44//423 46//424 48//425
f 42//426 44//427 48//428
f 40//429 42//430 48//431
f 38//432 40//433 48//434
f 36//435 38//436 48//437
f 34//438 36//439 48//440
f 32//441 34//442 48//443
f 30//444 32//445 48//446
f 30//447 48//448 4//449
f 28//450 30//451 4//452
f 26//453 28//454 4//455
f 24//456 26//457 4//458
f 22//459 24//460 4//461
f 20//462 22//463 4//464
f 18//465 20//466 4//467
f 16//468 18//469 4//470
f 14//471 16//472 4//473
f 12//474 14//475 4//476
f 10//477 12//478 4//479
f 8//480 10//481 4//482
f 3//483 6//484 8//485
f 4//486 3//487 8//488