o Suit9
v 3.1171875 5 32.5546875
v 0 5 29.53125
v 0 -5 29.53125
v 3.1171875 -5 32.5546875
v -0.375 5 29.90625
v -0.375 -5 29.90625
v -4.44140625 5 33.146484375
v -4.44140625 -5 33.146484375
v -8.671875 5 35.4609375
v -8.671875 -5 35.4609375
v -13.06640625 5 36.849609375
v -13.06640625 -5 36.849609375
v -17.625 5 37.3125
v -17.625 -5 37.3125
v -22.1953125 5 36.98291015625
v -22.1953125 -5 36.98291015625
v -26.15625 5 35.994140625
v -26.15625 -5 35.994140625
v -29.5078125 5 34.34619140625
v -29.5078125 -5 34.34619140625
v -32.25 5 32.0390625
v -32.25 -5 32.0390625
v -34.3828125 5 29.07275390625
v -34.3828125 -5 29.07275390625
v -35.90625 5 25.447265625
v -35.90625 -5 25.447265625
v -36.8203125 5 21.16259765625
v -36.8203125 -5 21.16259765625
v -37.125 5 16.21875
v -37.125 -5 16.21875
v -36.544921875 5 9.66064453125
v -36.544921875 -5 9.66064453125
v -34.8046875 5 3.064453125
v -34.8046875 -5 3.064453125
v -31.904296875 5 -3.56982421875
v -31.904296875 -5 -3.56982421875
v -27.84375 5 -10.2421875
v -27.84375 -5 -10.2421875
v -22.623046875 5 -16.95263671875
v -22.623046875 -5 -16.95263671875
v -16.2421875 5 -23.701171875
v -16.2421875 -5 -23.701171875
v -8.701171875 5 -30.48779296875
v -8.701171875 -5 -30.48779296875
v 0 5 -37.3125
v 0 -5 -37.3125
v 3.1875 5 -35.25
v 3.1875 -5 -35.25
v 9.46875 5 -30.84375
v 9.46875 -5 -30.84375
v 17.15625 5 -24
v 17.15625 -5 -24
v 21.5859375 5 -19.2421875
v 21.5859375 -5 -19.2421875
v 25.6875 5 -14.15625
v 25.6875 -5 -14.15625
v 30.69140625 5 -6.4921875
v 30.69140625 -5 -6.4921875
v 34.265625 5 1.125
v 34.265625 -5 1.125
v 36.41015625 5 8.6953125
v 36.41015625 -5 8.6953125
v 37.125 5 16.21875
v 37.125 -5 16.21875
v 36.8203125 5 21.16259765625
v 36.8203125 -5 21.16259765625
v 35.90625 5 25.447265625
v 35.90625 -5 25.447265625
v 34.3828125 5 29.07275390625
v 34.3828125 -5 29.07275390625
v 32.25 5 32.0390625
v 32.25 -5 32.0390625
v 29.5078125 5 34.34619140625
v 29.5078125 -5 34.34619140625
v 26.15625 5 35.994140625
v 26.15625 -5 35.994140625
v 22.1953125 5 36.98291015625
v 22.1953125 -5 36.98291015625
v 17.625 5 37.3125
v 17.625 -5 37.3125
v 12.3515625 5 36.75
v 12.3515625 -5 36.75
v 7.40625 5 35.0625
v 7.40625 -5 35.0625
v 32.654296875 5 9.5390625
v 31.0546875 5 2.8125
v 31.0546875 -5 2.8125
v 32.654296875 -5 9.5390625
v 28.388671875 5 -3.7734375
v 28.388671875 -5 -3.7734375
v 24.65625 5 -10.21875
v 24.65625 -5 -10.21875
v 24.355469999999997 5 -10.646479999999997
v 24.355469999999997 -5 -10.646479999999997
v -19.720699999999994 5 33.429689999999994
v -19.720699999999994 -5 33.429689999999994
v -17.25 5 33.5625
v -17.25 -5 33.5625
v -13.41796875 5 33.10546875
v -13.41796875 -5 33.10546875
v -9.609375 5 31.734375
v -9.609375 -5 31.734375
v -5.82421875 5 29.44921875
v -5.82421875 -5 29.44921875
v -2.0625 5 26.25
v -2.0625 -5 26.25
v -0.03125 5 24.0625
v -0.03125 -5 24.0625
v 5.34375 5 28.96875
v 5.34375 -5 28.96875
v 7.5002324999999992 5 30.542212499999998
v 7.5002324999999992 -5 30.542212499999998
v 10.40625 5 32.0625
v 10.40625 -5 32.0625
v 13.8515625 5 33.1875
v 13.8515625 -5 33.1875
v 17.625 5 33.5625
v 17.625 -5 33.5625
v 21.2724609375 5 33.29443359375
v 21.2724609375 -5 33.29443359375
v 24.43359375 5 32.490234375
v 24.43359375 -5 32.490234375
v 27.1083984375 5 31.14990234375
v 27.1083984375 -5 31.14990234375
v 29.296875 5 29.2734375
v 29.296875 -5 29.2734375
v 30.9990234375 5 26.86083984375
v 30.9990234375 -5 26.86083984375
v 32.21484375 5 23.912109375
v 32.21484375 -5 23.912109375
v 32.9443359375 5 20.42724609375
v 32.9443359375 -5 20.42724609375
v 33.1875 5 16.40625
v 33.1875 -5 16.40625
v 5.81324875 5 -28.788471250000022
v 0 5 -32.53125
v 0 -5 -32.53125
v 5.81324875 -5 -28.788471250000022
v -7.23046875 5 -26.783203125
v -7.23046875 -5 -26.783203125
v -13.640625 5 -20.9765625
v -13.640625 -5 -20.9765625
v -19.23046875 5 -15.111328125
v -19.23046875 -5 -15.111328125
v -24 5 -9.1875
v -24 -5 -9.1875
v -27.85546875 5 -3.123046875
v -27.85546875 -5 -3.123046875
v -30.609375 5 3.1640625
v -30.609375 -5 3.1640625
v -32.26171875 5 9.673828125
v -32.26171875 -5 9.673828125
v -32.8125 5 16.40625
v -32.8125 -5 16.40625
v -32.705080000000009 5 18.982419999999991
v -32.705080000000009 -5 18.982419999999991
v 11.09375 5 -24.816410000000019
v 11.09375 -5 -24.816410000000019
vn -5.53125 0 7.40625
vn -2.1875 0 1.6875
vn -2.1875 0 1.6875
vn -5.53125 0 7.40625
vn 0.375 0 0.375
vn 0.375 0 0.375
vn 0.375 0 0.375
vn 0.375 0 0.375
vn 3.240234375 0 4.06640625
vn 5.5546875 0 8.296875
vn 5.5546875 0 8.296875
vn 3.240234375 0 4.06640625
vn 5.5546875 0 8.296875
vn 3.703125 0 8.625
vn 3.703125 0 8.625
vn 5.5546875 0 8.296875
vn 3.703125 0 8.625
vn 1.8515625 0 8.953125
vn 1.8515625 0 8.953125
vn 3.703125 0 8.625
vn 1.8515625 0 8.953125
vn 0 0 6.1875
vn 0 0 6.1875
vn 1.8515625 0 8.953125
vn 0 0 13
vn -1.318359375 0 8.53125
vn -1.318359375 0 8.53125
vn 0 0 13
vn -1.318359375 0 8.53125
vn -2.63671875 0 7.3125
vn -2.63671875 0 7.3125
vn -1.318359375 0 8.53125
vn -2.63671875 0 7.3125
vn -3.955078125 0 6.09375
vn -3.955078125 0 6.09375
vn -2.63671875 0 7.3125
vn -3.955078125 0 6.09375
vn -5.2734375 0 4.875
vn -5.2734375 0 4.875
vn -3.955078125 0 6.09375
vn -5.2734375 0 4.875
vn -6.591796875 0 3.65625
vn -6.591796875 0 3.65625
vn -5.2734375 0 4.875
vn -6.591796875 0 3.65625
vn -7.91015625 0 2.4375
vn -7.91015625 0 2.4375
vn -6.591796875 0 3.65625
vn -7.91015625 0 2.4375
vn -9.228515625 0 1.21875
vn -9.228515625 0 1.21875
vn -7.91015625 0 2.4375
vn -9.228515625 0 1.21875
vn -14.0625 0 0
vn -14.0625 0 0
vn -9.228515625 0 1.21875
vn -17.4375 0 0
vn -13.154296875 0 -2.3203125
vn -13.154296875 0 -2.3203125
vn -17.4375 0 0
vn -13.154296875 0 -2.3203125
vn -13.23046875 0 -4.640625
vn -13.23046875 0 -4.640625
vn -13.154296875 0 -2.3203125
vn -13.23046875 0 -4.640625
vn -13.306640625 0 -6.9609375
vn -13.306640625 0 -6.9609375
vn -13.23046875 0 -4.640625
vn -13.306640625 0 -6.9609375
vn -13.3828125 0 -9.28125
vn -13.3828125 0 -9.28125
vn -13.306640625 0 -6.9609375
vn -13.3828125 0 -9.28125
vn -13.458984375 0 -11.6015625
vn -13.458984375 0 -11.6015625
vn -13.3828125 0 -9.28125
vn -13.458984375 0 -11.6015625
vn -13.53515625 0 -13.921875
vn -13.53515625 0 -13.921875
vn -13.458984375 0 -11.6015625
vn -13.53515625 0 -13.921875
vn -13.611328125 0 -16.2421875
vn -13.611328125 0 -16.2421875
vn -13.53515625 0 -13.921875
vn -13.611328125 0 -16.2421875
vn -18.25 0 -24.75
vn -18.25 0 -24.75
vn -13.611328125 0 -16.2421875
vn 2.0625 0 -3.1875
vn 2.0625 0 -3.1875
vn 2.0625 0 -3.1875
vn 2.0625 0 -3.1875
vn 4.40625 0 -6.28125
vn 1.5 0 -2.0625
vn 1.5 0 -2.0625
vn 4.40625 0 -6.28125
vn 1.5 0 -2
vn 3.0625 0 -3.125
vn 3.0625 0 -3.125
vn 1.5 0 -2
vn 3.0625 0 -3.0625
vn 9.84375 0 -8.53125
vn 9.84375 0 -8.53125
vn 3.0625 0 -3.0625
vn 9.84375 0 -8.53125
vn 3.5 0 -2.625
vn 3.5 0 -2.625
vn 9.84375 0 -8.53125
vn 10.25 0 -7.625
vn 15.28125 0 -8.578125
vn 15.28125 0 -8.578125
vn 10.25 0 -7.625
vn 15.28125 0 -8.578125
vn 15.1875 0 -5.71875
vn 15.1875 0 -5.71875
vn 15.28125 0 -8.578125
vn 15.1875 0 -5.71875
vn 15.09375 0 -2.859375
vn 15.09375 0 -2.859375
vn 15.1875 0 -5.71875
vn 15.09375 0 -2.859375
vn 10 0 0
vn 10 0 0
vn 15.09375 0 -2.859375
vn 14.0625 0 0
vn 9.228515625 0 1.21875
vn 9.228515625 0 1.21875
vn 14.0625 0 0
vn 9.228515625 0 1.21875
vn 7.91015625 0 2.4375
vn 7.91015625 0 2.4375
vn 9.228515625 0 1.21875
vn 7.91015625 0 2.4375
vn 6.591796875 0 3.65625
vn 6.591796875 0 3.65625
vn 7.91015625 0 2.4375
vn 6.591796875 0 3.65625
vn 5.2734375 0 4.875
vn 5.2734375 0 4.875
vn 6.591796875 0 3.65625
vn 5.2734375 0 4.875
vn 3.955078125 0 6.09375
vn 3.955078125 0 6.09375
vn 5.2734375 0 4.875
vn 3.955078125 0 6.09375
vn 2.63671875 0 7.3125
vn 2.63671875 0 7.3125
vn 3.955078125 0 6.09375
vn 2.63671875 0 7.3125
vn 1.318359375 0 8.53125
vn 1.318359375 0 8.53125
vn 2.63671875 0 7.3125
vn 1.318359375 0 8.53125
vn 0 0 13
vn 0 0 13
vn 1.318359375 0 8.53125
vn 0 0 3.625
vn -2.25 0 10.21875
vn -2.25 0 10.21875
vn 0 0 3.625
vn -2.25 0 10.21875
vn -1.5 0 3.1875
vn -1.5 0 3.1875
vn -2.25 0 10.21875
vn 0 0 0
vn 0 0 0
vn 0 0 0
vn 0 0 0
vn -2.5078125 0 4.2890625
vn -5.53125 0 7.40625
vn -5.53125 0 7.40625
vn -2.5078125 0 4.2890625
vn -13.59375 0 2.1328125
vn -13.3125 0 4.265625
vn -13.3125 0 4.265625
vn -13.59375 0 2.1328125
vn -13.3125 0 4.265625
vn -13.03125 0 6.3984375
vn -13.03125 0 6.3984375
vn -13.3125 0 4.265625
vn -13.03125 0 6.3984375
vn -8.5 0 5.6875
vn -8.5 0 5.6875
vn -13.03125 0 6.3984375
vn -0.14384999999998627 0 0.097300000000004161
vn -0.1432399999999916 0 0.098720000000000141
vn -0.1432399999999916 0 0.098720000000000141
vn -0.14384999999998627 0 0.097300000000004161
vn 44.076169999999991 0 44.076169999999991
vn 44.076169999999991 0 44.076169999999991
vn 44.076169999999991 0 44.076169999999991
vn 44.076169999999991 0 44.076169999999991
vn 0.13281000000000631 0 -2.4706999999999937
vn 0 0 -0.86384999999998513
vn 0 0 -0.86384999999998513
vn 0.13281000000000631 0 -2.4706999999999937
vn 0 0 -5.125
vn -1.828125 0 -7.640625
vn -1.828125 0 -7.640625
vn 0 0 -5.125
vn -1.828125 0 -7.640625
vn -3.65625 0 -7.59375
vn -3.65625 0 -7.59375
vn -1.828125 0 -7.640625
vn -3.65625 0 -7.59375
vn -5.484375 0 -7.546875
vn -5.484375 0 -7.546875
vn -3.65625 0 -7.59375
vn -5.484375 0 -7.546875
vn -4.875 0 -5
vn -4.875 0 -5
vn -5.484375 0 -7.546875
vn -2.1875 0 -2.03125
vn -2.1875 0 -2.03125
vn -2.1875 0 -2.03125
vn -2.1875 0 -2.03125
vn 4.90625 0 -5.375
vn 1.0083999999999946 0 -1.2506199999999978
vn 1.0083999999999946 0 -1.2506199999999978
vn 4.90625 0 -5.375
vn 1.0083999999999946 0 -1.2506199999999978
vn 3.09375 0 -5.0625
vn 3.09375 0 -5.0625
vn 1.0083999999999946 0 -1.2506199999999978
vn 3.09375 0 -5.0625
vn 0.9375 0 -2.25
vn 0.9375 0 -2.25
vn 3.09375 0 -5.0625
vn 1 0 -2.1875
vn 1.5 0 -7.21875
vn 1.5 0 -7.21875
vn 1 0 -2.1875
vn 1.5 0 -7.21875
vn 0 0 -2.625
vn 0 0 -2.625
vn 1.5 0 -7.21875
vn 0 0 -10.375
vn -1.072265625 0 -6.80859375
vn -1.072265625 0 -6.80859375
vn 0 0 -10.375
vn -1.072265625 0 -6.80859375
vn -2.14453125 0 -5.8359375
vn -2.14453125 0 -5.8359375
vn -1.072265625 0 -6.80859375
vn -2.14453125 0 -5.8359375
vn -3.216796875 0 -4.86328125
vn -3.216796875 0 -4.86328125
vn -2.14453125 0 -5.8359375
vn -3.216796875 0 -4.86328125
vn -4.2890625 0 -3.890625
vn -4.2890625 0 -3.890625
vn -3.216796875 0 -4.86328125
vn -4.2890625 0 -3.890625
vn -5.361328125 0 -2.91796875
vn -5.361328125 0 -2.91796875
vn -4.2890625 0 -3.890625
vn -5.361328125 0 -2.91796875
vn -6.43359375 0 -1.9453125
vn -6.43359375 0 -1.9453125
vn -5.361328125 0 -2.91796875
vn -6.43359375 0 -1.9453125
vn -7.505859375 0 -0.97265625
vn -7.505859375 0 -0.97265625
vn -6.43359375 0 -1.9453125
vn -7.505859375 0 -0.97265625
vn -11.4375 0 0
vn -11.4375 0 0
vn -7.505859375 0 -0.97265625
vn 0 0 0
vn 0 0 0
vn 0 0 0
vn 0 0 0
vn -6.8671875 0 0.533203125
vn -13.59375 0 2.1328125
vn -13.59375 0 2.1328125
vn -6.8671875 0 0.533203125
vn -7.714839999999981 0 11.09375
vn -2.4180099999999811 0 4.0537199999999984
vn -2.4180099999999811 0 4.0537199999999984
vn -7.714839999999981 0 11.09375
vn 7.625 0 10.1875
vn 11.5546875 0 13.640625
vn 11.5546875 0 13.640625
vn 7.625 0 10.1875
vn 11.5546875 0 13.640625
vn 11.671875 0 12
vn 11.671875 0 12
vn 11.5546875 0 13.640625
vn 11.671875 0 12
vn 11.7890625 0 10.359375
vn 11.7890625 0 10.359375
vn 11.671875 0 12
vn 11.7890625 0 10.359375
vn 7.9375 0 5.8125
vn 7.9375 0 5.8125
vn 11.7890625 0 10.359375
vn 7.9375 0 5.875
vn 12.3515625 0 6.609375
vn 12.3515625 0 6.609375
vn 7.9375 0 5.875
vn 12.3515625 0 6.609375
vn 12.796875 0 4.40625
vn 12.796875 0 4.40625
vn 12.3515625 0 6.609375
vn 12.796875 0 4.40625
vn 13.2421875 0 2.203125
vn 13.2421875 0 2.203125
vn 12.796875 0 4.40625
vn 13.2421875 0 2.203125
vn 9.125 0 0
vn 9.125 0 0
vn 13.2421875 0 2.203125
vn 0.89805999999998676 0 0
vn 0.827539999999999 0 -0.06391999999999598
vn 0.827539999999999 0 -0.06391999999999598
vn 0.89805999999998676 0 0
vn -43.798830000000009 0 -43.798830000000009
vn -43.798830000000009 0 -43.798830000000009
vn -43.798830000000009 0 -43.798830000000009
vn -43.798830000000009 0 -43.798830000000009
vn -3.972061250000003 0 5.28050125
vn -7.714839999999981 0 11.09375
vn -7.714839999999981 0 11.09375
vn -3.972061250000003 0 5.28050125
vn 0 1 0
vn 0 1 0
vn 0 1 0
vn 0 1 0
vn 0 1 0
vn 0 1 0
vn 0 1 0
vn 0 1 0
vn 0 1 0
vn 0 1 0
vn 0 1 0
vn 0 1 0
vn 0 1 0
vn 0 1 0
vn 0 1 0
vn 0 1 0
vn 0 1 0
vn 0 1 0
vn 0 1 0
vn 0 1 0
vn 0 1 0
vn 0 1 0
vn 0 1 0
vn 0 1 0
vn 0 1 0
vn 0 1 0
vn 0 1 0
vn 0 1 0
vn 0 1 0
vn 0 1 0
vn 0 1 0
vn 0 1 0
vn 0 1 0
vn 0 1 0
vn 0 1 0
vn 0 1 0
vn 0 1 0
vn 0 1 0
vn 0 1 0
vn 0 1 0
vn 0 1 0
vn 0 1 0
vn 0 1 0
vn 0 1 0
vn 0 1 0
vn 0 1 0
vn 0 1 0
vn 0 1 0
vn 0 1 0
vn 0 1 0
vn 0 1 0
vn 0 1 0
vn 0 1 0
vn 0 1 0
vn 0 1 0
vn 0 1 0
vn 0 1 0
vn 0 1 0
vn 0 1 0
vn 0 1 0
vn 0 1 0
vn 0 1 0
vn 0 1 0
vn 0 1 0
vn 0 1 0
vn 0 1 0
vn 0 1 0
vn 0 1 0
vn 0 1 0
vn 0 1 0
vn 0 1 0
vn 0 1 0
vn 0 1 0
vn 0 1 0
vn 0 1 0
vn 0 1 0
vn 0 1 0
vn 0 1 0
vn 0 1 0
vn 0 1 0
vn 0 1 0
vn 0 1 0
vn 0 1 0
vn 0 1 0
vn 0 1 0
vn 0 1 0
vn 0 1 0
vn 0 1 0
vn 0 1 0
vn 0 1 0
vn 0 1 0
vn 0 1 0
vn 0 1 0
vn 0 1 0
vn 0 1 0
vn 0 1 0
vn 0 1 0
vn 0 1 0
vn 0 1 0
vn 0 1 0
vn 0 1 0
vn 0 1 0
vn 0 1 0
vn 0 1 0
vn 0 1 0
vn 0 1 0
vn 0 1 0
vn 0 1 0
vn 0 1 0
vn 0 1 0
vn 0 1 0
vn 0 1 0
vn 0 1 0
vn 0 1 0
vn 0 1 0
vn 0 1 0
vn 0 1 0
vn 0 1 0
vn 0 1 0
vn 0 1 0
vn 0 1 0
vn 0 1 0
vn 0 1 0
vn 0 1 0
vn 0 1 0
vn 0 1 0
vn 0 1 0
vn 0 1 0
vn 0 1 0
vn 0 1 0
vn 0 1 0
vn 0 1 0
vn 0 1 0
vn 0 1 0
vn 0 1 0
vn 0 1 0
vn 0 1 0
vn 0 1 0
vn 0 1 0
vn 0 1 0
vn 0 1 0
vn 0 1 0
vn 0 1 0
vn 0 1 0
vn 0 1 0
vn 0 1 0
vn 0 1 0
vn 0 1 0
vn 0 1 0
vn 0 1 0
vn 0 1 0
vn 0 1 0
vn 0 1 0
vn 0 1 0
vn 0 1 0
vn 0 1 0
vn 0 1 0
vn 0 1 0
vn 0 1 0
vn 0 1 0
vn 0 1 0
vn 0 1 0
vn 0 1 0
vn 0 1 0
vn 0 1 0
vn 0 1 0
vn 0 1 0
vn 0 1 0
vn 0 1 0
vn 0 1 0
vn 0 1 0
vn 0 1 0
vn 0 1 0
vn 0 1 0
vn 0 1 0
vn 0 1 0
vn 0 1 0
vn 0 1 0
vn 0 1 0
vn 0 1 0
vn 0 1 0
vn 0 1 0
vn 0 1 0
vn 0 1 0
vn 0 1 0
vn 0 1 0
vn 0 1 0
vn 0 1 0
vn 0 1 0
vn 0 1 0
vn 0 1 0
vn 0 1 0
vn 0 1 0
vn 0 1 0
vn 0 1 0
vn 0 1 0
vn 0 1 0
vn 0 1 0
vn 0 1 0
vn 0 1 0
vn 0 1 0
vn 0 1 0
vn 0 1 0
vn 0 1 0
vn 0 1 0
vn 0 1 0
vn 0 1 0
vn 0 1 0
vn 0 1 0
vn 0 1 0
vn 0 1 0
vn 0 1 0
vn 0 1 0
vn 0 1 0
vn 0 1 0
vn 0 1 0
vn 0 1 0
vn 0 1 0
vn 0 1 0
vn 0 1 0
vn 0 1 0
vn 0 1 0
vn 0 1 0
vn 0 1 0
vn 0 1 0
vn 0 1 0
vn 0 1 0
vn 0 1 0
vn 0 1 0
vn 0 1 0
vn 0 1 0
vn 0 1 0
vn 0 1 0
vn 0 1 0
vn 0 1 0
vn 0 1 0
vn 0 1 0
vn 0 1 0
vn 0 1 0
vn 0 1 0
vn 0 1 0
vn 0 1 0
vn 0 1 0
vn 0 -1 0
vn 0 -1 0
vn 0 -1 0
vn 0 -1 0
vn 0 -1 0
vn 0 -1 0
vn 0 -1 0
vn 0 -1 0
vn 0 -1 0
vn 0 -1 0
vn 0 -1 0
vn 0 -1 0
vn 0 -1 0
vn 0 -1 0
vn 0 -1 0
vn 0 -1 0
vn 0 -1 0
vn 0 -1 0
vn 0 -1 0
vn 0 -1 0
vn 0 -1 0
vn 0 -1 0
vn 0 -1 0
vn 0 -1 0
vn 0 -1 0
vn 0 -1 0
vn 0 -1 0
vn 0 -1 0
vn 0 -1 0
vn 0 -1 0
vn 0 -1 0
vn 0 -1 0
vn 0 -1 0
vn 0 -1 0
vn 0 -1 0
vn 0 -1 0
vn 0 -1 0
vn 0 -1 0
vn 0 -1 0
vn 0 -1 0
vn 0 -1 0
vn 0 -1 0
vn 0 -1 0
vn 0 -1 0
vn 0 -1 0
vn 0 -1 0
vn 0 -1 0
vn 0 -1 0
vn 0 -1 0
vn 0 -1 0
vn 0 -1 0
vn 0 -1 0
vn 0 -1 0
vn 0 -1 0
vn 0 -1 0
vn 0 -1 0
vn 0 -1 0
vn 0 -1 0
vn 0 -1 0
vn 0 -1 0
vn 0 -1 0
vn 0 -1 0
vn 0 -1 0
vn 0 -1 0
vn 0 -1 0
vn 0 -1 0
vn 0 -1 0
vn 0 -1 0
vn 0 -1 0
vn 0 -1 0
vn 0 -1 0
vn 0 -1 0
vn 0 -1 0
vn 0 -1 0
vn 0 -1 0
vn 0 -1 0
vn 0 -1 0
vn 0 -1 0
vn 0 -1 0
vn 0 -1 0
vn 0 -1 0
vn 0 -1 0
vn 0 -1 0
vn 0 -1 0
vn 0 -1 0
vn 0 -1 0
vn 0 -1 0
vn 0 -1 0
vn 0 -1 0
vn 0 -1 0
vn 0 -1 0
vn 0 -1 0
vn 0 -1 0
vn 0 -1 0
vn 0 -1 0
vn 0 -1 0
vn 0 -1 0
vn 0 -1 0
vn 0 -1 0
vn 0 -1 0
vn 0 -1 0
vn 0 -1 0
vn 0 -1 0
vn 0 -1 0
vn 0 -1 0
vn 0 -1 0
vn 0 -1 0
vn 0 -1 0
vn 0 -1 0
vn 0 -1 0
vn 0 -1 0
vn 0 -1 0
vn 0 -1 0
vn 0 -1 0
vn 0 -1 0
vn 0 -1 0
vn 0 -1 0
vn 0 -1 0
vn 0 -1 0
vn 0 -1 0
vn 0 -1 0
vn 0 -1 0
vn 0 -1 0
vn 0 -1 0
vn 0 -1 0
vn 0 -1 0
vn 0 -1 0
vn 0 -1 0
vn 0 -1 0
vn 0 -1 0
vn 0 -1 0
vn 0 -1 0
vn 0 -1 0
vn 0 -1 0
vn 0 -1 0
vn 0 -1 0
vn 0 -1 0
vn 0 -1 0
vn 0 -1 0
vn 0 -1 0
vn 0 -1 0
vn 0 -1 0
vn 0 -1 0
vn 0 -1 0
vn 0 -1 0
vn 0 -1 0
vn 0 -1 0
vn 0 -1 0
vn 0 -1 0
vn 0 -1 0
vn 0 -1 0
vn 0 -1 0
vn 0 -1 0
vn 0 -1 0
vn 0 -1 0
vn 0 -1 0
vn 0 -1 0
vn 0 -1 0
vn 0 -1 0
vn 0 -1 0
vn 0 -1 0
vn 0 -1 0
vn 0 -1 0
vn 0 -1 0
vn 0 -1 0
vn 0 -1 0
vn 0 -1 0
vn 0 -1 0
vn 0 -1 0
vn 0 -1 0
vn 0 -1 0
vn 0 -1 0
vn 0 -1 0
vn 0 -1 0
vn 0 -1 0
vn 0 -1 0
vn 0 -1 0
vn 0 -1 0
vn 0 -1 0
vn 0 -1 0
vn 0 -1 0
vn 0 -1 0
vn 0 -1 0
vn 0 -1 0
vn 0 -1 0
vn 0 -1 0
vn 0 -1 0
vn 0 -1 0
vn 0 -1 0
vn 0 -1 0
vn 0 -1 0
vn 0 -1 0
vn 0 -1 0
vn 0 -1 0
vn 0 -1 0
vn 0 -1 0
vn 0 -1 0
vn 0 -1 0
vn 0 -1 0
vn 0 -1 0
vn 0 -1 0
vn 0 -1 0
vn 0 -1 0
vn 0 -1 0
vn 0 -1 0
vn 0 -1 0
vn 0 -1 0
vn 0 -1 0
vn 0 -1 0
vn 0 -1 0
vn 0 -1 0
vn 0 -1 0
vn 0 -1 0
vn 0 -1 0
vn 0 -1 0
vn 0 -1 0
vn 0 -1 0
vn 0 -1 0
vn 0 -1 0
vn 0 -1 0
vn 0 -1 0
vn 0 -1 0
vn 0 -1 0
vn 0 -1 0
vn 0 -1 0
vn 0 -1 0
vn 0 -1 0
vn 0 -1 0
vn 0 -1 0
vn 0 -1 0
vn 0 -1 0
vn 0 -1 0
vn 0 -1 0
vn 0 -1 0
vn 0 -1 0
vn 0 -1 0
vn 0 -1 0
vn 0 -1 0
vn 0 -1 0
vn 0 -1 0
vn 0 -1 0
vn 0 -1 0
vn 0 -1 0

g Suit9
f 1//1 2//2 3//3 4//4
f 2//5 5//6 6//7 3//8
f 5//9 7//10 8//11 6//12
f 7//13 9//14 10//15 8//16
f 9//17 11//18 12//19 10//20
f 11//21 13//22 14//23 12//24
f 13//25 15//26 16//27 14//28
f 15//29 17//30 18//31 16//32
f 17//33 19//34 20//35 18//36
f 19//37 21//38 22//39 20//40
f 21//41 23//42 24//43 22//44
f 23//45 25//46 26//47 24//48
f 25//49 27//50 28//51 26//52
f 27//53 29//54 30//55 28//56
f 29//57 31//58 32//59 30//60
f 31//61 33//62 34//63 32//64
f 33//65 35//66 36//67 34//68
f 35//69 37//70 38//71 36//72
f 37//73 39//74 40//75 38//76
f 39//77 41//78 42//79 40//80
f 41//81 43//82 44//83 42//84
f 43//85 45//86 46//87 44//88
f 45//89 47//90 48//91 46//92
f 47//93 49//94 50//95 48//96
f 49//97 51//98 52//99 50//100
f 51//101 53//102 54//103 52//104
f 53//105 55//106 56//107 54//108
f 55//109 57//110 58//111 56//112
f 57//113 59//114 60//115 58//116
f 59//117 61//118 62//119 60//120
f 61//121 63//122 64//123 62//124
f 63//125 65//126 66//127 64//128
f 65//129 67//130 68//131 66//132
f 67//133 69//134 70//135 68//136
f 69//137 71//138 72//139 70//140
f 71//141 73//142 74//143 72//144
f 73//145 75//146 76//147 74//148
f 75//149 77//150 78//151 76//152
f 77//153 79//154 80//155 78//156
f 79//157 81//158 82//159 80//160
f 81//161 83//162 84//163 82//164
f 83//165 83//166 84//167 84//168
f 83//169 1//170 4//171 84//172
f 85//173 86//174 87//175 88//176
f 86//177 89//178 90//179 87//180
f 89//181 91//182 92//183 90//184
f 91//185 93//186 94//187 92//188
f 93//189 95//190 96//191 94//192
f 95//193 97//194 98//195 96//196
f 97//197 99//198 100//199 98//200
f 99//201 101//202 102//203 100//204
f 101//205 103//206 104//207 102//208
f 103//209 105//210 106//211 104//212
f 105//213 107//214 108//215 106//216
f 107//217 109//218 110//219 108//220
f 109//221 111//222 112//223 110//224
f 111//225 113//226 114//227 112//228
f 113//229 115//230 116//231 114//232
f 115//233 117//234 118//235 116//236
f 117//237 119//238 120//239 118//240
f 119//241 121//242 122//243 120//244
f 121//245 123//246 124//247 122//248
f 123//249 125//250 126//251 124//252
f 125//253 127//254 128//255 126//256
f 127//257 129//258 130//259 128//260
f 129//261 131//262 132//263 130//264
f 131//265 133//266 134//267 132//268
f 133//269 133//270 134//271 134//272
f 133//273 85//274 88//275 134//276
f 135//277 136//278 137//279 138//280
f 136//281 139//282 140//283 137//284
f 139//285 141//286 142//287 140//288
f 141//289 143//290 144//291 142//292
f 143//293 145//294 146//295 144//296
f 145//297 147//298 148//299 146//300
f 147//301 149//302 150//303 148//304
f 149//305 151//306 152//307 150//308
f 151//309 153//310 154//311 152//312
f 153//313 155//314 156//315 154//316
f 155//317 157//318 158//319 156//320
f 157//321 135//322 138//323 158//324
f 55//325 91//326 89//327
f 57//328 55//329 89//330
f 39//331 143//332 141//333
f 41//334 39//335 141//336
f 1//337 83//338 81//339
f 1//340 81//341 79//342
f 1//343 79//344 77//345
f 1//346 77//347 75//348
f 75//349 73//350 71//351
f 75//352 71//353 69//354
f 75//355 69//356 67//357
f 75//358 67//359 65//360
f 75//361 65//362 63//363
f 63//364 61//365 59//366
f 63//367 59//368 57//369
f 63//370 57//371 89//372
f 63//373 89//374 86//375
f 63//376 86//377 85//378
f 63//379 85//380 133//381
f 63//382 133//383 131//384
f 63//385 131//386 129//387
f 63//388 129//389 127//390
f 75//391 63//392 127//393
f 75//394 127//395 125//396
f 75//397 125//398 123//399
f 75//400 123//401 121//402
f 75//403 121//404 119//405
f 75//406 119//407 117//408
f 1//409 75//410 117//411
f 1//412 117//413 115//414
f 1//415 115//416 113//417
f 1//418 113//419 111//420
f 1//421 111//422 109//423
f 1//424 109//425 107//426
f 1//427 107//428 105//429
f 93//430 91//431 55//432
f 95//433 93//434 55//435
f 95//436 55//437 53//438
f 95//439 53//440 51//441
f 51//442 49//443 47//444
f 51//445 47//446 45//447
f 45//448 43//449 41//450
f 45//451 41//452 141//453
f 45//454 141//455 139//456
f 45//457 139//458 136//459
f 51//460 45//461 136//462
f 51//463 136//464 135//465
f 51//466 135//467 157//468
f 95//469 51//470 157//471
f 95//472 157//473 155//474
f 145//475 143//476 39//477
f 147//478 145//479 39//480
f 149//481 147//482 39//483
f 149//484 39//485 37//486
f 151//487 149//488 37//489
f 151//490 37//491 35//492
f 153//493 151//494 35//495
f 153//496 35//497 33//498
f 155//499 153//500 33//501
f 155//502 33//503 31//504
f 155//505 31//506 29//507
f 95//508 155//509 29//510
f 95//511 29//512 27//513
f 95//514 27//515 25//516
f 95//517 25//518 23//519
f 95//520 23//521 21//522
f 95//523 21//524 19//525
f 97//526 95//527 19//528
f 97//529 19//530 17//531
f 99//532 97//533 17//534
f 99//535 17//536 15//537
f 101//538 99//539 15//540
f 101//541 15//542 13//543
f 103//544 101//545 13//546
f 103//547 13//548 11//549
f 105//550 103//551 11//552
f 105//553 11//554 9//555
f 105//556 9//557 7//558
f 105//559 7//560 5//561
f 105//562 5//563 2//564
f 105//565 2//566 1//567
f 90//568 92//569 56//570
f 90//571 56//572 58//573
f 142//574 144//575 40//576
f 142//577 40//578 42//579
f 82//580 84//581 4//582
f 80//583 82//584 4//585
f 78//586 80//587 4//588
f 76//589 78//590 4//591
f 72//592 74//593 76//594
f 70//595 72//596 76//597
f 68//598 70//599 76//600
f 66//601 68//602 76//603
f 64//604 66//605 76//606
f 60//607 62//608 64//609
f 58//610 60//611 64//612
f 90//613 58//614 64//615
f 87//616 90//617 64//618
f 88//619 87//620 64//621
f 134//622 88//623 64//624
f 132//625 134//626 64//627
f 130//628 132//629 64//630
f 128//631 130//632 64//633
f 128//634 64//635 76//636
f 126//637 128//638 76//639
f 124//640 126//641 76//642
f 122//643 124//644 76//645
f 120//646 122//647 76//648
f 118//649 120//650 76//651
f 118//652 76//653 4//654
f 116//655 118//656 4//657
f 114//658 116//659 4//660
f 112//661 114//662 4//663
f 110//664 112//665 4//666
f 108//667 110//668 4//669
f 106//670 108//671 4//672
f 56//673 92//674 94//675
f 56//676 94//677 96//678
f 54//679 56//680 96//681
f 52//682 54//683 96//684
f 48//685 50//686 52//687
f 46//688 48//689 52//690
f 42//691 44//692 46//693
f 142//694 42//695 46//696
f 140//697 142//698 46//699
f 137//700 140//701 46//702
f 137//703 46//704 52//705
f 138//706 137//707 52//708
f 158//709 138//710 52//711
f 158//712 52//713 96//714
f 156//715 158//716 96//717
f 40//718 144//719 146//720
f 40//721 146//722 148//723
f 40//724 148//725 150//726
f 38//727 40//728 150//729
f 38//730 150//731 152//732
f 36//733 38//734 152//735
f 36//736 152//737 154//738
f 34//739 36//740 154//741
f 34//742 154//743 156//744
f 32//745 34//746 156//747
f 30//748 32//749 156//750
f 30//751 156//752 96//753
f 28//754 30//755 96//756
f 26//757 28//758 96//759
f 24//760 26//761 96//762
f 22//763 24//764 96//765
f 20//766 22//767 96//768
f 20//769 96//770 98//771
f 18//772 20//773 98//774
f 18//775 98//776 100//777
f 16//778 18//779 100//780
f 16//781 100//782 102//783
f 14//784 16//785 102//786
f 14//787 102//788 104//789
f 12//790 14//791 104//792
f 12//793 104//794 106//795
f 10//796 12//797 106//798
f 8//799 10//800 106//801
f 6//802 8//803 106//804
f 3//805 6//806 106//807
f 4//808 3//809 106//810