o Cone
v 0.4 0 -0.5
v 0.39392310120488322 0.069459271066772132 -0.5
v 0 0 0.5
v 0.37587704831436342 0.13680805733026749 -0.5
v 0.34641016151377552 0.19999999999999998 -0.5
v 0.30641777724759123 0.2571150438746157 -0.5
v 0.25711504387461576 0.30641777724759123 -0.5
v 0.20000000000000007 0.34641016151377546 -0.5
v 0.13680805733026755 0.37587704831436336 -0.5
v 0.069459271066772174 0.39392310120488322 -0.5
v 2.4492127076447546E-17 0.4 -0.5
v -0.069459271066772119 0.39392310120488322 -0.5
v -0.13680805733026749 0.37587704831436342 -0.5
v -0.19999999999999993 0.34641016151377552 -0.5
v -0.25711504387461576 0.30641777724759123 -0.5
v -0.30641777724759117 0.25711504387461581 -0.5
v -0.34641016151377552 0.19999999999999998 -0.5
v -0.37587704831436336 0.13680805733026755 -0.5
v -0.39392310120488322 0.069459271066772119 -0.5
v -0.4 4.8984254152895092E-17 -0.5
v -0.39392310120488322 -0.069459271066772188 -0.5
v -0.37587704831436342 -0.13680805733026746 -0.5
v -0.34641016151377546 -0.20000000000000007 -0.5
v -0.30641777724759123 -0.2571150438746157 -0.5
v -0.25711504387461581 -0.30641777724759117 -0.5
v -0.20000000000000018 -0.34641016151377535 -0.5
v -0.13680805733026777 -0.3758770483143633 -0.5
v -0.069459271066772132 -0.39392310120488322 -0.5
v -7.347638122934264E-17 -0.4 -0.5
v 0.069459271066772 -0.39392310120488327 -0.5
v 0.13680805733026727 -0.37587704831436342 -0.5
v 0.20000000000000007 -0.34641016151377546 -0.5
v 0.2571150438746157 -0.30641777724759128 -0.5
v 0.30641777724759112 -0.25711504387461587 -0.5
v 0.34641016151377535 -0.20000000000000018 -0.5
v 0.37587704831436342 -0.13680805733026744 -0.5
v 0.39392310120488316 -0.069459271066772507 -0.5
vn 1 0 0.4
vn 0.984807753012208 0.17364817766693033 0.4
vn 1.9848077530122081 0.17364817766693033 0.8
vn 0.984807753012208 0.17364817766693033 0.4
vn 0.93969262078590843 0.34202014332566871 0.4
vn 1.9245003737981166 0.51566832099259907 0.8
vn 0.93969262078590843 0.34202014332566871 0.4
vn 0.86602540378443871 0.49999999999999994 0.4
vn 1.8057180245703473 0.84202014332566866 0.8
vn 0.86602540378443871 0.49999999999999994 0.4
vn 0.766044443118978 0.64278760968653925 0.4
vn 1.6320698469034167 1.1427876096865393 0.8
vn 0.766044443118978 0.64278760968653925 0.4
vn 0.64278760968653936 0.766044443118978 0.4
vn 1.4088320528055174 1.4088320528055172 0.8
vn 0.64278760968653936 0.766044443118978 0.4
vn 0.50000000000000011 0.8660254037844386 0.4
vn 1.1427876096865395 1.6320698469034167 0.8
vn 0.50000000000000011 0.8660254037844386 0.4
vn 0.34202014332566882 0.93969262078590832 0.4
vn 0.84202014332566888 1.8057180245703468 0.8
vn 0.34202014332566882 0.93969262078590832 0.4
vn 0.17364817766693041 0.984807753012208 0.4
vn 0.51566832099259918 1.9245003737981163 0.8
vn 0.17364817766693041 0.984807753012208 0.4
vn 6.1230317691118863E-17 1 0.4
vn 0.17364817766693047 1.9848077530122081 0.8
vn 6.1230317691118863E-17 1 0.4
vn -0.1736481776669303 0.984807753012208 0.4
vn -0.17364817766693025 1.9848077530122081 0.8
vn -0.1736481776669303 0.984807753012208 0.4
vn -0.34202014332566871 0.93969262078590843 0.4
vn -0.515668320992599 1.9245003737981166 0.8
vn -0.34202014332566871 0.93969262078590843 0.4
vn -0.49999999999999978 0.86602540378443871 0.4
vn -0.84202014332566844 1.8057180245703473 0.8
vn -0.49999999999999978 0.86602540378443871 0.4
vn -0.64278760968653936 0.766044443118978 0.4
vn -1.1427876096865393 1.6320698469034167 0.8
vn -0.64278760968653936 0.766044443118978 0.4
vn -0.7660444431189779 0.64278760968653947 0.4
vn -1.4088320528055172 1.4088320528055176 0.8
vn -0.7660444431189779 0.64278760968653947 0.4
vn -0.86602540378443871 0.49999999999999994 0.4
vn -1.6320698469034167 1.1427876096865395 0.8
vn -0.86602540378443871 0.49999999999999994 0.4
vn -0.93969262078590832 0.34202014332566888 0.4
vn -1.805718024570347 0.84202014332566888 0.8
vn -0.93969262078590832 0.34202014332566888 0.4
vn -0.984807753012208 0.17364817766693028 0.4
vn -1.9245003737981163 0.51566832099259918 0.8
vn -0.984807753012208 0.17364817766693028 0.4
vn -1 1.2246063538223773E-16 0.4
vn -1.9848077530122081 0.17364817766693039 0.8
vn -1 1.2246063538223773E-16 0.4
vn -0.984807753012208 -0.17364817766693047 0.4
vn -1.9848077530122081 -0.17364817766693036 0.8
vn -0.984807753012208 -0.17364817766693047 0.4
vn -0.93969262078590843 -0.34202014332566866 0.4
vn -1.9245003737981166 -0.51566832099259918 0.8
vn -0.93969262078590843 -0.34202014332566866 0.4
vn -0.8660254037844386 -0.50000000000000011 0.4
vn -1.805718024570347 -0.84202014332566877 0.8
vn -0.8660254037844386 -0.50000000000000011 0.4
vn -0.766044443118978 -0.64278760968653925 0.4
vn -1.6320698469034167 -1.1427876096865393 0.8
vn -0.766044443118978 -0.64278760968653925 0.4
vn -0.64278760968653947 -0.7660444431189779 0.4
vn -1.4088320528055176 -1.4088320528055172 0.8
vn -0.64278760968653947 -0.7660444431189779 0.4
vn -0.50000000000000044 -0.86602540378443837 0.4
vn -1.14278760968654 -1.6320698469034163 0.8
vn -0.50000000000000044 -0.86602540378443837 0.4
vn -0.34202014332566938 -0.93969262078590821 0.4
vn -0.84202014332566977 -1.8057180245703466 0.8
vn -0.34202014332566938 -0.93969262078590821 0.4
vn -0.17364817766693033 -0.984807753012208 0.4
vn -0.51566832099259974 -1.9245003737981161 0.8
vn -0.17364817766693033 -0.984807753012208 0.4
vn -1.8369095307335659E-16 -1 0.4
vn -0.17364817766693053 -1.9848077530122081 0.8
vn -1.8369095307335659E-16 -1 0.4
vn 0.17364817766692997 -0.98480775301220813 0.4
vn 0.17364817766692978 -1.9848077530122081 0.8
vn 0.17364817766692997 -0.98480775301220813 0.4
vn 0.34202014332566816 -0.93969262078590854 0.4
vn 0.51566832099259807 -1.9245003737981166 0.8
vn 0.34202014332566816 -0.93969262078590854 0.4
vn 0.50000000000000011 -0.8660254037844386 0.4
vn 0.84202014332566821 -1.8057180245703473 0.8
vn 0.50000000000000011 -0.8660254037844386 0.4
vn 0.64278760968653925 -0.76604444311897812 0.4
vn 1.1427876096865393 -1.6320698469034167 0.8
vn 0.64278760968653925 -0.76604444311897812 0.4
vn 0.76604444311897779 -0.64278760968653958 0.4
vn 1.4088320528055172 -1.4088320528055176 0.8
vn 0.76604444311897779 -0.64278760968653958 0.4
vn 0.86602540378443837 -0.50000000000000044 0.4
vn 1.6320698469034163 -1.1427876096865401 0.8
vn 0.86602540378443837 -0.50000000000000044 0.4
vn 0.93969262078590843 -0.3420201433256686 0.4
vn 1.8057180245703468 -0.8420201433256691 0.8
vn 0.93969262078590843 -0.3420201433256686 0.4
vn 0.98480775301220791 -0.17364817766693128 0.4
vn 1.9245003737981163 -0.51566832099259985 0.8
vn 0.98480775301220791 -0.17364817766693128 0.4
vn 1 0 0.4
vn 1.9848077530122079 -0.17364817766693128 0.8
vn 0 0 -1
vn 0 0 -1
vn 0 0 -1
vn 0 0 -1
vn 0 0 -1
vn 0 0 -1
vn 0 0 -1
vn 0 0 -1
vn 0 0 -1
vn 0 0 -1
vn 0 0 -1
vn 0 0 -1
vn 0 0 -1
vn 0 0 -1
vn 0 0 -1
vn 0 0 -1
vn 0 0 -1
vn 0 0 -1
vn 0 0 -1
vn 0 0 -1
vn 0 0 -1
vn 0 0 -1
vn 0 0 -1
vn 0 0 -1
vn 0 0 -1
vn 0 0 -1
vn 0 0 -1
vn 0 0 -1
vn 0 0 -1
vn 0 0 -1
vn 0 0 -1
vn 0 0 -1
vn 0 0 -1
vn 0 0 -1
vn 0 0 -1
vn 0 0 -1

g Cone
f 1//1 2//2 3//3
f 2//4 4//5 3//6
f 4//7 5//8 3//9
f 5//10 6//11 3//12
f 6//13 7//14 3//15
f 7//16 8//17 3//18
f 8//19 9//20 3//21
f 9//22 10//23 3//24
f 10//25 11//26 3//27
f 11//28 12//29 3//30
f 12//31 13//32 3//33
f 13//34 14//35 3//36
f 14//37 15//38 3//39
f 15//40 16//41 3//42
f 16//43 17//44 3//45
f 17//46 18//47 3//48
f 18//49 19//50 3//51
f 19//52 20//53 3//54
f 20//55 21//56 3//57
f 21//58 22//59 3//60
f 22//61 23//62 3//63
f 23//64 24//65 3//66
f 24//67 25//68 3//69
f 25//70 26//71 3//72
f 26//73 27//74 3//75
f 27//76 28//77 3//78
f 28//79 29//80 3//81
f 29//82 30//83 3//84
f 30//85 31//86 3//87
f 31//88 32//89 3//90
f 32//91 33//92 3//93
f 33//94 34//95 3//96
f 34//97 35//98 3//99
f 35//100 36//101 3//102
f 36//103 37//104 3//105
f 37//106 1//107 3//108
f 37//109 36//110 35//111 34//112 33//113 32//114 31//115 30//116 29//117 28//118 27//119 26//120 25//121 24//122 23//123 22//124 21//125 20//126 19//127 18//128 17//129 16//130 15//131 14//132 13//133 12//134 11//135 10//136 9//137 8//138 7//139 6//140 5//141 4//142 2//143 1//144