o Ζu
v 0.504 2 -0.6
v 5.004 2 -7.8359999999999994
v 5.004 0 -7.8359999999999994
v 0.504 0 -0.6
v 2.64 2 -7.8359999999999994
v 2.64 0 -7.8359999999999994
v 2.38125 2 -7.8172499999999987
v 2.38125 0 -7.8172499999999987
v 2.169 2 -7.7609999999999992
v 2.169 0 -7.7609999999999992
v 2.00325 2 -7.6672499999999992
v 2.00325 0 -7.6672499999999992
v 1.8840000000000001 2 -7.536
v 1.8840000000000001 0 -7.536
v 1.8022500000000004 2 -7.3740000000000006
v 1.8022500000000004 0 -7.3740000000000006
v 1.7370000000000003 2 -7.188
v 1.7370000000000003 0 -7.188
v 1.6882500000000003 2 -6.978
v 1.6882500000000003 0 -6.978
v 1.6560000000000001 2 -6.744
v 1.6560000000000001 0 -6.744
v 1.596 2 -6.096
v 1.596 0 -6.096
v 0.732 2 -6.096
v 0.732 0 -6.096
v 0.792 2 -8.568
v 0.792 0 -8.568
v 7.2 2 -8.568
v 7.2 0 -8.568
v 7.2 2 -7.9559999999999995
v 7.2 0 -7.9559999999999995
v 2.688 2 -0.732
v 2.688 0 -0.732
v 5.28 2 -0.732
v 5.28 0 -0.732
v 5.51175 2 -0.74249999999999994
v 5.51175 0 -0.74249999999999994
v 5.7150000000000007 2 -0.774
v 5.7150000000000007 0 -0.774
v 5.88975 2 -0.8265
v 5.88975 0 -0.8265
v 6.0360000000000005 2 -0.9
v 6.0360000000000005 0 -0.9
v 6.1582500000000007 2 -0.99600000000000011
v 6.1582500000000007 0 -0.99600000000000011
v 6.261000000000001 2 -1.104
v 6.261000000000001 0 -1.104
v 6.3442500000000006 2 -1.2240000000000002
v 6.3442500000000006 0 -1.2240000000000002
v 6.408 2 -1.356
v 6.408 0 -1.356
v 6.495 2 -1.6380000000000001
v 6.495 0 -1.6380000000000001
v 6.54 2 -1.932
v 6.54 0 -1.932
v 6.6 2 -2.472
v 6.6 0 -2.472
v 7.464 2 -2.472
v 7.464 0 -2.472
v 7.404 2 0
v 7.404 0 0
v 0.504 2 0
v 0.504 0 0
vn -7.236 0 -4.5
vn -7.236 0 -4.5
vn -7.236 0 -4.5
vn -7.236 0 -4.5
vn 0 0 2.3639999999999994
vn 0 0 2.3639999999999994
vn 0 0 2.3639999999999994
vn 0 0 2.3639999999999994
vn 0 0 0.37599999999999989
vn 0.075000000000000178 0 0.47100000000000009
vn 0.075000000000000178 0 0.47100000000000009
vn 0 0 0.37599999999999989
vn 0.075000000000000178 0 0.47100000000000009
vn 0.14999999999999947 0 0.37800000000000011
vn 0.14999999999999947 0 0.37800000000000011
vn 0.075000000000000178 0 0.47100000000000009
vn 0.14999999999999947 0 0.37800000000000011
vn 0.22499999999999965 0 0.28499999999999992
vn 0.22499999999999965 0 0.28499999999999992
vn 0.14999999999999947 0 0.37800000000000011
vn 0.22499999999999965 0 0.28499999999999992
vn 0.20000000000000018 0 0.12799999999999989
vn 0.20000000000000018 0 0.12799999999999989
vn 0.22499999999999965 0 0.28499999999999992
vn 0.20000000000000018 0 0.11999999999999989
vn 0.34799999999999986 0 0.1469999999999998
vn 0.34799999999999986 0 0.1469999999999998
vn 0.20000000000000018 0 0.11999999999999989
vn 0.34799999999999986 0 0.1469999999999998
vn 0.3960000000000008 0 0.1140000000000001
vn 0.3960000000000008 0 0.1140000000000001
vn 0.34799999999999986 0 0.1469999999999998
vn 0.3960000000000008 0 0.1140000000000001
vn 0.44399999999999995 0 0.081000000000000183
vn 0.44399999999999995 0 0.081000000000000183
vn 0.3960000000000008 0 0.1140000000000001
vn 0.44399999999999995 0 0.081000000000000183
vn 0.32800000000000029 0 0.032000000000000028
vn 0.32800000000000029 0 0.032000000000000028
vn 0.44399999999999995 0 0.081000000000000183
vn 0.64799999999999969 0 0.060000000000000053
vn 0.64799999999999969 0 0.060000000000000053
vn 0.64799999999999969 0 0.060000000000000053
vn 0.64799999999999969 0 0.060000000000000053
vn 0 0 0.8640000000000001
vn 0 0 0.8640000000000001
vn 0 0 0.8640000000000001
vn 0 0 0.8640000000000001
vn -2.4719999999999995 0 -0.060000000000000053
vn -2.4719999999999995 0 -0.060000000000000053
vn -2.4719999999999995 0 -0.060000000000000053
vn -2.4719999999999995 0 -0.060000000000000053
vn 0 0 -6.408
vn 0 0 -6.408
vn 0 0 -6.408
vn 0 0 -6.408
vn 0.6120000000000001 0 0
vn 0.6120000000000001 0 0
vn 0.6120000000000001 0 0
vn 0.6120000000000001 0 0
vn 7.2239999999999993 0 4.5120000000000005
vn 7.2239999999999993 0 4.5120000000000005
vn 7.2239999999999993 0 4.5120000000000005
vn 7.2239999999999993 0 4.5120000000000005
vn 0 0 -2.592
vn 0 0 -2.592
vn 0 0 -2.592
vn 0 0 -2.592
vn 0 0 -0.32800000000000029
vn -0.042000000000000037 0 -0.4350000000000005
vn -0.042000000000000037 0 -0.4350000000000005
vn 0 0 -0.32800000000000029
vn -0.042000000000000037 0 -0.4350000000000005
vn -0.084000000000000075 0 -0.37800000000000011
vn -0.084000000000000075 0 -0.37800000000000011
vn -0.042000000000000037 0 -0.4350000000000005
vn -0.084000000000000075 0 -0.37800000000000011
vn -0.126 0 -0.32099999999999973
vn -0.126 0 -0.32099999999999973
vn -0.084000000000000075 0 -0.37800000000000011
vn -0.126 0 -0.32099999999999973
vn -0.11199999999999999 0 -0.17600000000000016
vn -0.11199999999999999 0 -0.17600000000000016
vn -0.126 0 -0.32099999999999973
vn -0.12 0 -0.17599999999999927
vn -0.20400000000000007 0 -0.22500000000000053
vn -0.20400000000000007 0 -0.22500000000000053
vn -0.12 0 -0.17599999999999927
vn -0.20400000000000007 0 -0.22500000000000053
vn -0.22800000000000009 0 -0.18599999999999994
vn -0.22800000000000009 0 -0.18599999999999994
vn -0.20400000000000007 0 -0.22500000000000053
vn -0.22800000000000009 0 -0.18599999999999994
vn -0.252 0 -0.14699999999999935
vn -0.252 0 -0.14699999999999935
vn -0.22800000000000009 0 -0.18599999999999994
vn -0.252 0 -0.14699999999999935
vn -0.18399999999999994 0 -0.072000000000000064
vn -0.18399999999999994 0 -0.072000000000000064
vn -0.252 0 -0.14699999999999935
vn -0.18399999999999994 0 -0.072000000000000064
vn -0.57599999999999985 0 -0.13199999999999967
vn -0.57599999999999985 0 -0.13199999999999967
vn -0.18399999999999994 0 -0.072000000000000064
vn -0.57599999999999985 0 -0.13199999999999967
vn -0.19999999999999996 0 -0.016000000000000014
vn -0.19999999999999996 0 -0.016000000000000014
vn -0.57599999999999985 0 -0.13199999999999967
vn -0.54 0 -0.059999999999999609
vn -0.54 0 -0.059999999999999609
vn -0.54 0 -0.059999999999999609
vn -0.54 0 -0.059999999999999609
vn 0 0 -0.86400000000000077
vn 0 0 -0.86400000000000077
vn 0 0 -0.86400000000000077
vn 0 0 -0.86400000000000077
vn 2.472 0 0.0600000000000005
vn 2.472 0 0.0600000000000005
vn 2.472 0 0.0600000000000005
vn 2.472 0 0.0600000000000005
vn 0 0 6.9
vn 0 0 6.9
vn 0 0 6.9
vn 0 0 6.9
vn -0.6 0 0
vn -0.6 0 0
vn -0.6 0 0
vn -0.6 0 0
vn 0 1 0
vn 0 1 0
vn 0 1 0
vn 0 1 0
vn 0 1 0
vn 0 1 0
vn 0 1 0
vn 0 1 0
vn 0 1 0
vn 0 1 0
vn 0 1 0
vn 0 1 0
vn 0 1 0
vn 0 1 0
vn 0 1 0
vn 0 1 0
vn 0 1 0
vn 0 1 0
vn 0 1 0
vn 0 1 0
vn 0 1 0
vn 0 1 0
vn 0 1 0
vn 0 1 0
vn 0 1 0
vn 0 1 0
vn 0 1 0
vn 0 1 0
vn 0 1 0
vn 0 1 0
vn 0 1 0
vn 0 1 0
vn 0 1 0
vn 0 1 0
vn 0 1 0
vn 0 1 0
vn 0 1 0
vn 0 1 0
vn 0 1 0
vn 0 1 0
vn 0 1 0
vn 0 1 0
vn 0 1 0
vn 0 1 0
vn 0 1 0
vn 0 1 0
vn 0 1 0
vn 0 1 0
vn 0 1 0
vn 0 1 0
vn 0 1 0
vn 0 1 0
vn 0 1 0
vn 0 1 0
vn 0 1 0
vn 0 1 0
vn 0 1 0
vn 0 1 0
vn 0 1 0
vn 0 1 0
vn 0 1 0
vn 0 1 0
vn 0 1 0
vn 0 1 0
vn 0 1 0
vn 0 1 0
vn 0 1 0
vn 0 1 0
vn 0 1 0
vn 0 1 0
vn 0 1 0
vn 0 1 0
vn 0 1 0
vn 0 1 0
vn 0 1 0
vn 0 1 0
vn 0 1 0
vn 0 1 0
vn 0 1 0
vn 0 1 0
vn 0 1 0
vn 0 1 0
vn 0 1 0
vn 0 1 0
vn 0 1 0
vn 0 1 0
vn 0 1 0
vn 0 1 0
vn 0 1 0
vn 0 1 0
vn 0 -1 0
vn 0 -1 0
vn 0 -1 0
vn 0 -1 0
vn 0 -1 0
vn 0 -1 0
vn 0 -1 0
vn 0 -1 0
vn 0 -1 0
vn 0 -1 0
vn 0 -1 0
vn 0 -1 0
vn 0 -1 0
vn 0 -1 0
vn 0 -1 0
vn 0 -1 0
vn 0 -1 0
vn 0 -1 0
vn 0 -1 0
vn 0 -1 0
vn 0 -1 0
vn 0 -1 0
vn 0 -1 0
vn 0 -1 0
vn 0 -1 0
vn 0 -1 0
vn 0 -1 0
vn 0 -1 0
vn 0 -1 0
vn 0 -1 0
vn 0 -1 0
vn 0 -1 0
vn 0 -1 0
vn 0 -1 0
vn 0 -1 0
vn 0 -1 0
vn 0 -1 0
vn 0 -1 0
vn 0 -1 0
vn 0 -1 0
vn 0 -1 0
vn 0 -1 0
vn 0 -1 0
vn 0 -1 0
vn 0 -1 0
vn 0 -1 0
vn 0 -1 0
vn 0 -1 0
vn 0 -1 0
vn 0 -1 0
vn 0 -1 0
vn 0 -1 0
vn 0 -1 0
vn 0 -1 0
vn 0 -1 0
vn 0 -1 0
vn 0 -1 0
vn 0 -1 0
vn 0 -1 0
vn 0 -1 0
vn 0 -1 0
vn 0 -1 0
vn 0 -1 0
vn 0 -1 0
vn 0 -1 0
vn 0 -1 0
vn 0 -1 0
vn 0 -1 0
vn 0 -1 0
vn 0 -1 0
vn 0 -1 0
vn 0 -1 0
vn 0 -1 0
vn 0 -1 0
vn 0 -1 0
vn 0 -1 0
vn 0 -1 0
vn 0 -1 0
vn 0 -1 0
vn 0 -1 0
vn 0 -1 0
vn 0 -1 0
vn 0 -1 0
vn 0 -1 0
vn 0 -1 0
vn 0 -1 0
vn 0 -1 0
vn 0 -1 0
vn 0 -1 0
vn 0 -1 0

g Ζu
f 1//1 2//2 3//3 4//4
f 2//5 5//6 6//7 3//8
f 5//9 7//10 8//11 6//12
f 7//13 9//14 10//15 8//16
f 9//17 11//18 12//19 10//20
f 11//21 13//22 14//23 12//24
f 13//25 15//26 16//27 14//28
f 15//29 17//30 18//31 16//32
f 17//33 19//34 20//35 18//36
f 19//37 21//38 22//39 20//40
f 21//41 23//42 24//43 22//44
f 23//45 25//46 26//47 24//48
f 25//49 27//50 28//51 26//52
f 27//53 29//54 30//55 28//56
f 29//57 31//58 32//59 30//60
f 31//61 33//62 34//63 32//64
f 33//65 35//66 36//67 34//68
f 35//69 37//70 38//71 36//72
f 37//73 39//74 40//75 38//76
f 39//77 41//78 42//79 40//80
f 41//81 43//82 44//83 42//84
f 43//85 45//86 46//87 44//88
f 45//89 47//90 48//91 46//92
f 47//93 49//94 50//95 48//96
f 49//97 51//98 52//99 50//100
f 51//101 53//102 54//103 52//104
f 53//105 55//106 56//107 54//108
f 55//109 57//110 58//111 56//112
f 57//113 59//114 60//115 58//116
f 59//117 61//118 62//119 60//120
f 61//121 63//122 64//123 62//124
f 63//125 1//126 4//127 64//128
f 1//129 63//130 61//131
f 61//132 59//133 57//134
f 61//135 57//136 55//137
f 61//138 55//139 53//140
f 61//141 53//142 51//143
f 61//144 51//145 49//146
f 61//147 49//148 47//149
f 61//150 47//151 45//152
f 61//153 45//154 43//155
f 61//156 43//157 41//158
f 61//159 41//160 39//161
f 61//162 39//163 37//164
f 61//165 37//166 35//167
f 1//168 61//169 35//170
f 1//171 35//172 33//173
f 1//174 33//175 31//176
f 1//177 31//178 29//179
f 27//180 25//181 23//182
f 27//183 23//184 21//185
f 27//186 21//187 19//188
f 27//189 19//190 17//191
f 27//192 17//193 15//194
f 27//195 15//196 13//197
f 27//198 13//199 11//200
f 27//201 11//202 9//203
f 27//204 9//205 7//206
f 29//207 27//208 7//209
f 29//210 7//211 5//212
f 29//213 5//214 2//215
f 29//216 2//217 1//218
f 62//219 64//220 4//221
f 58//222 60//223 62//224
f 56//225 58//226 62//227
f 54//228 56//229 62//230
f 52//231 54//232 62//233
f 50//234 52//235 62//236
f 48//237 50//238 62//239
f 46//240 48//241 62//242
f 44//243 46//244 62//245
f 42//246 44//247 62//248
f 40//249 42//250 62//251
f 38//252 40//253 62//254
f 36//255 38//256 62//257
f 36//258 62//259 4//260
f 34//261 36//262 4//263
f 32//264 34//265 4//266
f 30//267 32//268 4//269
f 24//270 26//271 28//272
f 22//273 24//274 28//275
f 20//276 22//277 28//278
f 18//279 20//280 28//281
f 16//282 18//283 28//284
f 14//285 16//286 28//287
f 12//288 14//289 28//290
f 10//291 12//292 28//293
f 8//294 10//295 28//296
f 8//297 28//298 30//299
f 6//300 8//301 30//302
f 3//303 6//304 30//305
f 4//306 3//307 30//308