o ηc
v 5.169 2 2.679
v 5.088 2 2.364
v 5.088 0 2.364
v 5.169 0 2.679
v 5.025 2 1.974
v 5.025 0 1.974
v 4.98 2 1.548
v 4.98 0 1.548
v 4.944 2 0.756
v 4.944 0 0.756
v 4.944 2 -4.08
v 4.944 0 -4.08
v 4.92825 2 -4.42875
v 4.92825 0 -4.42875
v 4.881 2 -4.731
v 4.881 0 -4.731
v 4.80225 2 -4.9867499999999989
v 4.80225 0 -4.9867499999999989
v 4.692 2 -5.196
v 4.692 0 -5.196
v 4.5615 2 -5.3587499999999988
v 4.5615 0 -5.3587499999999988
v 4.41 2 -5.475
v 4.41 0 -5.475
v 4.2375000000000007 2 -5.54475
v 4.2375000000000007 0 -5.54475
v 4.0440000000000005 2 -5.568
v 4.0440000000000005 0 -5.568
v 3.7560000000000007 2 -5.53125
v 3.7560000000000007 0 -5.53125
v 3.6300000000000008 2 -5.4853125
v 3.6300000000000008 0 -5.4853125
v 3.5160000000000005 2 -5.4209999999999994
v 3.5160000000000005 0 -5.4209999999999994
v 3.4140000000000006 2 -5.3383125
v 3.4140000000000006 0 -5.3383125
v 3.3240000000000007 2 -5.2372499999999995
v 3.3240000000000007 0 -5.2372499999999995
v 3.1800000000000006 2 -4.9799999999999995
v 3.1800000000000006 0 -4.9799999999999995
v 3.0750000000000006 2 -4.65825
v 3.0750000000000006 0 -4.65825
v 3.0000000000000004 2 -4.2809999999999988
v 3.0000000000000004 0 -4.2809999999999988
v 2.955 2 -3.8482499999999993
v 2.955 0 -3.8482499999999993
v 2.9400000000000004 2 -3.3599999999999994
v 2.9400000000000004 0 -3.3599999999999994
v 2.9400000000000004 2 0
v 2.9400000000000004 0 0
v 1.116 2 0
v 1.116 0 0
v 1.116 2 -4.068
v 1.116 0 -4.068
v 1.104 2 -4.47
v 1.104 0 -4.47
v 1.068 2 -4.9079999999999995
v 1.068 0 -4.9079999999999995
v 0.948 2 -5.784
v 0.948 0 -5.784
v 0.87600000000000011 2 -6.1560000000000006
v 0.87600000000000011 0 -6.1560000000000006
v 0.804 2 -6.432
v 0.804 0 -6.432
v 2.388 2 -6.432
v 2.388 0 -6.432
v 2.508 2 -6.183
v 2.508 0 -6.183
v 2.604 2 -5.916
v 2.604 0 -5.916
v 2.748 2 -5.3400000000000007
v 2.748 0 -5.3400000000000007
v 2.7960000000000003 2 -5.3400000000000007
v 2.7960000000000003 0 -5.3400000000000007
v 2.9910000000000005 2 -5.652
v 2.9910000000000005 0 -5.652
v 3.216 2 -5.94
v 3.216 0 -5.94
v 3.4919999999999995 2 -6.2010000000000005
v 3.4919999999999995 0 -6.2010000000000005
v 3.8160000000000003 2 -6.408
v 3.8160000000000003 0 -6.408
v 4.005 2 -6.4867500000000016
v 4.005 0 -6.4867500000000016
v 4.212 2 -6.543
v 4.212 0 -6.543
v 4.437 2 -6.5767500000000005
v 4.437 0 -6.5767500000000005
v 4.6800000000000006 2 -6.588
v 4.6800000000000006 0 -6.588
v 5.1787500000000017 2 -6.5527500000000005
v 5.1787500000000017 0 -6.5527500000000005
v 5.4016875000000013 2 -6.5086875000000006
v 5.4016875000000013 0 -6.5086875000000006
v 5.6070000000000011 2 -6.447000000000001
v 5.6070000000000011 0 -6.447000000000001
v 5.7946875000000011 2 -6.3676875000000006
v 5.7946875000000011 0 -6.3676875000000006
v 5.9647500000000013 2 -6.27075
v 5.9647500000000013 0 -6.27075
v 6.1171875000000009 2 -6.1561875
v 6.1171875000000009 0 -6.1561875
v 6.2520000000000007 2 -6.024
v 6.2520000000000007 0 -6.024
v 6.3729375000000008 2 -5.875125
v 6.3729375000000008 0 -5.875125
v 6.4777500000000021 2 -5.7045
v 6.4777500000000021 0 -5.7045
v 6.566437500000001 2 -5.5121249999999993
v 6.566437500000001 0 -5.5121249999999993
v 6.6390000000000011 2 -5.298
v 6.6390000000000011 0 -5.298
v 6.6954375000000006 2 -5.062125
v 6.6954375000000006 0 -5.062125
v 6.7357500000000012 2 -4.8045
v 6.7357500000000012 0 -4.8045
v 6.7680000000000007 2 -4.224
v 6.7680000000000007 0 -4.224
v 6.7680000000000007 2 0.8279999999999994
v 6.7680000000000007 0 0.8279999999999994
v 6.7920000000000007 2 1.5479999999999994
v 6.7920000000000007 0 1.5479999999999994
v 6.876 2 2.3399999999999994
v 6.876 0 2.3399999999999994
v 6.9360000000000008 2 2.6669999999999994
v 6.9360000000000008 0 2.6669999999999994
v 6.996 2 2.8799999999999994
v 6.996 0 2.8799999999999994
v 5.268 2 2.88
v 5.268 0 2.88
vn -0.516 0 0.17999999999999972
vn -0.24800000000000022 0 0.048000000000000043
vn -0.24800000000000022 0 0.048000000000000043
vn -0.516 0 0.17999999999999972
vn -0.24799999999999978 0 0.048000000000000043
vn -0.81599999999999984 0 0.10799999999999965
vn -0.81599999999999984 0 0.10799999999999965
vn -0.24799999999999978 0 0.048000000000000043
vn -0.81599999999999984 0 0.10799999999999965
vn -0.29600000000000004 0 0.024000000000000021
vn -0.29600000000000004 0 0.024000000000000021
vn -0.81599999999999984 0 0.10799999999999965
vn -0.29600000000000004 0 0.024000000000000021
vn -0.2320000000000001 0 0
vn -0.2320000000000001 0 0
vn -0.29600000000000004 0 0.024000000000000021
vn -4.836 0 0
vn -4.836 0 0
vn -4.836 0 0
vn -4.836 0 0
vn -0.49599999999999955 0 0
vn -0.6509999999999998 0 0.062999999999999723
vn -0.6509999999999998 0 0.062999999999999723
vn -0.49599999999999955 0 0
vn -0.6509999999999998 0 0.062999999999999723
vn -0.55799999999999894 0 0.12600000000000033
vn -0.55799999999999894 0 0.12600000000000033
vn -0.6509999999999998 0 0.062999999999999723
vn -0.55799999999999894 0 0.12600000000000033
vn -0.46499999999999986 0 0.18900000000000006
vn -0.46499999999999986 0 0.18900000000000006
vn -0.55799999999999894 0 0.12600000000000033
vn -0.46499999999999986 0 0.18900000000000006
vn -0.24800000000000022 0 0.16800000000000015
vn -0.24800000000000022 0 0.16800000000000015
vn -0.46499999999999986 0 0.18900000000000006
vn -0.24800000000000022 0 0.16000000000000014
vn -0.27899999999999991 0 0.28200000000000003
vn -0.27899999999999991 0 0.28200000000000003
vn -0.24800000000000022 0 0.16000000000000014
vn -0.27899999999999991 0 0.28200000000000003
vn -0.18600000000000083 0 0.32399999999999896
vn -0.18600000000000083 0 0.32399999999999896
vn -0.27899999999999991 0 0.28200000000000003
vn -0.18600000000000083 0 0.32399999999999896
vn -0.092999999999999972 0 0.36599999999999966
vn -0.092999999999999972 0 0.36599999999999966
vn -0.18600000000000083 0 0.32399999999999896
vn -0.092999999999999972 0 0.36599999999999966
vn 0 0 0.27199999999999935
vn 0 0 0.27199999999999935
vn -0.092999999999999972 0 0.36599999999999966
vn 0 0 0.41599999999999993
vn 0.082687499999999581 0 0.4139999999999997
vn 0.082687499999999581 0 0.4139999999999997
vn 0 0 0.41599999999999993
vn 0.082687499999999581 0 0.4139999999999997
vn 0.11025000000000063 0 0.24000000000000021
vn 0.11025000000000063 0 0.24000000000000021
vn 0.082687499999999581 0 0.4139999999999997
vn 0.11025000000000063 0 0.24000000000000021
vn 0.14700000000000024 0 0.21600000000000019
vn 0.14700000000000024 0 0.21600000000000019
vn 0.11025000000000063 0 0.24000000000000021
vn 0.14700000000000024 0 0.21600000000000019
vn 0.18374999999999986 0 0.19199999999999973
vn 0.18374999999999986 0 0.19199999999999973
vn 0.14700000000000024 0 0.21600000000000019
vn 0.18374999999999986 0 0.19199999999999973
vn 0.35831250000000026 0 0.23399999999999999
vn 0.35831250000000026 0 0.23399999999999999
vn 0.18374999999999986 0 0.19199999999999973
vn 0.35831250000000026 0 0.23399999999999999
vn 0.39200000000000035 0 0.1599999999999997
vn 0.39200000000000035 0 0.1599999999999997
vn 0.35831250000000026 0 0.23399999999999999
vn 0.39200000000000035 0 0.16000000000000014
vn 0.69900000000000073 0 0.18000000000000016
vn 0.69900000000000073 0 0.18000000000000016
vn 0.39200000000000035 0 0.16000000000000014
vn 0.69900000000000073 0 0.18000000000000016
vn 0.8100000000000005 0 0.12000000000000055
vn 0.8100000000000005 0 0.12000000000000055
vn 0.69900000000000073 0 0.18000000000000016
vn 0.8100000000000005 0 0.12000000000000055
vn 0.92099999999999937 0 0.060000000000000053
vn 0.92099999999999937 0 0.060000000000000053
vn 0.8100000000000005 0 0.12000000000000055
vn 0.92099999999999937 0 0.060000000000000053
vn 0.68799999999999972 0 0
vn 0.68799999999999972 0 0
vn 0.92099999999999937 0 0.060000000000000053
vn 3.3599999999999994 0 0
vn 3.3599999999999994 0 0
vn 3.3599999999999994 0 0
vn 3.3599999999999994 0 0
vn 0 0 1.8240000000000003
vn 0 0 1.8240000000000003
vn 0 0 1.8240000000000003
vn 0 0 1.8240000000000003
vn -4.068 0 0
vn -4.068 0 0
vn -4.068 0 0
vn -4.068 0 0
vn -0.25600000000000023 0 0
vn -0.83999999999999986 0 0.048000000000000043
vn -0.83999999999999986 0 0.048000000000000043
vn -0.25600000000000023 0 0
vn -0.83999999999999986 0 0.048000000000000043
vn -0.30399999999999938 0 0.032000000000000028
vn -0.30399999999999938 0 0.032000000000000028
vn -0.83999999999999986 0 0.048000000000000043
vn -0.31200000000000028 0 0.032000000000000028
vn -0.27199999999999935 0 0.048000000000000043
vn -0.27199999999999935 0 0.048000000000000043
vn -0.31200000000000028 0 0.032000000000000028
vn -0.28000000000000025 0 0.047999999999999932
vn -0.64800000000000058 0 0.14399999999999991
vn -0.64800000000000058 0 0.14399999999999991
vn -0.28000000000000025 0 0.047999999999999932
vn -0.64800000000000058 0 0.14399999999999991
vn -0.15200000000000014 0 0.047999999999999932
vn -0.15200000000000014 0 0.047999999999999932
vn -0.64800000000000058 0 0.14399999999999991
vn 0 0 -1.5839999999999999
vn 0 0 -1.5839999999999999
vn 0 0 -1.5839999999999999
vn 0 0 -1.5839999999999999
vn 0.16000000000000014 0 -0.088000000000000078
vn 0.516 0 -0.21600000000000019
vn 0.516 0 -0.21600000000000019
vn 0.16000000000000014 0 -0.088000000000000078
vn 0.516 0 -0.21600000000000019
vn 0.18400000000000016 0 -0.05600000000000005
vn 0.18400000000000016 0 -0.05600000000000005
vn 0.516 0 -0.21600000000000019
vn 0.17600000000000016 0 -0.05600000000000005
vn 0.2079999999999993 0 -0.040000000000000036
vn 0.2079999999999993 0 -0.040000000000000036
vn 0.17600000000000016 0 -0.05600000000000005
vn 0 0 -0.048000000000000043
vn 0 0 -0.048000000000000043
vn 0 0 -0.048000000000000043
vn 0 0 -0.048000000000000043
vn -0.21600000000000019 0 -0.12000000000000011
vn -0.59999999999999964 0 -0.41999999999999993
vn -0.59999999999999964 0 -0.41999999999999993
vn -0.21600000000000019 0 -0.12000000000000011
vn -0.59999999999999964 0 -0.41999999999999993
vn -0.18400000000000016 0 -0.1599999999999997
vn -0.18400000000000016 0 -0.1599999999999997
vn -0.59999999999999964 0 -0.41999999999999993
vn -0.19200000000000017 0 -0.16799999999999971
vn -0.46799999999999997 0 -0.60000000000000009
vn -0.46799999999999997 0 -0.60000000000000009
vn -0.19200000000000017 0 -0.16799999999999971
vn -0.46799999999999997 0 -0.60000000000000009
vn -0.12000000000000011 0 -0.23200000000000021
vn -0.12000000000000011 0 -0.23200000000000021
vn -0.46799999999999997 0 -0.60000000000000009
vn -0.12000000000000011 0 -0.23999999999999977
vn -0.13499999999999979 0 -0.39599999999999946
vn -0.13499999999999979 0 -0.39599999999999946
vn -0.12000000000000011 0 -0.23999999999999977
vn -0.13499999999999979 0 -0.39599999999999946
vn -0.08999999999999897 0 -0.43200000000000038
vn -0.08999999999999897 0 -0.43200000000000038
vn -0.13499999999999979 0 -0.39599999999999946
vn -0.08999999999999897 0 -0.43200000000000038
vn -0.044999999999999929 0 -0.46800000000000086
vn -0.044999999999999929 0 -0.46800000000000086
vn -0.08999999999999897 0 -0.43200000000000038
vn -0.044999999999999929 0 -0.46800000000000086
vn 0 0 -0.3360000000000003
vn 0 0 -0.3360000000000003
vn -0.044999999999999929 0 -0.46800000000000086
vn 0 0 -0.71200000000000063
vn 0.079312499999999453 0 -0.7216875000000007
vn 0.079312499999999453 0 -0.7216875000000007
vn 0 0 -0.71200000000000063
vn 0.079312499999999453 0 -0.7216875000000007
vn 0.10574999999999957 0 -0.42824999999999935
vn 0.10574999999999957 0 -0.42824999999999935
vn 0.079312499999999453 0 -0.7216875000000007
vn 0.10574999999999957 0 -0.42824999999999935
vn 0.14100000000000001 0 -0.39299999999999979
vn 0.14100000000000001 0 -0.39299999999999979
vn 0.10574999999999957 0 -0.42824999999999935
vn 0.14100000000000001 0 -0.39299999999999979
vn 0.17625000000000135 0 -0.35775000000000023
vn 0.17625000000000135 0 -0.35775000000000023
vn 0.14100000000000001 0 -0.39299999999999979
vn 0.17625000000000135 0 -0.35775000000000023
vn 0.21150000000000091 0 -0.32249999999999979
vn 0.21150000000000091 0 -0.32249999999999979
vn 0.17625000000000135 0 -0.35775000000000023
vn 0.21150000000000091 0 -0.32249999999999979
vn 0.24674999999999958 0 -0.28724999999999934
vn 0.24674999999999958 0 -0.28724999999999934
vn 0.21150000000000091 0 -0.32249999999999979
vn 0.24674999999999958 0 -0.28724999999999934
vn 0.37600000000000033 0 -0.33599999999999941
vn 0.37600000000000033 0 -0.33599999999999941
vn 0.24674999999999958 0 -0.28724999999999934
vn 0.36800000000000033 0 -0.34400000000000031
vn 0.31949999999999967 0 -0.22575000000000145
vn 0.31949999999999967 0 -0.22575000000000145
vn 0.36800000000000033 0 -0.34400000000000031
vn 0.31949999999999967 0 -0.22575000000000145
vn 0.36300000000000043 0 -0.19350000000000023
vn 0.36300000000000043 0 -0.19350000000000023
vn 0.31949999999999967 0 -0.22575000000000145
vn 0.36300000000000043 0 -0.19350000000000023
vn 0.40650000000000031 0 -0.161249999999999
vn 0.40650000000000031 0 -0.161249999999999
vn 0.36300000000000043 0 -0.19350000000000023
vn 0.40650000000000031 0 -0.161249999999999
vn 0.44999999999999929 0 -0.12899999999999956
vn 0.44999999999999929 0 -0.12899999999999956
vn 0.40650000000000031 0 -0.161249999999999
vn 0.44999999999999929 0 -0.12899999999999956
vn 0.49350000000000005 0 -0.096750000000000114
vn 0.49350000000000005 0 -0.096750000000000114
vn 0.44999999999999929 0 -0.12899999999999956
vn 0.49350000000000005 0 -0.096750000000000114
vn 0.83812499999999979 0 -0.072562500000000085
vn 0.83812499999999979 0 -0.072562500000000085
vn 0.49350000000000005 0 -0.096750000000000114
vn 0.83812499999999979 0 -0.072562500000000085
vn 0.83199999999999985 0 0
vn 0.83199999999999985 0 0
vn 0.83812499999999979 0 -0.072562500000000085
vn 5.052 0 0
vn 5.052 0 0
vn 5.052 0 0
vn 5.052 0 0
vn 0.19999999999999996 0 0
vn 0.28 0 -0.016000000000000014
vn 0.28 0 -0.016000000000000014
vn 0.19999999999999996 0 0
vn 0.28 0 -0.024000000000000021
vn 0.24800000000000022 0 -0.032000000000000028
vn 0.24800000000000022 0 -0.032000000000000028
vn 0.28 0 -0.024000000000000021
vn 0.25599999999999978 0 -0.040000000000000036
vn 0.54 0 -0.12000000000000011
vn 0.54 0 -0.12000000000000011
vn 0.25599999999999978 0 -0.040000000000000036
vn 0.54 0 -0.12000000000000011
vn 0.10400000000000009 0 -0.040000000000000036
vn 0.10400000000000009 0 -0.040000000000000036
vn 0.54 0 -0.12000000000000011
vn 4.4408920985006262E-16 0 1.7280000000000007
vn 4.4408920985006262E-16 0 1.7280000000000007
vn 4.4408920985006262E-16 0 1.7280000000000007
vn 4.4408920985006262E-16 0 1.7280000000000007
vn -0.095999999999999641 0 0.072000000000000064
vn -0.516 0 0.17999999999999972
vn -0.516 0 0.17999999999999972
vn -0.095999999999999641 0 0.072000000000000064
vn 0 1 0
vn 0 1 0
vn 0 1 0
vn 0 1 0
vn 0 1 0
vn 0 1 0
vn 0 1 0
vn 0 1 0
vn 0 1 0
vn 0 1 0
vn 0 1 0
vn 0 1 0
vn 0 1 0
vn 0 1 0
vn 0 1 0
vn 0 1 0
vn 0 1 0
vn 0 1 0
vn 0 1 0
vn 0 1 0
vn 0 1 0
vn 0 1 0
vn 0 1 0
vn 0 1 0
vn 0 1 0
vn 0 1 0
vn 0 1 0
vn 0 1 0
vn 0 1 0
vn 0 1 0
vn 0 1 0
vn 0 1 0
vn 0 1 0
vn 0 1 0
vn 0 1 0
vn 0 1 0
vn 0 1 0
vn 0 1 0
vn 0 1 0
vn 0 1 0
vn 0 1 0
vn 0 1 0
vn 0 1 0
vn 0 1 0
vn 0 1 0
vn 0 1 0
vn 0 1 0
vn 0 1 0
vn 0 1 0
vn 0 1 0
vn 0 1 0
vn 0 1 0
vn 0 1 0
vn 0 1 0
vn 0 1 0
vn 0 1 0
vn 0 1 0
vn 0 1 0
vn 0 1 0
vn 0 1 0
vn 0 1 0
vn 0 1 0
vn 0 1 0
vn 0 1 0
vn 0 1 0
vn 0 1 0
vn 0 1 0
vn 0 1 0
vn 0 1 0
vn 0 1 0
vn 0 1 0
vn 0 1 0
vn 0 1 0
vn 0 1 0
vn 0 1 0
vn 0 1 0
vn 0 1 0
vn 0 1 0
vn 0 1 0
vn 0 1 0
vn 0 1 0
vn 0 1 0
vn 0 1 0
vn 0 1 0
vn 0 1 0
vn 0 1 0
vn 0 1 0
vn 0 1 0
vn 0 1 0
vn 0 1 0
vn 0 1 0
vn 0 1 0
vn 0 1 0
vn 0 1 0
vn 0 1 0
vn 0 1 0
vn 0 1 0
vn 0 1 0
vn 0 1 0
vn 0 1 0
vn 0 1 0
vn 0 1 0
vn 0 1 0
vn 0 1 0
vn 0 1 0
vn 0 1 0
vn 0 1 0
vn 0 1 0
vn 0 1 0
vn 0 1 0
vn 0 1 0
vn 0 1 0
vn 0 1 0
vn 0 1 0
vn 0 1 0
vn 0 1 0
vn 0 1 0
vn 0 1 0
vn 0 1 0
vn 0 1 0
vn 0 1 0
vn 0 1 0
vn 0 1 0
vn 0 1 0
vn 0 1 0
vn 0 1 0
vn 0 1 0
vn 0 1 0
vn 0 1 0
vn 0 1 0
vn 0 1 0
vn 0 1 0
vn 0 1 0
vn 0 1 0
vn 0 1 0
vn 0 1 0
vn 0 1 0
vn 0 1 0
vn 0 1 0
vn 0 1 0
vn 0 1 0
vn 0 1 0
vn 0 1 0
vn 0 1 0
vn 0 1 0
vn 0 1 0
vn 0 1 0
vn 0 1 0
vn 0 1 0
vn 0 1 0
vn 0 1 0
vn 0 1 0
vn 0 1 0
vn 0 1 0
vn 0 1 0
vn 0 1 0
vn 0 1 0
vn 0 1 0
vn 0 1 0
vn 0 1 0
vn 0 1 0
vn 0 1 0
vn 0 1 0
vn 0 1 0
vn 0 1 0
vn 0 1 0
vn 0 1 0
vn 0 1 0
vn 0 1 0
vn 0 1 0
vn 0 1 0
vn 0 1 0
vn 0 1 0
vn 0 1 0
vn 0 1 0
vn 0 1 0
vn 0 1 0
vn 0 1 0
vn 0 1 0
vn 0 1 0
vn 0 1 0
vn 0 1 0
vn 0 1 0
vn 0 1 0
vn 0 1 0
vn 0 1 0
vn 0 1 0
vn 0 1 0
vn 0 1 0
vn 0 -1 0
vn 0 -1 0
vn 0 -1 0
vn 0 -1 0
vn 0 -1 0
vn 0 -1 0
vn 0 -1 0
vn 0 -1 0
vn 0 -1 0
vn 0 -1 0
vn 0 -1 0
vn 0 -1 0
vn 0 -1 0
vn 0 -1 0
vn 0 -1 0
vn 0 -1 0
vn 0 -1 0
vn 0 -1 0
vn 0 -1 0
vn 0 -1 0
vn 0 -1 0
vn 0 -1 0
vn 0 -1 0
vn 0 -1 0
vn 0 -1 0
vn 0 -1 0
vn 0 -1 0
vn 0 -1 0
vn 0 -1 0
vn 0 -1 0
vn 0 -1 0
vn 0 -1 0
vn 0 -1 0
vn 0 -1 0
vn 0 -1 0
vn 0 -1 0
vn 0 -1 0
vn 0 -1 0
vn 0 -1 0
vn 0 -1 0
vn 0 -1 0
vn 0 -1 0
vn 0 -1 0
vn 0 -1 0
vn 0 -1 0
vn 0 -1 0
vn 0 -1 0
vn 0 -1 0
vn 0 -1 0
vn 0 -1 0
vn 0 -1 0
vn 0 -1 0
vn 0 -1 0
vn 0 -1 0
vn 0 -1 0
vn 0 -1 0
vn 0 -1 0
vn 0 -1 0
vn 0 -1 0
vn 0 -1 0
vn 0 -1 0
vn 0 -1 0
vn 0 -1 0
vn 0 -1 0
vn 0 -1 0
vn 0 -1 0
vn 0 -1 0
vn 0 -1 0
vn 0 -1 0
vn 0 -1 0
vn 0 -1 0
vn 0 -1 0
vn 0 -1 0
vn 0 -1 0
vn 0 -1 0
vn 0 -1 0
vn 0 -1 0
vn 0 -1 0
vn 0 -1 0
vn 0 -1 0
vn 0 -1 0
vn 0 -1 0
vn 0 -1 0
vn 0 -1 0
vn 0 -1 0
vn 0 -1 0
vn 0 -1 0
vn 0 -1 0
vn 0 -1 0
vn 0 -1 0
vn 0 -1 0
vn 0 -1 0
vn 0 -1 0
vn 0 -1 0
vn 0 -1 0
vn 0 -1 0
vn 0 -1 0
vn 0 -1 0
vn 0 -1 0
vn 0 -1 0
vn 0 -1 0
vn 0 -1 0
vn 0 -1 0
vn 0 -1 0
vn 0 -1 0
vn 0 -1 0
vn 0 -1 0
vn 0 -1 0
vn 0 -1 0
vn 0 -1 0
vn 0 -1 0
vn 0 -1 0
vn 0 -1 0
vn 0 -1 0
vn 0 -1 0
vn 0 -1 0
vn 0 -1 0
vn 0 -1 0
vn 0 -1 0
vn 0 -1 0
vn 0 -1 0
vn 0 -1 0
vn 0 -1 0
vn 0 -1 0
vn 0 -1 0
vn 0 -1 0
vn 0 -1 0
vn 0 -1 0
vn 0 -1 0
vn 0 -1 0
vn 0 -1 0
vn 0 -1 0
vn 0 -1 0
vn 0 -1 0
vn 0 -1 0
vn 0 -1 0
vn 0 -1 0
vn 0 -1 0
vn 0 -1 0
vn 0 -1 0
vn 0 -1 0
vn 0 -1 0
vn 0 -1 0
vn 0 -1 0
vn 0 -1 0
vn 0 -1 0
vn 0 -1 0
vn 0 -1 0
vn 0 -1 0
vn 0 -1 0
vn 0 -1 0
vn 0 -1 0
vn 0 -1 0
vn 0 -1 0
vn 0 -1 0
vn 0 -1 0
vn 0 -1 0
vn 0 -1 0
vn 0 -1 0
vn 0 -1 0
vn 0 -1 0
vn 0 -1 0
vn 0 -1 0
vn 0 -1 0
vn 0 -1 0
vn 0 -1 0
vn 0 -1 0
vn 0 -1 0
vn 0 -1 0
vn 0 -1 0
vn 0 -1 0
vn 0 -1 0
vn 0 -1 0
vn 0 -1 0
vn 0 -1 0
vn 0 -1 0
vn 0 -1 0
vn 0 -1 0
vn 0 -1 0
vn 0 -1 0
vn 0 -1 0
vn 0 -1 0
vn 0 -1 0
vn 0 -1 0
vn 0 -1 0
vn 0 -1 0
vn 0 -1 0
vn 0 -1 0
vn 0 -1 0

g ηc
f 1//1 2//2 3//3 4//4
f 2//5 5//6 6//7 3//8
f 5//9 7//10 8//11 6//12
f 7//13 9//14 10//15 8//16
f 9//17 11//18 12//19 10//20
f 11//21 13//22 14//23 12//24
f 13//25 15//26 16//27 14//28
f 15//29 17//30 18//31 16//32
f 17//33 19//34 20//35 18//36
f 19//37 21//38 22//39 20//40
f 21//41 23//42 24//43 22//44
f 23//45 25//46 26//47 24//48
f 25//49 27//50 28//51 26//52
f 27//53 29//54 30//55 28//56
f 29//57 31//58 32//59 30//60
f 31//61 33//62 34//63 32//64
f 33//65 35//66 36//67 34//68
f 35//69 37//70 38//71 36//72
f 37//73 39//74 40//75 38//76
f 39//77 41//78 42//79 40//80
f 41//81 43//82 44//83 42//84
f 43//85 45//86 46//87 44//88
f 45//89 47//90 48//91 46//92
f 47//93 49//94 50//95 48//96
f 49//97 51//98 52//99 50//100
f 51//101 53//102 54//103 52//104
f 53//105 55//106 56//107 54//108
f 55//109 57//110 58//111 56//112
f 57//113 59//114 60//115 58//116
f 59//117 61//118 62//119 60//120
f 61//121 63//122 64//123 62//124
f 63//125 65//126 66//127 64//128
f 65//129 67//130 68//131 66//132
f 67//133 69//134 70//135 68//136
f 69//137 71//138 72//139 70//140
f 71//141 73//142 74//143 72//144
f 73//145 75//146 76//147 74//148
f 75//149 77//150 78//151 76//152
f 77//153 79//154 80//155 78//156
f 79//157 81//158 82//159 80//160
f 81//161 83//162 84//163 82//164
f 83//165 85//166 86//167 84//168
f 85//169 87//170 88//171 86//172
f 87//173 89//174 90//175 88//176
f 89//177 91//178 92//179 90//180
f 91//181 93//182 94//183 92//184
f 93//185 95//186 96//187 94//188
f 95//189 97//190 98//191 96//192
f 97//193 99//194 100//195 98//196
f 99//197 101//198 102//199 100//200
f 101//201 103//202 104//203 102//204
f 103//205 105//206 106//207 104//208
f 105//209 107//210 108//211 106//212
f 107//213 109//214 110//215 108//216
f 109//217 111//218 112//219 110//220
f 111//221 113//222 114//223 112//224
f 113//225 115//226 116//227 114//228
f 115//229 117//230 118//231 116//232
f 117//233 119//234 120//235 118//236
f 119//237 121//238 122//239 120//240
f 121//241 123//242 124//243 122//244
f 123//245 125//246 126//247 124//248
f 125//249 127//250 128//251 126//252
f 127//253 129//254 130//255 128//256
f 129//257 1//258 4//259 130//260
f 1//261 129//262 127//263
f 1//264 127//265 125//266
f 1//267 125//268 123//269
f 1//270 123//271 121//272
f 1//273 121//274 119//275
f 1//276 119//277 117//278
f 1//279 117//280 115//281
f 1//282 115//283 113//284
f 1//285 113//286 111//287
f 1//288 111//289 109//290
f 1//291 109//292 107//293
f 1//294 107//295 105//296
f 1//297 105//298 103//299
f 1//300 103//301 101//302
f 1//303 101//304 99//305
f 1//306 99//307 97//308
f 1//309 97//310 95//311
f 1//312 95//313 93//314
f 1//315 93//316 91//317
f 91//318 89//319 87//320
f 91//321 87//322 85//323
f 91//324 85//325 83//326
f 91//327 83//328 81//329
f 91//330 81//331 79//332
f 91//333 79//334 77//335
f 91//336 77//337 75//338
f 91//339 75//340 73//341
f 71//342 69//343 67//344
f 71//345 67//346 65//347
f 71//348 65//349 63//350
f 71//351 63//352 61//353
f 71//354 61//355 59//356
f 71//357 59//358 57//359
f 73//360 71//361 57//362
f 73//363 57//364 55//365
f 91//366 73//367 55//368
f 91//369 55//370 53//371
f 53//372 51//373 49//374
f 53//375 49//376 47//377
f 53//378 47//379 45//380
f 53//381 45//382 43//383
f 53//384 43//385 41//386
f 53//387 41//388 39//389
f 53//390 39//391 37//392
f 53//393 37//394 35//395
f 53//396 35//397 33//398
f 91//399 53//400 33//401
f 91//402 33//403 31//404
f 91//405 31//406 29//407
f 91//408 29//409 27//410
f 91//411 27//412 25//413
f 91//414 25//415 23//416
f 91//417 23//418 21//419
f 91//420 21//421 19//422
f 91//423 19//424 17//425
f 91//426 17//427 15//428
f 91//429 15//430 13//431
f 91//432 13//433 11//434
f 1//435 91//436 11//437
f 1//438 11//439 9//440
f 1//441 9//442 7//443
f 1//444 7//445 5//446
f 5//447 2//448 1//449
f 128//450 130//451 4//452
f 126//453 128//454 4//455
f 124//456 126//457 4//458
f 122//459 124//460 4//461
f 120//462 122//463 4//464
f 118//465 120//466 4//467
f 116//468 118//469 4//470
f 114//471 116//472 4//473
f 112//474 114//475 4//476
f 110//477 112//478 4//479
f 108//480 110//481 4//482
f 106//483 108//484 4//485
f 104//486 106//487 4//488
f 102//489 104//490 4//491
f 100//492 102//493 4//494
f 98//495 100//496 4//497
f 96//498 98//499 4//500
f 94//501 96//502 4//503
f 92//504 94//505 4//506
f 88//507 90//508 92//509
f 86//510 88//511 92//512
f 84//513 86//514 92//515
f 82//516 84//517 92//518
f 80//519 82//520 92//521
f 78//522 80//523 92//524
f 76//525 78//526 92//527
f 74//528 76//529 92//530
f 68//531 70//532 72//533
f 66//534 68//535 72//536
f 64//537 66//538 72//539
f 62//540 64//541 72//542
f 60//543 62//544 72//545
f 58//546 60//547 72//548
f 58//549 72//550 74//551
f 56//552 58//553 74//554
f 56//555 74//556 92//557
f 54//558 56//559 92//560
f 50//561 52//562 54//563
f 48//564 50//565 54//566
f 46//567 48//568 54//569
f 44//570 46//571 54//572
f 42//573 44//574 54//575
f 40//576 42//577 54//578
f 38//579 40//580 54//581
f 36//582 38//583 54//584
f 34//585 36//586 54//587
f 34//588 54//589 92//590
f 32//591 34//592 92//593
f 30//594 32//595 92//596
f 28//597 30//598 92//599
f 26//600 28//601 92//602
f 24//603 26//604 92//605
f 22//606 24//607 92//608
f 20//609 22//610 92//611
f 18//612 20//613 92//614
f 16//615 18//616 92//617
f 14//618 16//619 92//620
f 12//621 14//622 92//623
f 12//624 92//625 4//626
f 10//627 12//628 4//629
f 8//630 10//631 4//632
f 6//633 8//634 4//635
f 4//636 3//637 6//638