o ιc
v 2.6654999999999998 2 0.094499999999999987
v 2.274 2 0.017999999999999995
v 2.274 0 0.017999999999999995
v 2.6654999999999998 0 0.094499999999999987
v 1.9335 2 -0.1095
v 1.9335 0 -0.1095
v 1.644 2 -0.288
v 1.644 0 -0.288
v 1.5202499999999999 2 -0.4025625
v 1.5202499999999999 0 -0.4025625
v 1.4129999999999998 2 -0.53625
v 1.4129999999999998 0 -0.53625
v 1.32225 2 -0.6890625
v 1.32225 0 -0.6890625
v 1.248 2 -0.861
v 1.248 0 -0.861
v 1.19025 2 -1.0520625
v 1.19025 0 -1.0520625
v 1.149 2 -1.2622499999999999
v 1.149 0 -1.2622499999999999
v 1.116 2 -1.74
v 1.116 0 -1.74
v 1.116 2 -6.432
v 1.116 0 -6.432
v 2.928 2 -6.432
v 2.928 0 -6.432
v 2.928 2 -1.968
v 2.928 0 -1.968
v 2.94 2 -1.6942499999999998
v 2.94 0 -1.6942499999999998
v 2.976 2 -1.4609999999999999
v 2.976 0 -1.4609999999999999
v 3.0360000000000005 2 -1.26825
v 3.0360000000000005 0 -1.26825
v 3.12 2 -1.116
v 3.12 0 -1.116
v 3.2347500000000005 2 -1.0005
v 3.2347500000000005 0 -1.0005
v 3.375 2 -0.91800000000000015
v 3.375 0 -0.91800000000000015
v 3.5407500000000005 2 -0.8685
v 3.5407500000000005 0 -0.8685
v 3.732 2 -0.85200000000000009
v 3.732 0 -0.85200000000000009
v 4.176 2 -0.87600000000000011
v 4.176 0 -0.87600000000000011
v 4.6080000000000005 2 -0.93600000000000017
v 4.6080000000000005 0 -0.93600000000000017
v 4.6080000000000005 2 -0.13200000000000012
v 4.6080000000000005 0 -0.13200000000000012
v 4.389 2 -0.057000000000000023
v 4.389 0 -0.057000000000000023
v 4.044 2 0.024
v 4.044 0 0.024
v 3.606 2 0.096
v 3.606 0 0.096
v 3.108 2 0.12
v 3.108 0 0.12
vn -0.102 0 0.83400000000000007
vn -0.204 0 0.73199999999999976
vn -0.204 0 0.73199999999999976
vn -0.102 0 0.83400000000000007
vn -0.204 0 0.73199999999999976
vn -0.306 0 0.63000000000000012
vn -0.306 0 0.63000000000000012
vn -0.204 0 0.73199999999999976
vn -0.306 0 0.63000000000000012
vn -0.27199999999999996 0 0.35200000000000009
vn -0.27199999999999996 0 0.35200000000000009
vn -0.306 0 0.63000000000000012
vn -0.27999999999999997 0 0.35199999999999987
vn -0.24825000000000003 0 0.23100000000000009
vn -0.24825000000000003 0 0.23100000000000009
vn -0.27999999999999997 0 0.35199999999999987
vn -0.24825000000000003 0 0.23100000000000009
vn -0.28650000000000003 0 0.19799999999999995
vn -0.28650000000000003 0 0.19799999999999995
vn -0.24825000000000003 0 0.23100000000000009
vn -0.28650000000000003 0 0.19799999999999995
vn -0.32475 0 0.16499999999999981
vn -0.32475 0 0.16499999999999981
vn -0.28650000000000003 0 0.19799999999999995
vn -0.32475 0 0.16499999999999981
vn -0.36299999999999988 0 0.1319999999999999
vn -0.36299999999999988 0 0.1319999999999999
vn -0.32475 0 0.16499999999999981
vn -0.36299999999999988 0 0.1319999999999999
vn -0.40124999999999988 0 0.098999999999999977
vn -0.40124999999999988 0 0.098999999999999977
vn -0.36299999999999988 0 0.1319999999999999
vn -0.40124999999999988 0 0.098999999999999977
vn -0.68793750000000009 0 0.074249999999999927
vn -0.68793750000000009 0 0.074249999999999927
vn -0.40124999999999988 0 0.098999999999999977
vn -0.68793750000000009 0 0.074249999999999927
vn -0.688 0 0
vn -0.688 0 0
vn -0.68793750000000009 0 0.074249999999999927
vn -4.692 0 0
vn -4.692 0 0
vn -4.692 0 0
vn -4.692 0 0
vn 0 0 -1.8119999999999998
vn 0 0 -1.8119999999999998
vn 0 0 -1.8119999999999998
vn 0 0 -1.8119999999999998
vn 4.464 0 0
vn 4.464 0 0
vn 4.464 0 0
vn 4.464 0 0
vn 0.39200000000000013 0 0
vn 0.50700000000000012 0 -0.048000000000000043
vn 0.50700000000000012 0 -0.048000000000000043
vn 0.39200000000000013 0 0
vn 0.50700000000000012 0 -0.048000000000000043
vn 0.42599999999999971 0 -0.096000000000000529
vn 0.42599999999999971 0 -0.096000000000000529
vn 0.50700000000000012 0 -0.048000000000000043
vn 0.42599999999999971 0 -0.096000000000000529
vn 0.34499999999999975 0 -0.14400000000000013
vn 0.34499999999999975 0 -0.14400000000000013
vn 0.42599999999999971 0 -0.096000000000000529
vn 0.34499999999999975 0 -0.14400000000000013
vn 0.17599999999999993 0 -0.12800000000000011
vn 0.17599999999999993 0 -0.12800000000000011
vn 0.34499999999999975 0 -0.14400000000000013
vn 0.17600000000000005 0 -0.13600000000000012
vn 0.19799999999999995 0 -0.25499999999999989
vn 0.19799999999999995 0 -0.25499999999999989
vn 0.17600000000000005 0 -0.13600000000000012
vn 0.19799999999999995 0 -0.25499999999999989
vn 0.1319999999999999 0 -0.30600000000000005
vn 0.1319999999999999 0 -0.30600000000000005
vn 0.19799999999999995 0 -0.25499999999999989
vn 0.1319999999999999 0 -0.30600000000000005
vn 0.066000000000000059 0 -0.35700000000000021
vn 0.066000000000000059 0 -0.35700000000000021
vn 0.1319999999999999 0 -0.30600000000000005
vn 0.066000000000000059 0 -0.35700000000000021
vn 0 0 -0.2719999999999998
vn 0 0 -0.2719999999999998
vn 0.066000000000000059 0 -0.35700000000000021
vn 0 0 -0.14400000000000013
vn -0.016000000000000014 0 -0.15200000000000014
vn -0.016000000000000014 0 -0.15200000000000014
vn 0 0 -0.14400000000000013
vn -0.016000000000000014 0 -0.16000000000000014
vn -0.024000000000000021 0 -0.12800000000000011
vn -0.024000000000000021 0 -0.12800000000000011
vn -0.016000000000000014 0 -0.16000000000000014
vn 0.804 0 0
vn 0.804 0 0
vn 0.804 0 0
vn 0.804 0 0
vn 0.04800000000000007 0 0.10400000000000009
vn 0.15600000000000011 0 0.564000000000001
vn 0.15600000000000011 0 0.564000000000001
vn 0.04800000000000007 0 0.10400000000000009
vn 0.15600000000000011 0 0.564000000000001
vn 0.055999999999999994 0 0.27200000000000024
vn 0.055999999999999994 0 0.27200000000000024
vn 0.15600000000000011 0 0.564000000000001
vn 0.064 0 0.2719999999999998
vn 0.096 0 0.9359999999999995
vn 0.096 0 0.9359999999999995
vn 0.064 0 0.2719999999999998
vn 0.096 0 0.9359999999999995
vn 0 0 0.35199999999999987
vn 0 0 0.35199999999999987
vn 0.096 0 0.9359999999999995
vn 0 0 0.62400000000000011
vn -0.102 0 0.83400000000000007
vn -0.102 0 0.83400000000000007
vn 0 0 0.62400000000000011
vn 0 1 0
vn 0 1 0
vn 0 1 0
vn 0 1 0
vn 0 1 0
vn 0 1 0
vn 0 1 0
vn 0 1 0
vn 0 1 0
vn 0 1 0
vn 0 1 0
vn 0 1 0
vn 0 1 0
vn 0 1 0
vn 0 1 0
vn 0 1 0
vn 0 1 0
vn 0 1 0
vn 0 1 0
vn 0 1 0
vn 0 1 0
vn 0 1 0
vn 0 1 0
vn 0 1 0
vn 0 1 0
vn 0 1 0
vn 0 1 0
vn 0 1 0
vn 0 1 0
vn 0 1 0
vn 0 1 0
vn 0 1 0
vn 0 1 0
vn 0 1 0
vn 0 1 0
vn 0 1 0
vn 0 1 0
vn 0 1 0
vn 0 1 0
vn 0 1 0
vn 0 1 0
vn 0 1 0
vn 0 1 0
vn 0 1 0
vn 0 1 0
vn 0 1 0
vn 0 1 0
vn 0 1 0
vn 0 1 0
vn 0 1 0
vn 0 1 0
vn 0 1 0
vn 0 1 0
vn 0 1 0
vn 0 1 0
vn 0 1 0
vn 0 1 0
vn 0 1 0
vn 0 1 0
vn 0 1 0
vn 0 1 0
vn 0 1 0
vn 0 1 0
vn 0 1 0
vn 0 1 0
vn 0 1 0
vn 0 1 0
vn 0 1 0
vn 0 1 0
vn 0 1 0
vn 0 1 0
vn 0 1 0
vn 0 1 0
vn 0 1 0
vn 0 1 0
vn 0 1 0
vn 0 1 0
vn 0 1 0
vn 0 1 0
vn 0 1 0
vn 0 1 0
vn 0 -1 0
vn 0 -1 0
vn 0 -1 0
vn 0 -1 0
vn 0 -1 0
vn 0 -1 0
vn 0 -1 0
vn 0 -1 0
vn 0 -1 0
vn 0 -1 0
vn 0 -1 0
vn 0 -1 0
vn 0 -1 0
vn 0 -1 0
vn 0 -1 0
vn 0 -1 0
vn 0 -1 0
vn 0 -1 0
vn 0 -1 0
vn 0 -1 0
vn 0 -1 0
vn 0 -1 0
vn 0 -1 0
vn 0 -1 0
vn 0 -1 0
vn 0 -1 0
vn 0 -1 0
vn 0 -1 0
vn 0 -1 0
vn 0 -1 0
vn 0 -1 0
vn 0 -1 0
vn 0 -1 0
vn 0 -1 0
vn 0 -1 0
vn 0 -1 0
vn 0 -1 0
vn 0 -1 0
vn 0 -1 0
vn 0 -1 0
vn 0 -1 0
vn 0 -1 0
vn 0 -1 0
vn 0 -1 0
vn 0 -1 0
vn 0 -1 0
vn 0 -1 0
vn 0 -1 0
vn 0 -1 0
vn 0 -1 0
vn 0 -1 0
vn 0 -1 0
vn 0 -1 0
vn 0 -1 0
vn 0 -1 0
vn 0 -1 0
vn 0 -1 0
vn 0 -1 0
vn 0 -1 0
vn 0 -1 0
vn 0 -1 0
vn 0 -1 0
vn 0 -1 0
vn 0 -1 0
vn 0 -1 0
vn 0 -1 0
vn 0 -1 0
vn 0 -1 0
vn 0 -1 0
vn 0 -1 0
vn 0 -1 0
vn 0 -1 0
vn 0 -1 0
vn 0 -1 0
vn 0 -1 0
vn 0 -1 0
vn 0 -1 0
vn 0 -1 0
vn 0 -1 0
vn 0 -1 0
vn 0 -1 0

g ιc
f 1//1 2//2 3//3 4//4
f 2//5 5//6 6//7 3//8
f 5//9 7//10 8//11 6//12
f 7//13 9//14 10//15 8//16
f 9//17 11//18 12//19 10//20
f 11//21 13//22 14//23 12//24
f 13//25 15//26 16//27 14//28
f 15//29 17//30 18//31 16//32
f 17//33 19//34 20//35 18//36
f 19//37 21//38 22//39 20//40
f 21//41 23//42 24//43 22//44
f 23//45 25//46 26//47 24//48
f 25//49 27//50 28//51 26//52
f 27//53 29//54 30//55 28//56
f 29//57 31//58 32//59 30//60
f 31//61 33//62 34//63 32//64
f 33//65 35//66 36//67 34//68
f 35//69 37//70 38//71 36//72
f 37//73 39//74 40//75 38//76
f 39//77 41//78 42//79 40//80
f 41//81 43//82 44//83 42//84
f 43//85 45//86 46//87 44//88
f 45//89 47//90 48//91 46//92
f 47//93 49//94 50//95 48//96
f 49//97 51//98 52//99 50//100
f 51//101 53//102 54//103 52//104
f 53//105 55//106 56//107 54//108
f 55//109 57//110 58//111 56//112
f 57//113 1//114 4//115 58//116
f 1//117 57//118 55//119
f 1//120 55//121 53//122
f 1//123 53//124 51//125
f 1//126 51//127 49//128
f 1//129 49//130 47//131
f 1//132 47//133 45//134
f 1//135 45//136 43//137
f 1//138 43//139 41//140
f 1//141 41//142 39//143
f 1//144 39//145 37//146
f 1//147 37//148 35//149
f 1//150 35//151 33//152
f 1//153 33//154 31//155
f 1//156 31//157 29//158
f 1//159 29//160 27//161
f 1//162 27//163 25//164
f 1//165 25//166 23//167
f 1//168 23//169 21//170
f 1//171 21//172 19//173
f 1//174 19//175 17//176
f 1//177 17//178 15//179
f 1//180 15//181 13//182
f 1//183 13//184 11//185
f 1//186 11//187 9//188
f 1//189 9//190 7//191
f 1//192 7//193 5//194
f 5//195 2//196 1//197
f 56//198 58//199 4//200
f 54//201 56//202 4//203
f 52//204 54//205 4//206
f 50//207 52//208 4//209
f 48//210 50//211 4//212
f 46//213 48//214 4//215
f 44//216 46//217 4//218
f 42//219 44//220 4//221
f 40//222 42//223 4//224
f 38//225 40//226 4//227
f 36//228 38//229 4//230
f 34//231 36//232 4//233
f 32//234 34//235 4//236
f 30//237 32//238 4//239
f 28//240 30//241 4//242
f 26//243 28//244 4//245
f 24//246 26//247 4//248
f 22//249 24//250 4//251
f 20//252 22//253 4//254
f 18//255 20//256 4//257
f 16//258 18//259 4//260
f 14//261 16//262 4//263
f 12//264 14//265 4//266
f 10//267 12//268 4//269
f 8//270 10//271 4//272
f 6//273 8//274 4//275
f 4//276 3//277 6//278