o Ιu
v 0.336 2 -0.636
v 0.84 2 -0.636
v 0.84 0 -0.636
v 0.336 0 -0.636
v 1.08 2 -0.66899999999999993
v 1.08 0 -0.66899999999999993
v 1.182 2 -0.71025
v 1.182 0 -0.71025
v 1.272 2 -0.768
v 1.272 0 -0.768
v 1.35075 2 -0.85799999999999987
v 1.35075 0 -0.85799999999999987
v 1.407 2 -0.996
v 1.407 0 -0.996
v 1.44075 2 -1.182
v 1.44075 0 -1.182
v 1.452 2 -1.416
v 1.452 0 -1.416
v 1.452 2 -7.152
v 1.452 0 -7.152
v 1.4407500000000002 2 -7.386000000000001
v 1.4407500000000002 0 -7.386000000000001
v 1.407 2 -7.5719999999999992
v 1.407 0 -7.5719999999999992
v 1.3507500000000001 2 -7.7099999999999991
v 1.3507500000000001 0 -7.7099999999999991
v 1.272 2 -7.8
v 1.272 0 -7.8
v 1.1820000000000002 2 -7.8577500000000011
v 1.1820000000000002 0 -7.8577500000000011
v 1.08 2 -7.8990000000000009
v 1.08 0 -7.8990000000000009
v 0.84 2 -7.932
v 0.84 0 -7.932
v 0.336 2 -7.932
v 0.336 0 -7.932
v 0.336 2 -8.568
v 0.336 0 -8.568
v 4.476 2 -8.568
v 4.476 0 -8.568
v 4.476 2 -7.9319999999999995
v 4.476 0 -7.9319999999999995
v 3.972 2 -7.9319999999999995
v 3.972 0 -7.9319999999999995
v 3.729 2 -7.8989999999999991
v 3.729 0 -7.8989999999999991
v 3.528 2 -7.8
v 3.528 0 -7.8
v 3.4545000000000003 2 -7.7099999999999991
v 3.4545000000000003 0 -7.7099999999999991
v 3.402 2 -7.572
v 3.402 0 -7.572
v 3.3705 2 -7.386000000000001
v 3.3705 0 -7.386000000000001
v 3.36 2 -7.152
v 3.36 0 -7.152
v 3.36 2 -1.4160000000000004
v 3.36 0 -1.4160000000000004
v 3.3705 2 -1.1820000000000004
v 3.3705 0 -1.1820000000000004
v 3.4019999999999997 2 -0.99600000000000044
v 3.4019999999999997 0 -0.99600000000000044
v 3.4545 2 -0.85800000000000032
v 3.4545 0 -0.85800000000000032
v 3.528 2 -0.76800000000000035
v 3.528 0 -0.76800000000000035
v 3.7290000000000005 2 -0.66900000000000026
v 3.7290000000000005 0 -0.66900000000000026
v 3.972 2 -0.63600000000000034
v 3.972 0 -0.63600000000000034
v 4.476 2 -0.63600000000000034
v 4.476 0 -0.63600000000000034
v 4.476 2 0
v 4.476 0 0
v 0.336 2 0
v 0.336 0 0
vn 0 0 -0.504
vn 0 0 -0.504
vn 0 0 -0.504
vn 0 0 -0.504
vn 0 0 -0.17600000000000005
vn -0.074250000000000038 0 -0.34199999999999997
vn -0.074250000000000038 0 -0.34199999999999997
vn 0 0 -0.17600000000000005
vn -0.074250000000000038 0 -0.34199999999999997
vn -0.099000000000000088 0 -0.19199999999999995
vn -0.099000000000000088 0 -0.19199999999999995
vn -0.074250000000000038 0 -0.34199999999999997
vn -0.099000000000000088 0 -0.19199999999999995
vn -0.087999999999999967 0 -0.11199999999999988
vn -0.087999999999999967 0 -0.11199999999999988
vn -0.099000000000000088 0 -0.19199999999999995
vn -0.087999999999999967 0 -0.11999999999999989
vn -0.22799999999999998 0 -0.135
vn -0.22799999999999998 0 -0.135
vn -0.087999999999999967 0 -0.11999999999999989
vn -0.22799999999999998 0 -0.135
vn -0.32400000000000007 0 -0.09000000000000008
vn -0.32400000000000007 0 -0.09000000000000008
vn -0.22799999999999998 0 -0.135
vn -0.32400000000000007 0 -0.09000000000000008
vn -0.41999999999999993 0 -0.044999999999999929
vn -0.41999999999999993 0 -0.044999999999999929
vn -0.32400000000000007 0 -0.09000000000000008
vn -0.41999999999999993 0 -0.044999999999999929
vn -0.34399999999999986 0 0
vn -0.34399999999999986 0 0
vn -0.41999999999999993 0 -0.044999999999999929
vn -5.7360000000000007 0 0
vn -5.7360000000000007 0 0
vn -5.7360000000000007 0 0
vn -5.7360000000000007 0 0
vn -0.34400000000000031 0 0
vn -0.41999999999999904 0 0.044999999999999929
vn -0.41999999999999904 0 0.044999999999999929
vn -0.34400000000000031 0 0
vn -0.41999999999999904 0 0.044999999999999929
vn -0.32399999999999807 0 0.09000000000000008
vn -0.32399999999999807 0 0.09000000000000008
vn -0.41999999999999904 0 0.044999999999999929
vn -0.32399999999999807 0 0.09000000000000008
vn -0.22800000000000065 0 0.135
vn -0.22800000000000065 0 0.135
vn -0.32399999999999807 0 0.09000000000000008
vn -0.22800000000000065 0 0.135
vn -0.088000000000000078 0 0.11999999999999989
vn -0.088000000000000078 0 0.11999999999999989
vn -0.22800000000000065 0 0.135
vn -0.088000000000000078 0 0.11199999999999988
vn -0.099000000000001087 0 0.19199999999999995
vn -0.099000000000001087 0 0.19199999999999995
vn -0.088000000000000078 0 0.11199999999999988
vn -0.099000000000001087 0 0.19199999999999995
vn -0.074249999999999261 0 0.34200000000000019
vn -0.074249999999999261 0 0.34200000000000019
vn -0.099000000000001087 0 0.19199999999999995
vn -0.074249999999999261 0 0.34200000000000019
vn 0 0 0.17600000000000005
vn 0 0 0.17600000000000005
vn -0.074249999999999261 0 0.34200000000000019
vn 0 0 0.504
vn 0 0 0.504
vn 0 0 0.504
vn 0 0 0.504
vn -0.63599999999999923 0 0
vn -0.63599999999999923 0 0
vn -0.63599999999999923 0 0
vn -0.63599999999999923 0 0
vn 0 0 -4.14
vn 0 0 -4.14
vn 0 0 -4.14
vn 0 0 -4.14
vn 0.63600000000000012 0 0
vn 0.63600000000000012 0 0
vn 0.63600000000000012 0 0
vn 0.63600000000000012 0 0
vn 0 0 0.504
vn 0 0 0.504
vn 0 0 0.504
vn 0 0 0.504
vn 0 0 0.17599999999999971
vn 0.13199999999999967 0 0.44399999999999995
vn 0.13199999999999967 0 0.44399999999999995
vn 0 0 0.17599999999999971
vn 0.13199999999999967 0 0.44399999999999995
vn 0.088000000000000078 0 0.12000000000000011
vn 0.088000000000000078 0 0.12000000000000011
vn 0.13199999999999967 0 0.44399999999999995
vn 0.088000000000000078 0 0.1120000000000001
vn 0.22799999999999976 0 0.12599999999999989
vn 0.22799999999999976 0 0.12599999999999989
vn 0.088000000000000078 0 0.1120000000000001
vn 0.22799999999999976 0 0.12599999999999989
vn 0.32399999999999807 0 0.084000000000000519
vn 0.32399999999999807 0 0.084000000000000519
vn 0.22799999999999976 0 0.12599999999999989
vn 0.32399999999999807 0 0.084000000000000519
vn 0.41999999999999993 0 0.042000000000000259
vn 0.41999999999999993 0 0.042000000000000259
vn 0.32399999999999807 0 0.084000000000000519
vn 0.41999999999999993 0 0.042000000000000259
vn 0.34400000000000031 0 0
vn 0.34400000000000031 0 0
vn 0.41999999999999993 0 0.042000000000000259
vn 5.736 0 0
vn 5.736 0 0
vn 5.736 0 0
vn 5.736 0 0
vn 0.34400000000000008 0 0
vn 0.41999999999999993 0 -0.041999999999999815
vn 0.41999999999999993 0 -0.041999999999999815
vn 0.34400000000000008 0 0
vn 0.41999999999999993 0 -0.041999999999999815
vn 0.32400000000000007 0 -0.084000000000000075
vn 0.32400000000000007 0 -0.084000000000000075
vn 0.41999999999999993 0 -0.041999999999999815
vn 0.32400000000000007 0 -0.084000000000000075
vn 0.22800000000000009 0 -0.12600000000000033
vn 0.22800000000000009 0 -0.12600000000000033
vn 0.32400000000000007 0 -0.084000000000000075
vn 0.22800000000000009 0 -0.12600000000000033
vn 0.087999999999999967 0 -0.1120000000000001
vn 0.087999999999999967 0 -0.1120000000000001
vn 0.22800000000000009 0 -0.12600000000000033
vn 0.087999999999999967 0 -0.12000000000000011
vn 0.132 0 -0.44399999999999995
vn 0.132 0 -0.44399999999999995
vn 0.087999999999999967 0 -0.12000000000000011
vn 0.132 0 -0.44399999999999995
vn 0 0 -0.17599999999999971
vn 0 0 -0.17599999999999971
vn 0.132 0 -0.44399999999999995
vn 0 0 -0.504
vn 0 0 -0.504
vn 0 0 -0.504
vn 0 0 -0.504
vn 0.63600000000000034 0 0
vn 0.63600000000000034 0 0
vn 0.63600000000000034 0 0
vn 0.63600000000000034 0 0
vn 0 0 4.14
vn 0 0 4.14
vn 0 0 4.14
vn 0 0 4.14
vn -0.636 0 0
vn -0.636 0 0
vn -0.636 0 0
vn -0.636 0 0
vn 0 1 0
vn 0 1 0
vn 0 1 0
vn 0 1 0
vn 0 1 0
vn 0 1 0
vn 0 1 0
vn 0 1 0
vn 0 1 0
vn 0 1 0
vn 0 1 0
vn 0 1 0
vn 0 1 0
vn 0 1 0
vn 0 1 0
vn 0 1 0
vn 0 1 0
vn 0 1 0
vn 0 1 0
vn 0 1 0
vn 0 1 0
vn 0 1 0
vn 0 1 0
vn 0 1 0
vn 0 1 0
vn 0 1 0
vn 0 1 0
vn 0 1 0
vn 0 1 0
vn 0 1 0
vn 0 1 0
vn 0 1 0
vn 0 1 0
vn 0 1 0
vn 0 1 0
vn 0 1 0
vn 0 1 0
vn 0 1 0
vn 0 1 0
vn 0 1 0
vn 0 1 0
vn 0 1 0
vn 0 1 0
vn 0 1 0
vn 0 1 0
vn 0 1 0
vn 0 1 0
vn 0 1 0
vn 0 1 0
vn 0 1 0
vn 0 1 0
vn 0 1 0
vn 0 1 0
vn 0 1 0
vn 0 1 0
vn 0 1 0
vn 0 1 0
vn 0 1 0
vn 0 1 0
vn 0 1 0
vn 0 1 0
vn 0 1 0
vn 0 1 0
vn 0 1 0
vn 0 1 0
vn 0 1 0
vn 0 1 0
vn 0 1 0
vn 0 1 0
vn 0 1 0
vn 0 1 0
vn 0 1 0
vn 0 1 0
vn 0 1 0
vn 0 1 0
vn 0 1 0
vn 0 1 0
vn 0 1 0
vn 0 1 0
vn 0 1 0
vn 0 1 0
vn 0 1 0
vn 0 1 0
vn 0 1 0
vn 0 1 0
vn 0 1 0
vn 0 1 0
vn 0 1 0
vn 0 1 0
vn 0 1 0
vn 0 1 0
vn 0 1 0
vn 0 1 0
vn 0 1 0
vn 0 1 0
vn 0 1 0
vn 0 1 0
vn 0 1 0
vn 0 1 0
vn 0 1 0
vn 0 1 0
vn 0 1 0
vn 0 1 0
vn 0 1 0
vn 0 1 0
vn 0 1 0
vn 0 1 0
vn 0 1 0
vn 0 -1 0
vn 0 -1 0
vn 0 -1 0
vn 0 -1 0
vn 0 -1 0
vn 0 -1 0
vn 0 -1 0
vn 0 -1 0
vn 0 -1 0
vn 0 -1 0
vn 0 -1 0
vn 0 -1 0
vn 0 -1 0
vn 0 -1 0
vn 0 -1 0
vn 0 -1 0
vn 0 -1 0
vn 0 -1 0
vn 0 -1 0
vn 0 -1 0
vn 0 -1 0
vn 0 -1 0
vn 0 -1 0
vn 0 -1 0
vn 0 -1 0
vn 0 -1 0
vn 0 -1 0
vn 0 -1 0
vn 0 -1 0
vn 0 -1 0
vn 0 -1 0
vn 0 -1 0
vn 0 -1 0
vn 0 -1 0
vn 0 -1 0
vn 0 -1 0
vn 0 -1 0
vn 0 -1 0
vn 0 -1 0
vn 0 -1 0
vn 0 -1 0
vn 0 -1 0
vn 0 -1 0
vn 0 -1 0
vn 0 -1 0
vn 0 -1 0
vn 0 -1 0
vn 0 -1 0
vn 0 -1 0
vn 0 -1 0
vn 0 -1 0
vn 0 -1 0
vn 0 -1 0
vn 0 -1 0
vn 0 -1 0
vn 0 -1 0
vn 0 -1 0
vn 0 -1 0
vn 0 -1 0
vn 0 -1 0
vn 0 -1 0
vn 0 -1 0
vn 0 -1 0
vn 0 -1 0
vn 0 -1 0
vn 0 -1 0
vn 0 -1 0
vn 0 -1 0
vn 0 -1 0
vn 0 -1 0
vn 0 -1 0
vn 0 -1 0
vn 0 -1 0
vn 0 -1 0
vn 0 -1 0
vn 0 -1 0
vn 0 -1 0
vn 0 -1 0
vn 0 -1 0
vn 0 -1 0
vn 0 -1 0
vn 0 -1 0
vn 0 -1 0
vn 0 -1 0
vn 0 -1 0
vn 0 -1 0
vn 0 -1 0
vn 0 -1 0
vn 0 -1 0
vn 0 -1 0
vn 0 -1 0
vn 0 -1 0
vn 0 -1 0
vn 0 -1 0
vn 0 -1 0
vn 0 -1 0
vn 0 -1 0
vn 0 -1 0
vn 0 -1 0
vn 0 -1 0
vn 0 -1 0
vn 0 -1 0
vn 0 -1 0
vn 0 -1 0
vn 0 -1 0
vn 0 -1 0
vn 0 -1 0
vn 0 -1 0

g Ιu
f 1//1 2//2 3//3 4//4
f 2//5 5//6 6//7 3//8
f 5//9 7//10 8//11 6//12
f 7//13 9//14 10//15 8//16
f 9//17 11//18 12//19 10//20
f 11//21 13//22 14//23 12//24
f 13//25 15//26 16//27 14//28
f 15//29 17//30 18//31 16//32
f 17//33 19//34 20//35 18//36
f 19//37 21//38 22//39 20//40
f 21//41 23//42 24//43 22//44
f 23//45 25//46 26//47 24//48
f 25//49 27//50 28//51 26//52
f 27//53 29//54 30//55 28//56
f 29//57 31//58 32//59 30//60
f 31//61 33//62 34//63 32//64
f 33//65 35//66 36//67 34//68
f 35//69 37//70 38//71 36//72
f 37//73 39//74 40//75 38//76
f 39//77 41//78 42//79 40//80
f 41//81 43//82 44//83 42//84
f 43//85 45//86 46//87 44//88
f 45//89 47//90 48//91 46//92
f 47//93 49//94 50//95 48//96
f 49//97 51//98 52//99 50//100
f 51//101 53//102 54//103 52//104
f 53//105 55//106 56//107 54//108
f 55//109 57//110 58//111 56//112
f 57//113 59//114 60//115 58//116
f 59//117 61//118 62//119 60//120
f 61//121 63//122 64//123 62//124
f 63//125 65//126 66//127 64//128
f 65//129 67//130 68//131 66//132
f 67//133 69//134 70//135 68//136
f 69//137 71//138 72//139 70//140
f 71//141 73//142 74//143 72//144
f 73//145 75//146 76//147 74//148
f 75//149 1//150 4//151 76//152
f 1//153 75//154 73//155
f 73//156 71//157 69//158
f 73//159 69//160 67//161
f 73//162 67//163 65//164
f 43//165 41//166 39//167
f 45//168 43//169 39//170
f 47//171 45//172 39//173
f 47//174 39//175 37//176
f 49//177 47//178 37//179
f 51//180 49//181 37//182
f 53//183 51//184 37//185
f 55//186 53//187 37//188
f 37//189 35//190 33//191
f 37//192 33//193 31//194
f 55//195 37//196 31//197
f 55//198 31//199 29//200
f 55//201 29//202 27//203
f 55//204 27//205 25//206
f 55//207 25//208 23//209
f 57//210 55//211 23//212
f 59//213 57//214 23//215
f 61//216 59//217 23//218
f 61//219 23//220 21//221
f 61//222 21//223 19//224
f 61//225 19//226 17//227
f 63//228 61//229 17//230
f 65//231 63//232 17//233
f 73//234 65//235 17//236
f 73//237 17//238 15//239
f 73//240 15//241 13//242
f 73//243 13//244 11//245
f 73//246 11//247 9//248
f 73//249 9//250 7//251
f 73//252 7//253 5//254
f 73//255 5//256 2//257
f 73//258 2//259 1//260
f 74//261 76//262 4//263
f 70//264 72//265 74//266
f 68//267 70//268 74//269
f 66//270 68//271 74//272
f 40//273 42//274 44//275
f 40//276 44//277 46//278
f 40//279 46//280 48//281
f 38//282 40//283 48//284
f 38//285 48//286 50//287
f 38//288 50//289 52//290
f 38//291 52//292 54//293
f 38//294 54//295 56//296
f 34//297 36//298 38//299
f 32//300 34//301 38//302
f 32//303 38//304 56//305
f 30//306 32//307 56//308
f 28//309 30//310 56//311
f 26//312 28//313 56//314
f 24//315 26//316 56//317
f 24//318 56//319 58//320
f 24//321 58//322 60//323
f 24//324 60//325 62//326
f 22//327 24//328 62//329
f 20//330 22//331 62//332
f 18//333 20//334 62//335
f 18//336 62//337 64//338
f 18//339 64//340 66//341
f 18//342 66//343 74//344
f 16//345 18//346 74//347
f 14//348 16//349 74//350
f 12//351 14//352 74//353
f 10//354 12//355 74//356
f 8//357 10//358 74//359
f 6//360 8//361 74//362
f 3//363 6//364 74//365
f 4//366 3//367 74//368