o κc
v 1.2 2 -5.064
v 1.1909999999999998 2 -5.2155
v 1.1909999999999998 0 -5.2155
v 1.2 0 -5.064
v 1.1640000000000002 2 -5.346
v 1.1640000000000002 0 -5.346
v 1.119 2 -5.4555
v 1.119 0 -5.4555
v 1.056 2 -5.544
v 1.056 0 -5.544
v 0.897 2 -5.6729999999999992
v 0.897 0 -5.6729999999999992
v 0.708 2 -5.748
v 0.708 0 -5.748
v 0.52199999999999991 2 -5.784
v 0.52199999999999991 0 -5.784
v 0.348 2 -5.796
v 0.348 0 -5.796
v 0.204 2 -5.796
v 0.204 0 -5.796
v 0.204 2 -6.432
v 0.204 0 -6.432
v 3.024 2 -6.432
v 3.024 0 -6.432
v 3.024 2 -4.308
v 3.024 0 -4.308
v 3.012 2 -3.756
v 3.012 0 -3.756
v 2.976 2 -3.168
v 2.976 0 -3.168
v 2.964 2 -2.916
v 2.964 0 -2.916
v 3.9 2 -4.236
v 3.9 0 -4.236
v 4.41 2 -4.926
v 4.41 0 -4.926
v 4.86 2 -5.484
v 4.86 0 -5.484
v 5.0684999999999993 2 -5.7195000000000009
v 5.0684999999999993 0 -5.7195000000000009
v 5.2740000000000009 2 -5.9220000000000006
v 5.2740000000000009 0 -5.9220000000000006
v 5.4765 2 -6.0915
v 5.4765 0 -6.0915
v 5.676 2 -6.228
v 5.676 0 -6.228
v 5.8785000000000016 2 -6.33825
v 5.8785000000000016 0 -6.33825
v 6.09 2 -6.417
v 6.09 0 -6.417
v 6.3105 2 -6.46425
v 6.3105 0 -6.46425
v 6.54 2 -6.48
v 6.54 0 -6.48
v 6.7425000000000006 2 -6.4672500000000008
v 6.7425000000000006 0 -6.4672500000000008
v 6.918000000000001 2 -6.4290000000000012
v 6.918000000000001 0 -6.4290000000000012
v 7.0665 2 -6.3652500000000014
v 7.0665 0 -6.3652500000000014
v 7.188 2 -6.2760000000000007
v 7.188 0 -6.2760000000000007
v 7.28775 2 -6.1635000000000018
v 7.28775 0 -6.1635000000000018
v 7.3589999999999991 2 -6.0300000000000011
v 7.3589999999999991 0 -6.0300000000000011
v 7.40175 2 -5.8755000000000006
v 7.40175 0 -5.8755000000000006
v 7.4159999999999995 2 -5.7000000000000011
v 7.4159999999999995 0 -5.7000000000000011
v 7.38 2 -5.3760000000000012
v 7.38 0 -5.3760000000000012
v 7.296 2 -5.1000000000000014
v 7.296 0 -5.1000000000000014
v 7.1879999999999988 2 -5.1870000000000012
v 7.1879999999999988 0 -5.1870000000000012
v 7.032 2 -5.2560000000000011
v 7.032 0 -5.2560000000000011
v 6.825 2 -5.3100000000000014
v 6.825 0 -5.3100000000000014
v 6.564 2 -5.3280000000000012
v 6.564 0 -5.3280000000000012
v 6.2340000000000009 2 -5.2950000000000017
v 6.2340000000000009 0 -5.2950000000000017
v 5.892 2 -5.1960000000000015
v 5.892 0 -5.1960000000000015
v 5.718 2 -5.1060000000000016
v 5.718 0 -5.1060000000000016
v 5.5320000000000009 2 -4.9680000000000017
v 5.5320000000000009 0 -4.9680000000000017
v 5.334 2 -4.7820000000000018
v 5.334 0 -4.7820000000000018
v 5.1240000000000006 2 -4.5480000000000018
v 5.1240000000000006 0 -4.5480000000000018
v 4.668 2 -3.9960000000000018
v 4.668 0 -3.9960000000000018
v 6.348 2 -1.5720000000000018
v 6.348 0 -1.5720000000000018
v 6.678 2 -1.1625000000000019
v 6.678 0 -1.1625000000000019
v 6.996 2 -0.87000000000000177
v 6.996 0 -0.87000000000000177
v 7.1505 2 -0.76762500000000178
v 7.1505 0 -0.76762500000000178
v 7.302 2 -0.69450000000000167
v 7.302 0 -0.69450000000000167
v 7.4505 2 -0.65062500000000179
v 7.4505 0 -0.65062500000000179
v 7.596 2 -0.63600000000000179
v 7.596 0 -0.63600000000000179
v 7.632 2 -0.63600000000000179
v 7.632 0 -0.63600000000000179
v 7.632 2 0
v 7.632 0 0
v 7.464 2 0
v 7.464 0 0
v 6.348 2 -0.024
v 6.348 0 -0.024
v 5.9369999999999994 2 -0.075000000000000011
v 5.9369999999999994 0 -0.075000000000000011
v 5.592 2 -0.156
v 5.592 0 -0.156
v 5.298 2 -0.29100000000000004
v 5.298 0 -0.29100000000000004
v 5.04 2 -0.48
v 5.04 0 -0.48
v 4.8030000000000008 2 -0.73499999999999988
v 4.8030000000000008 0 -0.73499999999999988
v 4.572 2 -1.068
v 4.572 0 -1.068
v 3.624 2 -2.604
v 3.624 0 -2.604
v 3.024 2 -2.124
v 3.024 0 -2.124
v 3.024 2 0
v 3.024 0 0
v 1.2 2 0
v 1.2 0 0
vn -0.21600000000000019 0 0
vn -0.28200000000000003 0 0.03599999999999981
vn -0.28200000000000003 0 0.03599999999999981
vn -0.21600000000000019 0 0
vn -0.28200000000000003 0 0.03599999999999981
vn -0.24000000000000021 0 0.071999999999999842
vn -0.24000000000000021 0 0.071999999999999842
vn -0.28200000000000003 0 0.03599999999999981
vn -0.24000000000000021 0 0.071999999999999842
vn -0.19799999999999951 0 0.1080000000000001
vn -0.19799999999999951 0 0.1080000000000001
vn -0.24000000000000021 0 0.071999999999999842
vn -0.19799999999999951 0 0.1080000000000001
vn -0.10400000000000009 0 0.095999999999999863
vn -0.10400000000000009 0 0.095999999999999863
vn -0.19799999999999951 0 0.1080000000000001
vn -0.10400000000000009 0 0.095999999999999974
vn -0.20400000000000063 0 0.34800000000000009
vn -0.20400000000000063 0 0.34800000000000009
vn -0.10400000000000009 0 0.095999999999999974
vn -0.20400000000000063 0 0.34800000000000009
vn -0.032000000000000028 0 0.136
vn -0.032000000000000028 0 0.136
vn -0.20400000000000063 0 0.34800000000000009
vn -0.032000000000000028 0 0.128
vn -0.048000000000000043 0 0.36
vn -0.048000000000000043 0 0.36
vn -0.032000000000000028 0 0.128
vn -0.048000000000000043 0 0.36
vn 0 0 0.11200000000000004
vn 0 0 0.11200000000000004
vn -0.048000000000000043 0 0.36
vn 0 0 0.144
vn 0 0 0.144
vn 0 0 0.144
vn 0 0 0.144
vn -0.63600000000000012 0 0
vn -0.63600000000000012 0 0
vn -0.63600000000000012 0 0
vn -0.63600000000000012 0 0
vn 0 0 -2.82
vn 0 0 -2.82
vn 0 0 -2.82
vn 0 0 -2.82
vn 2.1240000000000006 0 0
vn 2.1240000000000006 0 0
vn 2.1240000000000006 0 0
vn 2.1240000000000006 0 0
vn 0.14400000000000013 0 0
vn 0.22399999999999976 0 0.0080000000000000071
vn 0.22399999999999976 0 0.0080000000000000071
vn 0.14400000000000013 0 0
vn 0.21599999999999975 0 0.0080000000000000071
vn 0.17599999999999971 0 0.016000000000000014
vn 0.17599999999999971 0 0.016000000000000014
vn 0.21599999999999975 0 0.0080000000000000071
vn 0.16800000000000015 0 0.0080000000000000071
vn 0 0 0
vn 0 0 0
vn 0.16800000000000015 0 0.0080000000000000071
vn -1.3199999999999998 0 -0.93599999999999994
vn -1.3199999999999998 0 -0.93599999999999994
vn -1.3199999999999998 0 -0.93599999999999994
vn -1.3199999999999998 0 -0.93599999999999994
vn -0.50400000000000045 0 -0.35999999999999988
vn -1.2480000000000002 0 -0.96000000000000041
vn -1.2480000000000002 0 -0.96000000000000041
vn -0.50400000000000045 0 -0.35999999999999988
vn -1.2480000000000002 0 -0.96000000000000041
vn -0.32800000000000029 0 -0.28000000000000025
vn -0.32800000000000029 0 -0.28000000000000025
vn -1.2480000000000002 0 -0.96000000000000041
vn -0.3360000000000003 0 -0.28000000000000025
vn -0.43800000000000061 0 -0.41400000000000059
vn -0.43800000000000061 0 -0.41400000000000059
vn -0.3360000000000003 0 -0.28000000000000025
vn -0.43800000000000061 0 -0.41400000000000059
vn -0.371999999999999 0 -0.40800000000000036
vn -0.371999999999999 0 -0.40800000000000036
vn -0.43800000000000061 0 -0.41400000000000059
vn -0.371999999999999 0 -0.40800000000000036
vn -0.30599999999999916 0 -0.40199999999999925
vn -0.30599999999999916 0 -0.40199999999999925
vn -0.371999999999999 0 -0.40800000000000036
vn -0.30599999999999916 0 -0.40199999999999925
vn -0.15999999999999925 0 -0.26400000000000023
vn -0.15999999999999925 0 -0.26400000000000023
vn -0.30599999999999916 0 -0.40199999999999925
vn -0.16800000000000015 0 -0.26400000000000023
vn -0.18900000000000006 0 -0.4139999999999997
vn -0.18900000000000006 0 -0.4139999999999997
vn -0.16800000000000015 0 -0.26400000000000023
vn -0.18900000000000006 0 -0.4139999999999997
vn -0.12599999999999945 0 -0.43199999999999861
vn -0.12599999999999945 0 -0.43199999999999861
vn -0.18900000000000006 0 -0.4139999999999997
vn -0.12599999999999945 0 -0.43199999999999861
vn -0.063000000000000611 0 -0.45000000000000018
vn -0.063000000000000611 0 -0.45000000000000018
vn -0.12599999999999945 0 -0.43199999999999861
vn -0.063000000000000611 0 -0.45000000000000018
vn 0 0 -0.31200000000000028
vn 0 0 -0.31200000000000028
vn -0.063000000000000611 0 -0.45000000000000018
vn 0 0 -0.28800000000000026
vn 0.050999999999999268 0 -0.378000000000001
vn 0.050999999999999268 0 -0.378000000000001
vn 0 0 -0.28800000000000026
vn 0.050999999999999268 0 -0.378000000000001
vn 0.10199999999999942 0 -0.32399999999999896
vn 0.10199999999999942 0 -0.32399999999999896
vn 0.050999999999999268 0 -0.378000000000001
vn 0.10199999999999942 0 -0.32399999999999896
vn 0.15300000000000047 0 -0.26999999999999869
vn 0.15300000000000047 0 -0.26999999999999869
vn 0.10199999999999942 0 -0.32399999999999896
vn 0.15300000000000047 0 -0.26999999999999869
vn 0.13600000000000012 0 -0.14399999999999924
vn 0.13600000000000012 0 -0.14399999999999924
vn 0.15300000000000047 0 -0.26999999999999869
vn 0.13600000000000012 0 -0.15200000000000014
vn 0.24599999999999955 0 -0.17099999999999938
vn 0.24599999999999955 0 -0.17099999999999938
vn 0.13600000000000012 0 -0.15200000000000014
vn 0.24599999999999955 0 -0.17099999999999938
vn 0.28800000000000114 0 -0.11399999999999988
vn 0.28800000000000114 0 -0.11399999999999988
vn 0.24599999999999955 0 -0.17099999999999938
vn 0.28800000000000114 0 -0.11399999999999988
vn 0.33000000000000007 0 -0.057000000000000384
vn 0.33000000000000007 0 -0.057000000000000384
vn 0.28800000000000114 0 -0.11399999999999988
vn 0.33000000000000007 0 -0.057000000000000384
vn 0.24800000000000022 0 0
vn 0.24800000000000022 0 0
vn 0.33000000000000007 0 -0.057000000000000384
vn 0.088000000000000078 0 0
vn 0.12800000000000011 0 0.024000000000000021
vn 0.12800000000000011 0 0.024000000000000021
vn 0.088000000000000078 0 0
vn 0.12000000000000011 0 0.024000000000000021
vn 0.064000000000000057 0 0.032000000000000028
vn 0.064000000000000057 0 0.032000000000000028
vn 0.12000000000000011 0 0.024000000000000021
vn -0.064000000000000057 0 0.05600000000000005
vn -0.15599999999999969 0 0.26400000000000023
vn -0.15599999999999969 0 0.26400000000000023
vn -0.064000000000000057 0 0.05600000000000005
vn -0.15599999999999969 0 0.26400000000000023
vn -0.040000000000000036 0 0.12000000000000011
vn -0.040000000000000036 0 0.12000000000000011
vn -0.15599999999999969 0 0.26400000000000023
vn -0.048000000000000043 0 0.12000000000000011
vn -0.072000000000000064 0 0.46799999999999997
vn -0.072000000000000064 0 0.46799999999999997
vn -0.048000000000000043 0 0.12000000000000011
vn -0.072000000000000064 0 0.46799999999999997
vn 0 0 0.19200000000000017
vn 0 0 0.19200000000000017
vn -0.072000000000000064 0 0.46799999999999997
vn 0 0 0.21600000000000019
vn 0.13199999999999967 0 0.67199999999999971
vn 0.13199999999999967 0 0.67199999999999971
vn 0 0 0.21600000000000019
vn 0.13199999999999967 0 0.67199999999999971
vn 0.088000000000000078 0 0.23200000000000021
vn 0.088000000000000078 0 0.23200000000000021
vn 0.13199999999999967 0 0.67199999999999971
vn 0.088000000000000078 0 0.2240000000000002
vn 0.22799999999999976 0 0.35999999999999943
vn 0.22799999999999976 0 0.35999999999999943
vn 0.088000000000000078 0 0.2240000000000002
vn 0.22799999999999976 0 0.35999999999999943
vn 0.32399999999999984 0 0.38400000000000034
vn 0.32399999999999984 0 0.38400000000000034
vn 0.22799999999999976 0 0.35999999999999943
vn 0.32399999999999984 0 0.38400000000000034
vn 0.41999999999999993 0 0.40800000000000036
vn 0.41999999999999993 0 0.40800000000000036
vn 0.32399999999999984 0 0.38400000000000034
vn 0.41999999999999993 0 0.40800000000000036
vn 0.34400000000000031 0 0.28799999999999937
vn 0.34400000000000031 0 0.28799999999999937
vn 0.41999999999999993 0 0.40800000000000036
vn 0.552 0 0.4560000000000004
vn 0.552 0 0.4560000000000004
vn 0.552 0 0.4560000000000004
vn 0.552 0 0.4560000000000004
vn 2.424 0 -1.6799999999999997
vn 2.424 0 -1.6799999999999997
vn 2.424 0 -1.6799999999999997
vn 2.424 0 -1.6799999999999997
vn 0.624 0 -0.44799999999999951
vn 0.70200000000000007 0 -0.64800000000000058
vn 0.70200000000000007 0 -0.64800000000000058
vn 0.624 0 -0.44799999999999951
vn 0.70200000000000007 0 -0.64800000000000058
vn 0.39487500000000009 0 -0.47250000000000014
vn 0.39487500000000009 0 -0.47250000000000014
vn 0.70200000000000007 0 -0.64800000000000058
vn 0.39487500000000009 0 -0.47250000000000014
vn 0.1755000000000001 0 -0.30599999999999916
vn 0.1755000000000001 0 -0.30599999999999916
vn 0.39487500000000009 0 -0.47250000000000014
vn 0.1755000000000001 0 -0.30599999999999916
vn 0.11699999999999999 0 -0.29999999999999982
vn 0.11699999999999999 0 -0.29999999999999982
vn 0.1755000000000001 0 -0.30599999999999916
vn 0.11699999999999999 0 -0.29999999999999982
vn 0.058499999999999885 0 -0.29400000000000048
vn 0.058499999999999885 0 -0.29400000000000048
vn 0.11699999999999999 0 -0.29999999999999982
vn 0.058499999999999885 0 -0.29400000000000048
vn 0 0 -0.38400000000000034
vn 0 0 -0.38400000000000034
vn 0.058499999999999885 0 -0.29400000000000048
vn 0 0 -0.035999999999999588
vn 0 0 -0.035999999999999588
vn 0 0 -0.035999999999999588
vn 0 0 -0.035999999999999588
vn 0.63600000000000179 0 0
vn 0.63600000000000179 0 0
vn 0.63600000000000179 0 0
vn 0.63600000000000179 0 0
vn 0 0 0.16799999999999926
vn 0 0 0.16799999999999926
vn 0 0 0.16799999999999926
vn 0 0 0.16799999999999926
vn 0 0 0.44000000000000039
vn -0.016 0 0.30400000000000027
vn -0.016 0 0.30400000000000027
vn 0 0 0.44000000000000039
vn -0.024 0 0.29600000000000026
vn -0.132 0 0.75600000000000023
vn -0.132 0 0.75600000000000023
vn -0.024 0 0.29600000000000026
vn -0.132 0 0.75600000000000023
vn -0.064 0 0.20800000000000019
vn -0.064 0 0.20800000000000019
vn -0.132 0 0.75600000000000023
vn -0.072000000000000008 0 0.2079999999999993
vn -0.32399999999999995 0 0.5519999999999996
vn -0.32399999999999995 0 0.5519999999999996
vn -0.072000000000000008 0 0.2079999999999993
vn -0.32399999999999995 0 0.5519999999999996
vn -0.14400000000000002 0 0.16000000000000014
vn -0.14400000000000002 0 0.16000000000000014
vn -0.32399999999999995 0 0.5519999999999996
vn -0.14400000000000002 0 0.16000000000000014
vn -0.58800000000000008 0 0.46799999999999997
vn -0.58800000000000008 0 0.46799999999999997
vn -0.14400000000000002 0 0.16000000000000014
vn -0.58800000000000008 0 0.46799999999999997
vn -0.24800000000000011 0 0.15200000000000014
vn -0.24800000000000011 0 0.15200000000000014
vn -0.58800000000000008 0 0.46799999999999997
vn -1.536 0 0.948
vn -1.536 0 0.948
vn -1.536 0 0.948
vn -1.536 0 0.948
vn 0.48 0 0.60000000000000009
vn 0.48 0 0.60000000000000009
vn 0.48 0 0.60000000000000009
vn 0.48 0 0.60000000000000009
vn 2.124 0 0
vn 2.124 0 0
vn 2.124 0 0
vn 2.124 0 0
vn 0 0 1.824
vn 0 0 1.824
vn 0 0 1.824
vn 0 0 1.824
vn -5.064 0 0
vn -5.064 0 0
vn -5.064 0 0
vn -5.064 0 0
vn 0 1 0
vn 0 1 0
vn 0 1 0
vn 0 1 0
vn 0 1 0
vn 0 1 0
vn 0 1 0
vn 0 1 0
vn 0 1 0
vn 0 1 0
vn 0 1 0
vn 0 1 0
vn 0 1 0
vn 0 1 0
vn 0 1 0
vn 0 1 0
vn 0 1 0
vn 0 1 0
vn 0 1 0
vn 0 1 0
vn 0 1 0
vn 0 1 0
vn 0 1 0
vn 0 1 0
vn 0 1 0
vn 0 1 0
vn 0 1 0
vn 0 1 0
vn 0 1 0
vn 0 1 0
vn 0 1 0
vn 0 1 0
vn 0 1 0
vn 0 1 0
vn 0 1 0
vn 0 1 0
vn 0 1 0
vn 0 1 0
vn 0 1 0
vn 0 1 0
vn 0 1 0
vn 0 1 0
vn 0 1 0
vn 0 1 0
vn 0 1 0
vn 0 1 0
vn 0 1 0
vn 0 1 0
vn 0 1 0
vn 0 1 0
vn 0 1 0
vn 0 1 0
vn 0 1 0
vn 0 1 0
vn 0 1 0
vn 0 1 0
vn 0 1 0
vn 0 1 0
vn 0 1 0
vn 0 1 0
vn 0 1 0
vn 0 1 0
vn 0 1 0
vn 0 1 0
vn 0 1 0
vn 0 1 0
vn 0 1 0
vn 0 1 0
vn 0 1 0
vn 0 1 0
vn 0 1 0
vn 0 1 0
vn 0 1 0
vn 0 1 0
vn 0 1 0
vn 0 1 0
vn 0 1 0
vn 0 1 0
vn 0 1 0
vn 0 1 0
vn 0 1 0
vn 0 1 0
vn 0 1 0
vn 0 1 0
vn 0 1 0
vn 0 1 0
vn 0 1 0
vn 0 1 0
vn 0 1 0
vn 0 1 0
vn 0 1 0
vn 0 1 0
vn 0 1 0
vn 0 1 0
vn 0 1 0
vn 0 1 0
vn 0 1 0
vn 0 1 0
vn 0 1 0
vn 0 1 0
vn 0 1 0
vn 0 1 0
vn 0 1 0
vn 0 1 0
vn 0 1 0
vn 0 1 0
vn 0 1 0
vn 0 1 0
vn 0 1 0
vn 0 1 0
vn 0 1 0
vn 0 1 0
vn 0 1 0
vn 0 1 0
vn 0 1 0
vn 0 1 0
vn 0 1 0
vn 0 1 0
vn 0 1 0
vn 0 1 0
vn 0 1 0
vn 0 1 0
vn 0 1 0
vn 0 1 0
vn 0 1 0
vn 0 1 0
vn 0 1 0
vn 0 1 0
vn 0 1 0
vn 0 1 0
vn 0 1 0
vn 0 1 0
vn 0 1 0
vn 0 1 0
vn 0 1 0
vn 0 1 0
vn 0 1 0
vn 0 1 0
vn 0 1 0
vn 0 1 0
vn 0 1 0
vn 0 1 0
vn 0 1 0
vn 0 1 0
vn 0 1 0
vn 0 1 0
vn 0 1 0
vn 0 1 0
vn 0 1 0
vn 0 1 0
vn 0 1 0
vn 0 1 0
vn 0 1 0
vn 0 1 0
vn 0 1 0
vn 0 1 0
vn 0 1 0
vn 0 1 0
vn 0 1 0
vn 0 1 0
vn 0 1 0
vn 0 1 0
vn 0 1 0
vn 0 1 0
vn 0 1 0
vn 0 1 0
vn 0 1 0
vn 0 1 0
vn 0 1 0
vn 0 1 0
vn 0 1 0
vn 0 1 0
vn 0 1 0
vn 0 1 0
vn 0 1 0
vn 0 1 0
vn 0 1 0
vn 0 1 0
vn 0 1 0
vn 0 1 0
vn 0 1 0
vn 0 1 0
vn 0 1 0
vn 0 1 0
vn 0 1 0
vn 0 1 0
vn 0 1 0
vn 0 1 0
vn 0 1 0
vn 0 1 0
vn 0 1 0
vn 0 1 0
vn 0 1 0
vn 0 1 0
vn 0 1 0
vn 0 1 0
vn 0 1 0
vn 0 1 0
vn 0 1 0
vn 0 1 0
vn 0 1 0
vn 0 -1 0
vn 0 -1 0
vn 0 -1 0
vn 0 -1 0
vn 0 -1 0
vn 0 -1 0
vn 0 -1 0
vn 0 -1 0
vn 0 -1 0
vn 0 -1 0
vn 0 -1 0
vn 0 -1 0
vn 0 -1 0
vn 0 -1 0
vn 0 -1 0
vn 0 -1 0
vn 0 -1 0
vn 0 -1 0
vn 0 -1 0
vn 0 -1 0
vn 0 -1 0
vn 0 -1 0
vn 0 -1 0
vn 0 -1 0
vn 0 -1 0
vn 0 -1 0
vn 0 -1 0
vn 0 -1 0
vn 0 -1 0
vn 0 -1 0
vn 0 -1 0
vn 0 -1 0
vn 0 -1 0
vn 0 -1 0
vn 0 -1 0
vn 0 -1 0
vn 0 -1 0
vn 0 -1 0
vn 0 -1 0
vn 0 -1 0
vn 0 -1 0
vn 0 -1 0
vn 0 -1 0
vn 0 -1 0
vn 0 -1 0
vn 0 -1 0
vn 0 -1 0
vn 0 -1 0
vn 0 -1 0
vn 0 -1 0
vn 0 -1 0
vn 0 -1 0
vn 0 -1 0
vn 0 -1 0
vn 0 -1 0
vn 0 -1 0
vn 0 -1 0
vn 0 -1 0
vn 0 -1 0
vn 0 -1 0
vn 0 -1 0
vn 0 -1 0
vn 0 -1 0
vn 0 -1 0
vn 0 -1 0
vn 0 -1 0
vn 0 -1 0
vn 0 -1 0
vn 0 -1 0
vn 0 -1 0
vn 0 -1 0
vn 0 -1 0
vn 0 -1 0
vn 0 -1 0
vn 0 -1 0
vn 0 -1 0
vn 0 -1 0
vn 0 -1 0
vn 0 -1 0
vn 0 -1 0
vn 0 -1 0
vn 0 -1 0
vn 0 -1 0
vn 0 -1 0
vn 0 -1 0
vn 0 -1 0
vn 0 -1 0
vn 0 -1 0
vn 0 -1 0
vn 0 -1 0
vn 0 -1 0
vn 0 -1 0
vn 0 -1 0
vn 0 -1 0
vn 0 -1 0
vn 0 -1 0
vn 0 -1 0
vn 0 -1 0
vn 0 -1 0
vn 0 -1 0
vn 0 -1 0
vn 0 -1 0
vn 0 -1 0
vn 0 -1 0
vn 0 -1 0
vn 0 -1 0
vn 0 -1 0
vn 0 -1 0
vn 0 -1 0
vn 0 -1 0
vn 0 -1 0
vn 0 -1 0
vn 0 -1 0
vn 0 -1 0
vn 0 -1 0
vn 0 -1 0
vn 0 -1 0
vn 0 -1 0
vn 0 -1 0
vn 0 -1 0
vn 0 -1 0
vn 0 -1 0
vn 0 -1 0
vn 0 -1 0
vn 0 -1 0
vn 0 -1 0
vn 0 -1 0
vn 0 -1 0
vn 0 -1 0
vn 0 -1 0
vn 0 -1 0
vn 0 -1 0
vn 0 -1 0
vn 0 -1 0
vn 0 -1 0
vn 0 -1 0
vn 0 -1 0
vn 0 -1 0
vn 0 -1 0
vn 0 -1 0
vn 0 -1 0
vn 0 -1 0
vn 0 -1 0
vn 0 -1 0
vn 0 -1 0
vn 0 -1 0
vn 0 -1 0
vn 0 -1 0
vn 0 -1 0
vn 0 -1 0
vn 0 -1 0
vn 0 -1 0
vn 0 -1 0
vn 0 -1 0
vn 0 -1 0
vn 0 -1 0
vn 0 -1 0
vn 0 -1 0
vn 0 -1 0
vn 0 -1 0
vn 0 -1 0
vn 0 -1 0
vn 0 -1 0
vn 0 -1 0
vn 0 -1 0
vn 0 -1 0
vn 0 -1 0
vn 0 -1 0
vn 0 -1 0
vn 0 -1 0
vn 0 -1 0
vn 0 -1 0
vn 0 -1 0
vn 0 -1 0
vn 0 -1 0
vn 0 -1 0
vn 0 -1 0
vn 0 -1 0
vn 0 -1 0
vn 0 -1 0
vn 0 -1 0
vn 0 -1 0
vn 0 -1 0
vn 0 -1 0
vn 0 -1 0
vn 0 -1 0
vn 0 -1 0
vn 0 -1 0
vn 0 -1 0
vn 0 -1 0
vn 0 -1 0
vn 0 -1 0
vn 0 -1 0
vn 0 -1 0
vn 0 -1 0
vn 0 -1 0
vn 0 -1 0
vn 0 -1 0
vn 0 -1 0
vn 0 -1 0
vn 0 -1 0

g κc
f 1//1 2//2 3//3 4//4
f 2//5 5//6 6//7 3//8
f 5//9 7//10 8//11 6//12
f 7//13 9//14 10//15 8//16
f 9//17 11//18 12//19 10//20
f 11//21 13//22 14//23 12//24
f 13//25 15//26 16//27 14//28
f 15//29 17//30 18//31 16//32
f 17//33 19//34 20//35 18//36
f 19//37 21//38 22//39 20//40
f 21//41 23//42 24//43 22//44
f 23//45 25//46 26//47 24//48
f 25//49 27//50 28//51 26//52
f 27//53 29//54 30//55 28//56
f 29//57 31//58 32//59 30//60
f 31//61 33//62 34//63 32//64
f 33//65 35//66 36//67 34//68
f 35//69 37//70 38//71 36//72
f 37//73 39//74 40//75 38//76
f 39//77 41//78 42//79 40//80
f 41//81 43//82 44//83 42//84
f 43//85 45//86 46//87 44//88
f 45//89 47//90 48//91 46//92
f 47//93 49//94 50//95 48//96
f 49//97 51//98 52//99 50//100
f 51//101 53//102 54//103 52//104
f 53//105 55//106 56//107 54//108
f 55//109 57//110 58//111 56//112
f 57//113 59//114 60//115 58//116
f 59//117 61//118 62//119 60//120
f 61//121 63//122 64//123 62//124
f 63//125 65//126 66//127 64//128
f 65//129 67//130 68//131 66//132
f 67//133 69//134 70//135 68//136
f 69//137 71//138 72//139 70//140
f 71//141 73//142 74//143 72//144
f 73//145 75//146 76//147 74//148
f 75//149 77//150 78//151 76//152
f 77//153 79//154 80//155 78//156
f 79//157 81//158 82//159 80//160
f 81//161 83//162 84//163 82//164
f 83//165 85//166 86//167 84//168
f 85//169 87//170 88//171 86//172
f 87//173 89//174 90//175 88//176
f 89//177 91//178 92//179 90//180
f 91//181 93//182 94//183 92//184
f 93//185 95//186 96//187 94//188
f 95//189 97//190 98//191 96//192
f 97//193 99//194 100//195 98//196
f 99//197 101//198 102//199 100//200
f 101//201 103//202 104//203 102//204
f 103//205 105//206 106//207 104//208
f 105//209 107//210 108//211 106//212
f 107//213 109//214 110//215 108//216
f 109//217 111//218 112//219 110//220
f 111//221 113//222 114//223 112//224
f 113//225 115//226 116//227 114//228
f 115//229 117//230 118//231 116//232
f 117//233 119//234 120//235 118//236
f 119//237 121//238 122//239 120//240
f 121//241 123//242 124//243 122//244
f 123//245 125//246 126//247 124//248
f 125//249 127//250 128//251 126//252
f 127//253 129//254 130//255 128//256
f 129//257 131//258 132//259 130//260
f 131//261 133//262 134//263 132//264
f 133//265 135//266 136//267 134//268
f 135//269 137//270 138//271 136//272
f 137//273 1//274 4//275 138//276
f 1//277 137//278 135//279
f 1//280 135//281 133//282
f 131//283 129//284 127//285
f 131//286 127//287 125//288
f 131//289 125//290 123//291
f 131//292 123//293 121//294
f 131//295 121//296 119//297
f 131//298 119//299 117//300
f 131//301 117//302 115//303
f 131//304 115//305 113//306
f 113//307 111//308 109//309
f 113//310 109//311 107//312
f 113//313 107//314 105//315
f 113//316 105//317 103//318
f 131//319 113//320 103//321
f 131//322 103//323 101//324
f 131//325 101//326 99//327
f 131//328 99//329 97//330
f 131//331 97//332 95//333
f 133//334 131//335 95//336
f 133//337 95//338 93//339
f 75//340 73//341 71//342
f 77//343 75//344 71//345
f 79//346 77//347 71//348
f 81//349 79//350 71//351
f 81//352 71//353 69//354
f 83//355 81//356 69//357
f 85//358 83//359 69//360
f 85//361 69//362 67//363
f 85//364 67//365 65//366
f 87//367 85//368 65//369
f 87//370 65//371 63//372
f 87//373 63//374 61//375
f 89//376 87//377 61//378
f 89//379 61//380 59//381
f 89//382 59//383 57//384
f 91//385 89//386 57//387
f 91//388 57//389 55//390
f 93//391 91//392 55//393
f 133//394 93//395 55//396
f 133//397 55//398 53//399
f 133//400 53//401 51//402
f 133//403 51//404 49//405
f 133//406 49//407 47//408
f 133//409 47//410 45//411
f 133//412 45//413 43//414
f 133//415 43//416 41//417
f 133//418 41//419 39//420
f 133//421 39//422 37//423
f 133//424 37//425 35//426
f 133//427 35//428 33//429
f 133//430 33//431 31//432
f 1//433 133//434 31//435
f 1//436 31//437 29//438
f 1//439 29//440 27//441
f 1//442 27//443 25//444
f 1//445 25//446 23//447
f 23//448 21//449 19//450
f 23//451 19//452 17//453
f 23//454 17//455 15//456
f 23//457 15//458 13//459
f 23//460 13//461 11//462
f 23//463 11//464 9//465
f 23//466 9//467 7//468
f 23//469 7//470 5//471
f 23//472 5//473 2//474
f 23//475 2//476 1//477
f 136//478 138//479 4//480
f 134//481 136//482 4//483
f 128//484 130//485 132//486
f 126//487 128//488 132//489
f 124//490 126//491 132//492
f 122//493 124//494 132//495
f 120//496 122//497 132//498
f 118//499 120//500 132//501
f 116//502 118//503 132//504
f 114//505 116//506 132//507
f 110//508 112//509 114//510
f 108//511 110//512 114//513
f 106//514 108//515 114//516
f 104//517 106//518 114//519
f 104//520 114//521 132//522
f 102//523 104//524 132//525
f 100//526 102//527 132//528
f 98//529 100//530 132//531
f 96//532 98//533 132//534
f 96//535 132//536 134//537
f 94//538 96//539 134//540
f 72//541 74//542 76//543
f 72//544 76//545 78//546
f 72//547 78//548 80//549
f 72//550 80//551 82//552
f 70//553 72//554 82//555
f 70//556 82//557 84//558
f 70//559 84//560 86//561
f 68//562 70//563 86//564
f 66//565 68//566 86//567
f 66//568 86//569 88//570
f 64//571 66//572 88//573
f 62//574 64//575 88//576
f 62//577 88//578 90//579
f 60//580 62//581 90//582
f 58//583 60//584 90//585
f 58//586 90//587 92//588
f 56//589 58//590 92//591
f 56//592 92//593 94//594
f 56//595 94//596 134//597
f 54//598 56//599 134//600
f 52//601 54//602 134//603
f 50//604 52//605 134//606
f 48//607 50//608 134//609
f 46//610 48//611 134//612
f 44//613 46//614 134//615
f 42//616 44//617 134//618
f 40//619 42//620 134//621
f 38//622 40//623 134//624
f 36//625 38//626 134//627
f 34//628 36//629 134//630
f 32//631 34//632 134//633
f 32//634 134//635 4//636
f 30//637 32//638 4//639
f 28//640 30//641 4//642
f 26//643 28//644 4//645
f 24//646 26//647 4//648
f 20//649 22//650 24//651
f 18//652 20//653 24//654
f 16//655 18//656 24//657
f 14//658 16//659 24//660
f 12//661 14//662 24//663
f 10//664 12//665 24//666
f 8//667 10//668 24//669
f 6//670 8//671 24//672
f 3//673 6//674 24//675
f 4//676 3//677 24//678