o Λu
v 0 2 -0.636
v 0.576 2 -0.636
v 0.576 0 -0.636
v 0 0 -0.636
v 0.65625 2 -0.64575
v 0.65625 0 -0.64575
v 0.72900000000000009 2 -0.675
v 0.72900000000000009 0 -0.675
v 0.852 2 -0.792
v 0.852 0 -0.792
v 0.981 2 -1.056
v 0.981 0 -1.056
v 1.152 2 -1.512
v 1.152 0 -1.512
v 3.6 2 -8.568
v 3.6 0 -8.568
v 4.8 2 -8.568
v 4.8 0 -8.568
v 7.356 2 -1.2119999999999997
v 7.356 0 -1.2119999999999997
v 7.4220000000000006 2 -1.0574999999999997
v 7.4220000000000006 0 -1.0574999999999997
v 7.5 2 -0.92999999999999972
v 7.5 0 -0.92999999999999972
v 7.59 2 -0.82949999999999968
v 7.59 0 -0.82949999999999968
v 7.692 2 -0.75599999999999978
v 7.692 0 -0.75599999999999978
v 7.908 2 -0.66599999999999981
v 7.908 0 -0.66599999999999981
v 8.1 2 -0.63599999999999979
v 8.1 0 -0.63599999999999979
v 8.376 2 -0.63599999999999979
v 8.376 0 -0.63599999999999979
v 8.376 2 0
v 8.376 0 0
v 4.4159999999999995 2 0
v 4.4159999999999995 0 0
v 4.4159999999999995 2 -0.636
v 4.4159999999999995 0 -0.636
v 4.968 2 -0.636
v 4.968 0 -0.636
v 5.13 2 -0.65699999999999992
v 5.13 0 -0.65699999999999992
v 5.28 2 -0.72
v 5.28 0 -0.72
v 5.3482499999999993 2 -0.77099999999999991
v 5.3482499999999993 0 -0.77099999999999991
v 5.397 2 -0.84000000000000008
v 5.397 0 -0.84000000000000008
v 5.42625 2 -0.927
v 5.42625 0 -0.927
v 5.436 2 -1.032
v 5.436 0 -1.032
v 5.4 2 -1.296
v 5.4 0 -1.296
v 5.328 2 -1.548
v 5.328 0 -1.548
v 4.104 2 -5.244
v 4.104 0 -5.244
v 3.912 2 -5.94
v 3.912 0 -5.94
v 3.822 2 -6.3449999999999989
v 3.822 0 -6.3449999999999989
v 3.768 2 -6.696
v 3.768 0 -6.696
v 3.672 2 -6.312
v 3.672 0 -6.312
v 3.528 2 -5.772
v 3.528 0 -5.772
v 3.372 2 -5.28
v 3.372 0 -5.28
v 2.136 2 -1.6320000000000001
v 2.136 0 -1.6320000000000001
v 2.04 2 -1.32
v 2.04 0 -1.32
v 1.992 2 -1.044
v 1.992 0 -1.044
v 2.025 2 -0.873
v 2.025 0 -0.873
v 2.124 2 -0.744
v 2.124 0 -0.744
v 2.2770000000000006 2 -0.66299999999999992
v 2.2770000000000006 0 -0.66299999999999992
v 2.472 2 -0.636
v 2.472 0 -0.636
v 3.096 2 -0.636
v 3.096 0 -0.636
v 3.096 2 0
v 3.096 0 0
v 0 2 0
v 0 0 0
vn 0 0 -0.576
vn 0 0 -0.576
vn 0 0 -0.576
vn 0 0 -0.576
vn 0 0 -0.11199999999999999
vn -0.039000000000000035 0 -0.15300000000000014
vn -0.039000000000000035 0 -0.15300000000000014
vn 0 0 -0.11199999999999999
vn -0.039000000000000035 0 -0.15300000000000014
vn -0.14625 0 -0.19574999999999998
vn -0.14625 0 -0.19574999999999998
vn -0.039000000000000035 0 -0.15300000000000014
vn -0.14625 0 -0.19574999999999998
vn -0.10399999999999998 0 -0.071999999999999953
vn -0.10399999999999998 0 -0.071999999999999953
vn -0.14625 0 -0.19574999999999998
vn -0.11199999999999999 0 -0.071999999999999953
vn -0.72 0 -0.29999999999999993
vn -0.72 0 -0.29999999999999993
vn -0.11199999999999999 0 -0.071999999999999953
vn -0.72 0 -0.29999999999999993
vn -0.36799999999999988 0 -0.12799999999999989
vn -0.36799999999999988 0 -0.12799999999999989
vn -0.72 0 -0.29999999999999993
vn -7.0559999999999992 0 -2.4480000000000004
vn -7.0559999999999992 0 -2.4480000000000004
vn -7.0559999999999992 0 -2.4480000000000004
vn -7.0559999999999992 0 -2.4480000000000004
vn 0 0 -1.1999999999999997
vn 0 0 -1.1999999999999997
vn 0 0 -1.1999999999999997
vn 0 0 -1.1999999999999997
vn 7.356 0 -2.556
vn 7.356 0 -2.556
vn 7.356 0 -2.556
vn 7.356 0 -2.556
vn 0.22400000000000009 0 -0.080000000000000071
vn 0.28200000000000003 0 -0.14400000000000013
vn 0.28200000000000003 0 -0.14400000000000013
vn 0.22400000000000009 0 -0.080000000000000071
vn 0.28200000000000003 0 -0.14400000000000013
vn 0.22799999999999998 0 -0.16799999999999926
vn 0.22799999999999998 0 -0.16799999999999926
vn 0.28200000000000003 0 -0.14400000000000013
vn 0.22799999999999998 0 -0.16799999999999926
vn 0.17399999999999993 0 -0.19200000000000017
vn 0.17399999999999993 0 -0.19200000000000017
vn 0.22799999999999998 0 -0.16799999999999926
vn 0.17399999999999993 0 -0.19200000000000017
vn 0.07999999999999996 0 -0.14400000000000013
vn 0.07999999999999996 0 -0.14400000000000013
vn 0.17399999999999993 0 -0.19200000000000017
vn 0.07999999999999996 0 -0.15200000000000014
vn 0.12 0 -0.40799999999999947
vn 0.12 0 -0.40799999999999947
vn 0.07999999999999996 0 -0.15200000000000014
vn 0.12 0 -0.40799999999999947
vn 0 0 -0.12000000000000011
vn 0 0 -0.12000000000000011
vn 0.12 0 -0.40799999999999947
vn 0 0 -0.2759999999999998
vn 0 0 -0.2759999999999998
vn 0 0 -0.2759999999999998
vn 0 0 -0.2759999999999998
vn 0.63599999999999979 0 0
vn 0.63599999999999979 0 0
vn 0.63599999999999979 0 0
vn 0.63599999999999979 0 0
vn 0 0 3.96
vn 0 0 3.96
vn 0 0 3.96
vn 0 0 3.96
vn -0.636 0 0
vn -0.636 0 0
vn -0.636 0 0
vn -0.636 0 0
vn 0 0 -0.55200000000000049
vn 0 0 -0.55200000000000049
vn 0 0 -0.55200000000000049
vn 0 0 -0.55200000000000049
vn 0 0 -0.1120000000000001
vn -0.083999999999999964 0 -0.31200000000000028
vn -0.083999999999999964 0 -0.31200000000000028
vn 0 0 -0.1120000000000001
vn -0.083999999999999964 0 -0.31200000000000028
vn -0.055999999999999939 0 -0.096000000000000085
vn -0.055999999999999939 0 -0.096000000000000085
vn -0.083999999999999964 0 -0.31200000000000028
vn -0.055999999999999939 0 -0.10400000000000009
vn -0.12000000000000011 0 -0.11699999999999999
vn -0.12000000000000011 0 -0.11699999999999999
vn -0.055999999999999939 0 -0.10400000000000009
vn -0.12000000000000011 0 -0.11699999999999999
vn -0.15600000000000014 0 -0.078000000000000291
vn -0.15600000000000014 0 -0.078000000000000291
vn -0.12000000000000011 0 -0.11699999999999999
vn -0.15600000000000014 0 -0.078000000000000291
vn -0.19199999999999995 0 -0.0389999999999997
vn -0.19199999999999995 0 -0.0389999999999997
vn -0.15600000000000014 0 -0.078000000000000291
vn -0.19199999999999995 0 -0.0389999999999997
vn -0.15200000000000002 0 0
vn -0.15200000000000002 0 0
vn -0.19199999999999995 0 -0.0389999999999997
vn -0.080000000000000071 0 0
vn -0.095999999999999863 0 0.024000000000000021
vn -0.095999999999999863 0 0.024000000000000021
vn -0.080000000000000071 0 0
vn -0.10399999999999987 0 0.024000000000000021
vn -0.064000000000000057 0 0.024000000000000021
vn -0.064000000000000057 0 0.024000000000000021
vn -0.10399999999999987 0 0.024000000000000021
vn -3.6959999999999997 0 1.2240000000000002
vn -3.6959999999999997 0 1.2240000000000002
vn -3.6959999999999997 0 1.2240000000000002
vn -3.6959999999999997 0 1.2240000000000002
vn -0.18400000000000016 0 0.05600000000000005
vn -0.28000000000000025 0 0.07199999999999962
vn -0.28000000000000025 0 0.07199999999999962
vn -0.18400000000000016 0 0.05600000000000005
vn -0.28799999999999937 0 0.072000000000000064
vn -0.75599999999999934 0 0.14400000000000013
vn -0.75599999999999934 0 0.14400000000000013
vn -0.28799999999999937 0 0.072000000000000064
vn -0.75599999999999934 0 0.14400000000000013
vn -0.21600000000000019 0 0.024000000000000021
vn -0.21600000000000019 0 0.024000000000000021
vn -0.75599999999999934 0 0.14400000000000013
vn 0.088000000000000078 0 0.01599999999999957
vn 0.16800000000000015 0 0.048000000000000043
vn 0.16800000000000015 0 0.048000000000000043
vn 0.088000000000000078 0 0.01599999999999957
vn 0.16800000000000015 0 0.040000000000000036
vn 0.19199999999999928 0 0.05600000000000005
vn 0.19199999999999928 0 0.05600000000000005
vn 0.16800000000000015 0 0.040000000000000036
vn 0.18400000000000016 0 0.05600000000000005
vn 0.14400000000000013 0 0.048000000000000043
vn 0.14400000000000013 0 0.048000000000000043
vn 0.18400000000000016 0 0.05600000000000005
vn 3.648 0 1.2359999999999998
vn 3.648 0 1.2359999999999998
vn 3.648 0 1.2359999999999998
vn 3.648 0 1.2359999999999998
vn 0.080000000000000071 0 0.032000000000000028
vn 0.12799999999999989 0 0.032000000000000028
vn 0.12799999999999989 0 0.032000000000000028
vn 0.080000000000000071 0 0.032000000000000028
vn 0.11999999999999989 0 0.032000000000000028
vn 0.064000000000000057 0 0
vn 0.064000000000000057 0 0
vn 0.11999999999999989 0 0.032000000000000028
vn 0.128 0 0
vn 0.30000000000000004 0 -0.13200000000000012
vn 0.30000000000000004 0 -0.13200000000000012
vn 0.128 0 0
vn 0.30000000000000004 0 -0.13200000000000012
vn 0.072000000000000064 0 -0.088000000000000078
vn 0.072000000000000064 0 -0.088000000000000078
vn 0.30000000000000004 0 -0.13200000000000012
vn 0.071999999999999953 0 -0.088000000000000078
vn 0.10799999999999999 0 -0.34799999999999986
vn 0.10799999999999999 0 -0.34799999999999986
vn 0.071999999999999953 0 -0.088000000000000078
vn 0.10799999999999999 0 -0.34799999999999986
vn 0 0 -0.14399999999999968
vn 0 0 -0.14399999999999968
vn 0.10799999999999999 0 -0.34799999999999986
vn 0 0 -0.62400000000000011
vn 0 0 -0.62400000000000011
vn 0 0 -0.62400000000000011
vn 0 0 -0.62400000000000011
vn 0.636 0 0
vn 0.636 0 0
vn 0.636 0 0
vn 0.636 0 0
vn 0 0 3.096
vn 0 0 3.096
vn 0 0 3.096
vn 0 0 3.096
vn -0.636 0 0
vn -0.636 0 0
vn -0.636 0 0
vn -0.636 0 0
vn 0 1 0
vn 0 1 0
vn 0 1 0
vn 0 1 0
vn 0 1 0
vn 0 1 0
vn 0 1 0
vn 0 1 0
vn 0 1 0
vn 0 1 0
vn 0 1 0
vn 0 1 0
vn 0 1 0
vn 0 1 0
vn 0 1 0
vn 0 1 0
vn 0 1 0
vn 0 1 0
vn 0 1 0
vn 0 1 0
vn 0 1 0
vn 0 1 0
vn 0 1 0
vn 0 1 0
vn 0 1 0
vn 0 1 0
vn 0 1 0
vn 0 1 0
vn 0 1 0
vn 0 1 0
vn 0 1 0
vn 0 1 0
vn 0 1 0
vn 0 1 0
vn 0 1 0
vn 0 1 0
vn 0 1 0
vn 0 1 0
vn 0 1 0
vn 0 1 0
vn 0 1 0
vn 0 1 0
vn 0 1 0
vn 0 1 0
vn 0 1 0
vn 0 1 0
vn 0 1 0
vn 0 1 0
vn 0 1 0
vn 0 1 0
vn 0 1 0
vn 0 1 0
vn 0 1 0
vn 0 1 0
vn 0 1 0
vn 0 1 0
vn 0 1 0
vn 0 1 0
vn 0 1 0
vn 0 1 0
vn 0 1 0
vn 0 1 0
vn 0 1 0
vn 0 1 0
vn 0 1 0
vn 0 1 0
vn 0 1 0
vn 0 1 0
vn 0 1 0
vn 0 1 0
vn 0 1 0
vn 0 1 0
vn 0 1 0
vn 0 1 0
vn 0 1 0
vn 0 1 0
vn 0 1 0
vn 0 1 0
vn 0 1 0
vn 0 1 0
vn 0 1 0
vn 0 1 0
vn 0 1 0
vn 0 1 0
vn 0 1 0
vn 0 1 0
vn 0 1 0
vn 0 1 0
vn 0 1 0
vn 0 1 0
vn 0 1 0
vn 0 1 0
vn 0 1 0
vn 0 1 0
vn 0 1 0
vn 0 1 0
vn 0 1 0
vn 0 1 0
vn 0 1 0
vn 0 1 0
vn 0 1 0
vn 0 1 0
vn 0 1 0
vn 0 1 0
vn 0 1 0
vn 0 1 0
vn 0 1 0
vn 0 1 0
vn 0 1 0
vn 0 1 0
vn 0 1 0
vn 0 1 0
vn 0 1 0
vn 0 1 0
vn 0 1 0
vn 0 1 0
vn 0 1 0
vn 0 1 0
vn 0 1 0
vn 0 1 0
vn 0 1 0
vn 0 1 0
vn 0 1 0
vn 0 1 0
vn 0 1 0
vn 0 1 0
vn 0 1 0
vn 0 1 0
vn 0 1 0
vn 0 1 0
vn 0 1 0
vn 0 1 0
vn 0 -1 0
vn 0 -1 0
vn 0 -1 0
vn 0 -1 0
vn 0 -1 0
vn 0 -1 0
vn 0 -1 0
vn 0 -1 0
vn 0 -1 0
vn 0 -1 0
vn 0 -1 0
vn 0 -1 0
vn 0 -1 0
vn 0 -1 0
vn 0 -1 0
vn 0 -1 0
vn 0 -1 0
vn 0 -1 0
vn 0 -1 0
vn 0 -1 0
vn 0 -1 0
vn 0 -1 0
vn 0 -1 0
vn 0 -1 0
vn 0 -1 0
vn 0 -1 0
vn 0 -1 0
vn 0 -1 0
vn 0 -1 0
vn 0 -1 0
vn 0 -1 0
vn 0 -1 0
vn 0 -1 0
vn 0 -1 0
vn 0 -1 0
vn 0 -1 0
vn 0 -1 0
vn 0 -1 0
vn 0 -1 0
vn 0 -1 0
vn 0 -1 0
vn 0 -1 0
vn 0 -1 0
vn 0 -1 0
vn 0 -1 0
vn 0 -1 0
vn 0 -1 0
vn 0 -1 0
vn 0 -1 0
vn 0 -1 0
vn 0 -1 0
vn 0 -1 0
vn 0 -1 0
vn 0 -1 0
vn 0 -1 0
vn 0 -1 0
vn 0 -1 0
vn 0 -1 0
vn 0 -1 0
vn 0 -1 0
vn 0 -1 0
vn 0 -1 0
vn 0 -1 0
vn 0 -1 0
vn 0 -1 0
vn 0 -1 0
vn 0 -1 0
vn 0 -1 0
vn 0 -1 0
vn 0 -1 0
vn 0 -1 0
vn 0 -1 0
vn 0 -1 0
vn 0 -1 0
vn 0 -1 0
vn 0 -1 0
vn 0 -1 0
vn 0 -1 0
vn 0 -1 0
vn 0 -1 0
vn 0 -1 0
vn 0 -1 0
vn 0 -1 0
vn 0 -1 0
vn 0 -1 0
vn 0 -1 0
vn 0 -1 0
vn 0 -1 0
vn 0 -1 0
vn 0 -1 0
vn 0 -1 0
vn 0 -1 0
vn 0 -1 0
vn 0 -1 0
vn 0 -1 0
vn 0 -1 0
vn 0 -1 0
vn 0 -1 0
vn 0 -1 0
vn 0 -1 0
vn 0 -1 0
vn 0 -1 0
vn 0 -1 0
vn 0 -1 0
vn 0 -1 0
vn 0 -1 0
vn 0 -1 0
vn 0 -1 0
vn 0 -1 0
vn 0 -1 0
vn 0 -1 0
vn 0 -1 0
vn 0 -1 0
vn 0 -1 0
vn 0 -1 0
vn 0 -1 0
vn 0 -1 0
vn 0 -1 0
vn 0 -1 0
vn 0 -1 0
vn 0 -1 0
vn 0 -1 0
vn 0 -1 0
vn 0 -1 0
vn 0 -1 0
vn 0 -1 0
vn 0 -1 0
vn 0 -1 0
vn 0 -1 0
vn 0 -1 0
vn 0 -1 0
vn 0 -1 0

g Λu
f 1//1 2//2 3//3 4//4
f 2//5 5//6 6//7 3//8
f 5//9 7//10 8//11 6//12
f 7//13 9//14 10//15 8//16
f 9//17 11//18 12//19 10//20
f 11//21 13//22 14//23 12//24
f 13//25 15//26 16//27 14//28
f 15//29 17//30 18//31 16//32
f 17//33 19//34 20//35 18//36
f 19//37 21//38 22//39 20//40
f 21//41 23//42 24//43 22//44
f 23//45 25//46 26//47 24//48
f 25//49 27//50 28//51 26//52
f 27//53 29//54 30//55 28//56
f 29//57 31//58 32//59 30//60
f 31//61 33//62 34//63 32//64
f 33//65 35//66 36//67 34//68
f 35//69 37//70 38//71 36//72
f 37//73 39//74 40//75 38//76
f 39//77 41//78 42//79 40//80
f 41//81 43//82 44//83 42//84
f 43//85 45//86 46//87 44//88
f 45//89 47//90 48//91 46//92
f 47//93 49//94 50//95 48//96
f 49//97 51//98 52//99 50//100
f 51//101 53//102 54//103 52//104
f 53//105 55//106 56//107 54//108
f 55//109 57//110 58//111 56//112
f 57//113 59//114 60//115 58//116
f 59//117 61//118 62//119 60//120
f 61//121 63//122 64//123 62//124
f 63//125 65//126 66//127 64//128
f 65//129 67//130 68//131 66//132
f 67//133 69//134 70//135 68//136
f 69//137 71//138 72//139 70//140
f 71//141 73//142 74//143 72//144
f 73//145 75//146 76//147 74//148
f 75//149 77//150 78//151 76//152
f 77//153 79//154 80//155 78//156
f 79//157 81//158 82//159 80//160
f 81//161 83//162 84//163 82//164
f 83//165 85//166 86//167 84//168
f 85//169 87//170 88//171 86//172
f 87//173 89//174 90//175 88//176
f 89//177 91//178 92//179 90//180
f 91//181 1//182 4//183 92//184
f 1//185 91//186 89//187
f 89//188 87//189 85//190
f 89//191 85//192 83//193
f 89//194 83//195 81//196
f 73//197 71//198 69//199
f 73//200 69//201 67//202
f 73//203 67//204 65//205
f 65//206 63//207 61//208
f 65//209 61//210 59//211
f 65//212 59//213 57//214
f 41//215 39//216 37//217
f 43//218 41//219 37//220
f 45//221 43//222 37//223
f 47//224 45//225 37//226
f 47//227 37//228 35//229
f 49//230 47//231 35//232
f 51//233 49//234 35//235
f 53//236 51//237 35//238
f 55//239 53//240 35//241
f 57//242 55//243 35//244
f 35//245 33//246 31//247
f 35//248 31//249 29//250
f 57//251 35//252 29//253
f 57//254 29//255 27//256
f 57//257 27//258 25//259
f 57//260 25//261 23//262
f 65//263 57//264 23//265
f 65//266 23//267 21//268
f 65//269 21//270 19//271
f 65//272 19//273 17//274
f 65//275 17//276 15//277
f 73//278 65//279 15//280
f 75//281 73//282 15//283
f 75//284 15//285 13//286
f 77//287 75//288 13//289
f 79//290 77//291 13//292
f 81//293 79//294 13//295
f 81//296 13//297 11//298
f 89//299 81//300 11//301
f 89//302 11//303 9//304
f 89//305 9//306 7//307
f 89//308 7//309 5//310
f 89//311 5//312 2//313
f 89//314 2//315 1//316
f 90//317 92//318 4//319
f 86//320 88//321 90//322
f 84//323 86//324 90//325
f 82//326 84//327 90//328
f 70//329 72//330 74//331
f 68//332 70//333 74//334
f 66//335 68//336 74//337
f 62//338 64//339 66//340
f 60//341 62//342 66//343
f 58//344 60//345 66//346
f 38//347 40//348 42//349
f 38//350 42//351 44//352
f 38//353 44//354 46//355
f 38//356 46//357 48//358
f 36//359 38//360 48//361
f 36//362 48//363 50//364
f 36//365 50//366 52//367
f 36//368 52//369 54//370
f 36//371 54//372 56//373
f 36//374 56//375 58//376
f 32//377 34//378 36//379
f 30//380 32//381 36//382
f 30//383 36//384 58//385
f 28//386 30//387 58//388
f 26//389 28//390 58//391
f 24//392 26//393 58//394
f 24//395 58//396 66//397
f 22//398 24//399 66//400
f 20//401 22//402 66//403
f 18//404 20//405 66//406
f 16//407 18//408 66//409
f 16//410 66//411 74//412
f 16//413 74//414 76//415
f 14//416 16//417 76//418
f 14//419 76//420 78//421
f 14//422 78//423 80//424
f 14//425 80//426 82//427
f 12//428 14//429 82//430
f 12//431 82//432 90//433
f 10//434 12//435 90//436
f 8//437 10//438 90//439
f 6//440 8//441 90//442
f 3//443 6//444 90//445
f 4//446 3//447 90//448