o Μu
v 0.336 2 -0.636
v 0.84 2 -0.636
v 0.84 0 -0.636
v 0.336 0 -0.636
v 1.074 2 -0.666
v 1.074 0 -0.666
v 1.272 2 -0.756
v 1.272 0 -0.756
v 1.35075 2 -0.83849999999999991
v 1.35075 0 -0.83849999999999991
v 1.407 2 -0.966
v 1.407 0 -0.966
v 1.44075 2 -1.1385
v 1.44075 0 -1.1385
v 1.452 2 -1.3559999999999999
v 1.452 0 -1.3559999999999999
v 1.452 2 -7.2
v 1.452 0 -7.2
v 1.4407500000000002 2 -7.4175
v 1.4407500000000002 0 -7.4175
v 1.407 2 -7.59
v 1.407 0 -7.59
v 1.3507500000000001 2 -7.7174999999999994
v 1.3507500000000001 0 -7.7174999999999994
v 1.272 2 -7.8
v 1.272 0 -7.8
v 1.074 2 -7.8990000000000009
v 1.074 0 -7.8990000000000009
v 0.84 2 -7.932
v 0.84 0 -7.932
v 0.336 2 -7.932
v 0.336 0 -7.932
v 0.336 2 -8.568
v 0.336 0 -8.568
v 3.792 2 -8.568
v 3.792 0 -8.568
v 5.784 2 -2.7719999999999994
v 5.784 0 -2.7719999999999994
v 7.692 2 -8.568
v 7.692 0 -8.568
v 11.088000000000001 2 -8.568
v 11.088000000000001 0 -8.568
v 11.088000000000001 2 -7.9319999999999995
v 11.088000000000001 0 -7.9319999999999995
v 10.584000000000001 2 -7.9319999999999995
v 10.584000000000001 0 -7.9319999999999995
v 10.341000000000001 2 -7.8989999999999991
v 10.341000000000001 0 -7.8989999999999991
v 10.14 2 -7.8
v 10.14 0 -7.8
v 10.066500000000001 2 -7.7099999999999991
v 10.066500000000001 0 -7.7099999999999991
v 10.014000000000003 2 -7.572
v 10.014000000000003 0 -7.572
v 9.9825000000000017 2 -7.386000000000001
v 9.9825000000000017 0 -7.386000000000001
v 9.9720000000000013 2 -7.152
v 9.9720000000000013 0 -7.152
v 9.9720000000000013 2 -1.4160000000000004
v 9.9720000000000013 0 -1.4160000000000004
v 9.9825 2 -1.1820000000000004
v 9.9825 0 -1.1820000000000004
v 10.014000000000001 2 -0.99600000000000044
v 10.014000000000001 0 -0.99600000000000044
v 10.066500000000001 2 -0.85800000000000032
v 10.066500000000001 0 -0.85800000000000032
v 10.14 2 -0.76800000000000035
v 10.14 0 -0.76800000000000035
v 10.341000000000001 2 -0.66900000000000026
v 10.341000000000001 0 -0.66900000000000026
v 10.584000000000001 2 -0.63600000000000034
v 10.584000000000001 0 -0.63600000000000034
v 11.088000000000001 2 -0.63600000000000034
v 11.088000000000001 0 -0.63600000000000034
v 11.088000000000001 2 0
v 11.088000000000001 0 0
v 7.2480000000000011 2 0
v 7.2480000000000011 0 0
v 7.2480000000000011 2 -0.636
v 7.2480000000000011 0 -0.636
v 7.3680000000000012 2 -0.636
v 7.3680000000000012 0 -0.636
v 7.7010000000000014 2 -0.663
v 7.7010000000000014 0 -0.663
v 7.8292500000000009 2 -0.69675
v 7.8292500000000009 0 -0.69675
v 7.9320000000000013 2 -0.744
v 7.9320000000000013 0 -0.744
v 8.016 2 -0.82425
v 8.016 0 -0.82425
v 8.076 2 -0.94500000000000006
v 8.076 0 -0.94500000000000006
v 8.1120000000000019 2 -1.10625
v 8.1120000000000019 0 -1.10625
v 8.124 2 -1.3079999999999998
v 8.124 0 -1.3079999999999998
v 8.124 2 -7.38
v 8.124 0 -7.38
v 5.7 2 0
v 5.7 0 0
v 4.884 2 0
v 4.884 0 0
v 2.352 2 -7.38
v 2.352 0 -7.38
v 2.352 2 -1.4159999999999995
v 2.352 0 -1.4159999999999995
v 2.36625 2 -1.1819999999999995
v 2.36625 0 -1.1819999999999995
v 2.409 2 -0.99599999999999944
v 2.409 0 -0.99599999999999944
v 2.48025 2 -0.85799999999999943
v 2.48025 0 -0.85799999999999943
v 2.58 2 -0.76799999999999946
v 2.58 0 -0.76799999999999946
v 2.71125 2 -0.7102499999999996
v 2.71125 0 -0.7102499999999996
v 2.865 2 -0.66899999999999937
v 2.865 0 -0.66899999999999937
v 3.24 2 -0.63599999999999945
v 3.24 0 -0.63599999999999945
v 3.312 2 -0.63599999999999945
v 3.312 0 -0.63599999999999945
v 3.312 2 0
v 3.312 0 0
v 0.336 2 0
v 0.336 0 0
vn 0 0 -0.504
vn 0 0 -0.504
vn 0 0 -0.504
vn 0 0 -0.504
vn 0 0 -0.16800000000000004
vn -0.12 0 -0.43200000000000005
vn -0.12 0 -0.43200000000000005
vn 0 0 -0.16800000000000004
vn -0.12 0 -0.43200000000000005
vn -0.07999999999999996 0 -0.11999999999999989
vn -0.07999999999999996 0 -0.11999999999999989
vn -0.12 0 -0.43200000000000005
vn -0.07999999999999996 0 -0.11999999999999989
vn -0.20999999999999996 0 -0.135
vn -0.20999999999999996 0 -0.135
vn -0.07999999999999996 0 -0.11999999999999989
vn -0.20999999999999996 0 -0.135
vn -0.30000000000000016 0 -0.09000000000000008
vn -0.30000000000000016 0 -0.09000000000000008
vn -0.20999999999999996 0 -0.135
vn -0.30000000000000016 0 -0.09000000000000008
vn -0.3899999999999999 0 -0.044999999999999929
vn -0.3899999999999999 0 -0.044999999999999929
vn -0.30000000000000016 0 -0.09000000000000008
vn -0.3899999999999999 0 -0.044999999999999929
vn -0.31999999999999984 0 0
vn -0.31999999999999984 0 0
vn -0.3899999999999999 0 -0.044999999999999929
vn -5.844 0 0
vn -5.844 0 0
vn -5.844 0 0
vn -5.844 0 0
vn -0.3199999999999994 0 0
vn -0.38999999999999968 0 0.044999999999999929
vn -0.38999999999999968 0 0.044999999999999929
vn -0.3199999999999994 0 0
vn -0.38999999999999968 0 0.044999999999999929
vn -0.29999999999999893 0 0.09000000000000008
vn -0.29999999999999893 0 0.09000000000000008
vn -0.38999999999999968 0 0.044999999999999929
vn -0.29999999999999893 0 0.09000000000000008
vn -0.20999999999999996 0 0.135
vn -0.20999999999999996 0 0.135
vn -0.29999999999999893 0 0.09000000000000008
vn -0.20999999999999996 0 0.135
vn -0.080000000000000071 0 0.11999999999999989
vn -0.080000000000000071 0 0.11999999999999989
vn -0.20999999999999996 0 0.135
vn -0.088000000000000078 0 0.11999999999999989
vn -0.13200000000000056 0 0.43200000000000005
vn -0.13200000000000056 0 0.43200000000000005
vn -0.088000000000000078 0 0.11999999999999989
vn -0.13200000000000056 0 0.43200000000000005
vn 0 0 0.16800000000000004
vn 0 0 0.16800000000000004
vn -0.13200000000000056 0 0.43200000000000005
vn 0 0 0.504
vn 0 0 0.504
vn 0 0 0.504
vn 0 0 0.504
vn -0.63599999999999923 0 0
vn -0.63599999999999923 0 0
vn -0.63599999999999923 0 0
vn -0.63599999999999923 0 0
vn 0 0 -3.456
vn 0 0 -3.456
vn 0 0 -3.456
vn 0 0 -3.456
vn 5.796 0 -1.992
vn 5.796 0 -1.992
vn 5.796 0 -1.992
vn 5.796 0 -1.992
vn -5.796 0 -1.9080000000000004
vn -5.796 0 -1.9080000000000004
vn -5.796 0 -1.9080000000000004
vn -5.796 0 -1.9080000000000004
vn 0 0 -3.3960000000000008
vn 0 0 -3.3960000000000008
vn 0 0 -3.3960000000000008
vn 0 0 -3.3960000000000008
vn 0.63600000000000012 0 0
vn 0.63600000000000012 0 0
vn 0.63600000000000012 0 0
vn 0.63600000000000012 0 0
vn 0 0 0.50399999999999956
vn 0 0 0.50399999999999956
vn 0 0 0.50399999999999956
vn 0 0 0.50399999999999956
vn 0 0 0.17600000000000016
vn 0.13199999999999967 0 0.44400000000000084
vn 0.13199999999999967 0 0.44400000000000084
vn 0 0 0.17600000000000016
vn 0.13199999999999967 0 0.44400000000000084
vn 0.088000000000000078 0 0.120000000000001
vn 0.088000000000000078 0 0.120000000000001
vn 0.13199999999999967 0 0.44400000000000084
vn 0.088000000000000078 0 0.1120000000000001
vn 0.22799999999999976 0 0.12599999999999767
vn 0.22799999999999976 0 0.12599999999999767
vn 0.088000000000000078 0 0.1120000000000001
vn 0.22799999999999976 0 0.12599999999999767
vn 0.32399999999999807 0 0.083999999999999631
vn 0.32399999999999807 0 0.083999999999999631
vn 0.22799999999999976 0 0.12599999999999767
vn 0.32399999999999807 0 0.083999999999999631
vn 0.41999999999999993 0 0.042000000000001592
vn 0.41999999999999993 0 0.042000000000001592
vn 0.32399999999999807 0 0.083999999999999631
vn 0.41999999999999993 0 0.042000000000001592
vn 0.34400000000000031 0 0
vn 0.34400000000000031 0 0
vn 0.41999999999999993 0 0.042000000000001592
vn 5.736 0 0
vn 5.736 0 0
vn 5.736 0 0
vn 5.736 0 0
vn 0.34400000000000008 0 0
vn 0.41999999999999993 0 -0.041999999999999815
vn 0.41999999999999993 0 -0.041999999999999815
vn 0.34400000000000008 0 0
vn 0.41999999999999993 0 -0.041999999999999815
vn 0.32400000000000007 0 -0.0840000000000014
vn 0.32400000000000007 0 -0.0840000000000014
vn 0.41999999999999993 0 -0.041999999999999815
vn 0.32400000000000007 0 -0.0840000000000014
vn 0.22800000000000009 0 -0.12599999999999945
vn 0.22800000000000009 0 -0.12599999999999945
vn 0.32400000000000007 0 -0.0840000000000014
vn 0.22800000000000009 0 -0.12599999999999945
vn 0.087999999999999967 0 -0.1120000000000001
vn 0.087999999999999967 0 -0.1120000000000001
vn 0.22800000000000009 0 -0.12599999999999945
vn 0.087999999999999967 0 -0.11999999999999922
vn 0.132 0 -0.44400000000000084
vn 0.132 0 -0.44400000000000084
vn 0.087999999999999967 0 -0.11999999999999922
vn 0.132 0 -0.44400000000000084
vn 0 0 -0.17600000000000016
vn 0 0 -0.17600000000000016
vn 0.132 0 -0.44400000000000084
vn 0 0 -0.50399999999999956
vn 0 0 -0.50399999999999956
vn 0 0 -0.50399999999999956
vn 0 0 -0.50399999999999956
vn 0.63600000000000034 0 0
vn 0.63600000000000034 0 0
vn 0.63600000000000034 0 0
vn 0.63600000000000034 0 0
vn 0 0 3.84
vn 0 0 3.84
vn 0 0 3.84
vn 0 0 3.84
vn -0.636 0 0
vn -0.636 0 0
vn -0.636 0 0
vn -0.636 0 0
vn 0 0 -0.12000000000000011
vn 0 0 -0.12000000000000011
vn 0 0 -0.12000000000000011
vn 0 0 -0.12000000000000011
vn 0 0 -0.25600000000000023
vn -0.060749999999999971 0 -0.46124999999999972
vn -0.060749999999999971 0 -0.46124999999999972
vn 0 0 -0.25600000000000023
vn -0.060749999999999971 0 -0.46124999999999972
vn -0.080999999999999961 0 -0.23099999999999987
vn -0.080999999999999961 0 -0.23099999999999987
vn -0.060749999999999971 0 -0.46124999999999972
vn -0.080999999999999961 0 -0.23099999999999987
vn -0.071999999999999953 0 -0.12000000000000011
vn -0.071999999999999953 0 -0.12000000000000011
vn -0.080999999999999961 0 -0.23099999999999987
vn -0.07999999999999996 0 -0.12799999999999923
vn -0.20100000000000007 0 -0.14399999999999924
vn -0.20100000000000007 0 -0.14399999999999924
vn -0.07999999999999996 0 -0.12799999999999923
vn -0.20100000000000007 0 -0.14399999999999924
vn -0.28199999999999992 0 -0.096000000000001862
vn -0.28199999999999992 0 -0.096000000000001862
vn -0.20100000000000007 0 -0.14399999999999924
vn -0.28199999999999992 0 -0.096000000000001862
vn -0.36299999999999977 0 -0.048000000000000043
vn -0.36299999999999977 0 -0.048000000000000043
vn -0.28199999999999992 0 -0.096000000000001862
vn -0.36299999999999977 0 -0.048000000000000043
vn -0.29599999999999982 0 0
vn -0.29599999999999982 0 0
vn -0.36299999999999977 0 -0.048000000000000043
vn -6.072 0 0
vn -6.072 0 0
vn -6.072 0 0
vn -6.072 0 0
vn 7.38 0 2.4240000000000004
vn 7.38 0 2.4240000000000004
vn 7.38 0 2.4240000000000004
vn 7.38 0 2.4240000000000004
vn 0 0 0.81599999999999984
vn 0 0 0.81599999999999984
vn 0 0 0.81599999999999984
vn 0 0 0.81599999999999984
vn -7.38 0 2.5320000000000005
vn -7.38 0 2.5320000000000005
vn -7.38 0 2.5320000000000005
vn -7.38 0 2.5320000000000005
vn 5.964 0 0
vn 5.964 0 0
vn 5.964 0 0
vn 5.964 0 0
vn 0.34400000000000008 0 0
vn 0.42000000000000004 0 -0.05699999999999994
vn 0.42000000000000004 0 -0.05699999999999994
vn 0.34400000000000008 0 0
vn 0.42000000000000004 0 -0.05699999999999994
vn 0.32400000000000007 0 -0.11399999999999988
vn 0.32400000000000007 0 -0.11399999999999988
vn 0.42000000000000004 0 -0.05699999999999994
vn 0.32400000000000007 0 -0.11399999999999988
vn 0.22799999999999998 0 -0.17100000000000026
vn 0.22799999999999998 0 -0.17100000000000026
vn 0.32400000000000007 0 -0.11399999999999988
vn 0.22799999999999998 0 -0.17100000000000026
vn 0.087999999999999967 0 -0.15200000000000014
vn 0.087999999999999967 0 -0.15200000000000014
vn 0.22799999999999998 0 -0.17100000000000026
vn 0.087999999999999967 0 -0.16000000000000014
vn 0.099000000000000088 0 -0.28500000000000014
vn 0.099000000000000088 0 -0.28500000000000014
vn 0.087999999999999967 0 -0.16000000000000014
vn 0.099000000000000088 0 -0.28500000000000014
vn 0.074250000000000149 0 -0.52875
vn 0.074250000000000149 0 -0.52875
vn 0.099000000000000088 0 -0.28500000000000014
vn 0.074250000000000149 0 -0.52875
vn 0 0 -0.2799999999999998
vn 0 0 -0.2799999999999998
vn 0.074250000000000149 0 -0.52875
vn 0 0 -0.07199999999999962
vn 0 0 -0.07199999999999962
vn 0 0 -0.07199999999999962
vn 0 0 -0.07199999999999962
vn 0.63599999999999945 0 0
vn 0.63599999999999945 0 0
vn 0.63599999999999945 0 0
vn 0.63599999999999945 0 0
vn 0 0 2.976
vn 0 0 2.976
vn 0 0 2.976
vn 0 0 2.976
vn -0.636 0 0
vn -0.636 0 0
vn -0.636 0 0
vn -0.636 0 0
vn 0 1 0
vn 0 1 0
vn 0 1 0
vn 0 1 0
vn 0 1 0
vn 0 1 0
vn 0 1 0
vn 0 1 0
vn 0 1 0
vn 0 1 0
vn 0 1 0
vn 0 1 0
vn 0 1 0
vn 0 1 0
vn 0 1 0
vn 0 1 0
vn 0 1 0
vn 0 1 0
vn 0 1 0
vn 0 1 0
vn 0 1 0
vn 0 1 0
vn 0 1 0
vn 0 1 0
vn 0 1 0
vn 0 1 0
vn 0 1 0
vn 0 1 0
vn 0 1 0
vn 0 1 0
vn 0 1 0
vn 0 1 0
vn 0 1 0
vn 0 1 0
vn 0 1 0
vn 0 1 0
vn 0 1 0
vn 0 1 0
vn 0 1 0
vn 0 1 0
vn 0 1 0
vn 0 1 0
vn 0 1 0
vn 0 1 0
vn 0 1 0
vn 0 1 0
vn 0 1 0
vn 0 1 0
vn 0 1 0
vn 0 1 0
vn 0 1 0
vn 0 1 0
vn 0 1 0
vn 0 1 0
vn 0 1 0
vn 0 1 0
vn 0 1 0
vn 0 1 0
vn 0 1 0
vn 0 1 0
vn 0 1 0
vn 0 1 0
vn 0 1 0
vn 0 1 0
vn 0 1 0
vn 0 1 0
vn 0 1 0
vn 0 1 0
vn 0 1 0
vn 0 1 0
vn 0 1 0
vn 0 1 0
vn 0 1 0
vn 0 1 0
vn 0 1 0
vn 0 1 0
vn 0 1 0
vn 0 1 0
vn 0 1 0
vn 0 1 0
vn 0 1 0
vn 0 1 0
vn 0 1 0
vn 0 1 0
vn 0 1 0
vn 0 1 0
vn 0 1 0
vn 0 1 0
vn 0 1 0
vn 0 1 0
vn 0 1 0
vn 0 1 0
vn 0 1 0
vn 0 1 0
vn 0 1 0
vn 0 1 0
vn 0 1 0
vn 0 1 0
vn 0 1 0
vn 0 1 0
vn 0 1 0
vn 0 1 0
vn 0 1 0
vn 0 1 0
vn 0 1 0
vn 0 1 0
vn 0 1 0
vn 0 1 0
vn 0 1 0
vn 0 1 0
vn 0 1 0
vn 0 1 0
vn 0 1 0
vn 0 1 0
vn 0 1 0
vn 0 1 0
vn 0 1 0
vn 0 1 0
vn 0 1 0
vn 0 1 0
vn 0 1 0
vn 0 1 0
vn 0 1 0
vn 0 1 0
vn 0 1 0
vn 0 1 0
vn 0 1 0
vn 0 1 0
vn 0 1 0
vn 0 1 0
vn 0 1 0
vn 0 1 0
vn 0 1 0
vn 0 1 0
vn 0 1 0
vn 0 1 0
vn 0 1 0
vn 0 1 0
vn 0 1 0
vn 0 1 0
vn 0 1 0
vn 0 1 0
vn 0 1 0
vn 0 1 0
vn 0 1 0
vn 0 1 0
vn 0 1 0
vn 0 1 0
vn 0 1 0
vn 0 1 0
vn 0 1 0
vn 0 1 0
vn 0 1 0
vn 0 1 0
vn 0 1 0
vn 0 1 0
vn 0 1 0
vn 0 1 0
vn 0 1 0
vn 0 1 0
vn 0 1 0
vn 0 1 0
vn 0 1 0
vn 0 1 0
vn 0 1 0
vn 0 1 0
vn 0 1 0
vn 0 1 0
vn 0 1 0
vn 0 1 0
vn 0 1 0
vn 0 1 0
vn 0 1 0
vn 0 1 0
vn 0 1 0
vn 0 1 0
vn 0 1 0
vn 0 1 0
vn 0 1 0
vn 0 1 0
vn 0 1 0
vn 0 1 0
vn 0 1 0
vn 0 -1 0
vn 0 -1 0
vn 0 -1 0
vn 0 -1 0
vn 0 -1 0
vn 0 -1 0
vn 0 -1 0
vn 0 -1 0
vn 0 -1 0
vn 0 -1 0
vn 0 -1 0
vn 0 -1 0
vn 0 -1 0
vn 0 -1 0
vn 0 -1 0
vn 0 -1 0
vn 0 -1 0
vn 0 -1 0
vn 0 -1 0
vn 0 -1 0
vn 0 -1 0
vn 0 -1 0
vn 0 -1 0
vn 0 -1 0
vn 0 -1 0
vn 0 -1 0
vn 0 -1 0
vn 0 -1 0
vn 0 -1 0
vn 0 -1 0
vn 0 -1 0
vn 0 -1 0
vn 0 -1 0
vn 0 -1 0
vn 0 -1 0
vn 0 -1 0
vn 0 -1 0
vn 0 -1 0
vn 0 -1 0
vn 0 -1 0
vn 0 -1 0
vn 0 -1 0
vn 0 -1 0
vn 0 -1 0
vn 0 -1 0
vn 0 -1 0
vn 0 -1 0
vn 0 -1 0
vn 0 -1 0
vn 0 -1 0
vn 0 -1 0
vn 0 -1 0
vn 0 -1 0
vn 0 -1 0
vn 0 -1 0
vn 0 -1 0
vn 0 -1 0
vn 0 -1 0
vn 0 -1 0
vn 0 -1 0
vn 0 -1 0
vn 0 -1 0
vn 0 -1 0
vn 0 -1 0
vn 0 -1 0
vn 0 -1 0
vn 0 -1 0
vn 0 -1 0
vn 0 -1 0
vn 0 -1 0
vn 0 -1 0
vn 0 -1 0
vn 0 -1 0
vn 0 -1 0
vn 0 -1 0
vn 0 -1 0
vn 0 -1 0
vn 0 -1 0
vn 0 -1 0
vn 0 -1 0
vn 0 -1 0
vn 0 -1 0
vn 0 -1 0
vn 0 -1 0
vn 0 -1 0
vn 0 -1 0
vn 0 -1 0
vn 0 -1 0
vn 0 -1 0
vn 0 -1 0
vn 0 -1 0
vn 0 -1 0
vn 0 -1 0
vn 0 -1 0
vn 0 -1 0
vn 0 -1 0
vn 0 -1 0
vn 0 -1 0
vn 0 -1 0
vn 0 -1 0
vn 0 -1 0
vn 0 -1 0
vn 0 -1 0
vn 0 -1 0
vn 0 -1 0
vn 0 -1 0
vn 0 -1 0
vn 0 -1 0
vn 0 -1 0
vn 0 -1 0
vn 0 -1 0
vn 0 -1 0
vn 0 -1 0
vn 0 -1 0
vn 0 -1 0
vn 0 -1 0
vn 0 -1 0
vn 0 -1 0
vn 0 -1 0
vn 0 -1 0
vn 0 -1 0
vn 0 -1 0
vn 0 -1 0
vn 0 -1 0
vn 0 -1 0
vn 0 -1 0
vn 0 -1 0
vn 0 -1 0
vn 0 -1 0
vn 0 -1 0
vn 0 -1 0
vn 0 -1 0
vn 0 -1 0
vn 0 -1 0
vn 0 -1 0
vn 0 -1 0
vn 0 -1 0
vn 0 -1 0
vn 0 -1 0
vn 0 -1 0
vn 0 -1 0
vn 0 -1 0
vn 0 -1 0
vn 0 -1 0
vn 0 -1 0
vn 0 -1 0
vn 0 -1 0
vn 0 -1 0
vn 0 -1 0
vn 0 -1 0
vn 0 -1 0
vn 0 -1 0
vn 0 -1 0
vn 0 -1 0
vn 0 -1 0
vn 0 -1 0
vn 0 -1 0
vn 0 -1 0
vn 0 -1 0
vn 0 -1 0
vn 0 -1 0
vn 0 -1 0
vn 0 -1 0
vn 0 -1 0
vn 0 -1 0
vn 0 -1 0
vn 0 -1 0
vn 0 -1 0
vn 0 -1 0
vn 0 -1 0
vn 0 -1 0
vn 0 -1 0
vn 0 -1 0
vn 0 -1 0
vn 0 -1 0
vn 0 -1 0
vn 0 -1 0
vn 0 -1 0
vn 0 -1 0
vn 0 -1 0
vn 0 -1 0
vn 0 -1 0
vn 0 -1 0

g Μu
f 1//1 2//2 3//3 4//4
f 2//5 5//6 6//7 3//8
f 5//9 7//10 8//11 6//12
f 7//13 9//14 10//15 8//16
f 9//17 11//18 12//19 10//20
f 11//21 13//22 14//23 12//24
f 13//25 15//26 16//27 14//28
f 15//29 17//30 18//31 16//32
f 17//33 19//34 20//35 18//36
f 19//37 21//38 22//39 20//40
f 21//41 23//42 24//43 22//44
f 23//45 25//46 26//47 24//48
f 25//49 27//50 28//51 26//52
f 27//53 29//54 30//55 28//56
f 29//57 31//58 32//59 30//60
f 31//61 33//62 34//63 32//64
f 33//65 35//66 36//67 34//68
f 35//69 37//70 38//71 36//72
f 37//73 39//74 40//75 38//76
f 39//77 41//78 42//79 40//80
f 41//81 43//82 44//83 42//84
f 43//85 45//86 46//87 44//88
f 45//89 47//90 48//91 46//92
f 47//93 49//94 50//95 48//96
f 49//97 51//98 52//99 50//100
f 51//101 53//102 54//103 52//104
f 53//105 55//106 56//107 54//108
f 55//109 57//110 58//111 56//112
f 57//113 59//114 60//115 58//116
f 59//117 61//118 62//119 60//120
f 61//121 63//122 64//123 62//124
f 63//125 65//126 66//127 64//128
f 65//129 67//130 68//131 66//132
f 67//133 69//134 70//135 68//136
f 69//137 71//138 72//139 70//140
f 71//141 73//142 74//143 72//144
f 73//145 75//146 76//147 74//148
f 75//149 77//150 78//151 76//152
f 77//153 79//154 80//155 78//156
f 79//157 81//158 82//159 80//160
f 81//161 83//162 84//163 82//164
f 83//165 85//166 86//167 84//168
f 85//169 87//170 88//171 86//172
f 87//173 89//174 90//175 88//176
f 89//177 91//178 92//179 90//180
f 91//181 93//182 94//183 92//184
f 93//185 95//186 96//187 94//188
f 95//189 97//190 98//191 96//192
f 97//193 99//194 100//195 98//196
f 99//197 101//198 102//199 100//200
f 101//201 103//202 104//203 102//204
f 103//205 105//206 106//207 104//208
f 105//209 107//210 108//211 106//212
f 107//213 109//214 110//215 108//216
f 109//217 111//218 112//219 110//220
f 111//221 113//222 114//223 112//224
f 113//225 115//226 116//227 114//228
f 115//229 117//230 118//231 116//232
f 117//233 119//234 120//235 118//236
f 119//237 121//238 122//239 120//240
f 121//241 123//242 124//243 122//244
f 123//245 125//246 126//247 124//248
f 125//249 1//250 4//251 126//252
f 1//253 125//254 123//255
f 123//256 121//257 119//258
f 1//259 123//260 119//261
f 103//262 101//263 99//264
f 81//265 79//266 77//267
f 83//268 81//269 77//270
f 85//271 83//272 77//273
f 87//274 85//275 77//276
f 89//277 87//278 77//279
f 89//280 77//281 75//282
f 91//283 89//284 75//285
f 93//286 91//287 75//288
f 95//289 93//290 75//291
f 75//292 73//293 71//294
f 75//295 71//296 69//297
f 95//298 75//299 69//300
f 95//301 69//302 67//303
f 95//304 67//305 65//306
f 95//307 65//308 63//309
f 97//310 95//311 63//312
f 97//313 63//314 61//315
f 97//316 61//317 59//318
f 97//319 59//320 57//321
f 97//322 57//323 55//324
f 97//325 55//326 53//327
f 97//328 53//329 51//330
f 97//331 51//332 49//333
f 97//334 49//335 47//336
f 45//337 43//338 41//339
f 47//340 45//341 41//342
f 97//343 47//344 41//345
f 97//346 41//347 39//348
f 99//349 97//350 39//351
f 99//352 39//353 37//354
f 103//355 99//356 37//357
f 103//358 37//359 35//360
f 103//361 35//362 33//363
f 33//364 31//365 29//366
f 33//367 29//368 27//369
f 103//370 33//371 27//372
f 103//373 27//374 25//375
f 103//376 25//377 23//378
f 103//379 23//380 21//381
f 103//382 21//383 19//384
f 105//385 103//386 19//387
f 107//388 105//389 19//390
f 107//391 19//392 17//393
f 107//394 17//395 15//396
f 109//397 107//398 15//399
f 111//400 109//401 15//402
f 113//403 111//404 15//405
f 113//406 15//407 13//408
f 115//409 113//410 13//411
f 115//412 13//413 11//414
f 117//415 115//416 11//417
f 117//418 11//419 9//420
f 117//421 9//422 7//423
f 119//424 117//425 7//426
f 119//427 7//428 5//429
f 119//430 5//431 2//432
f 119//433 2//434 1//435
f 124//436 126//437 4//438
f 120//439 122//440 124//441
f 120//442 124//443 4//444
f 100//445 102//446 104//447
f 78//448 80//449 82//450
f 78//451 82//452 84//453
f 78//454 84//455 86//456
f 78//457 86//458 88//459
f 78//460 88//461 90//462
f 76//463 78//464 90//465
f 76//466 90//467 92//468
f 76//469 92//470 94//471
f 76//472 94//473 96//474
f 72//475 74//476 76//477
f 70//478 72//479 76//480
f 70//481 76//482 96//483
f 68//484 70//485 96//486
f 66//487 68//488 96//489
f 64//490 66//491 96//492
f 64//493 96//494 98//495
f 62//496 64//497 98//498
f 60//499 62//500 98//501
f 58//502 60//503 98//504
f 56//505 58//506 98//507
f 54//508 56//509 98//510
f 52//511 54//512 98//513
f 50//514 52//515 98//516
f 48//517 50//518 98//519
f 42//520 44//521 46//522
f 42//523 46//524 48//525
f 42//526 48//527 98//528
f 40//529 42//530 98//531
f 40//532 98//533 100//534
f 38//535 40//536 100//537
f 38//538 100//539 104//540
f 36//541 38//542 104//543
f 34//544 36//545 104//546
f 30//547 32//548 34//549
f 28//550 30//551 34//552
f 28//553 34//554 104//555
f 26//556 28//557 104//558
f 24//559 26//560 104//561
f 22//562 24//563 104//564
f 20//565 22//566 104//567
f 20//568 104//569 106//570
f 20//571 106//572 108//573
f 18//574 20//575 108//576
f 16//577 18//578 108//579
f 16//580 108//581 110//582
f 16//583 110//584 112//585
f 16//586 112//587 114//588
f 14//589 16//590 114//591
f 14//592 114//593 116//594
f 12//595 14//596 116//597
f 12//598 116//599 118//600
f 10//601 12//602 118//603
f 8//604 10//605 118//606
f 8//607 118//608 120//609
f 6//610 8//611 120//612
f 3//613 6//614 120//615
f 4//616 3//617 120//618