o Îu
v 0.336 2 -0.636
v 0.84 2 -0.636
v 0.84 0 -0.636
v 0.336 0 -0.636
v 1.074 2 -0.66899999999999993
v 1.074 0 -0.66899999999999993
v 1.272 2 -0.768
v 1.272 0 -0.768
v 1.35075 2 -0.85799999999999987
v 1.35075 0 -0.85799999999999987
v 1.407 2 -0.996
v 1.407 0 -0.996
v 1.44075 2 -1.182
v 1.44075 0 -1.182
v 1.452 2 -1.416
v 1.452 0 -1.416
v 1.452 2 -7.2
v 1.452 0 -7.2
v 1.4400000000000002 2 -7.4175
v 1.4400000000000002 0 -7.4175
v 1.404 2 -7.59
v 1.404 0 -7.59
v 1.3439999999999999 2 -7.7174999999999994
v 1.3439999999999999 0 -7.7174999999999994
v 1.26 2 -7.8
v 1.26 0 -7.8
v 1.0650000000000002 2 -7.8990000000000009
v 1.0650000000000002 0 -7.8990000000000009
v 0.84 2 -7.932
v 0.84 0 -7.932
v 0.336 2 -7.932
v 0.336 0 -7.932
v 0.336 2 -8.568
v 0.336 0 -8.568
v 3 2 -8.568
v 3 0 -8.568
v 7.236 2 -2.58
v 7.236 0 -2.58
v 7.236 2 -7.2
v 7.236 0 -7.2
v 7.2239999999999993 2 -7.4175
v 7.2239999999999993 0 -7.4175
v 7.1879999999999988 2 -7.59
v 7.1879999999999988 0 -7.59
v 7.128 2 -7.7174999999999994
v 7.128 0 -7.7174999999999994
v 7.044 2 -7.8
v 7.044 0 -7.8
v 6.849 2 -7.8990000000000009
v 6.849 0 -7.8990000000000009
v 6.624 2 -7.9319999999999995
v 6.624 0 -7.9319999999999995
v 6.12 2 -7.9319999999999995
v 6.12 0 -7.9319999999999995
v 6.12 2 -8.568
v 6.12 0 -8.568
v 9.252 2 -8.568
v 9.252 0 -8.568
v 9.252 2 -7.9319999999999995
v 9.252 0 -7.9319999999999995
v 8.748 2 -7.9319999999999995
v 8.748 0 -7.9319999999999995
v 8.5139999999999976 2 -7.8989999999999991
v 8.5139999999999976 0 -7.8989999999999991
v 8.3159999999999989 2 -7.8
v 8.3159999999999989 0 -7.8
v 8.23725 2 -7.7099999999999991
v 8.23725 0 -7.7099999999999991
v 8.181 2 -7.572
v 8.181 0 -7.572
v 8.14725 2 -7.386000000000001
v 8.14725 0 -7.386000000000001
v 8.136 2 -7.152
v 8.136 0 -7.152
v 8.136 2 0
v 8.136 0 0
v 7.032 2 0
v 7.032 0 0
v 2.3520000000000003 2 -6.612
v 2.3520000000000003 0 -6.612
v 2.3520000000000003 2 -1.4160000000000004
v 2.3520000000000003 0 -1.4160000000000004
v 2.3632500000000003 2 -1.1820000000000004
v 2.3632500000000003 0 -1.1820000000000004
v 2.3970000000000002 2 -0.99600000000000044
v 2.3970000000000002 0 -0.99600000000000044
v 2.4532500000000006 2 -0.85800000000000032
v 2.4532500000000006 0 -0.85800000000000032
v 2.5320000000000005 2 -0.76800000000000035
v 2.5320000000000005 0 -0.76800000000000035
v 2.7300000000000004 2 -0.66900000000000026
v 2.7300000000000004 0 -0.66900000000000026
v 2.9640000000000004 2 -0.63600000000000034
v 2.9640000000000004 0 -0.63600000000000034
v 3.468 2 -0.63600000000000034
v 3.468 0 -0.63600000000000034
v 3.468 2 0
v 3.468 0 0
v 0.336 2 0
v 0.336 0 0
vn 0 0 -0.504
vn 0 0 -0.504
vn 0 0 -0.504
vn 0 0 -0.504
vn 0 0 -0.16800000000000004
vn -0.132 0 -0.43200000000000005
vn -0.132 0 -0.43200000000000005
vn 0 0 -0.16800000000000004
vn -0.132 0 -0.43200000000000005
vn -0.087999999999999967 0 -0.11999999999999989
vn -0.087999999999999967 0 -0.11999999999999989
vn -0.132 0 -0.43200000000000005
vn -0.087999999999999967 0 -0.11999999999999989
vn -0.22799999999999998 0 -0.135
vn -0.22799999999999998 0 -0.135
vn -0.087999999999999967 0 -0.11999999999999989
vn -0.22799999999999998 0 -0.135
vn -0.32400000000000007 0 -0.09000000000000008
vn -0.32400000000000007 0 -0.09000000000000008
vn -0.22799999999999998 0 -0.135
vn -0.32400000000000007 0 -0.09000000000000008
vn -0.41999999999999993 0 -0.044999999999999929
vn -0.41999999999999993 0 -0.044999999999999929
vn -0.32400000000000007 0 -0.09000000000000008
vn -0.41999999999999993 0 -0.044999999999999929
vn -0.34399999999999986 0 0
vn -0.34399999999999986 0 0
vn -0.41999999999999993 0 -0.044999999999999929
vn -5.7840000000000007 0 0
vn -5.7840000000000007 0 0
vn -5.7840000000000007 0 0
vn -5.7840000000000007 0 0
vn -0.3199999999999994 0 0
vn -0.38999999999999968 0 0.048000000000000043
vn -0.38999999999999968 0 0.048000000000000043
vn -0.3199999999999994 0 0
vn -0.38999999999999968 0 0.048000000000000043
vn -0.29999999999999893 0 0.096000000000000307
vn -0.29999999999999893 0 0.096000000000000307
vn -0.38999999999999968 0 0.048000000000000043
vn -0.29999999999999893 0 0.096000000000000307
vn -0.20999999999999996 0 0.14399999999999991
vn -0.20999999999999996 0 0.14399999999999991
vn -0.29999999999999893 0 0.096000000000000307
vn -0.20999999999999996 0 0.14399999999999991
vn -0.080000000000000071 0 0.12799999999999989
vn -0.080000000000000071 0 0.12799999999999989
vn -0.20999999999999996 0 0.14399999999999991
vn -0.088000000000000078 0 0.11999999999999989
vn -0.13200000000000056 0 0.42000000000000004
vn -0.13200000000000056 0 0.42000000000000004
vn -0.088000000000000078 0 0.11999999999999989
vn -0.13200000000000056 0 0.42000000000000004
vn 0 0 0.16000000000000003
vn 0 0 0.16000000000000003
vn -0.13200000000000056 0 0.42000000000000004
vn 0 0 0.504
vn 0 0 0.504
vn 0 0 0.504
vn 0 0 0.504
vn -0.63599999999999923 0 0
vn -0.63599999999999923 0 0
vn -0.63599999999999923 0 0
vn -0.63599999999999923 0 0
vn 0 0 -2.664
vn 0 0 -2.664
vn 0 0 -2.664
vn 0 0 -2.664
vn 5.9879999999999995 0 -4.236
vn 5.9879999999999995 0 -4.236
vn 5.9879999999999995 0 -4.236
vn 5.9879999999999995 0 -4.236
vn -4.62 0 0
vn -4.62 0 0
vn -4.62 0 0
vn -4.62 0 0
vn -0.3199999999999994 0 0
vn -0.38999999999999968 0 0.048000000000000931
vn -0.38999999999999968 0 0.048000000000000931
vn -0.3199999999999994 0 0
vn -0.38999999999999968 0 0.048000000000000931
vn -0.29999999999999893 0 0.0959999999999992
vn -0.29999999999999893 0 0.0959999999999992
vn -0.38999999999999968 0 0.048000000000000931
vn -0.29999999999999893 0 0.0959999999999992
vn -0.20999999999999996 0 0.14399999999999924
vn -0.20999999999999996 0 0.14399999999999924
vn -0.29999999999999893 0 0.0959999999999992
vn -0.20999999999999996 0 0.14399999999999924
vn -0.080000000000000071 0 0.12800000000000011
vn -0.080000000000000071 0 0.12800000000000011
vn -0.20999999999999996 0 0.14399999999999924
vn -0.088000000000000078 0 0.12000000000000011
vn -0.13199999999999967 0 0.41999999999999993
vn -0.13199999999999967 0 0.41999999999999993
vn -0.088000000000000078 0 0.12000000000000011
vn -0.13199999999999967 0 0.41999999999999993
vn 0 0 0.16000000000000014
vn 0 0 0.16000000000000014
vn -0.13199999999999967 0 0.41999999999999993
vn 0 0 0.50399999999999956
vn 0 0 0.50399999999999956
vn 0 0 0.50399999999999956
vn 0 0 0.50399999999999956
vn -0.63600000000000012 0 0
vn -0.63600000000000012 0 0
vn -0.63600000000000012 0 0
vn -0.63600000000000012 0 0
vn 0 0 -3.1320000000000006
vn 0 0 -3.1320000000000006
vn 0 0 -3.1320000000000006
vn 0 0 -3.1320000000000006
vn 0.63600000000000012 0 0
vn 0.63600000000000012 0 0
vn 0.63600000000000012 0 0
vn 0.63600000000000012 0 0
vn 0 0 0.50400000000000134
vn 0 0 0.50400000000000134
vn 0 0 0.50400000000000134
vn 0 0 0.50400000000000134
vn 0 0 0.16800000000000104
vn 0.13199999999999967 0 0.43200000000000038
vn 0.13199999999999967 0 0.43200000000000038
vn 0 0 0.16800000000000104
vn 0.13199999999999967 0 0.43200000000000038
vn 0.088000000000000078 0 0.11999999999999922
vn 0.088000000000000078 0 0.11999999999999922
vn 0.13199999999999967 0 0.43200000000000038
vn 0.088000000000000078 0 0.11999999999999922
vn 0.22799999999999976 0 0.13499999999999979
vn 0.22799999999999976 0 0.13499999999999979
vn 0.088000000000000078 0 0.11999999999999922
vn 0.22799999999999976 0 0.13499999999999979
vn 0.32399999999999807 0 0.089999999999999858
vn 0.32399999999999807 0 0.089999999999999858
vn 0.22799999999999976 0 0.13499999999999979
vn 0.32399999999999807 0 0.089999999999999858
vn 0.41999999999999993 0 0.044999999999999929
vn 0.41999999999999993 0 0.044999999999999929
vn 0.32399999999999807 0 0.089999999999999858
vn 0.41999999999999993 0 0.044999999999999929
vn 0.34400000000000031 0 0
vn 0.34400000000000031 0 0
vn 0.41999999999999993 0 0.044999999999999929
vn 7.152 0 0
vn 7.152 0 0
vn 7.152 0 0
vn 7.152 0 0
vn 0 0 1.1039999999999992
vn 0 0 1.1039999999999992
vn 0 0 1.1039999999999992
vn 0 0 1.1039999999999992
vn -6.612 0 4.68
vn -6.612 0 4.68
vn -6.612 0 4.68
vn -6.612 0 4.68
vn 5.196 0 0
vn 5.196 0 0
vn 5.196 0 0
vn 5.196 0 0
vn 0.34400000000000008 0 0
vn 0.41999999999999993 0 -0.044999999999999929
vn 0.41999999999999993 0 -0.044999999999999929
vn 0.34400000000000008 0 0
vn 0.41999999999999993 0 -0.044999999999999929
vn 0.32400000000000007 0 -0.0900000000000003
vn 0.32400000000000007 0 -0.0900000000000003
vn 0.41999999999999993 0 -0.044999999999999929
vn 0.32400000000000007 0 -0.0900000000000003
vn 0.22800000000000009 0 -0.13500000000000023
vn 0.22800000000000009 0 -0.13500000000000023
vn 0.32400000000000007 0 -0.0900000000000003
vn 0.22800000000000009 0 -0.13500000000000023
vn 0.087999999999999967 0 -0.12000000000000011
vn 0.087999999999999967 0 -0.12000000000000011
vn 0.22800000000000009 0 -0.13500000000000023
vn 0.087999999999999967 0 -0.12000000000000011
vn 0.132 0 -0.43199999999999994
vn 0.132 0 -0.43199999999999994
vn 0.087999999999999967 0 -0.12000000000000011
vn 0.132 0 -0.43199999999999994
vn 0 0 -0.16799999999999971
vn 0 0 -0.16799999999999971
vn 0.132 0 -0.43199999999999994
vn 0 0 -0.50399999999999956
vn 0 0 -0.50399999999999956
vn 0 0 -0.50399999999999956
vn 0 0 -0.50399999999999956
vn 0.63600000000000034 0 0
vn 0.63600000000000034 0 0
vn 0.63600000000000034 0 0
vn 0.63600000000000034 0 0
vn 0 0 3.132
vn 0 0 3.132
vn 0 0 3.132
vn 0 0 3.132
vn -0.636 0 0
vn -0.636 0 0
vn -0.636 0 0
vn -0.636 0 0
vn 0 1 0
vn 0 1 0
vn 0 1 0
vn 0 1 0
vn 0 1 0
vn 0 1 0
vn 0 1 0
vn 0 1 0
vn 0 1 0
vn 0 1 0
vn 0 1 0
vn 0 1 0
vn 0 1 0
vn 0 1 0
vn 0 1 0
vn 0 1 0
vn 0 1 0
vn 0 1 0
vn 0 1 0
vn 0 1 0
vn 0 1 0
vn 0 1 0
vn 0 1 0
vn 0 1 0
vn 0 1 0
vn 0 1 0
vn 0 1 0
vn 0 1 0
vn 0 1 0
vn 0 1 0
vn 0 1 0
vn 0 1 0
vn 0 1 0
vn 0 1 0
vn 0 1 0
vn 0 1 0
vn 0 1 0
vn 0 1 0
vn 0 1 0
vn 0 1 0
vn 0 1 0
vn 0 1 0
vn 0 1 0
vn 0 1 0
vn 0 1 0
vn 0 1 0
vn 0 1 0
vn 0 1 0
vn 0 1 0
vn 0 1 0
vn 0 1 0
vn 0 1 0
vn 0 1 0
vn 0 1 0
vn 0 1 0
vn 0 1 0
vn 0 1 0
vn 0 1 0
vn 0 1 0
vn 0 1 0
vn 0 1 0
vn 0 1 0
vn 0 1 0
vn 0 1 0
vn 0 1 0
vn 0 1 0
vn 0 1 0
vn 0 1 0
vn 0 1 0
vn 0 1 0
vn 0 1 0
vn 0 1 0
vn 0 1 0
vn 0 1 0
vn 0 1 0
vn 0 1 0
vn 0 1 0
vn 0 1 0
vn 0 1 0
vn 0 1 0
vn 0 1 0
vn 0 1 0
vn 0 1 0
vn 0 1 0
vn 0 1 0
vn 0 1 0
vn 0 1 0
vn 0 1 0
vn 0 1 0
vn 0 1 0
vn 0 1 0
vn 0 1 0
vn 0 1 0
vn 0 1 0
vn 0 1 0
vn 0 1 0
vn 0 1 0
vn 0 1 0
vn 0 1 0
vn 0 1 0
vn 0 1 0
vn 0 1 0
vn 0 1 0
vn 0 1 0
vn 0 1 0
vn 0 1 0
vn 0 1 0
vn 0 1 0
vn 0 1 0
vn 0 1 0
vn 0 1 0
vn 0 1 0
vn 0 1 0
vn 0 1 0
vn 0 1 0
vn 0 1 0
vn 0 1 0
vn 0 1 0
vn 0 1 0
vn 0 1 0
vn 0 1 0
vn 0 1 0
vn 0 1 0
vn 0 1 0
vn 0 1 0
vn 0 1 0
vn 0 1 0
vn 0 1 0
vn 0 1 0
vn 0 1 0
vn 0 1 0
vn 0 1 0
vn 0 1 0
vn 0 1 0
vn 0 1 0
vn 0 1 0
vn 0 1 0
vn 0 1 0
vn 0 1 0
vn 0 1 0
vn 0 1 0
vn 0 1 0
vn 0 1 0
vn 0 1 0
vn 0 -1 0
vn 0 -1 0
vn 0 -1 0
vn 0 -1 0
vn 0 -1 0
vn 0 -1 0
vn 0 -1 0
vn 0 -1 0
vn 0 -1 0
vn 0 -1 0
vn 0 -1 0
vn 0 -1 0
vn 0 -1 0
vn 0 -1 0
vn 0 -1 0
vn 0 -1 0
vn 0 -1 0
vn 0 -1 0
vn 0 -1 0
vn 0 -1 0
vn 0 -1 0
vn 0 -1 0
vn 0 -1 0
vn 0 -1 0
vn 0 -1 0
vn 0 -1 0
vn 0 -1 0
vn 0 -1 0
vn 0 -1 0
vn 0 -1 0
vn 0 -1 0
vn 0 -1 0
vn 0 -1 0
vn 0 -1 0
vn 0 -1 0
vn 0 -1 0
vn 0 -1 0
vn 0 -1 0
vn 0 -1 0
vn 0 -1 0
vn 0 -1 0
vn 0 -1 0
vn 0 -1 0
vn 0 -1 0
vn 0 -1 0
vn 0 -1 0
vn 0 -1 0
vn 0 -1 0
vn 0 -1 0
vn 0 -1 0
vn 0 -1 0
vn 0 -1 0
vn 0 -1 0
vn 0 -1 0
vn 0 -1 0
vn 0 -1 0
vn 0 -1 0
vn 0 -1 0
vn 0 -1 0
vn 0 -1 0
vn 0 -1 0
vn 0 -1 0
vn 0 -1 0
vn 0 -1 0
vn 0 -1 0
vn 0 -1 0
vn 0 -1 0
vn 0 -1 0
vn 0 -1 0
vn 0 -1 0
vn 0 -1 0
vn 0 -1 0
vn 0 -1 0
vn 0 -1 0
vn 0 -1 0
vn 0 -1 0
vn 0 -1 0
vn 0 -1 0
vn 0 -1 0
vn 0 -1 0
vn 0 -1 0
vn 0 -1 0
vn 0 -1 0
vn 0 -1 0
vn 0 -1 0
vn 0 -1 0
vn 0 -1 0
vn 0 -1 0
vn 0 -1 0
vn 0 -1 0
vn 0 -1 0
vn 0 -1 0
vn 0 -1 0
vn 0 -1 0
vn 0 -1 0
vn 0 -1 0
vn 0 -1 0
vn 0 -1 0
vn 0 -1 0
vn 0 -1 0
vn 0 -1 0
vn 0 -1 0
vn 0 -1 0
vn 0 -1 0
vn 0 -1 0
vn 0 -1 0
vn 0 -1 0
vn 0 -1 0
vn 0 -1 0
vn 0 -1 0
vn 0 -1 0
vn 0 -1 0
vn 0 -1 0
vn 0 -1 0
vn 0 -1 0
vn 0 -1 0
vn 0 -1 0
vn 0 -1 0
vn 0 -1 0
vn 0 -1 0
vn 0 -1 0
vn 0 -1 0
vn 0 -1 0
vn 0 -1 0
vn 0 -1 0
vn 0 -1 0
vn 0 -1 0
vn 0 -1 0
vn 0 -1 0
vn 0 -1 0
vn 0 -1 0
vn 0 -1 0
vn 0 -1 0
vn 0 -1 0
vn 0 -1 0
vn 0 -1 0
vn 0 -1 0
vn 0 -1 0
vn 0 -1 0
vn 0 -1 0
vn 0 -1 0
vn 0 -1 0
vn 0 -1 0
vn 0 -1 0

g Îu
f 1//1 2//2 3//3 4//4
f 2//5 5//6 6//7 3//8
f 5//9 7//10 8//11 6//12
f 7//13 9//14 10//15 8//16
f 9//17 11//18 12//19 10//20
f 11//21 13//22 14//23 12//24
f 13//25 15//26 16//27 14//28
f 15//29 17//30 18//31 16//32
f 17//33 19//34 20//35 18//36
f 19//37 21//38 22//39 20//40
f 21//41 23//42 24//43 22//44
f 23//45 25//46 26//47 24//48
f 25//49 27//50 28//51 26//52
f 27//53 29//54 30//55 28//56
f 29//57 31//58 32//59 30//60
f 31//61 33//62 34//63 32//64
f 33//65 35//66 36//67 34//68
f 35//69 37//70 38//71 36//72
f 37//73 39//74 40//75 38//76
f 39//77 41//78 42//79 40//80
f 41//81 43//82 44//83 42//84
f 43//85 45//86 46//87 44//88
f 45//89 47//90 48//91 46//92
f 47//93 49//94 50//95 48//96
f 49//97 51//98 52//99 50//100
f 51//101 53//102 54//103 52//104
f 53//105 55//106 56//107 54//108
f 55//109 57//110 58//111 56//112
f 57//113 59//114 60//115 58//116
f 59//117 61//118 62//119 60//120
f 61//121 63//122 64//123 62//124
f 63//125 65//126 66//127 64//128
f 65//129 67//130 68//131 66//132
f 67//133 69//134 70//135 68//136
f 69//137 71//138 72//139 70//140
f 71//141 73//142 74//143 72//144
f 73//145 75//146 76//147 74//148
f 75//149 77//150 78//151 76//152
f 77//153 79//154 80//155 78//156
f 79//157 81//158 82//159 80//160
f 81//161 83//162 84//163 82//164
f 83//165 85//166 86//167 84//168
f 85//169 87//170 88//171 86//172
f 87//173 89//174 90//175 88//176
f 89//177 91//178 92//179 90//180
f 91//181 93//182 94//183 92//184
f 93//185 95//186 96//187 94//188
f 95//189 97//190 98//191 96//192
f 97//193 99//194 100//195 98//196
f 99//197 1//198 4//199 100//200
f 1//201 99//202 97//203
f 97//204 95//205 93//206
f 97//207 93//208 91//209
f 97//210 91//211 89//212
f 79//213 77//214 75//215
f 61//216 59//217 57//218
f 63//219 61//220 57//221
f 65//222 63//223 57//224
f 65//225 57//226 55//227
f 67//228 65//229 55//230
f 69//231 67//232 55//233
f 71//234 69//235 55//236
f 73//237 71//238 55//239
f 55//240 53//241 51//242
f 55//243 51//244 49//245
f 55//246 49//247 47//248
f 73//249 55//250 47//251
f 73//252 47//253 45//254
f 73//255 45//256 43//257
f 73//258 43//259 41//260
f 75//261 73//262 41//263
f 75//264 41//265 39//266
f 75//267 39//268 37//269
f 79//270 75//271 37//272
f 79//273 37//274 35//275
f 35//276 33//277 31//278
f 35//279 31//280 29//281
f 35//282 29//283 27//284
f 35//285 27//286 25//287
f 35//288 25//289 23//290
f 79//291 35//292 23//293
f 79//294 23//295 21//296
f 79//297 21//298 19//299
f 81//300 79//301 19//302
f 83//303 81//304 19//305
f 83//306 19//307 17//308
f 83//309 17//310 15//311
f 85//312 83//313 15//314
f 87//315 85//316 15//317
f 89//318 87//319 15//320
f 97//321 89//322 15//323
f 97//324 15//325 13//326
f 97//327 13//328 11//329
f 97//330 11//331 9//332
f 97//333 9//334 7//335
f 97//336 7//337 5//338
f 97//339 5//340 2//341
f 97//342 2//343 1//344
f 98//345 100//346 4//347
f 94//348 96//349 98//350
f 92//351 94//352 98//353
f 90//354 92//355 98//356
f 76//357 78//358 80//359
f 58//360 60//361 62//362
f 58//363 62//364 64//365
f 58//366 64//367 66//368
f 56//369 58//370 66//371
f 56//372 66//373 68//374
f 56//375 68//376 70//377
f 56//378 70//379 72//380
f 56//381 72//382 74//383
f 52//384 54//385 56//386
f 50//387 52//388 56//389
f 48//390 50//391 56//392
f 48//393 56//394 74//395
f 46//396 48//397 74//398
f 44//399 46//400 74//401
f 42//402 44//403 74//404
f 42//405 74//406 76//407
f 40//408 42//409 76//410
f 38//411 40//412 76//413
f 38//414 76//415 80//416
f 36//417 38//418 80//419
f 32//420 34//421 36//422
f 30//423 32//424 36//425
f 28//426 30//427 36//428
f 26//429 28//430 36//431
f 24//432 26//433 36//434
f 24//435 36//436 80//437
f 22//438 24//439 80//440
f 20//441 22//442 80//443
f 20//444 80//445 82//446
f 20//447 82//448 84//449
f 18//450 20//451 84//452
f 16//453 18//454 84//455
f 16//456 84//457 86//458
f 16//459 86//460 88//461
f 16//462 88//463 90//464
f 16//465 90//466 98//467
f 14//468 16//469 98//470
f 12//471 14//472 98//473
f 10//474 12//475 98//476
f 8//477 10//478 98//479
f 6//480 8//481 98//482
f 3//483 6//484 98//485
f 4//486 3//487 98//488