o Τu
v 1.848 2 -0.636
v 2.3520000000000003 2 -0.636
v 2.3520000000000003 0 -0.636
v 1.848 0 -0.636
v 2.5920000000000005 2 -0.66899999999999993
v 2.5920000000000005 0 -0.66899999999999993
v 2.6940000000000004 2 -0.71025
v 2.6940000000000004 0 -0.71025
v 2.7840000000000003 2 -0.768
v 2.7840000000000003 0 -0.768
v 2.86275 2 -0.85799999999999987
v 2.86275 0 -0.85799999999999987
v 2.9190000000000005 2 -0.996
v 2.9190000000000005 0 -0.996
v 2.95275 2 -1.182
v 2.95275 0 -1.182
v 2.9640000000000004 2 -1.416
v 2.9640000000000004 0 -1.416
v 2.9640000000000004 2 -7.836
v 2.9640000000000004 0 -7.836
v 2.0040000000000004 2 -7.836
v 2.0040000000000004 0 -7.836
v 1.7550000000000006 2 -7.8217500000000006
v 1.7550000000000006 0 -7.8217500000000006
v 1.5480000000000003 2 -7.779
v 1.5480000000000003 0 -7.779
v 1.3830000000000005 2 -7.7077500000000008
v 1.3830000000000005 0 -7.7077500000000008
v 1.2600000000000005 2 -7.6080000000000005
v 1.2600000000000005 0 -7.6080000000000005
v 1.1677500000000003 2 -7.4835000000000012
v 1.1677500000000003 0 -7.4835000000000012
v 1.0950000000000006 2 -7.338000000000001
v 1.0950000000000006 0 -7.338000000000001
v 1.0417500000000004 2 -7.1715
v 1.0417500000000004 0 -7.1715
v 1.0080000000000005 2 -6.9840000000000009
v 1.0080000000000005 0 -6.9840000000000009
v 0.924 2 -6.24
v 0.924 0 -6.24
v 0.12 2 -6.24
v 0.12 0 -6.24
v 0.18 2 -8.568
v 0.18 0 -8.568
v 7.656 2 -8.568
v 7.656 0 -8.568
v 7.7159999999999993 2 -6.24
v 7.7159999999999993 0 -6.24
v 6.912 2 -6.24
v 6.912 0 -6.24
v 6.828 2 -6.984
v 6.828 0 -6.984
v 6.7942500000000008 2 -7.1715
v 6.7942500000000008 0 -7.1715
v 6.7410000000000005 2 -7.338
v 6.7410000000000005 0 -7.338
v 6.6682500000000005 2 -7.4834999999999994
v 6.6682500000000005 0 -7.4834999999999994
v 6.576 2 -7.608
v 6.576 0 -7.608
v 6.453 2 -7.70775
v 6.453 0 -7.70775
v 6.288 2 -7.779
v 6.288 0 -7.779
v 6.0809999999999995 2 -7.82175
v 6.0809999999999995 0 -7.82175
v 5.832 2 -7.836
v 5.832 0 -7.836
v 4.872 2 -7.836
v 4.872 0 -7.836
v 4.872 2 -1.4160000000000004
v 4.872 0 -1.4160000000000004
v 4.8824999999999994 2 -1.1820000000000004
v 4.8824999999999994 0 -1.1820000000000004
v 4.914 2 -0.99600000000000044
v 4.914 0 -0.99600000000000044
v 4.9665 2 -0.85800000000000032
v 4.9665 0 -0.85800000000000032
v 5.04 2 -0.76800000000000035
v 5.04 0 -0.76800000000000035
v 5.2410000000000005 2 -0.66900000000000026
v 5.2410000000000005 0 -0.66900000000000026
v 5.484 2 -0.63600000000000034
v 5.484 0 -0.63600000000000034
v 5.988 2 -0.63600000000000034
v 5.988 0 -0.63600000000000034
v 5.988 2 0
v 5.988 0 0
v 1.848 2 0
v 1.848 0 0
vn 0 0 -0.50400000000000023
vn 0 0 -0.50400000000000023
vn 0 0 -0.50400000000000023
vn 0 0 -0.50400000000000023
vn 0 0 -0.17600000000000016
vn -0.074250000000000038 0 -0.34200000000000008
vn -0.074250000000000038 0 -0.34200000000000008
vn 0 0 -0.17600000000000016
vn -0.074250000000000038 0 -0.34200000000000008
vn -0.099000000000000088 0 -0.19199999999999973
vn -0.099000000000000088 0 -0.19199999999999973
vn -0.074250000000000038 0 -0.34200000000000008
vn -0.099000000000000088 0 -0.19199999999999973
vn -0.087999999999999967 0 -0.11199999999999966
vn -0.087999999999999967 0 -0.11199999999999966
vn -0.099000000000000088 0 -0.19199999999999973
vn -0.087999999999999967 0 -0.12000000000000011
vn -0.22799999999999998 0 -0.13500000000000023
vn -0.22799999999999998 0 -0.13500000000000023
vn -0.087999999999999967 0 -0.12000000000000011
vn -0.22799999999999998 0 -0.13500000000000023
vn -0.32400000000000007 0 -0.089999999999999858
vn -0.32400000000000007 0 -0.089999999999999858
vn -0.22799999999999998 0 -0.13500000000000023
vn -0.32400000000000007 0 -0.089999999999999858
vn -0.41999999999999993 0 -0.044999999999999929
vn -0.41999999999999993 0 -0.044999999999999929
vn -0.32400000000000007 0 -0.089999999999999858
vn -0.41999999999999993 0 -0.044999999999999929
vn -0.34399999999999986 0 0
vn -0.34399999999999986 0 0
vn -0.41999999999999993 0 -0.044999999999999929
vn -6.42 0 0
vn -6.42 0 0
vn -6.42 0 0
vn -6.42 0 0
vn 0 0 0.96
vn 0 0 0.96
vn 0 0 0.96
vn 0 0 0.96
vn 0 0 0.3600000000000001
vn 0.057000000000000384 0 0.45600000000000018
vn 0.057000000000000384 0 0.45600000000000018
vn 0 0 0.3600000000000001
vn 0.057000000000000384 0 0.45600000000000018
vn 0.11399999999999988 0 0.37200000000000011
vn 0.11399999999999988 0 0.37200000000000011
vn 0.057000000000000384 0 0.45600000000000018
vn 0.11399999999999988 0 0.37200000000000011
vn 0.17099999999999938 0 0.28799999999999981
vn 0.17099999999999938 0 0.28799999999999981
vn 0.11399999999999988 0 0.37200000000000011
vn 0.17099999999999938 0 0.28799999999999981
vn 0.15200000000000014 0 0.1359999999999999
vn 0.15200000000000014 0 0.1359999999999999
vn 0.17099999999999938 0 0.28799999999999981
vn 0.15200000000000014 0 0.1359999999999999
vn 0.26999999999999957 0 0.16499999999999981
vn 0.26999999999999957 0 0.16499999999999981
vn 0.15200000000000014 0 0.1359999999999999
vn 0.26999999999999957 0 0.16499999999999981
vn 0.31200000000000117 0 0.12599999999999989
vn 0.31200000000000117 0 0.12599999999999989
vn 0.26999999999999957 0 0.16499999999999981
vn 0.31200000000000117 0 0.12599999999999989
vn 0.35400000000000009 0 0.087000000000000188
vn 0.35400000000000009 0 0.087000000000000188
vn 0.31200000000000117 0 0.12599999999999989
vn 0.35400000000000009 0 0.087000000000000188
vn 0.26400000000000023 0 0.032000000000000028
vn 0.26400000000000023 0 0.032000000000000028
vn 0.35400000000000009 0 0.087000000000000188
vn 0.74400000000000066 0 0.084000000000000408
vn 0.74400000000000066 0 0.084000000000000408
vn 0.74400000000000066 0 0.084000000000000408
vn 0.74400000000000066 0 0.084000000000000408
vn 0 0 0.804
vn 0 0 0.804
vn 0 0 0.804
vn 0 0 0.804
vn -2.3279999999999994 0 -0.06
vn -2.3279999999999994 0 -0.06
vn -2.3279999999999994 0 -0.06
vn -2.3279999999999994 0 -0.06
vn 0 0 -7.476
vn 0 0 -7.476
vn 0 0 -7.476
vn 0 0 -7.476
vn 2.3279999999999994 0 -0.059999999999999609
vn 2.3279999999999994 0 -0.059999999999999609
vn 2.3279999999999994 0 -0.059999999999999609
vn 2.3279999999999994 0 -0.059999999999999609
vn 0 0 0.80399999999999938
vn 0 0 0.80399999999999938
vn 0 0 0.80399999999999938
vn 0 0 0.80399999999999938
vn -0.74399999999999977 0 0.083999999999999631
vn -0.74399999999999977 0 0.083999999999999631
vn -0.74399999999999977 0 0.083999999999999631
vn -0.74399999999999977 0 0.083999999999999631
vn -0.26400000000000023 0 0.032000000000000028
vn -0.35400000000000009 0 0.086999999999999744
vn -0.35400000000000009 0 0.086999999999999744
vn -0.26400000000000023 0 0.032000000000000028
vn -0.35400000000000009 0 0.086999999999999744
vn -0.31199999999999939 0 0.12600000000000033
vn -0.31199999999999939 0 0.12600000000000033
vn -0.35400000000000009 0 0.086999999999999744
vn -0.31199999999999939 0 0.12600000000000033
vn -0.26999999999999957 0 0.16500000000000092
vn -0.26999999999999957 0 0.16500000000000092
vn -0.31199999999999939 0 0.12600000000000033
vn -0.26999999999999957 0 0.16500000000000092
vn -0.15200000000000014 0 0.13600000000000012
vn -0.15200000000000014 0 0.13600000000000012
vn -0.26999999999999957 0 0.16500000000000092
vn -0.15200000000000014 0 0.13600000000000012
vn -0.17100000000000026 0 0.28799999999999937
vn -0.17100000000000026 0 0.28799999999999937
vn -0.15200000000000014 0 0.13600000000000012
vn -0.17100000000000026 0 0.28799999999999937
vn -0.11399999999999988 0 0.37200000000000077
vn -0.11399999999999988 0 0.37200000000000077
vn -0.17100000000000026 0 0.28799999999999937
vn -0.11399999999999988 0 0.37200000000000077
vn -0.057000000000000384 0 0.4560000000000004
vn -0.057000000000000384 0 0.4560000000000004
vn -0.11399999999999988 0 0.37200000000000077
vn -0.057000000000000384 0 0.4560000000000004
vn 0 0 0.36000000000000032
vn 0 0 0.36000000000000032
vn -0.057000000000000384 0 0.4560000000000004
vn 0 0 0.96
vn 0 0 0.96
vn 0 0 0.96
vn 0 0 0.96
vn 6.42 0 0
vn 6.42 0 0
vn 6.42 0 0
vn 6.42 0 0
vn 0.34400000000000008 0 0
vn 0.41999999999999993 0 -0.041999999999999815
vn 0.41999999999999993 0 -0.041999999999999815
vn 0.34400000000000008 0 0
vn 0.41999999999999993 0 -0.041999999999999815
vn 0.32400000000000007 0 -0.084000000000000519
vn 0.32400000000000007 0 -0.084000000000000519
vn 0.41999999999999993 0 -0.041999999999999815
vn 0.32400000000000007 0 -0.084000000000000519
vn 0.22800000000000009 0 -0.12600000000000033
vn 0.22800000000000009 0 -0.12600000000000033
vn 0.32400000000000007 0 -0.084000000000000519
vn 0.22800000000000009 0 -0.12600000000000033
vn 0.087999999999999967 0 -0.1120000000000001
vn 0.087999999999999967 0 -0.1120000000000001
vn 0.22800000000000009 0 -0.12600000000000033
vn 0.087999999999999967 0 -0.12000000000000011
vn 0.132 0 -0.44399999999999995
vn 0.132 0 -0.44399999999999995
vn 0.087999999999999967 0 -0.12000000000000011
vn 0.132 0 -0.44399999999999995
vn 0 0 -0.17600000000000016
vn 0 0 -0.17600000000000016
vn 0.132 0 -0.44399999999999995
vn 0 0 -0.50400000000000045
vn 0 0 -0.50400000000000045
vn 0 0 -0.50400000000000045
vn 0 0 -0.50400000000000045
vn 0.63600000000000034 0 0
vn 0.63600000000000034 0 0
vn 0.63600000000000034 0 0
vn 0.63600000000000034 0 0
vn 0 0 4.1400000000000006
vn 0 0 4.1400000000000006
vn 0 0 4.1400000000000006
vn 0 0 4.1400000000000006
vn -0.636 0 0
vn -0.636 0 0
vn -0.636 0 0
vn -0.636 0 0
vn 0 1 0
vn 0 1 0
vn 0 1 0
vn 0 1 0
vn 0 1 0
vn 0 1 0
vn 0 1 0
vn 0 1 0
vn 0 1 0
vn 0 1 0
vn 0 1 0
vn 0 1 0
vn 0 1 0
vn 0 1 0
vn 0 1 0
vn 0 1 0
vn 0 1 0
vn 0 1 0
vn 0 1 0
vn 0 1 0
vn 0 1 0
vn 0 1 0
vn 0 1 0
vn 0 1 0
vn 0 1 0
vn 0 1 0
vn 0 1 0
vn 0 1 0
vn 0 1 0
vn 0 1 0
vn 0 1 0
vn 0 1 0
vn 0 1 0
vn 0 1 0
vn 0 1 0
vn 0 1 0
vn 0 1 0
vn 0 1 0
vn 0 1 0
vn 0 1 0
vn 0 1 0
vn 0 1 0
vn 0 1 0
vn 0 1 0
vn 0 1 0
vn 0 1 0
vn 0 1 0
vn 0 1 0
vn 0 1 0
vn 0 1 0
vn 0 1 0
vn 0 1 0
vn 0 1 0
vn 0 1 0
vn 0 1 0
vn 0 1 0
vn 0 1 0
vn 0 1 0
vn 0 1 0
vn 0 1 0
vn 0 1 0
vn 0 1 0
vn 0 1 0
vn 0 1 0
vn 0 1 0
vn 0 1 0
vn 0 1 0
vn 0 1 0
vn 0 1 0
vn 0 1 0
vn 0 1 0
vn 0 1 0
vn 0 1 0
vn 0 1 0
vn 0 1 0
vn 0 1 0
vn 0 1 0
vn 0 1 0
vn 0 1 0
vn 0 1 0
vn 0 1 0
vn 0 1 0
vn 0 1 0
vn 0 1 0
vn 0 1 0
vn 0 1 0
vn 0 1 0
vn 0 1 0
vn 0 1 0
vn 0 1 0
vn 0 1 0
vn 0 1 0
vn 0 1 0
vn 0 1 0
vn 0 1 0
vn 0 1 0
vn 0 1 0
vn 0 1 0
vn 0 1 0
vn 0 1 0
vn 0 1 0
vn 0 1 0
vn 0 1 0
vn 0 1 0
vn 0 1 0
vn 0 1 0
vn 0 1 0
vn 0 1 0
vn 0 1 0
vn 0 1 0
vn 0 1 0
vn 0 1 0
vn 0 1 0
vn 0 1 0
vn 0 1 0
vn 0 1 0
vn 0 1 0
vn 0 1 0
vn 0 1 0
vn 0 1 0
vn 0 1 0
vn 0 1 0
vn 0 1 0
vn 0 1 0
vn 0 1 0
vn 0 1 0
vn 0 1 0
vn 0 1 0
vn 0 1 0
vn 0 -1 0
vn 0 -1 0
vn 0 -1 0
vn 0 -1 0
vn 0 -1 0
vn 0 -1 0
vn 0 -1 0
vn 0 -1 0
vn 0 -1 0
vn 0 -1 0
vn 0 -1 0
vn 0 -1 0
vn 0 -1 0
vn 0 -1 0
vn 0 -1 0
vn 0 -1 0
vn 0 -1 0
vn 0 -1 0
vn 0 -1 0
vn 0 -1 0
vn 0 -1 0
vn 0 -1 0
vn 0 -1 0
vn 0 -1 0
vn 0 -1 0
vn 0 -1 0
vn 0 -1 0
vn 0 -1 0
vn 0 -1 0
vn 0 -1 0
vn 0 -1 0
vn 0 -1 0
vn 0 -1 0
vn 0 -1 0
vn 0 -1 0
vn 0 -1 0
vn 0 -1 0
vn 0 -1 0
vn 0 -1 0
vn 0 -1 0
vn 0 -1 0
vn 0 -1 0
vn 0 -1 0
vn 0 -1 0
vn 0 -1 0
vn 0 -1 0
vn 0 -1 0
vn 0 -1 0
vn 0 -1 0
vn 0 -1 0
vn 0 -1 0
vn 0 -1 0
vn 0 -1 0
vn 0 -1 0
vn 0 -1 0
vn 0 -1 0
vn 0 -1 0
vn 0 -1 0
vn 0 -1 0
vn 0 -1 0
vn 0 -1 0
vn 0 -1 0
vn 0 -1 0
vn 0 -1 0
vn 0 -1 0
vn 0 -1 0
vn 0 -1 0
vn 0 -1 0
vn 0 -1 0
vn 0 -1 0
vn 0 -1 0
vn 0 -1 0
vn 0 -1 0
vn 0 -1 0
vn 0 -1 0
vn 0 -1 0
vn 0 -1 0
vn 0 -1 0
vn 0 -1 0
vn 0 -1 0
vn 0 -1 0
vn 0 -1 0
vn 0 -1 0
vn 0 -1 0
vn 0 -1 0
vn 0 -1 0
vn 0 -1 0
vn 0 -1 0
vn 0 -1 0
vn 0 -1 0
vn 0 -1 0
vn 0 -1 0
vn 0 -1 0
vn 0 -1 0
vn 0 -1 0
vn 0 -1 0
vn 0 -1 0
vn 0 -1 0
vn 0 -1 0
vn 0 -1 0
vn 0 -1 0
vn 0 -1 0
vn 0 -1 0
vn 0 -1 0
vn 0 -1 0
vn 0 -1 0
vn 0 -1 0
vn 0 -1 0
vn 0 -1 0
vn 0 -1 0
vn 0 -1 0
vn 0 -1 0
vn 0 -1 0
vn 0 -1 0
vn 0 -1 0
vn 0 -1 0
vn 0 -1 0
vn 0 -1 0
vn 0 -1 0
vn 0 -1 0
vn 0 -1 0
vn 0 -1 0
vn 0 -1 0
vn 0 -1 0
vn 0 -1 0
vn 0 -1 0
vn 0 -1 0
vn 0 -1 0
vn 0 -1 0

g Τu
f 1//1 2//2 3//3 4//4
f 2//5 5//6 6//7 3//8
f 5//9 7//10 8//11 6//12
f 7//13 9//14 10//15 8//16
f 9//17 11//18 12//19 10//20
f 11//21 13//22 14//23 12//24
f 13//25 15//26 16//27 14//28
f 15//29 17//30 18//31 16//32
f 17//33 19//34 20//35 18//36
f 19//37 21//38 22//39 20//40
f 21//41 23//42 24//43 22//44
f 23//45 25//46 26//47 24//48
f 25//49 27//50 28//51 26//52
f 27//53 29//54 30//55 28//56
f 29//57 31//58 32//59 30//60
f 31//61 33//62 34//63 32//64
f 33//65 35//66 36//67 34//68
f 35//69 37//70 38//71 36//72
f 37//73 39//74 40//75 38//76
f 39//77 41//78 42//79 40//80
f 41//81 43//82 44//83 42//84
f 43//85 45//86 46//87 44//88
f 45//89 47//90 48//91 46//92
f 47//93 49//94 50//95 48//96
f 49//97 51//98 52//99 50//100
f 51//101 53//102 54//103 52//104
f 53//105 55//106 56//107 54//108
f 55//109 57//110 58//111 56//112
f 57//113 59//114 60//115 58//116
f 59//117 61//118 62//119 60//120
f 61//121 63//122 64//123 62//124
f 63//125 65//126 66//127 64//128
f 65//129 67//130 68//131 66//132
f 67//133 69//134 70//135 68//136
f 69//137 71//138 72//139 70//140
f 71//141 73//142 74//143 72//144
f 73//145 75//146 76//147 74//148
f 75//149 77//150 78//151 76//152
f 77//153 79//154 80//155 78//156
f 79//157 81//158 82//159 80//160
f 81//161 83//162 84//163 82//164
f 83//165 85//166 86//167 84//168
f 85//169 87//170 88//171 86//172
f 87//173 89//174 90//175 88//176
f 89//177 1//178 4//179 90//180
f 1//181 89//182 87//183
f 87//184 85//185 83//186
f 87//187 83//188 81//189
f 87//190 81//191 79//192
f 51//193 49//194 47//195
f 53//196 51//197 47//198
f 55//199 53//200 47//201
f 57//202 55//203 47//204
f 59//205 57//206 47//207
f 59//208 47//209 45//210
f 61//211 59//212 45//213
f 63//214 61//215 45//216
f 65//217 63//218 45//219
f 67//220 65//221 45//222
f 69//223 67//224 45//225
f 69//226 45//227 43//228
f 43//229 41//230 39//231
f 43//232 39//233 37//234
f 43//235 37//236 35//237
f 43//238 35//239 33//240
f 43//241 33//242 31//243
f 43//244 31//245 29//246
f 43//247 29//248 27//249
f 43//250 27//251 25//252
f 43//253 25//254 23//255
f 43//256 23//257 21//258
f 69//259 43//260 21//261
f 2//262 1//263 87//264
f 2//265 87//266 79//267
f 2//268 79//269 77//270
f 5//271 2//272 77//273
f 5//274 77//275 75//276
f 5//277 75//278 73//279
f 5//280 73//281 71//282
f 7//283 5//284 71//285
f 9//286 7//287 71//288
f 11//289 9//290 71//291
f 13//292 11//293 71//294
f 13//295 71//296 69//297
f 15//298 13//299 69//300
f 17//301 15//302 69//303
f 19//304 17//305 69//306
f 69//307 21//308 19//309
f 88//310 90//311 4//312
f 84//313 86//314 88//315
f 82//316 84//317 88//318
f 80//319 82//320 88//321
f 48//322 50//323 52//324
f 48//325 52//326 54//327
f 48//328 54//329 56//330
f 48//331 56//332 58//333
f 48//334 58//335 60//336
f 46//337 48//338 60//339
f 46//340 60//341 62//342
f 46//343 62//344 64//345
f 46//346 64//347 66//348
f 46//349 66//350 68//351
f 46//352 68//353 70//354
f 44//355 46//356 70//357
f 40//358 42//359 44//360
f 38//361 40//362 44//363
f 36//364 38//365 44//366
f 34//367 36//368 44//369
f 32//370 34//371 44//372
f 30//373 32//374 44//375
f 28//376 30//377 44//378
f 26//379 28//380 44//381
f 24//382 26//383 44//384
f 22//385 24//386 44//387
f 22//388 44//389 70//390
f 88//391 4//392 3//393
f 80//394 88//395 3//396
f 78//397 80//398 3//399
f 78//400 3//401 6//402
f 76//403 78//404 6//405
f 74//406 76//407 6//408
f 72//409 74//410 6//411
f 72//412 6//413 8//414
f 72//415 8//416 10//417
f 72//418 10//419 12//420
f 72//421 12//422 14//423
f 70//424 72//425 14//426
f 70//427 14//428 16//429
f 70//430 16//431 18//432
f 70//433 18//434 20//435
f 20//436 22//437 70//438